M48
;Layer_Color=9474304
;FILE_FORMAT=4:3
METRIC,LZ
;TYPE=PLATED
T01F00S00C0.300
T02F00S00C1.000
T03F00S00C1.020
T04F00S00C1.100
%
T01
X00694Y00098
X0072Y00158
X00699Y00187
X00726Y00215
X00715Y00243
X00742Y00244
X00761Y0026
X00764Y00295
X0076136Y0032935
X00725Y00319
X00746Y00364
X00778Y00365
X00831Y0036
X00827Y00424
X00805Y00435
X00778Y00424
X0072Y0044
X00704Y00406
X00699Y00263
X00806Y00265
X00805Y00215
X00826Y00195
Y0014
X00795Y00134
X00821Y00098
X01055Y00315
X00642Y00217
X00543Y00165
X0054Y00108
X00481Y00173
X00411Y00148
X00381Y00275
X00296Y00225
X00527Y00482
X00276Y0047
X00278Y00333
X00246Y0031
X00146Y00345
X00176Y0043
X00211Y00155
X0022Y00534
X0025Y00585
X00233Y00644
X0029Y0063
X00251Y00725
X0017Y00712
X00156Y0049
X00349Y00567
X00341Y0071
X00431Y00495
X00636Y0052
X00602Y00572
X00686Y0061
X00741Y0059
X00781Y0058
X00803Y00585
X00825Y00581
X00823Y00527
X00816Y0049
X00748Y00525
X00791Y00673
X00848Y0074
X00871Y00735
X00864Y00775
X00921Y0074
X00929Y0082
X01055Y0067
T02
X005865Y001125
X006315
Y001775
X005865
X0027295Y0020875
X0024755
X0022215
X0019675
Y0028495
X0022215
X0024755
X0027295
T03
X00432Y00284
X004574
X004828
X005082
X005336
X00559
X005844
X006098
X006414Y003156
Y00341
Y003664
Y003918
Y004172
Y004426
Y00468
X004004
Y004426
Y004172
Y003918
Y003664
Y00341
Y003156
Y004934
X00432Y00525
X004574
X004828
X005082
X005336
X00559
X005844
X006098
X006414Y004934
T04
X00877Y001726
X009024
Y00198
Y002234
X00877
Y002488
X009024
X00877Y00198
X010383Y001984
X010637
Y002238
Y002492
X010383
Y002238
Y00173
X010637
Y00383
X010383
Y004084
Y004338
Y004592
X010637
Y004338
Y004084
X00902Y004084
Y00383
X008766
Y004084
Y004338
X00902
Y004592
X008766
X001644Y00553
X00139
Y005784
Y006038
X001644
Y005784
Y006292
X00139
X003174Y00786
X003428
X003682
X003936
X00419
Y008114
X004444
X004698
X004952
X005206
X00546
X005714
X005968
Y00786
X005714
X00546
X005206
X004952
X004698
X004444
X003936Y008114
X003682
X003428
X003174
X006222
Y00786
X006476
X00673
Y008114
X006476
X006984
X007238
X007492
Y00786
X007238
X006984
X007746
X008
Y008114
X007746
X008766Y006692
Y006438
Y006184
Y00593
X00902
Y006184
Y006438
Y006692
X010383Y007419
Y007673
X010637
Y007927
Y008181
X010383
Y007927
X010637Y007419
M30
