G04*
G04 #@! TF.GenerationSoftware,Altium Limited,Altium Designer,26.3.0 (6)*
G04*
G04 Layer_Color=255*
%FSLAX44Y44*%
%MOMM*%
G71*
G04*
G04 #@! TF.SameCoordinates,3AE4C094-AD7F-4364-BC74-3D09489D296B*
G04*
G04*
G04 #@! TF.FilePolarity,Positive*
G04*
G01*
G75*
%ADD17R,0.7000X1.0000*%
%ADD18R,0.7000X0.6000*%
%ADD19R,0.4500X1.0000*%
%ADD20R,1.0000X0.4500*%
%ADD21R,0.8500X0.4000*%
%ADD22R,0.9000X0.7500*%
%ADD23R,0.7581X0.8121*%
%ADD24R,0.8500X1.0000*%
%ADD25R,0.9000X0.8500*%
%ADD26R,1.6000X1.4000*%
G04:AMPARAMS|DCode=27|XSize=1.1603mm|YSize=0.2368mm|CornerRadius=0.1184mm|HoleSize=0mm|Usage=FLASHONLY|Rotation=180.000|XOffset=0mm|YOffset=0mm|HoleType=Round|Shape=RoundedRectangle|*
%AMROUNDEDRECTD27*
21,1,1.1603,0.0000,0,0,180.0*
21,1,0.9235,0.2368,0,0,180.0*
1,1,0.2368,-0.4618,0.0000*
1,1,0.2368,0.4618,0.0000*
1,1,0.2368,0.4618,0.0000*
1,1,0.2368,-0.4618,0.0000*
%
%ADD27ROUNDEDRECTD27*%
%ADD28R,1.1603X0.2368*%
G04:AMPARAMS|DCode=29|XSize=1.1603mm|YSize=0.2368mm|CornerRadius=0.1184mm|HoleSize=0mm|Usage=FLASHONLY|Rotation=270.000|XOffset=0mm|YOffset=0mm|HoleType=Round|Shape=RoundedRectangle|*
%AMROUNDEDRECTD29*
21,1,1.1603,0.0000,0,0,270.0*
21,1,0.9235,0.2368,0,0,270.0*
1,1,0.2368,0.0000,-0.4618*
1,1,0.2368,0.0000,0.4618*
1,1,0.2368,0.0000,0.4618*
1,1,0.2368,0.0000,-0.4618*
%
%ADD29ROUNDEDRECTD29*%
%ADD30R,0.2368X1.1603*%
%ADD31R,1.0000X0.8500*%
%ADD32R,0.9500X1.4500*%
%ADD33R,0.6900X0.9900*%
%ADD34R,1.1500X0.3500*%
G04:AMPARAMS|DCode=35|XSize=0.45mm|YSize=1.05mm|CornerRadius=0.0495mm|HoleSize=0mm|Usage=FLASHONLY|Rotation=90.000|XOffset=0mm|YOffset=0mm|HoleType=Round|Shape=RoundedRectangle|*
%AMROUNDEDRECTD35*
21,1,0.4500,0.9510,0,0,90.0*
21,1,0.3510,1.0500,0,0,90.0*
1,1,0.0990,0.4755,0.1755*
1,1,0.0990,0.4755,-0.1755*
1,1,0.0990,-0.4755,-0.1755*
1,1,0.0990,-0.4755,0.1755*
%
%ADD35ROUNDEDRECTD35*%
%ADD36R,1.2000X1.0000*%
%ADD37R,0.8500X0.9000*%
%ADD39C,1.6000*%
G04:AMPARAMS|DCode=40|XSize=1.6mm|YSize=1.6mm|CornerRadius=0.4mm|HoleSize=0mm|Usage=FLASHONLY|Rotation=0.000|XOffset=0mm|YOffset=0mm|HoleType=Round|Shape=RoundedRectangle|*
%AMROUNDEDRECTD40*
21,1,1.6000,0.8000,0,0,0.0*
21,1,0.8000,1.6000,0,0,0.0*
1,1,0.8000,0.4000,-0.4000*
1,1,0.8000,-0.4000,-0.4000*
1,1,0.8000,-0.4000,0.4000*
1,1,0.8000,0.4000,0.4000*
%
%ADD40ROUNDEDRECTD40*%
%ADD43C,1.5500*%
%ADD44R,1.5500X1.5500*%
G04:AMPARAMS|DCode=45|XSize=1.6mm|YSize=1.6mm|CornerRadius=0.4mm|HoleSize=0mm|Usage=FLASHONLY|Rotation=270.000|XOffset=0mm|YOffset=0mm|HoleType=Round|Shape=RoundedRectangle|*
%AMROUNDEDRECTD45*
21,1,1.6000,0.8000,0,0,270.0*
21,1,0.8000,1.6000,0,0,270.0*
1,1,0.8000,-0.4000,-0.4000*
1,1,0.8000,-0.4000,0.4000*
1,1,0.8000,0.4000,0.4000*
1,1,0.8000,0.4000,-0.4000*
%
%ADD45ROUNDEDRECTD45*%
%ADD54C,1.8000*%
%ADD55R,1.8000X1.8000*%
%ADD56R,1.9000X1.9000*%
%ADD57C,1.9000*%
%ADD58R,1.8000X1.8000*%
D17*
X513500Y145500D02*
D03*
D18*
Y128500D02*
D03*
X533500D02*
D03*
Y147500D02*
D03*
D19*
X799000Y552500D02*
D03*
X805500D02*
D03*
X792500D02*
D03*
X805500Y533500D02*
D03*
X792500D02*
D03*
X799000D02*
D03*
X729500Y548500D02*
D03*
X742500D02*
D03*
Y567500D02*
D03*
X729500D02*
D03*
X736000D02*
D03*
Y548500D02*
D03*
X755500Y100500D02*
D03*
X768500D02*
D03*
X755500Y119500D02*
D03*
X768500D02*
D03*
X762000Y100500D02*
D03*
Y119500D02*
D03*
X886750Y755500D02*
D03*
X880250D02*
D03*
X893250D02*
D03*
Y774500D02*
D03*
X880250D02*
D03*
X886750D02*
D03*
X922500Y773500D02*
D03*
X935500D02*
D03*
Y792500D02*
D03*
X922500D02*
D03*
X929000D02*
D03*
Y773500D02*
D03*
X709500Y115000D02*
D03*
X716000Y134000D02*
D03*
X703000D02*
D03*
X716000Y115000D02*
D03*
X703000D02*
D03*
X709500Y134000D02*
D03*
D20*
X454000Y128500D02*
D03*
Y141500D02*
D03*
X473000D02*
D03*
Y128500D02*
D03*
X454000Y135000D02*
D03*
X473000D02*
D03*
D21*
X279500Y661500D02*
D03*
X260500D02*
D03*
Y674500D02*
D03*
X279500D02*
D03*
X260500Y668000D02*
D03*
D22*
X287000Y546750D02*
D03*
Y559250D02*
D03*
X301000Y661750D02*
D03*
Y674250D02*
D03*
D23*
X809270Y656000D02*
D03*
X796730D02*
D03*
X773270D02*
D03*
X760730D02*
D03*
X598270D02*
D03*
X585730D02*
D03*
X704270D02*
D03*
X691730D02*
D03*
X739270D02*
D03*
X726730D02*
D03*
X634270D02*
D03*
X621730D02*
D03*
X564270D02*
D03*
X551730D02*
D03*
X669270D02*
D03*
X656730D02*
D03*
D24*
X375750Y468000D02*
D03*
X362250D02*
D03*
X375750Y442000D02*
D03*
X362250D02*
D03*
D25*
X219978Y563263D02*
D03*
Y550263D02*
D03*
X196994Y447494D02*
D03*
Y434494D02*
D03*
X287000Y580500D02*
D03*
Y593500D02*
D03*
X233000Y673500D02*
D03*
Y660500D02*
D03*
D26*
X564000Y693000D02*
D03*
Y723000D02*
D03*
X809000Y693000D02*
D03*
Y723000D02*
D03*
X634000Y693000D02*
D03*
Y723000D02*
D03*
X599000Y693000D02*
D03*
Y723000D02*
D03*
X704000Y693000D02*
D03*
Y723000D02*
D03*
X739000Y693000D02*
D03*
Y723000D02*
D03*
X669000Y693000D02*
D03*
Y723000D02*
D03*
X774000Y693000D02*
D03*
Y723000D02*
D03*
D27*
X714241Y283500D02*
D03*
X741759Y293500D02*
D03*
X714241D02*
D03*
Y278500D02*
D03*
X741759Y288500D02*
D03*
X714241D02*
D03*
X741759Y283500D02*
D03*
X761241Y195500D02*
D03*
X788759Y205500D02*
D03*
X761241D02*
D03*
Y190500D02*
D03*
Y200500D02*
D03*
X788759D02*
D03*
Y195500D02*
D03*
D28*
X741759Y278500D02*
D03*
X788759Y190500D02*
D03*
D29*
X788500Y451241D02*
D03*
X778500Y478759D02*
D03*
Y451241D02*
D03*
X793500D02*
D03*
X783500Y478759D02*
D03*
Y451241D02*
D03*
X788500Y478759D02*
D03*
X815500Y380241D02*
D03*
X800500Y407759D02*
D03*
Y380241D02*
D03*
X810500D02*
D03*
X805500D02*
D03*
Y407759D02*
D03*
X810500D02*
D03*
D30*
X793500Y478759D02*
D03*
X815500Y407759D02*
D03*
D31*
X534000Y255750D02*
D03*
Y242250D02*
D03*
X559000Y556250D02*
D03*
Y569750D02*
D03*
X483000Y255750D02*
D03*
Y242250D02*
D03*
X504000Y555250D02*
D03*
Y568750D02*
D03*
X162000Y747750D02*
D03*
Y734250D02*
D03*
X276000Y447750D02*
D03*
Y434250D02*
D03*
X671000Y468250D02*
D03*
Y481750D02*
D03*
Y340750D02*
D03*
Y327250D02*
D03*
X584000Y556250D02*
D03*
Y569750D02*
D03*
X376000Y391750D02*
D03*
Y378250D02*
D03*
D32*
X223750Y811000D02*
D03*
X204250D02*
D03*
D33*
X162500Y810950D02*
D03*
Y785050D02*
D03*
X153000Y810950D02*
D03*
Y785050D02*
D03*
X143500Y810950D02*
D03*
Y785050D02*
D03*
D34*
X265993Y546224D02*
D03*
X245493D02*
D03*
Y559224D02*
D03*
X265993D02*
D03*
X245493Y552724D02*
D03*
D35*
X221750Y441000D02*
D03*
Y447500D02*
D03*
Y434500D02*
D03*
X246250D02*
D03*
Y447500D02*
D03*
D36*
X222700Y748250D02*
D03*
X197300Y731750D02*
D03*
Y748250D02*
D03*
X222700Y731750D02*
D03*
D37*
X281500Y698000D02*
D03*
X294500D02*
D03*
X246500Y475000D02*
D03*
X259500D02*
D03*
D39*
X393600Y786000D02*
D03*
X368200D02*
D03*
X419000Y811400D02*
D03*
X444400D02*
D03*
X342800Y786000D02*
D03*
X469800Y811400D02*
D03*
X495200D02*
D03*
X520600D02*
D03*
X546000D02*
D03*
X571400D02*
D03*
X596800D02*
D03*
X444400Y786000D02*
D03*
X419000D02*
D03*
X749200Y811400D02*
D03*
X723800D02*
D03*
X571400Y786000D02*
D03*
X546000D02*
D03*
X520600D02*
D03*
X495200D02*
D03*
X317400Y811400D02*
D03*
X342800D02*
D03*
X368200D02*
D03*
X393600D02*
D03*
X469800Y786000D02*
D03*
X596800D02*
D03*
X622200D02*
D03*
X647600D02*
D03*
X673000D02*
D03*
X698400D02*
D03*
X622200Y811400D02*
D03*
X647600D02*
D03*
X673000D02*
D03*
X698400D02*
D03*
X723800Y786000D02*
D03*
X749200D02*
D03*
X774600D02*
D03*
X800000D02*
D03*
X774600Y811400D02*
D03*
X800000D02*
D03*
X164400Y603800D02*
D03*
X139000Y553000D02*
D03*
Y603800D02*
D03*
Y578400D02*
D03*
X164400Y553000D02*
D03*
Y578400D02*
D03*
Y629200D02*
D03*
X1063700Y223800D02*
D03*
Y198400D02*
D03*
Y249200D02*
D03*
X1038300Y223800D02*
D03*
Y173000D02*
D03*
Y198400D02*
D03*
Y249200D02*
D03*
X1063700Y767300D02*
D03*
X1038300Y741900D02*
D03*
X1063700Y792700D02*
D03*
X1038300Y767300D02*
D03*
X1063700Y818100D02*
D03*
X1038300Y792700D02*
D03*
Y818100D02*
D03*
X876600Y383000D02*
D03*
X902000Y408400D02*
D03*
X876600D02*
D03*
X902000Y433800D02*
D03*
Y459200D02*
D03*
X876600Y433800D02*
D03*
Y459200D02*
D03*
X876600Y593000D02*
D03*
Y618400D02*
D03*
Y643800D02*
D03*
Y669200D02*
D03*
X902000D02*
D03*
Y643800D02*
D03*
Y618400D02*
D03*
X1038300Y383000D02*
D03*
Y408400D02*
D03*
Y433800D02*
D03*
Y459200D02*
D03*
X1063700Y433800D02*
D03*
Y459200D02*
D03*
Y408400D02*
D03*
X877000Y248800D02*
D03*
Y223400D02*
D03*
X902400D02*
D03*
Y248800D02*
D03*
Y198000D02*
D03*
X877000Y172600D02*
D03*
Y198000D02*
D03*
D40*
X317400Y786000D02*
D03*
D43*
X272950Y284950D02*
D03*
X247550D02*
D03*
X222150Y208750D02*
D03*
Y284950D02*
D03*
X196750D02*
D03*
X247550Y208750D02*
D03*
X272950D02*
D03*
D44*
X196750D02*
D03*
D45*
X139000Y629200D02*
D03*
X1063700Y173000D02*
D03*
Y741900D02*
D03*
X902000Y383000D02*
D03*
X902000Y593000D02*
D03*
X1063700Y383000D02*
D03*
X902400Y172600D02*
D03*
D54*
X457400Y284000D02*
D03*
X508200D02*
D03*
X559000D02*
D03*
X584400D02*
D03*
X609800D02*
D03*
X482800D02*
D03*
X533600D02*
D03*
X609800Y525000D02*
D03*
X457400D02*
D03*
X533600D02*
D03*
X482800D02*
D03*
X559000D02*
D03*
X584400D02*
D03*
X508200D02*
D03*
X641400Y391800D02*
D03*
Y417200D02*
D03*
Y366400D02*
D03*
Y442600D02*
D03*
Y315600D02*
D03*
Y341000D02*
D03*
Y468000D02*
D03*
X400400Y341000D02*
D03*
Y417200D02*
D03*
Y366400D02*
D03*
Y442600D02*
D03*
Y468000D02*
D03*
Y391800D02*
D03*
Y315600D02*
D03*
D55*
X432000Y284000D02*
D03*
Y525000D02*
D03*
D56*
X631500Y112500D02*
D03*
D57*
Y177500D02*
D03*
X586500Y112500D02*
D03*
Y177500D02*
D03*
D58*
X641400Y493400D02*
D03*
X400400D02*
D03*
M02*
