G04*
G04 #@! TF.GenerationSoftware,Altium Limited,Altium Designer,26.3.0 (6)*
G04*
G04 Layer_Color=2752767*
%FSLAX44Y44*%
%MOMM*%
G71*
G04*
G04 #@! TF.SameCoordinates,3AE4C094-AD7F-4364-BC74-3D09489D296B*
G04*
G04*
G04 #@! TF.FilePolarity,Positive*
G04*
G01*
G75*
%ADD63C,0.1270*%
%ADD64C,0.1693*%
D63*
X388520Y780920D02*
Y791080D01*
X398680D01*
Y780920D01*
X388520D01*
X363120D02*
Y791080D01*
X373280D01*
Y780920D01*
X363120D01*
X413920Y806320D02*
Y816480D01*
X424080D01*
Y806320D01*
X413920D01*
X439320D02*
Y816480D01*
X449480D01*
Y806320D01*
X439320D01*
X312320Y780920D02*
Y791080D01*
X322480D01*
Y780920D01*
X312320D01*
X337720D02*
Y791080D01*
X347880D01*
Y780920D01*
X337720D01*
X464720Y806320D02*
Y816480D01*
X474880D01*
Y806320D01*
X464720D01*
X490120D02*
Y816480D01*
X500280D01*
Y806320D01*
X490120D01*
X515520D02*
Y816480D01*
X525680D01*
Y806320D01*
X515520D01*
X540920D02*
Y816480D01*
X551080D01*
Y806320D01*
X540920D01*
X566320D02*
Y816480D01*
X576480D01*
Y806320D01*
X566320D01*
X591720D02*
Y816480D01*
X601880D01*
Y806320D01*
X591720D01*
X439320Y780920D02*
Y791080D01*
X449480D01*
Y780920D01*
X439320D01*
X413920D02*
Y791080D01*
X424080D01*
Y780920D01*
X413920D01*
X744120Y806320D02*
Y816480D01*
X754280D01*
Y806320D01*
X744120D01*
X718720D02*
Y816480D01*
X728880D01*
Y806320D01*
X718720D01*
X566320Y780920D02*
Y791080D01*
X576480D01*
Y780920D01*
X566320D01*
X540920D02*
Y791080D01*
X551080D01*
Y780920D01*
X540920D01*
X515520D02*
Y791080D01*
X525680D01*
Y780920D01*
X515520D01*
X490120D02*
Y791080D01*
X500280D01*
Y780920D01*
X490120D01*
X312320Y806320D02*
Y816480D01*
X322480D01*
Y806320D01*
X312320D01*
X337720D02*
Y816480D01*
X347880D01*
Y806320D01*
X337720D01*
X363120D02*
Y816480D01*
X373280D01*
Y806320D01*
X363120D01*
X388520D02*
Y816480D01*
X398680D01*
Y806320D01*
X388520D01*
X464720Y780920D02*
Y791080D01*
X474880D01*
Y780920D01*
X464720D01*
X591720D02*
Y791080D01*
X601880D01*
Y780920D01*
X591720D01*
X617120D02*
Y791080D01*
X627280D01*
Y780920D01*
X617120D01*
X642520D02*
Y791080D01*
X652680D01*
Y780920D01*
X642520D01*
X667920D02*
Y791080D01*
X678080D01*
Y780920D01*
X667920D01*
X693320D02*
Y791080D01*
X703480D01*
Y780920D01*
X693320D01*
X617120Y806320D02*
Y816480D01*
X627280D01*
Y806320D01*
X617120D01*
X642520D02*
Y816480D01*
X652680D01*
Y806320D01*
X642520D01*
X667920D02*
Y816480D01*
X678080D01*
Y806320D01*
X667920D01*
X693320D02*
Y816480D01*
X703480D01*
Y806320D01*
X693320D01*
X718720Y780920D02*
Y791080D01*
X728880D01*
Y780920D01*
X718720D01*
X744120D02*
Y791080D01*
X754280D01*
Y780920D01*
X744120D01*
X769520D02*
Y791080D01*
X779680D01*
Y780920D01*
X769520D01*
X794920D02*
Y791080D01*
X805080D01*
Y780920D01*
X794920D01*
X769520Y806320D02*
Y816480D01*
X779680D01*
Y806320D01*
X769520D01*
X794920D02*
Y816480D01*
X805080D01*
Y806320D01*
X794920D01*
X272950Y279870D02*
X267870Y290030D01*
X278030D01*
X272950Y279870D01*
X247550D02*
X242470Y290030D01*
X252630D01*
X247550Y279870D01*
X196750Y203670D02*
X191670Y213830D01*
X201830D01*
X196750Y203670D01*
X222150D02*
X217070Y213830D01*
X227230D01*
X222150Y203670D01*
Y279870D02*
X217070Y290030D01*
X227230D01*
X222150Y279870D01*
X196750D02*
X191670Y290030D01*
X201830D01*
X196750Y279870D01*
X247550Y203670D02*
X242470Y213830D01*
X252630D01*
X247550Y203670D01*
X272950D02*
X267870Y213830D01*
X278030D01*
X272950Y203670D01*
X159320Y598720D02*
Y608880D01*
X169480D01*
Y598720D01*
X159320D01*
X133920Y624120D02*
Y634280D01*
X144080D01*
Y624120D01*
X133920D01*
Y547920D02*
Y558080D01*
X144080D01*
Y547920D01*
X133920D01*
Y598720D02*
Y608880D01*
X144080D01*
Y598720D01*
X133920D01*
Y573320D02*
Y583480D01*
X144080D01*
Y573320D01*
X133920D01*
X159320Y547920D02*
Y558080D01*
X169480D01*
Y547920D01*
X159320D01*
Y573320D02*
Y583480D01*
X169480D01*
Y573320D01*
X159320D01*
Y624120D02*
Y634280D01*
X169480D01*
Y624120D01*
X159320D01*
X1058620Y218720D02*
Y228880D01*
X1068780D01*
Y218720D01*
X1058620D01*
Y193320D02*
Y203480D01*
X1068780D01*
Y193320D01*
X1058620D01*
Y167920D02*
Y178080D01*
X1068780D01*
Y167920D01*
X1058620D01*
Y244120D02*
Y254280D01*
X1068780D01*
Y244120D01*
X1058620D01*
X1033220Y218720D02*
Y228880D01*
X1043380D01*
Y218720D01*
X1033220D01*
Y167920D02*
Y178080D01*
X1043380D01*
Y167920D01*
X1033220D01*
Y193320D02*
Y203480D01*
X1043380D01*
Y193320D01*
X1033220D01*
Y244120D02*
Y254280D01*
X1043380D01*
Y244120D01*
X1033220D01*
X631500Y107420D02*
X626420Y117580D01*
X636580D01*
X631500Y107420D01*
Y172420D02*
X626420Y182580D01*
X636580D01*
X631500Y172420D01*
X586500Y107420D02*
X581420Y117580D01*
X591580D01*
X586500Y107420D01*
Y172420D02*
X581420Y182580D01*
X591580D01*
X586500Y172420D01*
X1058620Y762220D02*
Y772380D01*
X1068780D01*
Y762220D01*
X1058620D01*
X1033220Y736820D02*
Y746980D01*
X1043380D01*
Y736820D01*
X1033220D01*
X1058620Y787620D02*
Y797780D01*
X1068780D01*
Y787620D01*
X1058620D01*
X1033220Y762220D02*
Y772380D01*
X1043380D01*
Y762220D01*
X1033220D01*
X1058620Y813020D02*
Y823180D01*
X1068780D01*
Y813020D01*
X1058620D01*
X1033220Y787620D02*
Y797780D01*
X1043380D01*
Y787620D01*
X1033220D01*
Y813020D02*
Y823180D01*
X1043380D01*
Y813020D01*
X1033220D01*
X1058620Y736820D02*
Y746980D01*
X1068780D01*
Y736820D01*
X1058620D01*
X896920Y377920D02*
Y388080D01*
X907080D01*
Y377920D01*
X896920D01*
X871520D02*
Y388080D01*
X881680D01*
Y377920D01*
X871520D01*
X896920Y403320D02*
Y413480D01*
X907080D01*
Y403320D01*
X896920D01*
X871520D02*
Y413480D01*
X881680D01*
Y403320D01*
X871520D01*
X896920Y428720D02*
Y438880D01*
X907080D01*
Y428720D01*
X896920D01*
Y454120D02*
Y464280D01*
X907080D01*
Y454120D01*
X896920D01*
X871520Y428720D02*
Y438880D01*
X881680D01*
Y428720D01*
X871520D01*
Y454120D02*
Y464280D01*
X881680D01*
Y454120D01*
X871520D01*
X871520Y587920D02*
Y598080D01*
X881680D01*
Y587920D01*
X871520D01*
Y613320D02*
Y623480D01*
X881680D01*
Y613320D01*
X871520D01*
Y638720D02*
Y648880D01*
X881680D01*
Y638720D01*
X871520D01*
Y664120D02*
Y674280D01*
X881680D01*
Y664120D01*
X871520D01*
X896920D02*
Y674280D01*
X907080D01*
Y664120D01*
X896920D01*
Y638720D02*
Y648880D01*
X907080D01*
Y638720D01*
X896920D01*
Y613320D02*
Y623480D01*
X907080D01*
Y613320D01*
X896920D01*
Y587920D02*
Y598080D01*
X907080D01*
Y587920D01*
X896920D01*
X1033220Y377920D02*
Y388080D01*
X1043380D01*
Y377920D01*
X1033220D01*
Y403320D02*
Y413480D01*
X1043380D01*
Y403320D01*
X1033220D01*
Y428720D02*
Y438880D01*
X1043380D01*
Y428720D01*
X1033220D01*
Y454120D02*
Y464280D01*
X1043380D01*
Y454120D01*
X1033220D01*
X1058620Y428720D02*
Y438880D01*
X1068780D01*
Y428720D01*
X1058620D01*
Y454120D02*
Y464280D01*
X1068780D01*
Y454120D01*
X1058620D01*
Y377920D02*
Y388080D01*
X1068780D01*
Y377920D01*
X1058620D01*
Y403320D02*
Y413480D01*
X1068780D01*
Y403320D01*
X1058620D01*
X871920Y243720D02*
Y253880D01*
X882080D01*
Y243720D01*
X871920D01*
Y218320D02*
Y228480D01*
X882080D01*
Y218320D01*
X871920D01*
X897320D02*
Y228480D01*
X907480D01*
Y218320D01*
X897320D01*
Y243720D02*
Y253880D01*
X907480D01*
Y243720D01*
X897320D01*
Y167520D02*
Y177680D01*
X907480D01*
Y167520D01*
X897320D01*
Y192920D02*
Y203080D01*
X907480D01*
Y192920D01*
X897320D01*
X871920Y167520D02*
Y177680D01*
X882080D01*
Y167520D01*
X871920D01*
Y192920D02*
Y203080D01*
X882080D01*
Y192920D01*
X871920D01*
X1052460Y312460D02*
Y309920D01*
X1057540D01*
Y312460D01*
X1060080D01*
Y317540D01*
X1057540D01*
Y320080D01*
X1052460D01*
Y317540D01*
X1049920D01*
Y312460D01*
X1052460D01*
Y667460D02*
Y664920D01*
X1057540D01*
Y667460D01*
X1060080D01*
Y672540D01*
X1057540D01*
Y675080D01*
X1052460D01*
Y672540D01*
X1049920D01*
Y667460D01*
X1052460D01*
X861460Y772460D02*
Y769920D01*
X866540D01*
Y772460D01*
X869080D01*
Y777540D01*
X866540D01*
Y780080D01*
X861460D01*
Y777540D01*
X858920D01*
Y772460D01*
X861460D01*
X802460Y432460D02*
Y429920D01*
X807540D01*
Y432460D01*
X810080D01*
Y437540D01*
X807540D01*
Y440080D01*
X802460D01*
Y437540D01*
X799920D01*
Y432460D01*
X802460D01*
X813460Y487460D02*
Y484920D01*
X818540D01*
Y487460D01*
X821080D01*
Y492540D01*
X818540D01*
Y495080D01*
X813460D01*
Y492540D01*
X810920D01*
Y487460D01*
X813460D01*
X820460Y524460D02*
Y521920D01*
X825540D01*
Y524460D01*
X828080D01*
Y529540D01*
X825540D01*
Y532080D01*
X820460D01*
Y529540D01*
X817920D01*
Y524460D01*
X820460D01*
X745460Y522460D02*
Y519920D01*
X750540D01*
Y522460D01*
X753080D01*
Y527540D01*
X750540D01*
Y530080D01*
X745460D01*
Y527540D01*
X742920D01*
Y522460D01*
X745460D01*
X918460Y737460D02*
Y734920D01*
X923540D01*
Y737460D01*
X926080D01*
Y742540D01*
X923540D01*
Y745080D01*
X918460D01*
Y742540D01*
X915920D01*
Y737460D01*
X918460D01*
X845460D02*
Y734920D01*
X850540D01*
Y737460D01*
X853080D01*
Y742540D01*
X850540D01*
Y745080D01*
X845460D01*
Y742540D01*
X842920D01*
Y737460D01*
X845460D01*
X868460Y732460D02*
Y729920D01*
X873540D01*
Y732460D01*
X876080D01*
Y737540D01*
X873540D01*
Y740080D01*
X868460D01*
Y737540D01*
X865920D01*
Y732460D01*
X868460D01*
X822460Y578460D02*
Y575920D01*
X827540D01*
Y578460D01*
X830080D01*
Y583540D01*
X827540D01*
Y586080D01*
X822460D01*
Y583540D01*
X819920D01*
Y578460D01*
X822460D01*
X800460Y582460D02*
Y579920D01*
X805540D01*
Y582460D01*
X808080D01*
Y587540D01*
X805540D01*
Y590080D01*
X800460D01*
Y587540D01*
X797920D01*
Y582460D01*
X800460D01*
X778460Y577460D02*
Y574920D01*
X783540D01*
Y577460D01*
X786080D01*
Y582540D01*
X783540D01*
Y585080D01*
X778460D01*
Y582540D01*
X775920D01*
Y577460D01*
X778460D01*
X788460Y670460D02*
Y667920D01*
X793540D01*
Y670460D01*
X796080D01*
Y675540D01*
X793540D01*
Y678080D01*
X788460D01*
Y675540D01*
X785920D01*
Y670460D01*
X788460D01*
X599460Y569460D02*
Y566920D01*
X604540D01*
Y569460D01*
X607080D01*
Y574540D01*
X604540D01*
Y577080D01*
X599460D01*
Y574540D01*
X596920D01*
Y569460D01*
X599460D01*
X524460Y479460D02*
Y476920D01*
X529540D01*
Y479460D01*
X532080D01*
Y484540D01*
X529540D01*
Y487080D01*
X524460D01*
Y484540D01*
X521920D01*
Y479460D01*
X524460D01*
X428460Y492460D02*
Y489920D01*
X433540D01*
Y492460D01*
X436080D01*
Y497540D01*
X433540D01*
Y500080D01*
X428460D01*
Y497540D01*
X425920D01*
Y492460D01*
X428460D01*
X378460Y272460D02*
Y269920D01*
X383540D01*
Y272460D01*
X386080D01*
Y277540D01*
X383540D01*
Y280080D01*
X378460D01*
Y277540D01*
X375920D01*
Y272460D01*
X378460D01*
X293460Y222460D02*
Y219920D01*
X298540D01*
Y222460D01*
X301080D01*
Y227540D01*
X298540D01*
Y230080D01*
X293460D01*
Y227540D01*
X290920D01*
Y222460D01*
X293460D01*
X338460Y707460D02*
Y704920D01*
X343540D01*
Y707460D01*
X346080D01*
Y712540D01*
X343540D01*
Y715080D01*
X338460D01*
Y712540D01*
X335920D01*
Y707460D01*
X338460D01*
X275460Y330460D02*
Y327920D01*
X280540D01*
Y330460D01*
X283080D01*
Y335540D01*
X280540D01*
Y338080D01*
X275460D01*
Y335540D01*
X272920D01*
Y330460D01*
X275460D01*
X346460Y564460D02*
Y561920D01*
X351540D01*
Y564460D01*
X354080D01*
Y569540D01*
X351540D01*
Y572080D01*
X346460D01*
Y569540D01*
X343920D01*
Y564460D01*
X346460D01*
X287460Y627460D02*
Y624920D01*
X292540D01*
Y627460D01*
X295080D01*
Y632540D01*
X292540D01*
Y635080D01*
X287460D01*
Y632540D01*
X284920D01*
Y627460D01*
X287460D01*
X478460Y170460D02*
Y167920D01*
X483540D01*
Y170460D01*
X486080D01*
Y175540D01*
X483540D01*
Y178080D01*
X478460D01*
Y175540D01*
X475920D01*
Y170460D01*
X478460D01*
X738460Y587460D02*
Y584920D01*
X743540D01*
Y587460D01*
X746080D01*
Y592540D01*
X743540D01*
Y595080D01*
X738460D01*
Y592540D01*
X735920D01*
Y587460D01*
X738460D01*
X633460Y517460D02*
Y514920D01*
X638540D01*
Y517460D01*
X641080D01*
Y522540D01*
X638540D01*
Y525080D01*
X633460D01*
Y522540D01*
X630920D01*
Y517460D01*
X633460D01*
X153460Y487460D02*
Y484920D01*
X158540D01*
Y487460D01*
X161080D01*
Y492540D01*
X158540D01*
Y495080D01*
X153460D01*
Y492540D01*
X150920D01*
Y487460D01*
X153460D01*
X701460Y403460D02*
Y400920D01*
X706540D01*
Y403460D01*
X709080D01*
Y408540D01*
X706540D01*
Y411080D01*
X701460D01*
Y408540D01*
X698920D01*
Y403460D01*
X701460D01*
X173460Y427460D02*
Y424920D01*
X178540D01*
Y427460D01*
X181080D01*
Y432540D01*
X178540D01*
Y435080D01*
X173460D01*
Y432540D01*
X170920D01*
Y427460D01*
X173460D01*
X273460Y467460D02*
Y464920D01*
X278540D01*
Y467460D01*
X281080D01*
Y472540D01*
X278540D01*
Y475080D01*
X273460D01*
Y472540D01*
X270920D01*
Y467460D01*
X273460D01*
X217460Y531460D02*
Y528920D01*
X222540D01*
Y531460D01*
X225080D01*
Y536540D01*
X222540D01*
Y539080D01*
X217460D01*
Y536540D01*
X214920D01*
Y531460D01*
X217460D01*
X247460Y582460D02*
Y579920D01*
X252540D01*
Y582460D01*
X255080D01*
Y587540D01*
X252540D01*
Y590080D01*
X247460D01*
Y587540D01*
X244920D01*
Y582460D01*
X247460D01*
X208460Y152460D02*
Y149920D01*
X213540D01*
Y152460D01*
X216080D01*
Y157540D01*
X213540D01*
Y160080D01*
X208460D01*
Y157540D01*
X205920D01*
Y152460D01*
X208460D01*
X639460Y214460D02*
Y211920D01*
X644540D01*
Y214460D01*
X647080D01*
Y219540D01*
X644540D01*
Y222080D01*
X639460D01*
Y219540D01*
X636920D01*
Y214460D01*
X639460D01*
X243460Y307460D02*
Y304920D01*
X248540D01*
Y307460D01*
X251080D01*
Y312540D01*
X248540D01*
Y315080D01*
X243460D01*
Y312540D01*
X240920D01*
Y307460D01*
X243460D01*
X540460Y162460D02*
Y159920D01*
X545540D01*
Y162460D01*
X548080D01*
Y167540D01*
X545540D01*
Y170080D01*
X540460D01*
Y167540D01*
X537920D01*
Y162460D01*
X540460D01*
X408460Y145460D02*
Y142920D01*
X413540D01*
Y145460D01*
X416080D01*
Y150540D01*
X413540D01*
Y153080D01*
X408460D01*
Y150540D01*
X405920D01*
Y145460D01*
X408460D01*
X722460Y316460D02*
Y313920D01*
X727540D01*
Y316460D01*
X730080D01*
Y321540D01*
X727540D01*
Y324080D01*
X722460D01*
Y321540D01*
X719920D01*
Y316460D01*
X722460D01*
X743460Y361460D02*
Y358920D01*
X748540D01*
Y361460D01*
X751080D01*
Y366540D01*
X748540D01*
Y369080D01*
X743460D01*
Y366540D01*
X740920D01*
Y361460D01*
X743460D01*
X167460Y709460D02*
Y706920D01*
X172540D01*
Y709460D01*
X175080D01*
Y714540D01*
X172540D01*
Y717080D01*
X167460D01*
Y714540D01*
X164920D01*
Y709460D01*
X167460D01*
X230460Y641460D02*
Y638920D01*
X235540D01*
Y641460D01*
X238080D01*
Y646540D01*
X235540D01*
Y649080D01*
X230460D01*
Y646540D01*
X227920D01*
Y641460D01*
X230460D01*
X758823Y326810D02*
Y324270D01*
X763903D01*
Y326810D01*
X766443D01*
Y331890D01*
X763903D01*
Y334430D01*
X758823D01*
Y331890D01*
X756283D01*
Y326810D01*
X758823D01*
X143460Y342460D02*
Y339920D01*
X148540D01*
Y342460D01*
X151080D01*
Y347540D01*
X148540D01*
Y350080D01*
X143460D01*
Y347540D01*
X140920D01*
Y342460D01*
X143460D01*
X828460Y357460D02*
Y354920D01*
X833540D01*
Y357460D01*
X836080D01*
Y362540D01*
X833540D01*
Y365080D01*
X828460D01*
Y362540D01*
X825920D01*
Y357460D01*
X828460D01*
X775460Y362460D02*
Y359920D01*
X780540D01*
Y362460D01*
X783080D01*
Y367540D01*
X780540D01*
Y370080D01*
X775460D01*
Y367540D01*
X772920D01*
Y362460D01*
X775460D01*
X803460Y262460D02*
Y259920D01*
X808540D01*
Y262460D01*
X811080D01*
Y267540D01*
X808540D01*
Y270080D01*
X803460D01*
Y267540D01*
X800920D01*
Y262460D01*
X803460D01*
X683460Y607460D02*
Y604920D01*
X688540D01*
Y607460D01*
X691080D01*
Y612540D01*
X688540D01*
Y615080D01*
X683460D01*
Y612540D01*
X680920D01*
Y607460D01*
X683460D01*
X775460Y421460D02*
Y418920D01*
X780540D01*
Y421460D01*
X783080D01*
Y426540D01*
X780540D01*
Y429080D01*
X775460D01*
Y426540D01*
X772920D01*
Y421460D01*
X775460D01*
X717460Y437460D02*
Y434920D01*
X722540D01*
Y437460D01*
X725080D01*
Y442540D01*
X722540D01*
Y445080D01*
X717460D01*
Y442540D01*
X714920D01*
Y437460D01*
X717460D01*
X824460Y421460D02*
Y418920D01*
X829540D01*
Y421460D01*
X832080D01*
Y426540D01*
X829540D01*
Y429080D01*
X824460D01*
Y426540D01*
X821920D01*
Y421460D01*
X824460D01*
X537460Y105460D02*
Y102920D01*
X542540D01*
Y105460D01*
X545080D01*
Y110540D01*
X542540D01*
Y113080D01*
X537460D01*
Y110540D01*
X534920D01*
Y105460D01*
X537460D01*
X248460Y722460D02*
Y719920D01*
X253540D01*
Y722460D01*
X256080D01*
Y727540D01*
X253540D01*
Y730080D01*
X248460D01*
Y727540D01*
X245920D01*
Y722460D01*
X248460D01*
X792460Y131460D02*
Y128920D01*
X797540D01*
Y131460D01*
X800080D01*
Y136540D01*
X797540D01*
Y139080D01*
X792460D01*
Y136540D01*
X789920D01*
Y131460D01*
X792460D01*
X926460Y817460D02*
Y814920D01*
X931540D01*
Y817460D01*
X934080D01*
Y822540D01*
X931540D01*
Y825080D01*
X926460D01*
Y822540D01*
X923920D01*
Y817460D01*
X926460D01*
X696460Y184460D02*
Y181920D01*
X701540D01*
Y184460D01*
X704080D01*
Y189540D01*
X701540D01*
Y192080D01*
X696460D01*
Y189540D01*
X693920D01*
Y184460D01*
X696460D01*
X823460Y137460D02*
Y134920D01*
X828540D01*
Y137460D01*
X831080D01*
Y142540D01*
X828540D01*
Y145080D01*
X823460D01*
Y142540D01*
X820920D01*
Y137460D01*
X823460D01*
X712460Y240460D02*
Y237920D01*
X717540D01*
Y240460D01*
X720080D01*
Y245540D01*
X717540D01*
Y248080D01*
X712460D01*
Y245540D01*
X709920D01*
Y240460D01*
X712460D01*
X761460Y292460D02*
Y289920D01*
X766540D01*
Y292460D01*
X769080D01*
Y297540D01*
X766540D01*
Y300080D01*
X761460D01*
Y297540D01*
X758920D01*
Y292460D01*
X761460D01*
X758460Y257460D02*
Y254920D01*
X763540D01*
Y257460D01*
X766080D01*
Y262540D01*
X763540D01*
Y265080D01*
X758460D01*
Y262540D01*
X755920D01*
Y257460D01*
X758460D01*
X696460Y260460D02*
Y257920D01*
X701540D01*
Y260460D01*
X704080D01*
Y265540D01*
X701540D01*
Y268080D01*
X696460D01*
Y265540D01*
X693920D01*
Y260460D01*
X696460D01*
X717460Y155460D02*
Y152920D01*
X722540D01*
Y155460D01*
X725080D01*
Y160540D01*
X722540D01*
Y163080D01*
X717460D01*
Y160540D01*
X714920D01*
Y155460D01*
X717460D01*
X739460Y241460D02*
Y238920D01*
X744540D01*
Y241460D01*
X747080D01*
Y246540D01*
X744540D01*
Y249080D01*
X739460D01*
Y246540D01*
X736920D01*
Y241460D01*
X739460D01*
X823460Y192460D02*
Y189920D01*
X828540D01*
Y192460D01*
X831080D01*
Y197540D01*
X828540D01*
Y200080D01*
X823460D01*
Y197540D01*
X820920D01*
Y192460D01*
X823460D01*
X802460Y212460D02*
Y209920D01*
X807540D01*
Y212460D01*
X810080D01*
Y217540D01*
X807540D01*
Y220080D01*
X802460D01*
Y217540D01*
X799920D01*
Y212460D01*
X802460D01*
X723460D02*
Y209920D01*
X728540D01*
Y212460D01*
X731080D01*
Y217540D01*
X728540D01*
Y220080D01*
X723460D01*
Y217540D01*
X720920D01*
Y212460D01*
X723460D01*
X818460Y95460D02*
Y92920D01*
X823540D01*
Y95460D01*
X826080D01*
Y100540D01*
X823540D01*
Y103080D01*
X818460D01*
Y100540D01*
X815920D01*
Y95460D01*
X818460D01*
X691460D02*
Y92920D01*
X696540D01*
Y95460D01*
X699080D01*
Y100540D01*
X696540D01*
Y103080D01*
X691460D01*
Y100540D01*
X688920D01*
Y95460D01*
X691460D01*
D64*
X462480Y284000D02*
G03*
X462480Y284000I-5080J0D01*
G01*
X513280D02*
G03*
X513280Y284000I-5080J0D01*
G01*
X564080D02*
G03*
X564080Y284000I-5080J0D01*
G01*
X589480D02*
G03*
X589480Y284000I-5080J0D01*
G01*
X614880D02*
G03*
X614880Y284000I-5080J0D01*
G01*
X487880D02*
G03*
X487880Y284000I-5080J0D01*
G01*
X538680D02*
G03*
X538680Y284000I-5080J0D01*
G01*
X437080D02*
G03*
X437080Y284000I-5080J0D01*
G01*
X614880Y525000D02*
G03*
X614880Y525000I-5080J0D01*
G01*
X462480D02*
G03*
X462480Y525000I-5080J0D01*
G01*
X538680D02*
G03*
X538680Y525000I-5080J0D01*
G01*
X487880D02*
G03*
X487880Y525000I-5080J0D01*
G01*
X564080D02*
G03*
X564080Y525000I-5080J0D01*
G01*
X589480D02*
G03*
X589480Y525000I-5080J0D01*
G01*
X513280D02*
G03*
X513280Y525000I-5080J0D01*
G01*
X437080D02*
G03*
X437080Y525000I-5080J0D01*
G01*
X646480Y391800D02*
G03*
X646480Y391800I-5080J0D01*
G01*
Y417200D02*
G03*
X646480Y417200I-5080J0D01*
G01*
Y366400D02*
G03*
X646480Y366400I-5080J0D01*
G01*
Y442600D02*
G03*
X646480Y442600I-5080J0D01*
G01*
Y315600D02*
G03*
X646480Y315600I-5080J0D01*
G01*
Y341000D02*
G03*
X646480Y341000I-5080J0D01*
G01*
Y468000D02*
G03*
X646480Y468000I-5080J0D01*
G01*
Y493400D02*
G03*
X646480Y493400I-5080J0D01*
G01*
X405480D02*
G03*
X405480Y493400I-5080J0D01*
G01*
Y341000D02*
G03*
X405480Y341000I-5080J0D01*
G01*
Y417200D02*
G03*
X405480Y417200I-5080J0D01*
G01*
Y366400D02*
G03*
X405480Y366400I-5080J0D01*
G01*
Y442600D02*
G03*
X405480Y442600I-5080J0D01*
G01*
Y468000D02*
G03*
X405480Y468000I-5080J0D01*
G01*
Y391800D02*
G03*
X405480Y391800I-5080J0D01*
G01*
Y315600D02*
G03*
X405480Y315600I-5080J0D01*
G01*
M02*
