G04*
G04 #@! TF.GenerationSoftware,Altium Limited,Altium Designer,26.3.0 (6)*
G04*
G04 Layer_Physical_Order=1*
G04 Layer_Color=255*
%FSLAX44Y44*%
%MOMM*%
G71*
G04*
G04 #@! TF.SameCoordinates,3AE4C094-AD7F-4364-BC74-3D09489D296B*
G04*
G04*
G04 #@! TF.FilePolarity,Positive*
G04*
G01*
G75*
%ADD17R,0.7000X1.0000*%
%ADD18R,0.7000X0.6000*%
%ADD19R,0.4500X1.0000*%
%ADD20R,1.0000X0.4500*%
%ADD21R,0.8500X0.4000*%
%ADD22R,0.9000X0.7500*%
%ADD23R,0.7581X0.8121*%
%ADD24R,0.8500X1.0000*%
%ADD25R,0.9000X0.8500*%
%ADD26R,1.6000X1.4000*%
G04:AMPARAMS|DCode=27|XSize=1.1603mm|YSize=0.2368mm|CornerRadius=0.1184mm|HoleSize=0mm|Usage=FLASHONLY|Rotation=180.000|XOffset=0mm|YOffset=0mm|HoleType=Round|Shape=RoundedRectangle|*
%AMROUNDEDRECTD27*
21,1,1.1603,0.0000,0,0,180.0*
21,1,0.9235,0.2368,0,0,180.0*
1,1,0.2368,-0.4618,0.0000*
1,1,0.2368,0.4618,0.0000*
1,1,0.2368,0.4618,0.0000*
1,1,0.2368,-0.4618,0.0000*
%
%ADD27ROUNDEDRECTD27*%
%ADD28R,1.1603X0.2368*%
G04:AMPARAMS|DCode=29|XSize=1.1603mm|YSize=0.2368mm|CornerRadius=0.1184mm|HoleSize=0mm|Usage=FLASHONLY|Rotation=270.000|XOffset=0mm|YOffset=0mm|HoleType=Round|Shape=RoundedRectangle|*
%AMROUNDEDRECTD29*
21,1,1.1603,0.0000,0,0,270.0*
21,1,0.9235,0.2368,0,0,270.0*
1,1,0.2368,0.0000,-0.4618*
1,1,0.2368,0.0000,0.4618*
1,1,0.2368,0.0000,0.4618*
1,1,0.2368,0.0000,-0.4618*
%
%ADD29ROUNDEDRECTD29*%
%ADD30R,0.2368X1.1603*%
%ADD31R,1.0000X0.8500*%
%ADD32R,0.9500X1.4500*%
%ADD33R,0.6900X0.9900*%
%ADD34R,1.1500X0.3500*%
G04:AMPARAMS|DCode=35|XSize=0.45mm|YSize=1.05mm|CornerRadius=0.0495mm|HoleSize=0mm|Usage=FLASHONLY|Rotation=90.000|XOffset=0mm|YOffset=0mm|HoleType=Round|Shape=RoundedRectangle|*
%AMROUNDEDRECTD35*
21,1,0.4500,0.9510,0,0,90.0*
21,1,0.3510,1.0500,0,0,90.0*
1,1,0.0990,0.4755,0.1755*
1,1,0.0990,0.4755,-0.1755*
1,1,0.0990,-0.4755,-0.1755*
1,1,0.0990,-0.4755,0.1755*
%
%ADD35ROUNDEDRECTD35*%
%ADD36R,1.2000X1.0000*%
%ADD37R,0.8500X0.9000*%
%ADD39C,1.6000*%
G04:AMPARAMS|DCode=40|XSize=1.6mm|YSize=1.6mm|CornerRadius=0.4mm|HoleSize=0mm|Usage=FLASHONLY|Rotation=0.000|XOffset=0mm|YOffset=0mm|HoleType=Round|Shape=RoundedRectangle|*
%AMROUNDEDRECTD40*
21,1,1.6000,0.8000,0,0,0.0*
21,1,0.8000,1.6000,0,0,0.0*
1,1,0.8000,0.4000,-0.4000*
1,1,0.8000,-0.4000,-0.4000*
1,1,0.8000,-0.4000,0.4000*
1,1,0.8000,0.4000,0.4000*
%
%ADD40ROUNDEDRECTD40*%
%ADD43C,1.5500*%
%ADD44R,1.5500X1.5500*%
G04:AMPARAMS|DCode=45|XSize=1.6mm|YSize=1.6mm|CornerRadius=0.4mm|HoleSize=0mm|Usage=FLASHONLY|Rotation=270.000|XOffset=0mm|YOffset=0mm|HoleType=Round|Shape=RoundedRectangle|*
%AMROUNDEDRECTD45*
21,1,1.6000,0.8000,0,0,270.0*
21,1,0.8000,1.6000,0,0,270.0*
1,1,0.8000,-0.4000,-0.4000*
1,1,0.8000,-0.4000,0.4000*
1,1,0.8000,0.4000,0.4000*
1,1,0.8000,0.4000,-0.4000*
%
%ADD45ROUNDEDRECTD45*%
%ADD49C,0.6350*%
%ADD50C,0.5000*%
%ADD51C,0.3000*%
%ADD52C,0.4000*%
%ADD53C,0.4500*%
%ADD54C,1.8000*%
%ADD55R,1.8000X1.8000*%
%ADD56R,1.9000X1.9000*%
%ADD57C,1.9000*%
%ADD58R,1.8000X1.8000*%
G36*
X1200000Y-0D02*
X0D01*
Y900000D01*
X1200000D01*
Y-0D01*
D02*
G37*
%LPC*%
G36*
X936000Y839078D02*
X936000Y839078D01*
X905850D01*
X905850Y839078D01*
X904289Y838768D01*
X902966Y837884D01*
X900391Y837096D01*
X899211Y837469D01*
X898146Y838181D01*
X896000Y838608D01*
X643800D01*
X641654Y838181D01*
X639835Y836965D01*
X629770Y826900D01*
X623547Y823400D01*
X620620D01*
X617568Y822582D01*
X614832Y821002D01*
X612598Y818768D01*
X611066Y816115D01*
X610711Y816032D01*
X608289D01*
X607934Y816115D01*
X606402Y818768D01*
X604168Y821002D01*
X601432Y822582D01*
X598380Y823400D01*
X595220D01*
X592168Y822582D01*
X589432Y821002D01*
X587198Y818768D01*
X585666Y816115D01*
X585311Y816032D01*
X582889D01*
X582534Y816115D01*
X581002Y818768D01*
X578768Y821002D01*
X576032Y822582D01*
X572980Y823400D01*
X569820D01*
X566768Y822582D01*
X564032Y821002D01*
X561798Y818768D01*
X560266Y816115D01*
X559911Y816032D01*
X557489D01*
X557134Y816115D01*
X555602Y818768D01*
X553368Y821002D01*
X550632Y822582D01*
X547580Y823400D01*
X544420D01*
X541368Y822582D01*
X538632Y821002D01*
X536398Y818768D01*
X534866Y816115D01*
X534511Y816032D01*
X532089D01*
X531734Y816115D01*
X530202Y818768D01*
X527968Y821002D01*
X525232Y822582D01*
X522180Y823400D01*
X519020D01*
X515968Y822582D01*
X513232Y821002D01*
X510998Y818768D01*
X509466Y816115D01*
X509111Y816032D01*
X506689D01*
X506334Y816115D01*
X504802Y818768D01*
X502568Y821002D01*
X499832Y822582D01*
X496780Y823400D01*
X493620D01*
X490568Y822582D01*
X487832Y821002D01*
X485598Y818768D01*
X484066Y816115D01*
X483711Y816032D01*
X481289D01*
X480934Y816115D01*
X479402Y818768D01*
X477168Y821002D01*
X474432Y822582D01*
X471380Y823400D01*
X468220D01*
X465168Y822582D01*
X462432Y821002D01*
X460198Y818768D01*
X458666Y816115D01*
X458311Y816032D01*
X455889D01*
X455534Y816115D01*
X454002Y818768D01*
X451768Y821002D01*
X449032Y822582D01*
X445980Y823400D01*
X442820D01*
X439768Y822582D01*
X437032Y821002D01*
X434798Y818768D01*
X433266Y816115D01*
X432911Y816032D01*
X430489D01*
X430134Y816115D01*
X428602Y818768D01*
X426368Y821002D01*
X423632Y822582D01*
X420580Y823400D01*
X417420D01*
X414368Y822582D01*
X411632Y821002D01*
X409398Y818768D01*
X407866Y816115D01*
X407511Y816032D01*
X405089D01*
X404734Y816115D01*
X403202Y818768D01*
X400968Y821002D01*
X398232Y822582D01*
X395180Y823400D01*
X392020D01*
X388968Y822582D01*
X386232Y821002D01*
X383998Y818768D01*
X382466Y816115D01*
X382111Y816032D01*
X379689D01*
X379334Y816115D01*
X377802Y818768D01*
X375568Y821002D01*
X372832Y822582D01*
X369780Y823400D01*
X366620D01*
X363568Y822582D01*
X360832Y821002D01*
X358598Y818768D01*
X357066Y816115D01*
X356711Y816032D01*
X354289D01*
X353934Y816115D01*
X352402Y818768D01*
X350168Y821002D01*
X347432Y822582D01*
X344380Y823400D01*
X341220D01*
X338168Y822582D01*
X335432Y821002D01*
X333198Y818768D01*
X331666Y816115D01*
X331311Y816032D01*
X328889D01*
X328534Y816115D01*
X327002Y818768D01*
X324768Y821002D01*
X322032Y822582D01*
X318980Y823400D01*
X315820D01*
X312768Y822582D01*
X310032Y821002D01*
X308066Y819036D01*
X301370Y817517D01*
X232500D01*
Y822250D01*
X215000D01*
Y822250D01*
X213000D01*
Y822250D01*
X195500D01*
Y817117D01*
X169950D01*
Y819900D01*
X158677D01*
Y819950D01*
X158173Y822486D01*
X156736Y824636D01*
X150686Y830686D01*
X148536Y832123D01*
X146000Y832627D01*
X133000D01*
X130464Y832123D01*
X128314Y830686D01*
X119314Y821686D01*
X117877Y819536D01*
X117373Y817000D01*
Y771771D01*
X117232Y771561D01*
X116922Y770000D01*
X116922Y770000D01*
Y734000D01*
X116922Y734000D01*
X117232Y732439D01*
X118116Y731116D01*
X143116Y706116D01*
X144439Y705232D01*
X146000Y704922D01*
X146000Y704922D01*
X149234D01*
X150382Y702150D01*
X114116Y665884D01*
X113232Y664561D01*
X112922Y663000D01*
X112922Y663000D01*
Y617000D01*
Y600000D01*
X112922Y600000D01*
X113232Y598439D01*
X114116Y597116D01*
X119116Y592116D01*
X120439Y591232D01*
X122000Y590922D01*
X122000Y590922D01*
X128652D01*
X128848Y590961D01*
X129048Y590941D01*
X129623Y591115D01*
X130212Y591232D01*
X130379Y591343D01*
X130571Y591401D01*
X131036Y591782D01*
X131368Y592004D01*
X132242Y591819D01*
X132738Y590123D01*
X132445Y588472D01*
X131632Y588002D01*
X129398Y585768D01*
X128635Y585234D01*
X128164Y585361D01*
X127717Y585558D01*
X127403Y585566D01*
X127099Y585648D01*
X124056Y585852D01*
X123919Y585834D01*
X123783Y585861D01*
X123134Y585732D01*
X122478Y585647D01*
X122358Y585578D01*
X122222Y585551D01*
X121672Y585183D01*
X121099Y584854D01*
X121014Y584744D01*
X120899Y584667D01*
X114116Y577884D01*
X113232Y576561D01*
X112922Y575000D01*
X112922Y575000D01*
Y404000D01*
X112922Y404000D01*
X113232Y402439D01*
X114116Y401116D01*
X114116Y401116D01*
X148154Y367078D01*
X146911Y364078D01*
X141000D01*
X141000Y364078D01*
X139439Y363768D01*
X138116Y362884D01*
X133116Y357884D01*
X132232Y356561D01*
X131922Y355000D01*
X131922Y355000D01*
Y140000D01*
X132232Y138439D01*
X133116Y137116D01*
X133116Y137116D01*
X173116Y97116D01*
X174439Y96232D01*
X176000Y95922D01*
X176000Y95922D01*
X523311D01*
X547116Y72116D01*
X548439Y71232D01*
X550000Y70922D01*
X550000Y70922D01*
X696000D01*
X697561Y71232D01*
X698884Y72116D01*
X698884Y72116D01*
X708121Y81353D01*
X710892Y80205D01*
Y77500D01*
X711319Y75354D01*
X712535Y73535D01*
X723035Y63035D01*
X724854Y61819D01*
X727000Y61392D01*
X940000D01*
X942146Y61819D01*
X943965Y63035D01*
X993965Y113035D01*
X995181Y114854D01*
X995608Y117000D01*
Y332377D01*
X1030730Y367500D01*
X1036953Y371000D01*
X1039880D01*
X1042932Y371818D01*
X1045668Y373398D01*
X1047902Y375632D01*
X1048836Y377248D01*
X1051251Y376983D01*
X1051989Y376711D01*
X1052712Y374966D01*
X1053994Y373294D01*
X1055666Y372012D01*
X1057612Y371206D01*
X1059700Y370931D01*
X1067700D01*
X1069788Y371206D01*
X1071734Y372012D01*
X1073406Y373294D01*
X1074688Y374966D01*
X1075494Y376912D01*
X1075769Y379000D01*
Y387000D01*
X1075494Y389088D01*
X1074688Y391035D01*
X1073406Y392706D01*
X1071734Y393988D01*
X1069989Y394711D01*
X1069716Y395449D01*
X1069452Y397864D01*
X1071068Y398798D01*
X1073302Y401032D01*
X1074882Y403768D01*
X1075700Y406820D01*
Y409601D01*
X1079361Y415409D01*
X1114326Y450374D01*
X1115652Y452359D01*
X1116117Y454700D01*
Y788771D01*
X1115652Y791112D01*
X1114326Y793096D01*
X1072996Y834426D01*
X1071012Y835752D01*
X1068671Y836217D01*
X1033329D01*
X1030988Y835752D01*
X1029004Y834426D01*
X1021974Y827396D01*
X1020648Y825412D01*
X1020182Y823071D01*
Y804700D01*
X1020648Y802359D01*
X1021974Y800374D01*
X1022639Y799709D01*
X1026300Y793901D01*
Y791120D01*
X1027118Y788068D01*
X1028698Y785332D01*
X1030932Y783098D01*
X1033585Y781566D01*
X1033668Y781211D01*
Y778789D01*
X1033585Y778434D01*
X1030932Y776902D01*
X1028698Y774668D01*
X1027118Y771932D01*
X1026300Y768880D01*
Y766099D01*
X1022639Y760291D01*
X1019974Y757626D01*
X1018648Y755641D01*
X1018183Y753300D01*
Y624773D01*
X1018648Y622432D01*
X1019974Y620447D01*
X1057582Y582839D01*
Y475230D01*
X1056293Y469545D01*
X1055499Y469038D01*
X1053271Y468423D01*
X1047029Y474665D01*
X1045209Y475881D01*
X1043063Y476308D01*
X1033537D01*
X1031391Y475881D01*
X1029571Y474665D01*
X956035Y401129D01*
X954819Y399309D01*
X954392Y397163D01*
Y112323D01*
X940177Y98108D01*
X874423D01*
X861410Y111121D01*
X862558Y113892D01*
X870012D01*
X872158Y114319D01*
X873977Y115535D01*
X922865Y164423D01*
X924081Y166243D01*
X924508Y168389D01*
Y206900D01*
X924081Y209046D01*
X922865Y210865D01*
X917900Y215830D01*
X914400Y222053D01*
Y224747D01*
X917900Y230970D01*
X942965Y256035D01*
X944181Y257854D01*
X944608Y260000D01*
Y537393D01*
X944181Y539539D01*
X942965Y541359D01*
X906358Y577966D01*
X907445Y581121D01*
X908088Y581206D01*
X910034Y582012D01*
X911706Y583294D01*
X912988Y584966D01*
X913794Y586912D01*
X914069Y589000D01*
Y597000D01*
X913794Y599088D01*
X912988Y601035D01*
X911706Y602706D01*
X910034Y603988D01*
X908289Y604711D01*
X908017Y605449D01*
X907751Y607864D01*
X909368Y608798D01*
X911602Y611032D01*
X913182Y613768D01*
X914000Y616820D01*
Y619747D01*
X917501Y625970D01*
X939465Y647935D01*
X940681Y649754D01*
X941108Y651900D01*
Y764500D01*
X941750D01*
Y782500D01*
X941750Y782500D01*
Y783500D01*
X941750D01*
X941750Y785500D01*
Y799982D01*
X943884Y802116D01*
X944768Y803439D01*
X945078Y805000D01*
X945078Y805000D01*
Y830000D01*
X944768Y831561D01*
X943884Y832884D01*
X943884Y832884D01*
X938884Y837884D01*
X937561Y838768D01*
X937302Y838819D01*
X936000Y839078D01*
D02*
G37*
G36*
X1065280Y261200D02*
X1062120D01*
X1059068Y260382D01*
X1056332Y258802D01*
X1054098Y256568D01*
X1052518Y253832D01*
X1052291Y252987D01*
X1050562Y250703D01*
X1050562Y250703D01*
Y250703D01*
X1048840Y250588D01*
X1048803Y250725D01*
X1048122Y253268D01*
X1046734Y255672D01*
X1044772Y257634D01*
X1042368Y259022D01*
X1039688Y259740D01*
X1039570D01*
Y249200D01*
Y238660D01*
X1039688D01*
X1042368Y239378D01*
X1044772Y240766D01*
X1046734Y242728D01*
X1048122Y245132D01*
X1048803Y247675D01*
X1048840Y247812D01*
X1050562Y247697D01*
Y247697D01*
X1050562Y247697D01*
X1052291Y245413D01*
X1052518Y244568D01*
X1054098Y241832D01*
X1056332Y239598D01*
X1058985Y238066D01*
X1059068Y237711D01*
Y235289D01*
X1058985Y234934D01*
X1056332Y233402D01*
X1054098Y231168D01*
X1052518Y228432D01*
X1052291Y227587D01*
X1050562Y225303D01*
X1050562Y225303D01*
Y225303D01*
X1048840Y225188D01*
X1048803Y225325D01*
X1048122Y227868D01*
X1046734Y230272D01*
X1044772Y232234D01*
X1042368Y233622D01*
X1039688Y234340D01*
X1039570D01*
Y223800D01*
Y213260D01*
X1039688D01*
X1042368Y213978D01*
X1044772Y215366D01*
X1046734Y217328D01*
X1048122Y219732D01*
X1048803Y222275D01*
X1048840Y222412D01*
X1050562Y222297D01*
Y222297D01*
X1050562Y222297D01*
X1052291Y220013D01*
X1052518Y219168D01*
X1054098Y216432D01*
X1056332Y214198D01*
X1058985Y212666D01*
X1059068Y212311D01*
Y209889D01*
X1058985Y209534D01*
X1056332Y208002D01*
X1054098Y205768D01*
X1052518Y203032D01*
X1052291Y202187D01*
X1050562Y199903D01*
X1050562Y199903D01*
Y199903D01*
X1048840Y199788D01*
X1048803Y199925D01*
X1048122Y202468D01*
X1046734Y204872D01*
X1044772Y206834D01*
X1042368Y208222D01*
X1039688Y208940D01*
X1039570D01*
Y198400D01*
Y187860D01*
X1039688D01*
X1042368Y188578D01*
X1044772Y189966D01*
X1046734Y191928D01*
X1048122Y194332D01*
X1048803Y196875D01*
X1048840Y197012D01*
X1050562Y196897D01*
Y196897D01*
X1050562Y196897D01*
X1052291Y194613D01*
X1052518Y193768D01*
X1054098Y191032D01*
X1056332Y188798D01*
X1057948Y187864D01*
X1057683Y185449D01*
X1057411Y184711D01*
X1055666Y183988D01*
X1053994Y182706D01*
X1052712Y181035D01*
X1051906Y179088D01*
X1051631Y177000D01*
Y175563D01*
X1048631Y175168D01*
X1048122Y177068D01*
X1046734Y179472D01*
X1044772Y181434D01*
X1042368Y182822D01*
X1039688Y183540D01*
X1039570D01*
Y173000D01*
Y162460D01*
X1039688D01*
X1042368Y163178D01*
X1044772Y164566D01*
X1046734Y166528D01*
X1048122Y168932D01*
X1048631Y170832D01*
X1051631Y170438D01*
Y169000D01*
X1051906Y166912D01*
X1052712Y164965D01*
X1053994Y163294D01*
X1055666Y162012D01*
X1057612Y161206D01*
X1059700Y160931D01*
X1067700D01*
X1069788Y161206D01*
X1071734Y162012D01*
X1073406Y163294D01*
X1074688Y164965D01*
X1075494Y166912D01*
X1075769Y169000D01*
Y177000D01*
X1075494Y179088D01*
X1074688Y181035D01*
X1073406Y182706D01*
X1071734Y183988D01*
X1069989Y184711D01*
X1069716Y185449D01*
X1069452Y187864D01*
X1071068Y188798D01*
X1073302Y191032D01*
X1074882Y193768D01*
X1075700Y196820D01*
Y199980D01*
X1074882Y203032D01*
X1073302Y205768D01*
X1071068Y208002D01*
X1068415Y209534D01*
X1068332Y209889D01*
Y212311D01*
X1068415Y212666D01*
X1071068Y214198D01*
X1073302Y216432D01*
X1074882Y219168D01*
X1075700Y222220D01*
Y225380D01*
X1074882Y228432D01*
X1073302Y231168D01*
X1071068Y233402D01*
X1068415Y234934D01*
X1068332Y235289D01*
Y237711D01*
X1068415Y238066D01*
X1071068Y239598D01*
X1073302Y241832D01*
X1074882Y244568D01*
X1075700Y247620D01*
Y250780D01*
X1074882Y253832D01*
X1073302Y256568D01*
X1071068Y258802D01*
X1068332Y260382D01*
X1065280Y261200D01*
D02*
G37*
G36*
X1037030Y259740D02*
X1036912D01*
X1034232Y259022D01*
X1031828Y257634D01*
X1029866Y255672D01*
X1028478Y253268D01*
X1027760Y250588D01*
Y250470D01*
X1037030D01*
Y259740D01*
D02*
G37*
G36*
Y247930D02*
X1027760D01*
Y247812D01*
X1028478Y245132D01*
X1029866Y242728D01*
X1031828Y240766D01*
X1034232Y239378D01*
X1036912Y238660D01*
X1037030D01*
Y247930D01*
D02*
G37*
G36*
Y234340D02*
X1036912D01*
X1034232Y233622D01*
X1031828Y232234D01*
X1029866Y230272D01*
X1028478Y227868D01*
X1027760Y225188D01*
Y225070D01*
X1037030D01*
Y234340D01*
D02*
G37*
G36*
Y222530D02*
X1027760D01*
Y222412D01*
X1028478Y219732D01*
X1029866Y217328D01*
X1031828Y215366D01*
X1034232Y213978D01*
X1036912Y213260D01*
X1037030D01*
Y222530D01*
D02*
G37*
G36*
Y208940D02*
X1036912D01*
X1034232Y208222D01*
X1031828Y206834D01*
X1029866Y204872D01*
X1028478Y202468D01*
X1027760Y199788D01*
Y199670D01*
X1037030D01*
Y208940D01*
D02*
G37*
G36*
Y197130D02*
X1027760D01*
Y197012D01*
X1028478Y194332D01*
X1029866Y191928D01*
X1031828Y189966D01*
X1034232Y188578D01*
X1036912Y187860D01*
X1037030D01*
Y197130D01*
D02*
G37*
G36*
Y183540D02*
X1036912D01*
X1034232Y182822D01*
X1031828Y181434D01*
X1029866Y179472D01*
X1028478Y177068D01*
X1027760Y174388D01*
Y174270D01*
X1037030D01*
Y183540D01*
D02*
G37*
G36*
Y171730D02*
X1027760D01*
Y171612D01*
X1028478Y168932D01*
X1029866Y166528D01*
X1031828Y164566D01*
X1034232Y163178D01*
X1036912Y162460D01*
X1037030D01*
Y171730D01*
D02*
G37*
%LPD*%
G36*
X710674Y821553D02*
X706127Y813471D01*
X700471Y819127D01*
X708553Y823674D01*
X710674Y821553D01*
D02*
G37*
G36*
X659874D02*
X655327Y813471D01*
X649670Y819127D01*
X657753Y823674D01*
X659874Y821553D01*
D02*
G37*
G36*
X634474D02*
X629927Y813471D01*
X624271Y819127D01*
X632353Y823674D01*
X634474Y821553D01*
D02*
G37*
G36*
X811639Y811861D02*
Y808861D01*
X807476Y808552D01*
X807957Y812227D01*
X811639Y811861D01*
D02*
G37*
G36*
X310472Y807400D02*
X301654Y809400D01*
Y813400D01*
X310472Y815400D01*
Y807400D01*
D02*
G37*
G36*
X1076248Y808380D02*
X1073420Y805552D01*
X1065771Y810373D01*
X1071427Y816029D01*
X1076248Y808380D01*
D02*
G37*
G36*
X941000Y830000D02*
Y805000D01*
X937500Y801500D01*
X929250D01*
Y801500D01*
X928750D01*
Y801500D01*
X921431D01*
X920608Y802323D01*
Y814000D01*
X920181Y816146D01*
X918965Y817965D01*
X904702Y832228D01*
X905850Y835000D01*
X936000D01*
X941000Y830000D01*
D02*
G37*
G36*
X786874Y801247D02*
X784753Y799126D01*
X776671Y803673D01*
X782327Y809329D01*
X786874Y801247D01*
D02*
G37*
G36*
X366129Y803673D02*
X358480Y798852D01*
X355652Y801680D01*
X360473Y809329D01*
X366129Y803673D01*
D02*
G37*
G36*
X1036229Y800427D02*
X1030573Y794771D01*
X1025752Y802420D01*
X1028580Y805248D01*
X1036229Y800427D01*
D02*
G37*
G36*
X386672Y782000D02*
X380900Y783309D01*
X375128Y782000D01*
Y790000D01*
X380900Y788691D01*
X386672Y790000D01*
Y782000D01*
D02*
G37*
G36*
X335872D02*
X328660Y783636D01*
X325389Y782000D01*
Y790000D01*
X328660Y788364D01*
X335872Y790000D01*
Y782000D01*
D02*
G37*
G36*
X897863Y793207D02*
Y783500D01*
X893122D01*
Y789250D01*
X892637Y791689D01*
X891256Y793756D01*
X884506Y800506D01*
X882439Y801887D01*
X880000Y802372D01*
X858000D01*
X855561Y801887D01*
X853494Y800506D01*
X843494Y790506D01*
X843353Y790295D01*
X840415Y790009D01*
X839701Y790229D01*
X815604Y814326D01*
X815506Y814392D01*
X816416Y817392D01*
X873677D01*
X897863Y793207D01*
D02*
G37*
G36*
X880378Y786610D02*
Y783500D01*
X874000D01*
Y780608D01*
X870362D01*
X867304Y781377D01*
X866769Y781686D01*
X864945Y782175D01*
X863055D01*
X861231Y781686D01*
X859594Y780741D01*
X858259Y779406D01*
X857314Y777769D01*
X854372Y778382D01*
Y783360D01*
X860640Y789628D01*
X877360D01*
X880378Y786610D01*
D02*
G37*
G36*
X1075974Y782547D02*
X1073853Y780426D01*
X1065771Y784973D01*
X1071427Y790629D01*
X1075974Y782547D01*
D02*
G37*
G36*
X318900Y775011D02*
X315900D01*
X314400Y778011D01*
X320400D01*
X318900Y775011D01*
D02*
G37*
G36*
X810414Y777615D02*
X807586Y774787D01*
X802940Y778560D01*
X806952Y782042D01*
X810414Y777615D01*
D02*
G37*
G36*
X468336Y778135D02*
X464061Y774622D01*
X461939Y776743D01*
X464321Y780170D01*
X468336Y778135D01*
D02*
G37*
G36*
X746291Y778548D02*
X740414Y774386D01*
X737586Y777214D01*
X741748Y783091D01*
X746291Y778548D01*
D02*
G37*
G36*
X763466Y781285D02*
X764998Y778632D01*
X766964Y776666D01*
X768482Y769970D01*
Y734000D01*
X762000D01*
Y712000D01*
X786000D01*
Y734000D01*
X780717D01*
Y769970D01*
X782236Y776666D01*
X784202Y778632D01*
X785734Y781285D01*
X786089Y781368D01*
X788511D01*
X788866Y781285D01*
X790398Y778632D01*
X792632Y776398D01*
X795368Y774818D01*
X798420Y774000D01*
X801580D01*
X802883Y771316D01*
Y734000D01*
X797000D01*
Y712000D01*
X821000D01*
Y734000D01*
X815118D01*
Y775973D01*
X815642Y776423D01*
X817939Y777394D01*
X824392Y770941D01*
Y647323D01*
X801677Y624608D01*
X749000D01*
X746854Y624181D01*
X745035Y622965D01*
X714035Y591965D01*
X712819Y590146D01*
X712392Y588000D01*
Y572000D01*
X712819Y569854D01*
X714035Y568035D01*
X718035Y564035D01*
X719854Y562819D01*
X722000Y562392D01*
X723250D01*
Y558500D01*
X723250Y558500D01*
Y557500D01*
X723250D01*
X723250Y555500D01*
Y539500D01*
X723892D01*
Y532887D01*
X721121Y531739D01*
X705608Y547252D01*
Y565000D01*
X705181Y567146D01*
X703965Y568965D01*
X633965Y638965D01*
X632146Y640181D01*
X630000Y640608D01*
X537323D01*
X534608Y643323D01*
Y726677D01*
X561323Y753392D01*
X564498D01*
X565741Y750392D01*
X559674Y744326D01*
X558348Y742341D01*
X557882Y740000D01*
Y734000D01*
X552000D01*
Y712000D01*
X576000D01*
Y734000D01*
X570117D01*
Y737466D01*
X575534Y742883D01*
X586778D01*
X589119Y743348D01*
X591104Y744674D01*
X616301Y769872D01*
X620132Y772426D01*
X620915Y772209D01*
X621799Y768851D01*
X594674Y741726D01*
X593348Y739741D01*
X592882Y737400D01*
Y734000D01*
X587000D01*
Y712000D01*
X611000D01*
Y734000D01*
X608494D01*
X607251Y737000D01*
X640591Y770339D01*
X645363Y773347D01*
X647066Y772960D01*
X648016Y769667D01*
X629674Y751326D01*
X628348Y749341D01*
X627882Y747000D01*
Y734000D01*
X622000D01*
Y712000D01*
X646000D01*
Y734000D01*
X640117D01*
Y744466D01*
X665991Y770339D01*
X670763Y773347D01*
X672466Y772960D01*
X673416Y769667D01*
X664674Y760926D01*
X663348Y758941D01*
X662883Y756600D01*
Y734000D01*
X657000D01*
Y712000D01*
X681000D01*
Y734000D01*
X675117D01*
Y754066D01*
X691391Y770339D01*
X696163Y773347D01*
X697866Y772960D01*
X698384Y772262D01*
X699107Y769677D01*
X698348Y768541D01*
X697883Y766200D01*
Y734000D01*
X692000D01*
Y712000D01*
X716000D01*
Y734000D01*
X710118D01*
Y763666D01*
X716791Y770339D01*
X722599Y774000D01*
X725380D01*
X728432Y774818D01*
X729883Y775655D01*
X732883Y774079D01*
Y734000D01*
X727000D01*
Y712000D01*
X751000D01*
Y734000D01*
X745117D01*
Y772175D01*
X747583Y774010D01*
X747620Y774000D01*
X750780D01*
X753832Y774818D01*
X756568Y776398D01*
X758802Y778632D01*
X760334Y781285D01*
X760689Y781368D01*
X763111D01*
X763466Y781285D01*
D02*
G37*
G36*
X357066D02*
X358598Y778632D01*
X360832Y776398D01*
X363568Y774818D01*
X366620Y774000D01*
X369780D01*
X372832Y774818D01*
X375568Y776398D01*
X377534Y778364D01*
X380900Y779127D01*
X384266Y778364D01*
X385085Y777544D01*
X386992Y770009D01*
Y635000D01*
X387419Y632854D01*
X388635Y631035D01*
X421290Y598379D01*
X420142Y595608D01*
X416368D01*
X370608Y641368D01*
Y723000D01*
X370181Y725146D01*
X368965Y726965D01*
X324496Y771434D01*
X325241Y774932D01*
X325434Y775012D01*
X327106Y776294D01*
X328388Y777965D01*
X328897Y779194D01*
X329180Y779336D01*
X333466Y778364D01*
X335432Y776398D01*
X338168Y774818D01*
X341220Y774000D01*
X344380D01*
X347432Y774818D01*
X350168Y776398D01*
X352402Y778632D01*
X353934Y781285D01*
X354289Y781368D01*
X356711D01*
X357066Y781285D01*
D02*
G37*
G36*
X598300Y773800D02*
X595300D01*
X594700Y778281D01*
X598900D01*
X598300Y773800D01*
D02*
G37*
G36*
X543929Y778273D02*
X535847Y773726D01*
X533726Y775847D01*
X538273Y783929D01*
X543929Y778273D01*
D02*
G37*
G36*
X518529D02*
X510447Y773726D01*
X508326Y775847D01*
X512873Y783929D01*
X518529Y778273D01*
D02*
G37*
G36*
X721729D02*
X714080Y773452D01*
X711252Y776280D01*
X716073Y783929D01*
X721729Y778273D01*
D02*
G37*
G36*
X696329D02*
X688680Y773452D01*
X685852Y776280D01*
X690673Y783929D01*
X696329Y778273D01*
D02*
G37*
G36*
X670929D02*
X663280Y773452D01*
X660452Y776280D01*
X665273Y783929D01*
X670929Y778273D01*
D02*
G37*
G36*
X645529D02*
X637880Y773452D01*
X635052Y776280D01*
X639873Y783929D01*
X645529Y778273D01*
D02*
G37*
G36*
X494359Y778044D02*
X486172Y773088D01*
X483710Y774868D01*
X487890Y782751D01*
X494359Y778044D01*
D02*
G37*
G36*
X621228Y778059D02*
X613536Y772930D01*
X610296Y775346D01*
X614837Y782872D01*
X621228Y778059D01*
D02*
G37*
G36*
X869973Y776500D02*
Y773500D01*
X865937Y772484D01*
Y777516D01*
X869973Y776500D01*
D02*
G37*
G36*
X571161Y778004D02*
X562598Y772477D01*
X560331Y774452D01*
X564355Y782209D01*
X571161Y778004D01*
D02*
G37*
G36*
X776600Y770254D02*
X772600D01*
X770600Y779072D01*
X778600D01*
X776600Y770254D01*
D02*
G37*
G36*
X447503Y778626D02*
X444900Y770016D01*
X441900Y770401D01*
X439565Y779626D01*
X447503Y778626D01*
D02*
G37*
G36*
X422103D02*
X419500Y770016D01*
X416500Y770401D01*
X414165Y779626D01*
X422103Y778626D01*
D02*
G37*
G36*
X396703D02*
X394100Y770016D01*
X391100Y770401D01*
X388765Y779626D01*
X396703Y778626D01*
D02*
G37*
G36*
X585666Y781285D02*
X587198Y778632D01*
X589432Y776398D01*
X589669Y774599D01*
X579677Y764608D01*
X564458D01*
X563310Y767379D01*
X565292Y769362D01*
X572478Y774000D01*
X572980D01*
X576032Y774818D01*
X578768Y776398D01*
X581002Y778632D01*
X582534Y781285D01*
X582889Y781368D01*
X585311D01*
X585666Y781285D01*
D02*
G37*
G36*
X1036229Y759573D02*
X1028580Y754752D01*
X1025752Y757580D01*
X1030573Y765229D01*
X1036229Y759573D01*
D02*
G37*
G36*
X522507Y773138D02*
X523251Y771181D01*
X499035Y746965D01*
X498608Y746326D01*
X495608Y747236D01*
Y753077D01*
X513030Y770499D01*
X519253Y774000D01*
X521827D01*
X522507Y773138D01*
D02*
G37*
G36*
X1052566Y762585D02*
X1054098Y759932D01*
X1056332Y757698D01*
X1059068Y756118D01*
X1061120Y755568D01*
X1060725Y752568D01*
X1059700D01*
X1057148Y752060D01*
X1054985Y750615D01*
X1053540Y748452D01*
X1053032Y745900D01*
Y744875D01*
X1050032Y744480D01*
X1049482Y746532D01*
X1047902Y749268D01*
X1045668Y751502D01*
X1043015Y753034D01*
X1042932Y753389D01*
Y755811D01*
X1043015Y756166D01*
X1045668Y757698D01*
X1047902Y759932D01*
X1049434Y762585D01*
X1049789Y762668D01*
X1052211D01*
X1052566Y762585D01*
D02*
G37*
G36*
X858259Y770594D02*
X859594Y769259D01*
X861231Y768314D01*
X863055Y767825D01*
X864945D01*
X866769Y768314D01*
X867304Y768623D01*
X870362Y769392D01*
X874000D01*
Y765500D01*
X874000Y765500D01*
Y764500D01*
X874000D01*
X874000Y762500D01*
Y746500D01*
X886500D01*
X887642Y743973D01*
Y679628D01*
X887706Y679307D01*
X884941Y677829D01*
X883968Y678802D01*
X881232Y680382D01*
X878180Y681200D01*
X875020D01*
X871968Y680382D01*
X869232Y678802D01*
X866998Y676568D01*
X865418Y673832D01*
X864600Y670780D01*
Y667620D01*
X865418Y664568D01*
X866998Y661832D01*
X869232Y659598D01*
X871885Y658066D01*
X871968Y657711D01*
Y655289D01*
X871885Y654934D01*
X869232Y653402D01*
X866998Y651168D01*
X865418Y648432D01*
X864600Y645380D01*
Y642453D01*
X861099Y636230D01*
X853035Y628165D01*
X851819Y626346D01*
X851392Y624200D01*
Y589000D01*
X851819Y586854D01*
X853035Y585035D01*
X917892Y520177D01*
Y480614D01*
X915121Y479466D01*
X847621Y546965D01*
X845802Y548181D01*
X843656Y548608D01*
X814752D01*
X813509Y551608D01*
X829218Y567317D01*
X830544Y569301D01*
X831010Y571642D01*
Y575205D01*
X831412Y577756D01*
X831686Y578231D01*
X832175Y580055D01*
Y581945D01*
X831686Y583769D01*
X830741Y585406D01*
X829406Y586741D01*
X827769Y587686D01*
X825945Y588175D01*
X824055D01*
X823078Y588925D01*
Y594000D01*
X822951Y594641D01*
X822869Y595290D01*
X822796Y595417D01*
X822768Y595561D01*
X822405Y596104D01*
X822081Y596672D01*
X821965Y596762D01*
X821884Y596884D01*
X821340Y597247D01*
X820824Y597648D01*
X816288Y599916D01*
X815807Y602877D01*
X839965Y627035D01*
X841181Y628854D01*
X841608Y631000D01*
Y732082D01*
X841943Y732449D01*
X844608Y733673D01*
X845230Y733314D01*
X847055Y732825D01*
X848945D01*
X850769Y733314D01*
X852405Y734259D01*
X853741Y735594D01*
X854686Y737231D01*
X855175Y739055D01*
Y740945D01*
X854686Y742769D01*
X854372Y743313D01*
Y771618D01*
X857314Y772231D01*
X858259Y770594D01*
D02*
G37*
G36*
X552504Y772435D02*
X512035Y731965D01*
X511608Y731326D01*
X508608Y732236D01*
Y740677D01*
X538430Y770499D01*
X544653Y774000D01*
X547580D01*
X550632Y774818D01*
X550662Y774835D01*
X552504Y772435D01*
D02*
G37*
G36*
X1079392Y767073D02*
Y466255D01*
X1077057Y464247D01*
X1074240Y464943D01*
X1073302Y466568D01*
X1071336Y468534D01*
X1069818Y475230D01*
Y585373D01*
X1069352Y587714D01*
X1068026Y589699D01*
X1030418Y627307D01*
Y729130D01*
X1033418Y730862D01*
X1033668Y730718D01*
X1036720Y729900D01*
X1039880D01*
X1042932Y730718D01*
X1045668Y732298D01*
X1047902Y734532D01*
X1049482Y737268D01*
X1050032Y739320D01*
X1053032Y738925D01*
Y737900D01*
X1053540Y735348D01*
X1054985Y733185D01*
X1057148Y731740D01*
X1059700Y731232D01*
X1062430D01*
Y741900D01*
X1063700D01*
Y743170D01*
X1074368D01*
Y745900D01*
X1073860Y748452D01*
X1072415Y750615D01*
X1070252Y752060D01*
X1067700Y752568D01*
X1066675D01*
X1066280Y755568D01*
X1068332Y756118D01*
X1071068Y757698D01*
X1073302Y759932D01*
X1074882Y762668D01*
X1075700Y765720D01*
Y766100D01*
X1078700Y767595D01*
X1079392Y767073D01*
D02*
G37*
G36*
X137510Y816895D02*
Y812220D01*
X143500D01*
Y810950D01*
X144770D01*
Y803460D01*
X145550D01*
Y802000D01*
X169950D01*
Y804883D01*
X195500D01*
Y799750D01*
X213000D01*
Y799750D01*
X215000D01*
Y799750D01*
X232500D01*
Y805283D01*
X301370D01*
X303901Y804708D01*
X304851Y801417D01*
X299174Y795740D01*
X297848Y793755D01*
X297383Y791414D01*
Y768084D01*
X297848Y765743D01*
X299174Y763758D01*
X313883Y749050D01*
Y584805D01*
X311111Y583657D01*
X305884Y588884D01*
X304561Y589768D01*
X303000Y590078D01*
X303000Y590078D01*
X295500D01*
X294040Y591277D01*
Y592230D01*
X279960D01*
Y592113D01*
X279808Y591734D01*
X276960Y589471D01*
X275839Y589564D01*
X275668Y589545D01*
X275500Y589578D01*
X274883Y589456D01*
X274258Y589384D01*
X274107Y589301D01*
X273939Y589268D01*
X273416Y588918D01*
X272866Y588613D01*
X272759Y588479D01*
X272616Y588384D01*
X258116Y573884D01*
X257232Y572561D01*
X256922Y571000D01*
X256922Y571000D01*
Y567279D01*
X255243Y564974D01*
X248137D01*
X247932Y565111D01*
X245667Y565562D01*
X245078Y566151D01*
Y570000D01*
X245078Y570000D01*
X244768Y571561D01*
X243884Y572884D01*
X238884Y577884D01*
X235078Y581689D01*
Y601311D01*
X268884Y635116D01*
X269768Y636439D01*
X270078Y638000D01*
X270078Y638000D01*
X270078Y652985D01*
X271250Y655500D01*
X272614Y655500D01*
X278909D01*
X279500Y655383D01*
X292500D01*
Y654000D01*
X309500D01*
Y666500D01*
Y682000D01*
X307078D01*
Y685000D01*
X307078Y685000D01*
X306768Y686561D01*
X305884Y687884D01*
X305884Y687884D01*
X301384Y692384D01*
X301290Y692447D01*
Y696730D01*
X294500D01*
Y698000D01*
X293230D01*
Y705040D01*
X289750D01*
Y706500D01*
X276672D01*
X276271Y706768D01*
X274710Y707078D01*
X178908D01*
X178115Y707847D01*
X176913Y710078D01*
X177175Y711055D01*
Y712945D01*
X176686Y714769D01*
X175741Y716406D01*
X174405Y717741D01*
X172769Y718686D01*
X170945Y719175D01*
X169055D01*
X168695Y719078D01*
X149689D01*
X137627Y731140D01*
Y736255D01*
X142495Y741123D01*
X153000D01*
Y739500D01*
X154460D01*
Y735520D01*
X162000D01*
X169540D01*
Y739500D01*
X171000D01*
Y741123D01*
X187300D01*
Y722750D01*
X207300D01*
Y739250D01*
Y757250D01*
X187300D01*
Y754377D01*
X171000D01*
Y756000D01*
X153000D01*
Y755078D01*
X132689D01*
X130627Y757140D01*
Y814255D01*
X134510Y818138D01*
X137510Y816895D01*
D02*
G37*
G36*
X126000Y756000D02*
X131000Y751000D01*
X158000D01*
Y746000D01*
X141000D01*
X133000Y738000D01*
Y730000D01*
X148000Y715000D01*
X170000D01*
Y709000D01*
X146000D01*
X121000Y734000D01*
Y770000D01*
X126000Y775000D01*
Y756000D01*
D02*
G37*
G36*
X928750Y764500D02*
X929892Y761973D01*
Y695736D01*
X926892Y694826D01*
X926465Y695465D01*
X911608Y710323D01*
Y751677D01*
X924431Y764500D01*
X928750D01*
D02*
G37*
G36*
X899822Y676898D02*
X895279Y673540D01*
X892189Y678567D01*
X894311Y680688D01*
X899822Y676898D01*
D02*
G37*
G36*
X274710Y699270D02*
X281500D01*
Y698000D01*
X282770D01*
Y690960D01*
X286250D01*
Y689500D01*
X298500D01*
X303000Y685000D01*
Y680540D01*
X302270D01*
Y674250D01*
X301000D01*
Y672980D01*
X293960D01*
Y672000D01*
X286290D01*
Y673230D01*
X279500D01*
Y674500D01*
X278230D01*
Y679040D01*
X272710D01*
X271000Y681000D01*
X259000Y693000D01*
X161000D01*
X127000Y659000D01*
Y633724D01*
X126931Y633200D01*
Y625200D01*
X127000Y624676D01*
Y621000D01*
X132385Y615615D01*
X132524Y612336D01*
X132501Y612207D01*
X130566Y610272D01*
X129178Y607868D01*
X128460Y605188D01*
Y605070D01*
X139000D01*
Y602530D01*
X128460D01*
Y602412D01*
X129178Y599732D01*
X130178Y598000D01*
X129382Y595889D01*
X128652Y595000D01*
X122000D01*
X117000Y600000D01*
Y617000D01*
Y663000D01*
X157000Y703000D01*
X274710D01*
Y699270D01*
D02*
G37*
G36*
X256000Y687000D02*
Y679040D01*
X253710D01*
Y674372D01*
X252000D01*
X249561Y673887D01*
X247494Y672506D01*
X244988Y670000D01*
X240040D01*
Y672230D01*
X233000D01*
X225960D01*
Y670000D01*
X224000D01*
X215000Y661000D01*
Y642000D01*
X227000Y630000D01*
X242000D01*
X257000Y645000D01*
Y656960D01*
X259230D01*
Y661500D01*
X261770D01*
Y656960D01*
X266000D01*
X266000Y638000D01*
X231000Y603000D01*
Y580000D01*
X236000Y575000D01*
X241000Y570000D01*
Y565000D01*
X239514Y563514D01*
X237203D01*
Y561203D01*
X236000Y560000D01*
X227018D01*
Y561993D01*
X219978D01*
X212938D01*
Y560000D01*
X211000D01*
X203000Y552000D01*
X203000Y530000D01*
X213000Y520000D01*
X231000D01*
X242000Y531000D01*
Y541934D01*
X244223D01*
Y546224D01*
X246763D01*
Y541934D01*
X250000D01*
Y525000D01*
X236000Y511000D01*
X215000D01*
X211000Y507000D01*
X211000Y454000D01*
X214306Y450694D01*
X214136Y450439D01*
X213901Y449255D01*
Y447372D01*
X211000D01*
X208561Y446887D01*
X207034Y445867D01*
X205196Y446447D01*
X204034Y447289D01*
Y454284D01*
X198264D01*
Y447494D01*
X196994D01*
Y446224D01*
X189954D01*
Y444000D01*
X170000D01*
X161000Y435000D01*
Y425000D01*
X171000Y415000D01*
X212000Y415000D01*
X217000Y420000D01*
X217000Y429651D01*
X220480D01*
Y434500D01*
X223020D01*
Y429651D01*
X226000D01*
Y415000D01*
X216000Y405000D01*
X166000Y405000D01*
X151000Y420000D01*
Y442000D01*
X194000Y485000D01*
Y515000D01*
Y532290D01*
X194768Y533439D01*
X195078Y535000D01*
X195078Y535000D01*
Y559078D01*
X216000Y580000D01*
Y610000D01*
X177000Y649000D01*
X156000Y649000D01*
X151000Y644000D01*
Y638445D01*
X148000Y637427D01*
X147664Y637864D01*
X146298Y638913D01*
X144707Y639572D01*
X143000Y639796D01*
X142663D01*
X144000Y637045D01*
X140270D01*
Y629200D01*
X137730D01*
Y637045D01*
X134000D01*
X135337Y639796D01*
X135039D01*
X134963Y639875D01*
X133644Y642644D01*
X179922Y688922D01*
X254078D01*
X256000Y687000D01*
D02*
G37*
G36*
X252250Y667500D02*
Y655500D01*
X252922D01*
Y646689D01*
X240311Y634078D01*
X228689D01*
X219078Y643689D01*
Y659311D01*
X222960Y663192D01*
X225960Y661950D01*
Y661770D01*
X233000D01*
X240040D01*
Y665250D01*
X241500D01*
Y665922D01*
X244988D01*
X244988Y665922D01*
X246549Y666232D01*
X247872Y667116D01*
X247872Y667116D01*
X248883Y668128D01*
X249510D01*
X252250Y667500D01*
D02*
G37*
G36*
X888874Y659047D02*
X886753Y656926D01*
X878671Y661473D01*
X884327Y667130D01*
X888874Y659047D01*
D02*
G37*
G36*
X171382Y686150D02*
X133850Y648618D01*
X131078Y649766D01*
Y657311D01*
X162689Y688922D01*
X170234D01*
X171382Y686150D01*
D02*
G37*
G36*
X914274Y653953D02*
X909727Y645871D01*
X904071Y651527D01*
X912153Y656074D01*
X914274Y653953D01*
D02*
G37*
G36*
X874529Y636073D02*
X866447Y631526D01*
X864326Y633647D01*
X868873Y641730D01*
X874529Y636073D01*
D02*
G37*
G36*
X457890Y779366D02*
X458180Y778368D01*
X457819Y777828D01*
X457392Y775682D01*
Y633000D01*
X457819Y630854D01*
X458826Y629347D01*
X456496Y627435D01*
X449008Y634923D01*
Y769510D01*
X450946Y775923D01*
X451768Y776398D01*
X454002Y778632D01*
X454377Y779280D01*
X456410Y779776D01*
X457890Y779366D01*
D02*
G37*
G36*
X914274Y628553D02*
X909727Y620471D01*
X904071Y626127D01*
X912153Y630674D01*
X914274Y628553D01*
D02*
G37*
G36*
X154578Y625132D02*
X155966Y622728D01*
X157928Y620766D01*
X160332Y619378D01*
X163012Y618660D01*
X162820Y615800D01*
X159768Y614982D01*
X157032Y613402D01*
X154798Y611168D01*
X153266Y608515D01*
X152911Y608432D01*
X150489D01*
X150134Y608515D01*
X148602Y611168D01*
X146368Y613402D01*
X144752Y614336D01*
X145016Y616751D01*
X145289Y617489D01*
X147035Y618212D01*
X148706Y619494D01*
X149988Y621166D01*
X150794Y623112D01*
X151069Y625200D01*
Y626637D01*
X154069Y627032D01*
X154578Y625132D01*
D02*
G37*
G36*
X888874Y608247D02*
X886753Y606126D01*
X878671Y610673D01*
X884327Y616329D01*
X888874Y608247D01*
D02*
G37*
G36*
X809565Y612496D02*
X806677Y609608D01*
X776000D01*
X773854Y609181D01*
X772035Y607965D01*
X769850Y605781D01*
X767078Y606929D01*
Y609000D01*
X767034Y609223D01*
X767053Y609450D01*
X766880Y609998D01*
X766801Y610392D01*
X766796Y610649D01*
X767067Y611494D01*
X767385Y612049D01*
X768224Y613166D01*
X768484Y613392D01*
X804000D01*
X806146Y613819D01*
X807653Y614826D01*
X809565Y612496D01*
D02*
G37*
G36*
X433266Y781285D02*
X434798Y778632D01*
X435885Y777544D01*
X437792Y770009D01*
Y632600D01*
X438219Y630454D01*
X439435Y628635D01*
X459690Y608379D01*
X458542Y605608D01*
X454323D01*
X423608Y636323D01*
Y769510D01*
X425546Y775923D01*
X426368Y776398D01*
X428602Y778632D01*
X430134Y781285D01*
X430489Y781368D01*
X432911D01*
X433266Y781285D01*
D02*
G37*
G36*
X407866D02*
X409398Y778632D01*
X410485Y777544D01*
X412392Y770009D01*
Y634000D01*
X412819Y631854D01*
X414035Y630035D01*
X440690Y603379D01*
X439542Y600608D01*
X434923D01*
X398208Y637323D01*
Y769510D01*
X400146Y775923D01*
X400968Y776398D01*
X403202Y778632D01*
X404734Y781285D01*
X405089Y781368D01*
X407511D01*
X407866Y781285D01*
D02*
G37*
G36*
X901637Y600989D02*
X895637Y600196D01*
X897137Y603886D01*
X900136Y603989D01*
X901637Y600989D01*
D02*
G37*
G36*
X313883Y575117D02*
Y413534D01*
X258466Y358117D01*
X215000D01*
X214409Y358000D01*
X163000D01*
X117000Y404000D01*
Y575000D01*
X123783Y581783D01*
X126826Y581579D01*
X128035Y579670D01*
X139000D01*
Y577130D01*
X128460D01*
Y577012D01*
X129178Y574332D01*
X130566Y571928D01*
X132528Y569966D01*
X132652Y569894D01*
X133146Y566146D01*
X127000Y560000D01*
Y551420D01*
Y408000D01*
X167000Y368000D01*
X255000D01*
X304000Y417000D01*
Y547000D01*
X296000Y555000D01*
X294040D01*
Y557980D01*
X287000D01*
X279960D01*
Y555000D01*
X274283D01*
Y557954D01*
X265993D01*
Y559224D01*
X264723D01*
Y563514D01*
X261000D01*
Y571000D01*
X275500Y585500D01*
X278500Y585250D01*
X279960Y582855D01*
Y581770D01*
X294040D01*
Y585250D01*
X295500D01*
Y586000D01*
X303000D01*
X313883Y575117D01*
D02*
G37*
G36*
X763000Y609000D02*
Y601000D01*
X739000Y577000D01*
X727000D01*
X724000Y580000D01*
Y585000D01*
X752000Y613000D01*
X758000D01*
X763000Y609000D01*
D02*
G37*
G36*
X827483Y579021D02*
X826892Y575275D01*
X822892Y575451D01*
X822451Y579106D01*
X827483Y579021D01*
D02*
G37*
G36*
X783000Y574359D02*
X779000D01*
X778484Y578063D01*
X783516D01*
X783000Y574359D01*
D02*
G37*
G36*
X211922Y608311D02*
Y581689D01*
X197850Y567618D01*
X195078Y568766D01*
Y608000D01*
X195078Y608000D01*
X194768Y609561D01*
X193884Y610884D01*
X188884Y615884D01*
X188884Y615884D01*
X187561Y616768D01*
X186000Y617078D01*
X186000Y617078D01*
X176000D01*
X174439Y616768D01*
X173116Y615884D01*
X173116Y615884D01*
X171049Y613817D01*
X169032Y614982D01*
X165980Y615800D01*
X165788Y618660D01*
X168468Y619378D01*
X170872Y620766D01*
X172834Y622728D01*
X174222Y625132D01*
X174940Y627812D01*
Y627930D01*
X164400D01*
Y629200D01*
X163130D01*
Y639740D01*
X163012D01*
X160332Y639022D01*
X157936Y637639D01*
X157918Y637642D01*
X156560Y638026D01*
X155078Y639027D01*
Y642311D01*
X157689Y644922D01*
X175311Y644922D01*
X211922Y608311D01*
D02*
G37*
G36*
X819000Y594000D02*
Y584958D01*
X818314Y583769D01*
X817825Y581945D01*
Y580055D01*
X818314Y578231D01*
X818485Y577934D01*
X818775Y575531D01*
Y574176D01*
X806098Y561500D01*
X787151D01*
X787117Y562458D01*
Y574358D01*
X787464Y576846D01*
X787686Y577231D01*
X788175Y579055D01*
Y580945D01*
X787686Y582769D01*
X786741Y584406D01*
X786325Y584822D01*
X786000Y594000D01*
X790392Y598392D01*
X809000D01*
X809870Y598565D01*
X819000Y594000D01*
D02*
G37*
G36*
X576460Y561003D02*
Y557520D01*
X591540D01*
Y558580D01*
X593885Y560460D01*
X596047Y559517D01*
Y533728D01*
X595491Y533349D01*
X593047Y532673D01*
X591486Y534234D01*
X588854Y535754D01*
X585919Y536540D01*
X585670D01*
Y525000D01*
Y513460D01*
X585919D01*
X588854Y514246D01*
X591486Y515766D01*
X593047Y517327D01*
X595491Y516651D01*
X596047Y516272D01*
Y483047D01*
X596000Y483000D01*
Y475000D01*
X551000Y430000D01*
Y405000D01*
X603000Y353000D01*
X633105D01*
X633966Y351030D01*
X634080Y350000D01*
X632166Y348086D01*
X630647Y345454D01*
X629860Y342519D01*
Y342270D01*
X652940D01*
Y342519D01*
X652154Y345454D01*
X650634Y348086D01*
X648720Y350000D01*
X648834Y351030D01*
X649695Y353000D01*
X674000D01*
X676000Y351000D01*
Y347540D01*
X672270D01*
Y340750D01*
X671000D01*
Y339480D01*
X663460D01*
Y335500D01*
X662000D01*
Y334000D01*
X656000D01*
X652370Y330370D01*
X651483Y330521D01*
X650458Y333738D01*
X650634Y333914D01*
X652154Y336546D01*
X652940Y339481D01*
Y339730D01*
X629860D01*
Y339481D01*
X630647Y336546D01*
X632166Y333914D01*
X634080Y332000D01*
X633966Y330970D01*
X633105Y329000D01*
X506000D01*
X495000Y318000D01*
Y291949D01*
X492161Y291123D01*
X492000Y291120D01*
X489886Y293234D01*
X487254Y294754D01*
X484319Y295540D01*
X484070D01*
Y284000D01*
Y272460D01*
X484319D01*
X487254Y273246D01*
X489886Y274766D01*
X492000Y276880D01*
X492161Y276877D01*
X495000Y276051D01*
Y251000D01*
X490540D01*
Y254480D01*
X483000D01*
X475460D01*
Y251000D01*
X470000D01*
Y277090D01*
X473000Y277894D01*
X473566Y276914D01*
X475714Y274766D01*
X478346Y273246D01*
X481281Y272460D01*
X481530D01*
Y284000D01*
Y295540D01*
X481281D01*
X478346Y294754D01*
X475714Y293234D01*
X473566Y291086D01*
X473000Y290106D01*
X470000Y290910D01*
Y415000D01*
X455000Y430000D01*
X407656D01*
X406852Y433000D01*
X407486Y433366D01*
X409634Y435514D01*
X411154Y438146D01*
X411940Y441081D01*
Y441330D01*
X388860D01*
Y441081D01*
X389646Y438146D01*
X391166Y435514D01*
X393314Y433366D01*
X393948Y433000D01*
X393144Y430000D01*
X386000D01*
X281000Y325000D01*
X276000D01*
X271000Y330000D01*
Y335000D01*
X369000Y433000D01*
Y433000D01*
X370500D01*
Y434460D01*
X374480D01*
Y442000D01*
Y449540D01*
X370500D01*
Y451000D01*
X369000D01*
Y459000D01*
X370500D01*
Y460460D01*
X374480D01*
Y468000D01*
Y475540D01*
X370500D01*
Y477000D01*
X369000D01*
Y480000D01*
X374000Y485000D01*
X381000D01*
X386000Y480000D01*
X392105D01*
X392966Y478030D01*
X393080Y477000D01*
X391166Y475086D01*
X389646Y472454D01*
X388860Y469519D01*
Y469270D01*
X411940D01*
Y469519D01*
X411154Y472454D01*
X409634Y475086D01*
X407720Y477000D01*
X407834Y478030D01*
X408695Y480000D01*
X415000D01*
X440000Y455000D01*
X539000D01*
X547000Y463000D01*
Y516705D01*
X548970Y517566D01*
X550000Y517680D01*
X551914Y515766D01*
X554546Y514246D01*
X557481Y513460D01*
X557730D01*
Y525000D01*
Y536540D01*
X557481D01*
X554546Y535754D01*
X551914Y534234D01*
X550000Y532320D01*
X548970Y532434D01*
X547000Y533295D01*
Y557404D01*
X549589Y559396D01*
X551460Y558621D01*
Y557520D01*
X566540D01*
Y558882D01*
X568661Y561003D01*
X576460Y561003D01*
D02*
G37*
G36*
X235743Y553474D02*
Y551974D01*
X235743D01*
Y540474D01*
X237922D01*
Y532689D01*
X229311Y524078D01*
X214689D01*
X207078Y531689D01*
X207078Y550311D01*
X209938Y553171D01*
X212938Y551928D01*
Y551533D01*
X219978D01*
X227018D01*
Y555013D01*
X228478D01*
Y555922D01*
X234410D01*
X235743Y553474D01*
D02*
G37*
G36*
X140270Y545517D02*
X141141Y545292D01*
X140554Y542332D01*
X142000Y541223D01*
Y413000D01*
X173000Y382000D01*
X249000D01*
X289000Y422000D01*
Y481000D01*
X277000Y493000D01*
X259000D01*
X252000Y486000D01*
Y483500D01*
X251250D01*
Y482040D01*
X247770D01*
Y475000D01*
Y467960D01*
X251250D01*
Y466500D01*
X252000D01*
Y453166D01*
X251005Y452350D01*
X247520D01*
Y447500D01*
X246250D01*
Y446230D01*
X238400D01*
Y446000D01*
X231088D01*
Y449255D01*
X231000Y449698D01*
Y485000D01*
X249000Y503000D01*
X281000D01*
X299000Y485000D01*
Y418000D01*
X253078Y372078D01*
X168922D01*
X132000Y409000D01*
Y541407D01*
X133977Y542601D01*
X133395Y547292D01*
X137730Y546172D01*
Y553000D01*
X140270D01*
Y545517D01*
D02*
G37*
G36*
X299922Y544691D02*
Y493766D01*
X297150Y492618D01*
X283884Y505884D01*
X282561Y506768D01*
X281000Y507078D01*
X281000Y507078D01*
X249000D01*
X249000Y507078D01*
X247439Y506768D01*
X246116Y505884D01*
X228116Y487884D01*
X227232Y486561D01*
X226922Y485000D01*
X226922Y485000D01*
Y454180D01*
X226505Y453838D01*
X221923D01*
X221750Y453872D01*
X217326D01*
X215078Y456120D01*
X215078Y505311D01*
X216689Y506922D01*
X236000D01*
X237561Y507232D01*
X238884Y508116D01*
X238884Y508116D01*
X252884Y522116D01*
X252884Y522116D01*
X253768Y523439D01*
X254078Y525000D01*
X254078Y525000D01*
Y538458D01*
X256243Y540474D01*
X264145D01*
X265993Y540106D01*
X278500D01*
Y539000D01*
X295500D01*
Y544467D01*
X298500Y545813D01*
X299922Y544691D01*
D02*
G37*
G36*
X366000Y560000D02*
X496460D01*
Y556520D01*
X511540D01*
Y560000D01*
X515000D01*
X520000Y555000D01*
Y533610D01*
X518777Y532884D01*
X517000Y532520D01*
X515286Y534234D01*
X512654Y535754D01*
X509719Y536540D01*
X509470D01*
Y525000D01*
Y513460D01*
X509719D01*
X512654Y514246D01*
X515286Y515766D01*
X517000Y517480D01*
X518777Y517116D01*
X520000Y516389D01*
Y505000D01*
X537000Y488000D01*
Y479000D01*
X531000Y473000D01*
X523000D01*
X496000Y500000D01*
Y517051D01*
X498839Y517877D01*
X499000Y517880D01*
X501114Y515766D01*
X503746Y514246D01*
X506681Y513460D01*
X506930D01*
Y525000D01*
Y536540D01*
X506681D01*
X503746Y535754D01*
X501114Y534234D01*
X499000Y532120D01*
X498839Y532123D01*
X496000Y532949D01*
Y535000D01*
X491000Y540000D01*
X366000D01*
X341000Y565000D01*
Y570000D01*
X346000Y575000D01*
X351000D01*
X366000Y560000D01*
D02*
G37*
G36*
X780391Y597805D02*
X782149Y595243D01*
X782063Y594711D01*
X781922Y594000D01*
X781936Y593928D01*
X781924Y593856D01*
X782056Y590129D01*
X780055Y587175D01*
X778231Y586686D01*
X776594Y585741D01*
X775258Y584406D01*
X774314Y582769D01*
X773825Y580945D01*
Y579055D01*
X774314Y577231D01*
X774536Y576846D01*
X774882Y574358D01*
Y559000D01*
X775348Y556659D01*
X776674Y554674D01*
X783174Y548174D01*
X785159Y546848D01*
X786250Y546631D01*
Y543500D01*
X786250Y543500D01*
Y542500D01*
X786250D01*
Y540858D01*
X784500Y539108D01*
X782354Y538681D01*
X780535Y537465D01*
X774608Y531538D01*
X771608Y532781D01*
Y540000D01*
X771181Y542146D01*
X769965Y543965D01*
X762458Y551473D01*
X760639Y552688D01*
X758493Y553115D01*
X750235D01*
X748750Y556115D01*
X748750Y557500D01*
X748750D01*
Y558500D01*
X748750D01*
Y567708D01*
X748858Y568250D01*
Y568927D01*
X777759Y597829D01*
X780391Y597805D01*
D02*
G37*
G36*
X859342Y519384D02*
X858194Y516612D01*
X783318D01*
X782608Y517323D01*
Y523055D01*
X785063Y524991D01*
X786250Y524500D01*
Y524500D01*
X798750D01*
Y524500D01*
X799250D01*
Y524500D01*
X811750D01*
Y533820D01*
X815323Y537392D01*
X841333D01*
X859342Y519384D01*
D02*
G37*
G36*
X153266Y548285D02*
X154798Y545632D01*
X157032Y543398D01*
X159768Y541818D01*
X162165Y541175D01*
X163053Y539304D01*
X163232Y538000D01*
X148850Y523618D01*
X146078Y524766D01*
Y541223D01*
X146026Y541487D01*
X146044Y541755D01*
X145872Y542260D01*
X145768Y542784D01*
X145840Y543093D01*
X146368Y543398D01*
X148602Y545632D01*
X150134Y548285D01*
X150489Y548368D01*
X152911D01*
X153266Y548285D01*
D02*
G37*
G36*
X359392Y720677D02*
Y639045D01*
X359819Y636899D01*
X361035Y635080D01*
X410080Y586035D01*
X411899Y584819D01*
X414045Y584392D01*
X606677D01*
X639392Y551677D01*
Y536290D01*
X639819Y534144D01*
X641035Y532324D01*
X688392Y484967D01*
Y479078D01*
X680000D01*
X678540Y480276D01*
Y480480D01*
X671000D01*
X663460D01*
Y480276D01*
X662000Y479078D01*
X654148D01*
X653409Y478932D01*
X652667Y478800D01*
X652630Y478777D01*
X652587Y478768D01*
X651960Y478349D01*
X651433Y478013D01*
X651067Y478124D01*
X650008Y478860D01*
X650948Y481860D01*
X652940D01*
Y492130D01*
X629860D01*
Y483635D01*
X629860Y482078D01*
X629111Y482078D01*
X626000D01*
X624439Y481768D01*
X623116Y480884D01*
X623116Y480884D01*
X618116Y475884D01*
X617232Y474561D01*
X616922Y473000D01*
X616922Y473000D01*
Y460000D01*
X616966Y459777D01*
X616946Y459550D01*
X617120Y459002D01*
X617232Y458439D01*
X617359Y458250D01*
X617427Y458033D01*
X617797Y457594D01*
X618116Y457116D01*
X618306Y456990D01*
X618452Y456815D01*
X623452Y452815D01*
X623962Y452551D01*
X624439Y452232D01*
X624663Y452188D01*
X624865Y452083D01*
X625437Y452034D01*
X626000Y451922D01*
X628307D01*
X630039Y448922D01*
X629286Y447618D01*
X628400Y444311D01*
Y440888D01*
X629286Y437582D01*
X630997Y434618D01*
X633418Y432197D01*
X634397Y431632D01*
Y428168D01*
X633418Y427603D01*
X630997Y425182D01*
X629286Y422218D01*
X628400Y418912D01*
Y415489D01*
X629286Y412182D01*
X630997Y409218D01*
X633418Y406797D01*
X634397Y406232D01*
Y402768D01*
X633418Y402203D01*
X630997Y399782D01*
X629286Y396818D01*
X628400Y393512D01*
Y390089D01*
X629286Y386782D01*
X630997Y383818D01*
X633418Y381397D01*
X634397Y380832D01*
Y377368D01*
X633418Y376803D01*
X630997Y374382D01*
X629286Y371418D01*
X628400Y368111D01*
Y364688D01*
X629286Y361382D01*
X630039Y360078D01*
X628307Y357078D01*
X604689D01*
X555078Y406689D01*
Y428311D01*
X598884Y472116D01*
X599768Y473439D01*
X600078Y475000D01*
X600078Y475000D01*
Y482810D01*
X600126Y483047D01*
X600126Y483047D01*
Y512250D01*
X603125Y513842D01*
X604782Y512886D01*
X608088Y512000D01*
X611511D01*
X614818Y512886D01*
X617782Y514597D01*
X620203Y517018D01*
X621914Y519982D01*
X622800Y523288D01*
Y526712D01*
X621914Y530018D01*
X620203Y532982D01*
X617782Y535403D01*
X614818Y537114D01*
X611511Y538000D01*
X608088D01*
X604782Y537114D01*
X603125Y536158D01*
X600126Y537750D01*
Y559517D01*
X599978Y560261D01*
X599843Y561007D01*
X599823Y561040D01*
X599815Y561078D01*
X599393Y561709D01*
X598984Y562347D01*
X598952Y562369D01*
X598931Y562401D01*
X598300Y562823D01*
X597678Y563255D01*
X595516Y564198D01*
X594916Y564329D01*
X594331Y564514D01*
X593757Y564708D01*
X591998Y566175D01*
X591540Y566763D01*
Y568480D01*
X576460D01*
Y567202D01*
X574339Y565081D01*
X568662Y565082D01*
X568661Y565083D01*
X566747Y567215D01*
X566540Y567719D01*
Y568480D01*
X551460D01*
Y565681D01*
X550459Y564500D01*
X550000D01*
X549589Y563475D01*
X549063Y563370D01*
X548528Y563334D01*
X548290Y563216D01*
X548028Y563164D01*
X547583Y562866D01*
X547102Y562629D01*
X544513Y560637D01*
X544338Y560436D01*
X544116Y560288D01*
X543818Y559842D01*
X543465Y559439D01*
X543380Y559186D01*
X543232Y558965D01*
X543128Y558439D01*
X542956Y557931D01*
X542974Y557665D01*
X542922Y557404D01*
Y538093D01*
X539922Y536361D01*
X538618Y537114D01*
X535312Y538000D01*
X531889D01*
X528582Y537114D01*
X527078Y536246D01*
X524078Y537949D01*
Y555000D01*
X523768Y556561D01*
X522884Y557884D01*
X522884Y557884D01*
X517884Y562884D01*
X516561Y563768D01*
X515000Y564078D01*
X515000Y564078D01*
X511540D01*
Y567480D01*
X496460D01*
Y564078D01*
X367689D01*
X353884Y577884D01*
X353884Y577884D01*
X352561Y578768D01*
X351000Y579078D01*
X351000Y579078D01*
X346000D01*
X346000Y579078D01*
X344439Y578768D01*
X343116Y577884D01*
X338116Y572884D01*
X337232Y571561D01*
X336922Y570000D01*
X336922Y570000D01*
Y565000D01*
X336922Y565000D01*
X337232Y563439D01*
X338116Y562116D01*
X363116Y537116D01*
X364439Y536232D01*
X366000Y535922D01*
X366000Y535922D01*
X420460D01*
Y526270D01*
X432000D01*
Y525000D01*
X433270D01*
Y513460D01*
X443540D01*
Y517006D01*
X446540Y517810D01*
X446997Y517018D01*
X449418Y514597D01*
X452382Y512886D01*
X455689Y512000D01*
X459112D01*
X462418Y512886D01*
X465382Y514597D01*
X467803Y517018D01*
X468368Y517997D01*
X471832D01*
X472397Y517018D01*
X474818Y514597D01*
X477782Y512886D01*
X481088Y512000D01*
X484511D01*
X487818Y512886D01*
X488922Y513523D01*
X491922Y511791D01*
Y500000D01*
X491922Y500000D01*
X492232Y498439D01*
X493116Y497116D01*
X493116Y497116D01*
X520116Y470116D01*
X521439Y469232D01*
X523000Y468922D01*
X523000Y468922D01*
X531000D01*
X531000Y468922D01*
X532561Y469232D01*
X533884Y470116D01*
X539884Y476116D01*
X539922Y476173D01*
X542922Y475263D01*
Y464689D01*
X537311Y459078D01*
X441689D01*
X417884Y482884D01*
X416561Y483768D01*
X415000Y484078D01*
X413400Y486343D01*
Y506400D01*
X387400D01*
Y488287D01*
X384628Y487139D01*
X383884Y487884D01*
X382561Y488768D01*
X381000Y489078D01*
X381000Y489078D01*
X374000D01*
X374000Y489078D01*
X372439Y488768D01*
X371116Y487884D01*
X366116Y482884D01*
X365232Y481561D01*
X364922Y480000D01*
X364922Y480000D01*
Y477000D01*
X363723Y475540D01*
X363520D01*
Y468000D01*
Y460460D01*
X363723D01*
X364922Y459000D01*
Y451000D01*
X363723Y449540D01*
X363520D01*
Y442000D01*
X362250D01*
Y440730D01*
X355460D01*
Y434460D01*
X360773D01*
X361921Y431688D01*
X268116Y337884D01*
X267232Y336561D01*
X266922Y335000D01*
X266922Y335000D01*
Y330000D01*
X266922Y330000D01*
X267232Y328439D01*
X268116Y327116D01*
X273116Y322116D01*
X274439Y321232D01*
X276000Y320922D01*
X276000Y320922D01*
X281000D01*
X282561Y321232D01*
X283884Y322116D01*
X283884Y322116D01*
X385964Y424197D01*
X388365Y422355D01*
X388286Y422218D01*
X387400Y418912D01*
Y415489D01*
X388286Y412182D01*
X389997Y409218D01*
X392418Y406797D01*
X393397Y406232D01*
Y402768D01*
X392418Y402203D01*
X389997Y399782D01*
X389201Y398402D01*
X385000D01*
Y400000D01*
X367000D01*
Y383500D01*
X368460D01*
Y379520D01*
X376000D01*
X383540D01*
Y383500D01*
X385000D01*
Y385148D01*
X389230D01*
X389997Y383818D01*
X392418Y381397D01*
X393397Y380832D01*
Y377368D01*
X392418Y376803D01*
X389997Y374382D01*
X388286Y371418D01*
X387400Y368111D01*
Y364688D01*
X388286Y361382D01*
X389997Y358418D01*
X392418Y355997D01*
X393397Y355432D01*
Y351968D01*
X392418Y351403D01*
X389997Y348982D01*
X388286Y346018D01*
X387400Y342711D01*
Y339288D01*
X388286Y335982D01*
X389997Y333018D01*
X392418Y330597D01*
X394989Y329113D01*
X395169Y328593D01*
X395271Y327740D01*
X395089Y325859D01*
X393314Y324834D01*
X391166Y322686D01*
X389646Y320054D01*
X388860Y317119D01*
Y316870D01*
X411940D01*
Y317119D01*
X411154Y320054D01*
X409634Y322686D01*
X407486Y324834D01*
X405711Y325859D01*
X405529Y327740D01*
X405631Y328593D01*
X405811Y329113D01*
X408382Y330597D01*
X410803Y333018D01*
X412514Y335982D01*
X413400Y339288D01*
Y342711D01*
X412514Y346018D01*
X410803Y348982D01*
X408382Y351403D01*
X407403Y351968D01*
Y355432D01*
X408382Y355997D01*
X410803Y358418D01*
X412514Y361382D01*
X413400Y364688D01*
Y368111D01*
X412514Y371418D01*
X410803Y374382D01*
X408382Y376803D01*
X407403Y377368D01*
Y380832D01*
X408382Y381397D01*
X410803Y383818D01*
X412514Y386782D01*
X413400Y390089D01*
Y393512D01*
X412514Y396818D01*
X410803Y399782D01*
X408382Y402203D01*
X407403Y402768D01*
Y406232D01*
X408382Y406797D01*
X410803Y409218D01*
X412514Y412182D01*
X413400Y415489D01*
Y418912D01*
X412514Y422218D01*
X412108Y422922D01*
X413840Y425922D01*
X453311D01*
X465922Y413311D01*
Y297555D01*
X462922Y295823D01*
X462418Y296114D01*
X459112Y297000D01*
X455689D01*
X452382Y296114D01*
X449418Y294403D01*
X446997Y291982D01*
X446540Y291190D01*
X443540Y291994D01*
Y295540D01*
X433270D01*
Y284000D01*
Y272460D01*
X443540D01*
Y276006D01*
X446540Y276810D01*
X446997Y276018D01*
X449418Y273597D01*
X452382Y271886D01*
X455689Y271000D01*
X459112D01*
X462418Y271886D01*
X462922Y272177D01*
X465922Y270445D01*
Y251000D01*
X466232Y249439D01*
X467116Y248116D01*
X468439Y247232D01*
X470000Y246922D01*
X475460D01*
Y243520D01*
X483000D01*
X490540D01*
Y246922D01*
X495000D01*
X496561Y247232D01*
X497884Y248116D01*
X498768Y249439D01*
X499078Y251000D01*
Y270791D01*
X502078Y272523D01*
X503182Y271886D01*
X506488Y271000D01*
X509911D01*
X513218Y271886D01*
X514922Y272870D01*
X517922Y271311D01*
Y252455D01*
X517979Y252168D01*
X517963Y251875D01*
X518133Y251394D01*
X518232Y250895D01*
X518395Y250651D01*
X518493Y250374D01*
X518833Y249995D01*
X519116Y249571D01*
X519360Y249408D01*
X519556Y249190D01*
X520022Y248842D01*
X520111Y248799D01*
X520180Y248729D01*
X520825Y248457D01*
X521457Y248155D01*
X521556Y248150D01*
X521646Y248111D01*
X522346Y248107D01*
X523046Y248070D01*
X524437Y247664D01*
X526460Y246084D01*
Y243520D01*
X534000D01*
X541540D01*
Y246084D01*
X543563Y247664D01*
X544954Y248070D01*
X545654Y248107D01*
X546354Y248111D01*
X546444Y248150D01*
X546543Y248155D01*
X547175Y248457D01*
X547820Y248729D01*
X547890Y248799D01*
X547978Y248842D01*
X548444Y249190D01*
X548640Y249408D01*
X548884Y249571D01*
X549167Y249995D01*
X549507Y250374D01*
X549605Y250651D01*
X549768Y250895D01*
X549882Y250919D01*
X552882Y248492D01*
Y237534D01*
X544466Y229118D01*
X393534D01*
X362113Y260539D01*
X362112Y260539D01*
X321626Y301026D01*
X319641Y302352D01*
X317300Y302817D01*
X259300D01*
X256959Y302352D01*
X254974Y301026D01*
X254186Y300238D01*
X248654Y296700D01*
X246003D01*
X244689Y296348D01*
X241618Y296411D01*
X240734Y297734D01*
X240734Y297734D01*
X230734Y307734D01*
X229411Y308618D01*
X227850Y308928D01*
X227850Y308928D01*
X192850D01*
X191289Y308618D01*
X189966Y307734D01*
X189966Y307734D01*
X179966Y297734D01*
X179082Y296411D01*
X178772Y294850D01*
X178772Y294850D01*
Y259850D01*
X179082Y258289D01*
X179966Y256966D01*
X179966Y256966D01*
X189966Y246966D01*
X191289Y246082D01*
X192850Y245772D01*
X192850Y245772D01*
X216161D01*
X223772Y238161D01*
Y220557D01*
X223697Y220500D01*
X220603D01*
X217615Y219699D01*
X214935Y218152D01*
X212748Y215965D01*
X211500Y213804D01*
X209493Y213939D01*
X208500Y214319D01*
Y220500D01*
X185000D01*
Y197000D01*
X190205D01*
X190632Y196146D01*
Y195950D01*
X191098Y193609D01*
X192424Y191624D01*
X215524Y168524D01*
X217509Y167198D01*
X219850Y166733D01*
X355850D01*
X358191Y167198D01*
X360176Y168524D01*
X390534Y198883D01*
X554456D01*
X556797Y199348D01*
X558782Y200674D01*
X645726Y287619D01*
X647052Y289603D01*
X647518Y291944D01*
Y297479D01*
X649474Y305289D01*
X651803Y307618D01*
X653514Y310582D01*
X654400Y313888D01*
Y317311D01*
X653514Y320618D01*
X651934Y323355D01*
X651938Y323485D01*
X652063Y324299D01*
X652418Y325274D01*
X653234Y326393D01*
X653279Y326395D01*
X653594Y326535D01*
X653931Y326603D01*
X654313Y326857D01*
X654732Y327045D01*
X654968Y327295D01*
X655254Y327487D01*
X657689Y329922D01*
X662000D01*
X663460Y328723D01*
Y328520D01*
X671000D01*
X678540D01*
Y332500D01*
X680000D01*
Y347146D01*
X680078Y347540D01*
Y351000D01*
X679768Y352561D01*
X678884Y353884D01*
X678884Y353884D01*
X676884Y355884D01*
X675561Y356768D01*
X674000Y357078D01*
X674000Y357078D01*
X654493D01*
X652761Y360078D01*
X653514Y361382D01*
X654400Y364688D01*
Y368111D01*
X654399Y368116D01*
X658354Y375424D01*
X684965Y402035D01*
X686181Y403854D01*
X686608Y406000D01*
Y419677D01*
X696152Y429221D01*
X698924Y428074D01*
Y412785D01*
X697914Y409809D01*
X697314Y408769D01*
X696825Y406945D01*
Y405055D01*
X697314Y403231D01*
X698259Y401594D01*
X699594Y400259D01*
X700419Y399783D01*
X700750Y397046D01*
X700607Y396375D01*
X687116Y382884D01*
X686232Y381561D01*
X685922Y380000D01*
X685922Y380000D01*
Y240000D01*
X686232Y238439D01*
X687116Y237116D01*
X687116Y237116D01*
X687382Y236850D01*
X686234Y234078D01*
X636000D01*
X636000Y234078D01*
X634439Y233768D01*
X633116Y232884D01*
X628116Y227884D01*
X627232Y226561D01*
X626922Y225000D01*
X626922Y225000D01*
Y210000D01*
X627232Y208439D01*
X628116Y207116D01*
X628116Y207116D01*
X638116Y197116D01*
X639439Y196232D01*
X641000Y195922D01*
X641000Y195922D01*
X681234Y195922D01*
X682382Y193150D01*
X677116Y187884D01*
X676232Y186561D01*
X675922Y185000D01*
X675922Y185000D01*
Y110689D01*
X659311Y94078D01*
X566689Y94078D01*
X559078Y101689D01*
Y110000D01*
X558944Y110677D01*
X558845Y111361D01*
X558789Y111454D01*
X558768Y111561D01*
X558384Y112135D01*
X558031Y112728D01*
X551809Y119642D01*
X553030Y122382D01*
X565966D01*
X567982Y120366D01*
X573000Y112363D01*
Y110723D01*
X573920Y107289D01*
X575697Y104211D01*
X578211Y101697D01*
X581289Y99920D01*
X584723Y99000D01*
X588277D01*
X591711Y99920D01*
X594789Y101697D01*
X597303Y104211D01*
X599080Y107289D01*
X600000Y110723D01*
Y114277D01*
X599080Y117711D01*
X597303Y120789D01*
X594789Y123303D01*
X591711Y125080D01*
X588277Y126000D01*
X584723D01*
X583209Y125594D01*
X576098Y129553D01*
X572826Y132826D01*
X570841Y134152D01*
X568500Y134618D01*
X541000D01*
Y135500D01*
X526000D01*
Y124078D01*
X521000D01*
Y135500D01*
X520844D01*
X519540Y137960D01*
X519540Y138500D01*
Y144230D01*
X513500D01*
X507460D01*
Y138500D01*
X507460Y137960D01*
X506156Y135500D01*
X506000D01*
Y134108D01*
X484527D01*
X482000Y135250D01*
Y147750D01*
X464000D01*
Y147750D01*
X463278D01*
X462177Y150409D01*
X467689Y155922D01*
X491000D01*
X491000Y155922D01*
X492561Y156232D01*
X493884Y157116D01*
X498884Y162116D01*
X499768Y163439D01*
X500078Y165000D01*
X500078Y165000D01*
Y180000D01*
X499768Y181561D01*
X498884Y182884D01*
X498884Y182884D01*
X493884Y187884D01*
X493884Y187884D01*
X492561Y188768D01*
X491000Y189078D01*
X491000Y189078D01*
X456000D01*
X454439Y188768D01*
X453116Y187884D01*
X429311Y164078D01*
X401000D01*
X399439Y163768D01*
X398116Y162884D01*
X398116Y162884D01*
X393116Y157884D01*
X392232Y156561D01*
X391922Y155000D01*
X391922Y155000D01*
Y140000D01*
X392232Y138439D01*
X393116Y137116D01*
X393116Y137116D01*
X393343Y136889D01*
X392195Y134118D01*
X215534D01*
X169118Y180534D01*
Y297466D01*
X217534Y345882D01*
X261000D01*
X263341Y346348D01*
X265326Y347674D01*
X324326Y406674D01*
X325652Y408659D01*
X326118Y411000D01*
Y749709D01*
X329118Y750952D01*
X359392Y720677D01*
D02*
G37*
G36*
X760392Y537677D02*
Y518000D01*
X760819Y515854D01*
X762035Y514035D01*
X766686Y509384D01*
X765538Y506612D01*
X753318D01*
X735108Y524823D01*
Y536973D01*
X736250Y539500D01*
X748750D01*
Y541900D01*
X756170D01*
X760392Y537677D01*
D02*
G37*
G36*
X528582Y512886D02*
X531889Y512000D01*
X535312D01*
X538618Y512886D01*
X539922Y513639D01*
X542922Y511907D01*
Y491737D01*
X539922Y490827D01*
X539884Y490884D01*
X539884Y490884D01*
X524078Y506689D01*
Y512051D01*
X527078Y513754D01*
X528582Y512886D01*
D02*
G37*
G36*
X857547Y487294D02*
D01*
X857389Y486384D01*
X856230Y484367D01*
X856230Y484367D01*
X798684D01*
Y488561D01*
X788316D01*
Y488561D01*
X785422Y488305D01*
X785316Y488301D01*
X783500Y488662D01*
X781477Y488260D01*
X781000Y487941D01*
X780523Y488260D01*
X778500Y488662D01*
X776477Y488260D01*
X774763Y487114D01*
X773617Y485399D01*
X773411Y484367D01*
X768493D01*
X760234Y492625D01*
X761383Y495397D01*
X849443D01*
X857547Y487294D01*
D02*
G37*
G36*
X191000Y608000D02*
Y535000D01*
X165988Y509988D01*
X165976Y484976D01*
X161000Y480000D01*
X151000D01*
X146078Y484922D01*
Y515078D01*
X176000Y545000D01*
Y549927D01*
X176400Y551420D01*
Y554580D01*
X176000Y556073D01*
Y575327D01*
X176400Y576820D01*
Y579980D01*
X176000Y581473D01*
Y592200D01*
X171853Y596347D01*
X172834Y597328D01*
X174222Y599732D01*
X174940Y602412D01*
Y602530D01*
X164400D01*
Y605070D01*
X174940D01*
Y605188D01*
X174222Y607868D01*
X172994Y609994D01*
X176000Y613000D01*
X186000D01*
X191000Y608000D01*
D02*
G37*
G36*
X189922Y524234D02*
Y515000D01*
Y486689D01*
X149078Y445846D01*
X146078Y447089D01*
Y475144D01*
X146139Y475204D01*
X149078Y476473D01*
X149439Y476232D01*
X151000Y475922D01*
X151000Y475922D01*
X161000D01*
X162561Y476232D01*
X163884Y477116D01*
X163884Y477116D01*
X168860Y482092D01*
X169287Y482731D01*
X169743Y483414D01*
X169743Y483415D01*
X169744Y483415D01*
X169901Y484203D01*
X170054Y484974D01*
Y484976D01*
X170054Y484976D01*
X170054Y484976D01*
X170066Y508298D01*
X187150Y525382D01*
X189922Y524234D01*
D02*
G37*
G36*
X1067700Y466128D02*
X1059700D01*
X1061700Y474946D01*
X1065700D01*
X1067700Y466128D01*
D02*
G37*
G36*
X1093883Y779266D02*
Y466199D01*
X1093608Y466030D01*
X1090608Y467711D01*
Y771400D01*
X1090181Y773546D01*
X1088965Y775365D01*
X1079201Y785130D01*
X1076205Y790456D01*
X1076645Y792261D01*
X1079928Y793221D01*
X1093883Y779266D01*
D02*
G37*
G36*
X901906Y467200D02*
X895025Y463119D01*
X891036Y470843D01*
X893710Y472411D01*
X901906Y467200D01*
D02*
G37*
G36*
X874529Y466927D02*
X868873Y461271D01*
X864326Y469353D01*
X866447Y471474D01*
X874529Y466927D01*
D02*
G37*
G36*
X861100Y466770D02*
X864600Y460547D01*
Y457828D01*
X864034Y457279D01*
X861927Y456007D01*
X861305Y456422D01*
X859159Y456849D01*
X798588D01*
X798383Y457881D01*
X797237Y459596D01*
X795523Y460742D01*
X793500Y461144D01*
X792037Y460853D01*
X789514Y462265D01*
X789108Y462579D01*
Y468958D01*
X798684D01*
Y473152D01*
X854718D01*
X861100Y466770D01*
D02*
G37*
G36*
X632166Y475086D02*
X630647Y472454D01*
X629860Y469519D01*
Y469270D01*
X652940D01*
Y469519D01*
X652154Y472454D01*
X651918Y472862D01*
X654148Y475000D01*
X662000D01*
Y473500D01*
X663460D01*
Y469520D01*
X671000D01*
X678540D01*
Y473500D01*
X680000D01*
Y475000D01*
X688392D01*
Y461323D01*
X675277Y448208D01*
X659769D01*
X657459Y448895D01*
X651000Y456000D01*
X649695D01*
X648834Y457970D01*
X648720Y459000D01*
X650634Y460914D01*
X652154Y463546D01*
X652940Y466481D01*
Y466730D01*
X629860D01*
Y466481D01*
X630647Y463546D01*
X632166Y460914D01*
X634080Y459000D01*
X633966Y457970D01*
X633105Y456000D01*
X626000D01*
X621000Y460000D01*
Y473000D01*
X626000Y478000D01*
X630837D01*
X632166Y475086D01*
D02*
G37*
G36*
X1036229Y451473D02*
X1028147Y446926D01*
X1026026Y449047D01*
X1030573Y457129D01*
X1036229Y451473D01*
D02*
G37*
G36*
X284922Y479311D02*
Y456968D01*
X283540Y454540D01*
X277270D01*
Y447750D01*
X276000D01*
Y446480D01*
X268460D01*
Y442500D01*
X267000D01*
Y440618D01*
X256411D01*
X254990Y443618D01*
X255239Y443991D01*
X255588Y445745D01*
Y449255D01*
X255271Y450847D01*
X255597Y451244D01*
X255655Y451437D01*
X255768Y451605D01*
X255885Y452193D01*
X256059Y452766D01*
X256039Y452968D01*
X256078Y453166D01*
Y466500D01*
X257276Y467960D01*
X258230D01*
Y475000D01*
Y482040D01*
X257839D01*
X256808Y485040D01*
X260689Y488922D01*
X275311D01*
X284922Y479311D01*
D02*
G37*
G36*
X659274Y444100D02*
Y441100D01*
X649194Y438100D01*
Y447100D01*
X659274Y444100D01*
D02*
G37*
G36*
X899930Y441527D02*
X894273Y435871D01*
X889726Y443953D01*
X891847Y446074D01*
X899930Y441527D01*
D02*
G37*
G36*
X874529D02*
X868873Y435871D01*
X864326Y443953D01*
X866447Y446074D01*
X874529Y441527D01*
D02*
G37*
G36*
X1050574Y443953D02*
X1046027Y435871D01*
X1040371Y441527D01*
X1048453Y446074D01*
X1050574Y443953D01*
D02*
G37*
G36*
X212840Y438128D02*
X212761Y438009D01*
X212412Y436255D01*
Y432745D01*
X212761Y430991D01*
X213090Y430498D01*
X212922Y429651D01*
X212922Y421689D01*
X210311Y419078D01*
X172689Y419078D01*
X165078Y426689D01*
Y433311D01*
X171689Y439922D01*
X188494D01*
Y439244D01*
X189954D01*
Y435764D01*
X196994D01*
X204034D01*
Y439244D01*
X205494D01*
Y441128D01*
X211237D01*
X212840Y438128D01*
D02*
G37*
G36*
X1074149Y437150D02*
Y433149D01*
X1071602Y432551D01*
X1070737Y437606D01*
X1074149Y437150D01*
D02*
G37*
G36*
X821000Y443000D02*
Y438000D01*
X803000Y420000D01*
X792000D01*
Y440107D01*
X793500Y441338D01*
X795523Y441740D01*
X797237Y442886D01*
X798383Y444601D01*
X798588Y445633D01*
X818367D01*
X821000Y443000D01*
D02*
G37*
G36*
X861100Y441370D02*
X864600Y435147D01*
Y432220D01*
X865418Y429168D01*
X866998Y426432D01*
X869232Y424198D01*
X871885Y422666D01*
X871968Y422311D01*
Y419889D01*
X871885Y419534D01*
X869232Y418002D01*
X866998Y415768D01*
X866730Y415305D01*
X860157Y413367D01*
X820684D01*
Y417561D01*
X810571D01*
X808634Y419857D01*
X808633Y419865D01*
X823884Y435116D01*
X824768Y436439D01*
X825078Y438000D01*
X825078Y438000D01*
Y443000D01*
X825078Y443000D01*
X827171Y445522D01*
X827385Y445633D01*
X856836D01*
X861100Y441370D01*
D02*
G37*
G36*
X773617Y444601D02*
X774763Y442886D01*
X776477Y441740D01*
X778500Y441338D01*
X780005Y441637D01*
X781255Y441377D01*
X783319Y440354D01*
X784535Y438535D01*
X787922Y435148D01*
Y420000D01*
X788000Y419606D01*
Y417000D01*
X784367Y413367D01*
X771633D01*
X768000Y417000D01*
Y443573D01*
X768540Y444168D01*
X770638Y445413D01*
X773617Y444601D01*
D02*
G37*
G36*
X1076248Y418120D02*
X1071427Y410471D01*
X1065771Y416127D01*
X1073420Y420948D01*
X1076248Y418120D01*
D02*
G37*
G36*
X706031Y411615D02*
X706671Y407717D01*
X701655Y408140D01*
X703031Y412199D01*
X706031Y411615D01*
D02*
G37*
G36*
X870015Y403858D02*
X860892Y406259D01*
X860646Y409259D01*
X869374Y411832D01*
X870015Y403858D01*
D02*
G37*
G36*
X237198Y440992D02*
X237871Y438922D01*
X237261Y438009D01*
X236912Y436255D01*
Y432745D01*
X237261Y430991D01*
X238254Y429504D01*
X239741Y428511D01*
X241495Y428162D01*
X251005D01*
X252113Y428382D01*
X267000D01*
Y426000D01*
X283258D01*
X284232Y423000D01*
X247311Y386078D01*
X174689D01*
X148217Y412550D01*
X148254Y412735D01*
X151510Y413723D01*
X163116Y402116D01*
X164439Y401232D01*
X166000Y400922D01*
X166000Y400922D01*
X216000Y400922D01*
X216000Y400922D01*
X217561Y401232D01*
X218884Y402116D01*
X218884Y402116D01*
X228884Y412116D01*
X228884Y412116D01*
X229768Y413439D01*
X230078Y415000D01*
X230078Y415000D01*
Y429651D01*
X230025Y429921D01*
X230739Y430991D01*
X231088Y432745D01*
Y436255D01*
X230739Y438009D01*
X230028Y439074D01*
X230675Y440812D01*
X231458Y441922D01*
X236542D01*
X237198Y440992D01*
D02*
G37*
G36*
X1036229Y400673D02*
X1028147Y396126D01*
X1026026Y398247D01*
X1030573Y406329D01*
X1036229Y400673D01*
D02*
G37*
G36*
X693924Y447074D02*
Y442854D01*
X677035Y425965D01*
X675819Y424146D01*
X675392Y422000D01*
Y408323D01*
X657400Y390331D01*
X654400Y391573D01*
Y393512D01*
X653514Y396818D01*
X651803Y399782D01*
X649382Y402203D01*
X648403Y402768D01*
Y406232D01*
X649382Y406797D01*
X651803Y409218D01*
X653514Y412182D01*
X654400Y415489D01*
Y418912D01*
X653514Y422218D01*
X651803Y425182D01*
X649382Y427603D01*
X648403Y428168D01*
Y431632D01*
X649382Y432197D01*
X651803Y434618D01*
X651805Y434622D01*
X659769Y436992D01*
X677600D01*
X679746Y437419D01*
X681565Y438635D01*
X691152Y448222D01*
X693924Y447074D01*
D02*
G37*
G36*
X898254Y390989D02*
X894011Y386746D01*
X892207Y390672D01*
X894328Y392793D01*
X898254Y390989D01*
D02*
G37*
G36*
X1059954Y390989D02*
X1055711Y386746D01*
X1053907Y390672D01*
X1056028Y392793D01*
X1059954Y390989D01*
D02*
G37*
G36*
X867808Y400221D02*
X869232Y398798D01*
X871885Y397266D01*
X871968Y396911D01*
Y394489D01*
X871885Y394134D01*
X869232Y392602D01*
X867162Y390532D01*
X860287Y388608D01*
X850000D01*
X847854Y388181D01*
X846035Y386965D01*
X844918Y385849D01*
X820588D01*
X820383Y386881D01*
X819237Y388596D01*
X817523Y389742D01*
X815500Y390144D01*
X814037Y389853D01*
X811514Y391264D01*
X811108Y391579D01*
Y397958D01*
X820684D01*
Y402151D01*
X860476D01*
X867808Y400221D01*
D02*
G37*
G36*
X764276Y403794D02*
X766095Y402578D01*
X768241Y402151D01*
X795412D01*
X795617Y401119D01*
X796763Y399404D01*
X798477Y398259D01*
X799892Y397977D01*
Y390023D01*
X798477Y389742D01*
X796763Y388596D01*
X795617Y386881D01*
X795412Y385849D01*
X772082D01*
X756608Y401323D01*
Y407542D01*
X759379Y408690D01*
X764276Y403794D01*
D02*
G37*
G36*
X869672Y379000D02*
X860742Y381500D01*
Y384500D01*
X869672Y387000D01*
Y379000D01*
D02*
G37*
G36*
X917892Y401940D02*
Y313886D01*
X861535Y257529D01*
X860319Y255709D01*
X859892Y253563D01*
Y218637D01*
X860319Y216491D01*
X861535Y214671D01*
X869118Y207088D01*
X867398Y205368D01*
X865818Y202632D01*
X865000Y199580D01*
Y196653D01*
X861499Y190430D01*
X853177Y182108D01*
X844041D01*
X844041Y182108D01*
X800479D01*
X798414Y184962D01*
X798561Y185316D01*
X798561D01*
Y194892D01*
X799500D01*
X801646Y195319D01*
X803465Y196535D01*
X803960Y197029D01*
X805598D01*
X806128Y196924D01*
X806530Y196924D01*
X806924Y196846D01*
X807318Y196924D01*
X807719Y196924D01*
X808091Y197078D01*
X808485Y197156D01*
X808819Y197379D01*
X809190Y197533D01*
X809474Y197817D01*
X809808Y198040D01*
X818884Y207116D01*
X819768Y208439D01*
X820078Y210000D01*
X820078Y210000D01*
Y333046D01*
X821000Y335922D01*
X846000D01*
X846000Y335922D01*
X847561Y336232D01*
X848884Y337116D01*
X858884Y347116D01*
X859768Y348439D01*
X860078Y350000D01*
X860078Y350000D01*
Y370000D01*
X859768Y371561D01*
X858884Y372884D01*
X858884Y372884D01*
X857147Y374621D01*
X858295Y377392D01*
X860287D01*
X867162Y375467D01*
X869232Y373398D01*
X871968Y371818D01*
X875020Y371000D01*
X878180D01*
X881232Y371818D01*
X883968Y373398D01*
X886202Y375632D01*
X887136Y377248D01*
X889551Y376983D01*
X890289Y376711D01*
X891012Y374966D01*
X892294Y373294D01*
X893966Y372012D01*
X895912Y371206D01*
X898000Y370931D01*
X906000D01*
X908089Y371206D01*
X910035Y372012D01*
X911706Y373294D01*
X912988Y374966D01*
X913794Y376912D01*
X914069Y379000D01*
Y387000D01*
X913794Y389088D01*
X912988Y391035D01*
X911706Y392706D01*
X910035Y393988D01*
X908290Y394711D01*
X908017Y395449D01*
X907752Y397864D01*
X909368Y398798D01*
X911602Y401032D01*
X912813Y403129D01*
X914889Y403542D01*
X914892Y403544D01*
X917892Y401940D01*
D02*
G37*
G36*
X1036229Y375273D02*
X1028147Y370726D01*
X1026026Y372847D01*
X1030573Y380929D01*
X1036229Y375273D01*
D02*
G37*
G36*
X856000Y370000D02*
Y350000D01*
X846000Y340000D01*
X821000D01*
X820078Y341843D01*
Y350000D01*
X820050Y350144D01*
X820068Y350289D01*
X819895Y350919D01*
X819768Y351561D01*
X819686Y351683D01*
X819648Y351824D01*
X814648Y361824D01*
X811896Y367328D01*
X812844Y369736D01*
X813244Y370296D01*
X813451Y370477D01*
X813766Y370602D01*
X814108Y370615D01*
X815500Y370338D01*
X817523Y370740D01*
X819237Y371886D01*
X820383Y373601D01*
X820588Y374633D01*
X847241D01*
X849387Y375060D01*
X850318Y375682D01*
X856000Y370000D01*
D02*
G37*
G36*
X655100Y377978D02*
X650093Y368729D01*
X643729Y375093D01*
X652978Y380100D01*
X655100Y377978D01*
D02*
G37*
G36*
X748516Y365937D02*
X743484D01*
X744500Y369973D01*
X747500D01*
X748516Y365937D01*
D02*
G37*
G36*
X1025438Y435707D02*
X1026300Y435027D01*
Y432220D01*
X1027118Y429168D01*
X1028698Y426432D01*
X1030932Y424198D01*
X1033585Y422666D01*
X1033668Y422311D01*
Y419889D01*
X1033585Y419534D01*
X1030932Y418002D01*
X1028698Y415768D01*
X1027118Y413032D01*
X1026300Y409980D01*
Y407053D01*
X1022800Y400830D01*
X978608Y356638D01*
X975608Y357881D01*
Y388577D01*
X1023481Y436451D01*
X1025438Y435707D01*
D02*
G37*
G36*
Y384907D02*
X1026300Y384227D01*
Y381653D01*
X1022800Y375430D01*
X988608Y341238D01*
X985608Y342481D01*
Y347777D01*
X1023481Y385650D01*
X1025438Y384907D01*
D02*
G37*
G36*
X766647Y326187D02*
X764526Y324066D01*
X760953Y326202D01*
X764511Y329759D01*
X766647Y326187D01*
D02*
G37*
G36*
X783151Y333754D02*
Y319411D01*
X780380Y318263D01*
X769826Y328817D01*
X768208Y331523D01*
X768049Y332119D01*
X767104Y333755D01*
X765768Y335091D01*
X764132Y336036D01*
X763777Y336131D01*
X763752Y336405D01*
X766488Y339392D01*
X777513D01*
X783151Y333754D01*
D02*
G37*
G36*
X730284Y315837D02*
X728163Y313716D01*
X724591Y315851D01*
X728148Y319410D01*
X730284Y315837D01*
D02*
G37*
G36*
X205499Y351150D02*
X162850Y308501D01*
X160078Y309650D01*
Y351677D01*
X160290Y352074D01*
X163000Y353922D01*
X163000Y353922D01*
X204350D01*
X205499Y351150D01*
D02*
G37*
G36*
X643400Y297825D02*
X639400D01*
X636900Y307806D01*
X645900D01*
X643400Y297825D01*
D02*
G37*
G36*
X722827Y312154D02*
X725533Y310536D01*
X734709Y301360D01*
X734801Y300694D01*
X734161Y297743D01*
X733404Y297237D01*
X732259Y295523D01*
X731977Y294108D01*
X724023D01*
X723742Y295523D01*
X722596Y297237D01*
X720881Y298383D01*
X719458Y298666D01*
Y310451D01*
X722121Y312241D01*
X722458Y312253D01*
X722827Y312154D01*
D02*
G37*
G36*
X546000Y300000D02*
Y291602D01*
X543000Y290799D01*
X542834Y291086D01*
X540686Y293234D01*
X538054Y294754D01*
X535119Y295540D01*
X534870D01*
Y284000D01*
Y272460D01*
X535119D01*
X538054Y273246D01*
X540686Y274766D01*
X542834Y276914D01*
X543000Y277201D01*
X546000Y276397D01*
Y252455D01*
X545534Y252106D01*
X541553Y252874D01*
X541540Y252895D01*
Y254480D01*
X534000D01*
X526460D01*
Y252895D01*
X526447Y252874D01*
X522466Y252106D01*
X522000Y252455D01*
Y275236D01*
X522358Y275490D01*
X525000Y276280D01*
X526514Y274766D01*
X529146Y273246D01*
X532081Y272460D01*
X532330D01*
Y284000D01*
Y295540D01*
X532081D01*
X529146Y294754D01*
X526514Y293234D01*
X525000Y291720D01*
X522358Y292510D01*
X522000Y292764D01*
Y300000D01*
X527000Y305000D01*
X541000D01*
X546000Y300000D01*
D02*
G37*
G36*
X259739Y294310D02*
X255036Y286956D01*
X249556Y292436D01*
X256910Y297139D01*
X259739Y294310D01*
D02*
G37*
G36*
X728392Y359592D02*
Y355000D01*
X728819Y352854D01*
X730035Y351035D01*
X740035Y341035D01*
X741854Y339819D01*
X744000Y339392D01*
X756043D01*
X756801Y338465D01*
X756957Y335091D01*
X755621Y333755D01*
X754677Y332119D01*
X754188Y330295D01*
Y328405D01*
X754677Y326581D01*
X755621Y324944D01*
X756957Y323609D01*
X758593Y322664D01*
X759190Y322504D01*
X761896Y320886D01*
X775300Y307482D01*
Y289300D01*
X771000Y285000D01*
X756830D01*
X754216Y287530D01*
X753334Y288098D01*
X752462Y288681D01*
X752416Y288690D01*
X752408Y288696D01*
X752265Y288956D01*
X751164Y291334D01*
X751260Y291477D01*
X751662Y293500D01*
X751260Y295523D01*
X751000Y295912D01*
Y300000D01*
X747141Y303377D01*
X746940Y304387D01*
X745724Y306206D01*
X733464Y318467D01*
X731846Y321173D01*
X731686Y321769D01*
X730741Y323406D01*
X729406Y324741D01*
X727769Y325686D01*
X725945Y326175D01*
X724055D01*
X722231Y325686D01*
X721878Y325482D01*
X719458Y327599D01*
Y349801D01*
X725493Y360362D01*
X728392Y359592D01*
D02*
G37*
G36*
X630039Y321922D02*
X629286Y320618D01*
X628400Y317311D01*
Y313888D01*
X629286Y310582D01*
X630997Y307618D01*
X633326Y305289D01*
X635283Y297479D01*
Y294478D01*
X625800Y284996D01*
X624009Y285423D01*
X622689Y286127D01*
X621914Y289018D01*
X620203Y291982D01*
X617782Y294403D01*
X614818Y296114D01*
X611511Y297000D01*
X608088D01*
X604782Y296114D01*
X601818Y294403D01*
X599397Y291982D01*
X598832Y291003D01*
X595368D01*
X594803Y291982D01*
X592382Y294403D01*
X589418Y296114D01*
X586111Y297000D01*
X582688D01*
X579382Y296114D01*
X576418Y294403D01*
X573997Y291982D01*
X573432Y291003D01*
X569968D01*
X569403Y291982D01*
X566982Y294403D01*
X564018Y296114D01*
X560712Y297000D01*
X557289D01*
X553982Y296114D01*
X553078Y295592D01*
X550078Y297324D01*
Y300000D01*
X550078Y300000D01*
X549768Y301561D01*
X548884Y302884D01*
X543884Y307884D01*
X543884Y307884D01*
X542561Y308768D01*
X541000Y309078D01*
X541000Y309078D01*
X527000D01*
X527000Y309078D01*
X525439Y308768D01*
X524116Y307884D01*
X519116Y302884D01*
X518232Y301561D01*
X517922Y300000D01*
X517922Y300000D01*
Y296689D01*
X514922Y295130D01*
X513218Y296114D01*
X509911Y297000D01*
X506488D01*
X503182Y296114D01*
X502078Y295477D01*
X499078Y297209D01*
Y316311D01*
X507689Y324922D01*
X628307D01*
X630039Y321922D01*
D02*
G37*
G36*
X288188Y286950D02*
Y282950D01*
X279662Y281075D01*
Y288825D01*
X288188Y286950D01*
D02*
G37*
G36*
X614025Y276053D02*
X611485Y268515D01*
X607485D01*
X605030Y276368D01*
X614025Y276053D01*
D02*
G37*
G36*
X586400Y266225D02*
X582400D01*
X579900Y276206D01*
X588900D01*
X586400Y266225D01*
D02*
G37*
G36*
X561000D02*
X557000D01*
X554500Y276206D01*
X563500D01*
X561000Y266225D01*
D02*
G37*
G36*
X928047Y297189D02*
Y284977D01*
X908165Y265095D01*
X901343Y260800D01*
X900820D01*
X899508Y260448D01*
X896508Y262509D01*
Y269570D01*
X925275Y298337D01*
X928047Y297189D01*
D02*
G37*
G36*
X913469Y260348D02*
X909445Y252591D01*
X902639Y256796D01*
X910837Y261958D01*
X913469Y260348D01*
D02*
G37*
G36*
X933392Y270542D02*
Y262323D01*
X917219Y246150D01*
X915262Y246893D01*
X914400Y247573D01*
Y250380D01*
X913886Y252296D01*
X916754Y257824D01*
X930621Y271690D01*
X933392Y270542D01*
D02*
G37*
G36*
X744516Y245937D02*
X739484D01*
X740500Y249973D01*
X743500D01*
X744516Y245937D01*
D02*
G37*
G36*
X717266Y245223D02*
X712268Y244617D01*
X712741Y248406D01*
X715741Y249262D01*
X717266Y245223D01*
D02*
G37*
G36*
X573997Y276018D02*
X576326Y273689D01*
X578283Y265879D01*
Y254449D01*
X567889Y244055D01*
X565117Y245203D01*
Y265879D01*
X567074Y273689D01*
X569403Y276018D01*
X569968Y276997D01*
X573432D01*
X573997Y276018D01*
D02*
G37*
G36*
X730392Y464180D02*
Y388081D01*
X709885Y367573D01*
X708669Y365754D01*
X708242Y363608D01*
Y298511D01*
X707600Y298383D01*
X705886Y297237D01*
X704740Y295523D01*
X704338Y293500D01*
X704740Y291477D01*
X705059Y291000D01*
X704740Y290523D01*
X704338Y288500D01*
X704740Y286477D01*
X705886Y284763D01*
X705662Y281902D01*
X704740Y280523D01*
X704338Y278500D01*
X704740Y276477D01*
X705886Y274763D01*
X707600Y273617D01*
X708633Y273412D01*
Y248424D01*
X708291Y245682D01*
X707825Y243945D01*
Y242055D01*
X708314Y240231D01*
X709016Y239015D01*
X705000Y235000D01*
X695000D01*
X690000Y240000D01*
Y380000D01*
X705506Y395506D01*
X705524Y398980D01*
X706769Y399314D01*
X708406Y400259D01*
X709741Y401594D01*
X710686Y403231D01*
X711175Y405055D01*
Y406945D01*
X710686Y408769D01*
X710609Y408903D01*
X710139Y411768D01*
Y480513D01*
X712911Y481661D01*
X730392Y464180D01*
D02*
G37*
G36*
X914674Y233553D02*
X910127Y225471D01*
X904471Y231127D01*
X912553Y235674D01*
X914674Y233553D01*
D02*
G37*
G36*
X731958Y273316D02*
X736392D01*
Y250362D01*
X735623Y247304D01*
X735314Y246769D01*
X734825Y244945D01*
Y243055D01*
X735314Y241231D01*
X736258Y239594D01*
X737594Y238259D01*
X739230Y237314D01*
X741055Y236825D01*
X742945D01*
X744769Y237314D01*
X746405Y238259D01*
X747741Y239594D01*
X748686Y241231D01*
X749175Y243055D01*
Y244945D01*
X748686Y246769D01*
X748377Y247304D01*
X747608Y250362D01*
Y273316D01*
X751561D01*
Y280249D01*
X752674Y281082D01*
X754561Y281704D01*
X754635Y281656D01*
X755269Y281232D01*
X755303Y281225D01*
X755332Y281207D01*
X756083Y281070D01*
X756830Y280922D01*
X771000D01*
X771000Y280922D01*
X772300Y281180D01*
X772723Y281126D01*
X775300Y279455D01*
Y227490D01*
X762928Y215117D01*
X759828Y216260D01*
X759768Y216561D01*
X758884Y217884D01*
X758884Y217884D01*
X753884Y222884D01*
X752561Y223768D01*
X751000Y224078D01*
X751000Y224078D01*
X737689D01*
X728884Y232884D01*
X727561Y233768D01*
X726000Y234078D01*
X726000Y234078D01*
X719897D01*
X719093Y237078D01*
X719406Y237259D01*
X720741Y238594D01*
X721686Y240231D01*
X722175Y242055D01*
Y243945D01*
X721686Y245769D01*
X720916Y247103D01*
X719848Y249929D01*
Y273412D01*
X720881Y273617D01*
X722596Y274763D01*
X723742Y276477D01*
X724144Y278500D01*
X723853Y279963D01*
X725264Y282486D01*
X725579Y282892D01*
X731958D01*
Y273316D01*
D02*
G37*
G36*
X914674Y213247D02*
X912553Y211126D01*
X904471Y215673D01*
X910127Y221329D01*
X914674Y213247D01*
D02*
G37*
G36*
X736000Y220000D02*
X751000D01*
X756000Y215000D01*
Y210661D01*
X754601Y210383D01*
X752886Y209237D01*
X751740Y207523D01*
X751338Y205500D01*
X751615Y204108D01*
X750465Y201986D01*
X749715Y201108D01*
X747904D01*
X742824Y203648D01*
X742683Y203687D01*
X742561Y203768D01*
X741919Y203895D01*
X741289Y204068D01*
X741144Y204050D01*
X741000Y204078D01*
X721000Y204078D01*
X695000Y204078D01*
X695000Y204078D01*
X693439Y203768D01*
X692116Y202884D01*
X692116Y202884D01*
X689232Y200000D01*
X641000Y200000D01*
X631000Y210000D01*
Y225000D01*
X636000Y230000D01*
X726000D01*
X736000Y220000D01*
D02*
G37*
G36*
X765794Y376275D02*
X767613Y375060D01*
X769759Y374633D01*
X795066D01*
X795443Y374473D01*
X795617Y373601D01*
X796763Y371886D01*
X798477Y370740D01*
X800500Y370338D01*
X802356Y370707D01*
X802852Y370579D01*
X805315Y369374D01*
X805319Y369354D01*
X806535Y367535D01*
X807931Y366139D01*
X811000Y360000D01*
X816000Y350000D01*
Y210000D01*
X806924Y200924D01*
X806000Y201108D01*
X800068D01*
X798217Y203414D01*
X798260Y203477D01*
X798662Y205500D01*
X798260Y207523D01*
X797114Y209237D01*
X795399Y210383D01*
X794367Y210588D01*
Y336077D01*
X793940Y338223D01*
X792724Y340042D01*
X783801Y348965D01*
X781982Y350181D01*
X779836Y350608D01*
X748915D01*
X746078Y353506D01*
X746152Y356825D01*
X746945D01*
X748769Y357314D01*
X750406Y358259D01*
X751741Y359594D01*
X752686Y361231D01*
X753175Y363055D01*
Y364945D01*
X752686Y366769D01*
X752377Y367304D01*
X751608Y370362D01*
Y386542D01*
X754379Y387690D01*
X765794Y376275D01*
D02*
G37*
G36*
X900329Y205727D02*
X894673Y200071D01*
X890126Y208153D01*
X892247Y210274D01*
X900329Y205727D01*
D02*
G37*
G36*
X262001Y280415D02*
X263548Y277735D01*
X265735Y275548D01*
X268415Y274001D01*
X271403Y273200D01*
X274497D01*
X277485Y274001D01*
X280165Y275548D01*
X282039Y277422D01*
X288452Y278832D01*
X306516D01*
X367885Y217464D01*
X367674Y215326D01*
X337316Y184967D01*
X257978D01*
X256735Y187967D01*
X265734Y196966D01*
X266618Y198289D01*
X268314Y198753D01*
X269806Y198939D01*
X271595Y198460D01*
X271680D01*
Y208750D01*
Y219040D01*
X271595D01*
X269928Y218593D01*
X266928Y220259D01*
Y239850D01*
X266808Y240452D01*
X266744Y241063D01*
X266654Y241227D01*
X266618Y241411D01*
X266277Y241921D01*
X265983Y242461D01*
X243847Y269025D01*
X244057Y270663D01*
X246003Y273200D01*
X249097D01*
X252085Y274001D01*
X254765Y275548D01*
X256952Y277735D01*
X258499Y280415D01*
X258697Y281153D01*
X261803D01*
X262001Y280415D01*
D02*
G37*
G36*
X198750Y197031D02*
X194750D01*
X192750Y201031D01*
X200750D01*
X198750Y197031D01*
D02*
G37*
G36*
X224150Y195850D02*
X220150D01*
X218275Y202038D01*
X226025D01*
X224150Y195850D01*
D02*
G37*
G36*
X237850Y294850D02*
Y291649D01*
X236601Y289485D01*
X235800Y286497D01*
Y283403D01*
X236601Y280415D01*
X237850Y278251D01*
Y269850D01*
X262850Y239850D01*
Y214756D01*
X262001Y213285D01*
X261200Y210297D01*
Y207203D01*
X262001Y204215D01*
X262850Y202744D01*
Y199850D01*
X252850Y189850D01*
X237850D01*
X229211Y198489D01*
X229517Y199501D01*
X231552Y201535D01*
X233099Y204215D01*
X233900Y207203D01*
Y210297D01*
X233099Y213285D01*
X231552Y215965D01*
X229365Y218152D01*
X227850Y219027D01*
Y239850D01*
X217850Y249850D01*
X192850D01*
X182850Y259850D01*
Y294850D01*
X192850Y304850D01*
X227850D01*
X237850Y294850D01*
D02*
G37*
G36*
X900329Y190273D02*
X892247Y185726D01*
X890126Y187847D01*
X894673Y195930D01*
X900329Y190273D01*
D02*
G37*
G36*
X874929D02*
X866847Y185726D01*
X864726Y187847D01*
X869273Y195930D01*
X874929Y190273D01*
D02*
G37*
G36*
X212748Y201535D02*
X214783Y199501D01*
X216247Y194667D01*
X216280Y194605D01*
X216498Y193509D01*
X217824Y191524D01*
X227609Y181739D01*
X226461Y178968D01*
X222384D01*
X207123Y194228D01*
X208271Y197000D01*
X208500D01*
Y203181D01*
X209493Y203561D01*
X211500Y203696D01*
X212748Y201535D01*
D02*
G37*
G36*
X912193Y180272D02*
X910389Y176346D01*
X906146Y180589D01*
X910072Y182393D01*
X912193Y180272D01*
D02*
G37*
G36*
X778958Y185316D02*
X783151D01*
Y184184D01*
X783578Y182038D01*
X784794Y180219D01*
X786392Y178620D01*
X785244Y175849D01*
X777507D01*
X769958Y183397D01*
X769596Y186763D01*
X770742Y188477D01*
X771144Y190500D01*
X770853Y191963D01*
X772264Y194486D01*
X772579Y194892D01*
X778958D01*
Y185316D01*
D02*
G37*
G36*
X871560Y166735D02*
X861992Y168741D01*
X861046Y171741D01*
X869200Y174379D01*
X871560Y166735D01*
D02*
G37*
G36*
X898654Y164611D02*
X894728Y162807D01*
X892607Y164928D01*
X894411Y168854D01*
X898654Y164611D01*
D02*
G37*
G36*
X754738Y164415D02*
X753856Y161187D01*
X753780Y161131D01*
X752035Y159965D01*
X732677Y140608D01*
X722250D01*
Y143000D01*
X709750D01*
Y143000D01*
X709250D01*
Y143000D01*
X704680D01*
X704358Y143323D01*
Y160427D01*
X714323Y170392D01*
X748761D01*
X754738Y164415D01*
D02*
G37*
G36*
X826410Y143148D02*
X822851Y139591D01*
X820597Y142575D01*
X823426Y145403D01*
X826410Y143148D01*
D02*
G37*
G36*
X496000Y180000D02*
Y165000D01*
X491000Y160000D01*
X466000D01*
X453750Y147750D01*
X445000D01*
Y139000D01*
X441000Y135000D01*
X401000D01*
X396000Y140000D01*
Y155000D01*
X401000Y160000D01*
X431000D01*
X456000Y185000D01*
X491000D01*
X496000Y180000D01*
D02*
G37*
G36*
X896487Y158148D02*
X897701Y155120D01*
X867689Y125108D01*
X774750D01*
Y128500D01*
X762250D01*
Y128500D01*
X761750D01*
X758792Y128640D01*
X756463Y131394D01*
X756476Y131825D01*
X766534Y141882D01*
X815466D01*
X817684Y139664D01*
X819199Y137659D01*
X819314Y137231D01*
X820259Y135594D01*
X821594Y134259D01*
X823231Y133314D01*
X825055Y132825D01*
X826945D01*
X828769Y133314D01*
X830406Y134259D01*
X831741Y135594D01*
X832686Y137231D01*
X833175Y139055D01*
Y140945D01*
X832686Y142769D01*
X831741Y144406D01*
X830406Y145741D01*
X828770Y146686D01*
X828654Y147392D01*
X831059Y150392D01*
X885800D01*
X887946Y150819D01*
X889765Y152035D01*
X895892Y158162D01*
X896487Y158148D01*
D02*
G37*
G36*
X205499Y126850D02*
X204350Y124078D01*
X187689D01*
X160078Y151689D01*
Y168351D01*
X162850Y169499D01*
X205499Y126850D01*
D02*
G37*
G36*
X582703Y121208D02*
X577060Y113565D01*
X571100Y123072D01*
X573492Y126336D01*
X582703Y121208D01*
D02*
G37*
G36*
X805090Y111121D02*
X800077Y106108D01*
X774750D01*
Y109500D01*
X774750Y109500D01*
Y110500D01*
X774750D01*
Y111771D01*
X776871Y113892D01*
X803942D01*
X805090Y111121D01*
D02*
G37*
G36*
X847000Y106000D02*
Y91000D01*
X838608Y82608D01*
X759323D01*
X757608Y84323D01*
Y91500D01*
X761750D01*
Y91500D01*
X762250D01*
Y91500D01*
X774750D01*
Y94892D01*
X802400D01*
X804546Y95319D01*
X806365Y96535D01*
X817223Y107392D01*
X845608D01*
X847000Y106000D01*
D02*
G37*
G36*
X868135Y88535D02*
X869954Y87319D01*
X872100Y86892D01*
X931236D01*
X932707Y83892D01*
X931712Y82608D01*
X848295D01*
X847147Y85379D01*
X849884Y88116D01*
X850768Y89439D01*
X851078Y91000D01*
X851078Y91000D01*
Y101671D01*
X853850Y102819D01*
X868135Y88535D01*
D02*
G37*
G36*
X743515Y131342D02*
Y126592D01*
X743981Y124250D01*
X745307Y122266D01*
X749250Y118322D01*
Y112500D01*
X749250Y110500D01*
X749250D01*
Y109500D01*
X749250D01*
Y100423D01*
X748035Y99208D01*
X746819Y97389D01*
X746392Y95243D01*
Y82000D01*
X746669Y80608D01*
X745395Y78336D01*
X744712Y77608D01*
X733323D01*
X727358Y83573D01*
Y121450D01*
X726931Y123596D01*
X725715Y125415D01*
X724738Y126392D01*
X725981Y129392D01*
X735000D01*
X737146Y129819D01*
X738965Y131035D01*
X740515Y132584D01*
X743515Y131342D01*
D02*
G37*
G36*
X156000Y355000D02*
X156000Y150000D01*
X186000Y120000D01*
X546000D01*
X555000Y110000D01*
Y100000D01*
X565000Y90000D01*
X661000Y90000D01*
X680000Y109000D01*
Y185000D01*
X695000Y200000D01*
X721000Y200000D01*
X741000Y200000D01*
X750331Y195334D01*
X750354Y195319D01*
X750367Y195317D01*
X751000Y195000D01*
Y185000D01*
X747608Y181608D01*
X712000D01*
X709854Y181181D01*
X708035Y179965D01*
X694785Y166715D01*
X693569Y164896D01*
X693142Y162750D01*
Y141000D01*
X693569Y138854D01*
X694785Y137035D01*
X696000Y135819D01*
Y126689D01*
X696000Y125000D01*
X696750Y124000D01*
X696750Y124000D01*
Y106000D01*
X709250D01*
X710892Y103680D01*
Y89892D01*
X696000Y75000D01*
X550000D01*
X525000Y100000D01*
X176000D01*
X136000Y140000D01*
Y355000D01*
X141000Y360000D01*
X151000D01*
X156000Y355000D01*
D02*
G37*
%LPC*%
G36*
X759460Y662601D02*
X754399D01*
Y657270D01*
X759460D01*
Y662601D01*
D02*
G37*
G36*
X795460D02*
X790399D01*
Y657270D01*
X795460D01*
Y662601D01*
D02*
G37*
G36*
X620460D02*
X615399D01*
Y657270D01*
X620460D01*
Y662601D01*
D02*
G37*
G36*
X655460D02*
X650399D01*
Y657270D01*
X655460D01*
Y662601D01*
D02*
G37*
G36*
X584460D02*
X579399D01*
Y657270D01*
X584460D01*
Y662601D01*
D02*
G37*
G36*
X550460D02*
X545399D01*
Y657270D01*
X550460D01*
Y662601D01*
D02*
G37*
G36*
X725460D02*
X720399D01*
Y657270D01*
X725460D01*
Y662601D01*
D02*
G37*
G36*
X690460D02*
X685399D01*
Y657270D01*
X690460D01*
Y662601D01*
D02*
G37*
G36*
X795460Y654730D02*
X790399D01*
Y649399D01*
X795460D01*
Y654730D01*
D02*
G37*
G36*
X759460D02*
X754399D01*
Y649399D01*
X759460D01*
Y654730D01*
D02*
G37*
G36*
X725460D02*
X720399D01*
Y649399D01*
X725460D01*
Y654730D01*
D02*
G37*
G36*
X690460D02*
X685399D01*
Y649399D01*
X690460D01*
Y654730D01*
D02*
G37*
G36*
X655460D02*
X650399D01*
Y649399D01*
X655460D01*
Y654730D01*
D02*
G37*
G36*
X620460D02*
X615399D01*
Y649399D01*
X620460D01*
Y654730D01*
D02*
G37*
G36*
X584460D02*
X579399D01*
Y649399D01*
X584460D01*
Y654730D01*
D02*
G37*
G36*
X550460D02*
X545399D01*
Y649399D01*
X550460D01*
Y654730D01*
D02*
G37*
G36*
X821000Y704000D02*
X797000D01*
Y682000D01*
X802883D01*
Y664061D01*
X801479D01*
Y662601D01*
X798000D01*
Y656000D01*
Y649399D01*
X801479D01*
Y647939D01*
X817061D01*
Y664061D01*
X815118D01*
Y682000D01*
X821000D01*
Y704000D01*
D02*
G37*
G36*
X786000D02*
X762000D01*
Y682000D01*
X767883D01*
Y664061D01*
X765479D01*
Y662601D01*
X762000D01*
Y656000D01*
Y649399D01*
X765479D01*
Y647939D01*
X781061D01*
Y664061D01*
X780118D01*
Y682000D01*
X786000D01*
Y704000D01*
D02*
G37*
G36*
X751000D02*
X727000D01*
Y682000D01*
X732883D01*
Y664061D01*
X731479D01*
Y662601D01*
X728000D01*
Y656000D01*
Y649399D01*
X731479D01*
Y647939D01*
X747061D01*
Y664061D01*
X745117D01*
Y682000D01*
X751000D01*
Y704000D01*
D02*
G37*
G36*
X716000D02*
X692000D01*
Y682000D01*
X697883D01*
Y664061D01*
X696479D01*
Y662601D01*
X693000D01*
Y656000D01*
Y649399D01*
X696479D01*
Y647939D01*
X712061D01*
Y664061D01*
X710118D01*
Y682000D01*
X716000D01*
Y704000D01*
D02*
G37*
G36*
X681000D02*
X657000D01*
Y682000D01*
X662883D01*
Y664061D01*
X661479D01*
Y662601D01*
X658000D01*
Y656000D01*
Y649399D01*
X661479D01*
Y647939D01*
X677061D01*
Y664061D01*
X675117D01*
Y682000D01*
X681000D01*
Y704000D01*
D02*
G37*
G36*
X646000D02*
X622000D01*
Y682000D01*
X627882D01*
Y664061D01*
X626479D01*
Y662601D01*
X623000D01*
Y656000D01*
Y649399D01*
X626479D01*
Y647939D01*
X642061D01*
Y664061D01*
X640118D01*
Y682000D01*
X646000D01*
Y704000D01*
D02*
G37*
G36*
X611000D02*
X587000D01*
Y682000D01*
X592882D01*
Y664061D01*
X590479D01*
Y662601D01*
X587000D01*
Y656000D01*
Y649399D01*
X590479D01*
Y647939D01*
X606061D01*
Y664061D01*
X605117D01*
Y682000D01*
X611000D01*
Y704000D01*
D02*
G37*
G36*
X576000Y704000D02*
X552000D01*
Y682000D01*
X557882D01*
Y664061D01*
X556479D01*
Y662601D01*
X553000D01*
Y656000D01*
Y649399D01*
X556479D01*
Y647939D01*
X572061D01*
Y664061D01*
X570117D01*
Y682000D01*
X576000D01*
Y704000D01*
D02*
G37*
G36*
X1074368Y740630D02*
X1064970D01*
Y731232D01*
X1067700D01*
X1070252Y731740D01*
X1072415Y733185D01*
X1073860Y735348D01*
X1074368Y737900D01*
Y740630D01*
D02*
G37*
G36*
X142230Y809680D02*
X137510D01*
Y803460D01*
X142230D01*
Y809680D01*
D02*
G37*
G36*
X142230Y792540D02*
X137510D01*
Y786320D01*
X142230D01*
Y792540D01*
D02*
G37*
G36*
X151730D02*
X144770D01*
Y785050D01*
Y777560D01*
X151730D01*
Y785050D01*
Y792540D01*
D02*
G37*
G36*
X142230Y783780D02*
X137510D01*
Y777560D01*
X142230D01*
Y783780D01*
D02*
G37*
G36*
X169950Y794000D02*
X155050D01*
Y792540D01*
X154270D01*
Y785050D01*
Y777560D01*
X155050D01*
Y776100D01*
X169950D01*
Y778932D01*
X207416D01*
X216582Y769766D01*
Y757250D01*
X212700D01*
Y739250D01*
X214160D01*
Y733020D01*
X231240D01*
Y739250D01*
X232700D01*
Y757250D01*
X228818D01*
Y772300D01*
X228352Y774641D01*
X227026Y776626D01*
X214276Y789376D01*
X212291Y790702D01*
X209950Y791168D01*
X169950D01*
Y794000D01*
D02*
G37*
G36*
X169540Y732980D02*
X163270D01*
Y727460D01*
X169540D01*
Y732980D01*
D02*
G37*
G36*
X160730D02*
X154460D01*
Y727460D01*
X160730D01*
Y732980D01*
D02*
G37*
G36*
X231240Y730480D02*
X223970D01*
Y724210D01*
X231240D01*
Y730480D01*
D02*
G37*
G36*
X221430D02*
X214160D01*
Y724210D01*
X221430D01*
Y730480D01*
D02*
G37*
G36*
X301290Y705040D02*
X295770D01*
Y699270D01*
X301290D01*
Y705040D01*
D02*
G37*
G36*
X294040Y600290D02*
X288270D01*
Y594770D01*
X294040D01*
Y600290D01*
D02*
G37*
G36*
X285730D02*
X279960D01*
Y594770D01*
X285730D01*
Y600290D01*
D02*
G37*
G36*
X280230Y696730D02*
X274710D01*
Y690960D01*
X280230D01*
Y696730D01*
D02*
G37*
G36*
X280770Y679040D02*
Y675770D01*
X286290D01*
Y679040D01*
X280770D01*
D02*
G37*
G36*
X299730Y680540D02*
X293960D01*
Y675520D01*
X299730D01*
Y680540D01*
D02*
G37*
G36*
X240040Y680290D02*
X234270D01*
Y674770D01*
X240040D01*
Y680290D01*
D02*
G37*
G36*
X231730D02*
X225960D01*
Y674770D01*
X231730D01*
Y680290D01*
D02*
G37*
G36*
X227018Y570053D02*
X221248D01*
Y564533D01*
X227018D01*
Y570053D01*
D02*
G37*
G36*
X218708D02*
X212938D01*
Y564533D01*
X218708D01*
Y570053D01*
D02*
G37*
G36*
X195724Y454284D02*
X189954D01*
Y448764D01*
X195724D01*
Y454284D01*
D02*
G37*
G36*
X240040Y659230D02*
X234270D01*
Y653710D01*
X240040D01*
Y659230D01*
D02*
G37*
G36*
X231730D02*
X225960D01*
Y653710D01*
X231730D01*
Y659230D01*
D02*
G37*
G36*
X294040Y579230D02*
X288270D01*
Y573710D01*
X294040D01*
Y579230D01*
D02*
G37*
G36*
X285730D02*
X279960D01*
Y573710D01*
X285730D01*
Y579230D01*
D02*
G37*
G36*
X294040Y565540D02*
X288270D01*
Y560520D01*
X294040D01*
Y565540D01*
D02*
G37*
G36*
X285730D02*
X279960D01*
Y560520D01*
X285730D01*
Y565540D01*
D02*
G37*
G36*
X274283Y563514D02*
X267263D01*
Y560494D01*
X274283D01*
Y563514D01*
D02*
G37*
G36*
X165788Y639740D02*
X165670D01*
Y630470D01*
X174940D01*
Y630588D01*
X174222Y633268D01*
X172834Y635672D01*
X170872Y637634D01*
X168468Y639022D01*
X165788Y639740D01*
D02*
G37*
G36*
X591540Y554980D02*
X585270D01*
Y549460D01*
X591540D01*
Y554980D01*
D02*
G37*
G36*
X582730D02*
X576460D01*
Y549460D01*
X582730D01*
Y554980D01*
D02*
G37*
G36*
X566540D02*
X560270D01*
Y549460D01*
X566540D01*
Y554980D01*
D02*
G37*
G36*
X557730D02*
X551460D01*
Y549460D01*
X557730D01*
Y554980D01*
D02*
G37*
G36*
X583130Y536540D02*
X582881D01*
X579946Y535754D01*
X577314Y534234D01*
X575166Y532086D01*
X573647Y529454D01*
X573253Y527986D01*
X570147D01*
X569753Y529454D01*
X568234Y532086D01*
X566086Y534234D01*
X563454Y535754D01*
X560519Y536540D01*
X560270D01*
Y525000D01*
Y513460D01*
X560519D01*
X563454Y514246D01*
X566086Y515766D01*
X568234Y517914D01*
X569753Y520546D01*
X570147Y522014D01*
X573253D01*
X573647Y520546D01*
X575166Y517914D01*
X577314Y515766D01*
X579946Y514246D01*
X582881Y513460D01*
X583130D01*
Y525000D01*
Y536540D01*
D02*
G37*
G36*
X382540Y475540D02*
X377020D01*
Y469270D01*
X382540D01*
Y475540D01*
D02*
G37*
G36*
Y466730D02*
X377020D01*
Y460460D01*
X382540D01*
Y466730D01*
D02*
G37*
G36*
X411940Y466730D02*
X388860D01*
Y466481D01*
X389646Y463546D01*
X391166Y460914D01*
X393314Y458766D01*
X395946Y457247D01*
X397414Y456853D01*
Y453747D01*
X395946Y453354D01*
X393314Y451834D01*
X391166Y449686D01*
X389646Y447054D01*
X388860Y444119D01*
Y443870D01*
X411940D01*
Y444119D01*
X411154Y447054D01*
X409634Y449686D01*
X407486Y451834D01*
X404854Y453354D01*
X403386Y453747D01*
Y456853D01*
X404854Y457247D01*
X407486Y458766D01*
X409634Y460914D01*
X411154Y463546D01*
X411940Y466481D01*
Y466730D01*
D02*
G37*
G36*
X382540Y449540D02*
X377020D01*
Y443270D01*
X382540D01*
Y449540D01*
D02*
G37*
G36*
Y440730D02*
X377020D01*
Y434460D01*
X382540D01*
Y440730D01*
D02*
G37*
G36*
X669730Y347540D02*
X663460D01*
Y342020D01*
X669730D01*
Y347540D01*
D02*
G37*
G36*
X490540Y262540D02*
X484270D01*
Y257020D01*
X490540D01*
Y262540D01*
D02*
G37*
G36*
X481730D02*
X475460D01*
Y257020D01*
X481730D01*
Y262540D01*
D02*
G37*
G36*
X227018Y548993D02*
X221248D01*
Y543473D01*
X227018D01*
Y548993D01*
D02*
G37*
G36*
X218708D02*
X212938D01*
Y543473D01*
X218708D01*
Y548993D01*
D02*
G37*
G36*
X245230Y482040D02*
X239710D01*
Y476270D01*
X245230D01*
Y482040D01*
D02*
G37*
G36*
Y473730D02*
X239710D01*
Y467960D01*
X245230D01*
Y473730D01*
D02*
G37*
G36*
X244980Y452350D02*
X241495D01*
X240311Y452114D01*
X239307Y451443D01*
X238636Y450439D01*
X238400Y449255D01*
Y448770D01*
X244980D01*
Y452350D01*
D02*
G37*
G36*
X511540Y553980D02*
X505270D01*
Y548460D01*
X511540D01*
Y553980D01*
D02*
G37*
G36*
X502730D02*
X496460D01*
Y548460D01*
X502730D01*
Y553980D01*
D02*
G37*
G36*
X591540Y576540D02*
X585270D01*
Y571020D01*
X591540D01*
Y576540D01*
D02*
G37*
G36*
X582730D02*
X576460D01*
Y571020D01*
X582730D01*
Y576540D01*
D02*
G37*
G36*
X566540D02*
X560270D01*
Y571020D01*
X566540D01*
Y576540D01*
D02*
G37*
G36*
X557730D02*
X551460D01*
Y571020D01*
X557730D01*
Y576540D01*
D02*
G37*
G36*
X511540Y575540D02*
X505270D01*
Y570020D01*
X511540D01*
Y575540D01*
D02*
G37*
G36*
X502730D02*
X496460D01*
Y570020D01*
X502730D01*
Y575540D01*
D02*
G37*
G36*
X430730Y523730D02*
X420460D01*
Y513460D01*
X430730D01*
Y523730D01*
D02*
G37*
G36*
X652940Y504940D02*
X642670D01*
Y494670D01*
X652940D01*
Y504940D01*
D02*
G37*
G36*
X640130D02*
X629860D01*
Y494670D01*
X640130D01*
Y504940D01*
D02*
G37*
G36*
X678540Y488540D02*
X672270D01*
Y483020D01*
X678540D01*
Y488540D01*
D02*
G37*
G36*
X669730D02*
X663460D01*
Y483020D01*
X669730D01*
Y488540D01*
D02*
G37*
G36*
X360980Y475540D02*
X355460D01*
Y469270D01*
X360980D01*
Y475540D01*
D02*
G37*
G36*
Y466730D02*
X355460D01*
Y460460D01*
X360980D01*
Y466730D01*
D02*
G37*
G36*
X360980Y449540D02*
X355460D01*
Y443270D01*
X360980D01*
Y449540D01*
D02*
G37*
G36*
X383540Y376980D02*
X377270D01*
Y371460D01*
X383540D01*
Y376980D01*
D02*
G37*
G36*
X374730D02*
X368460D01*
Y371460D01*
X374730D01*
Y376980D01*
D02*
G37*
G36*
X678540Y325980D02*
X672270D01*
Y320460D01*
X678540D01*
Y325980D01*
D02*
G37*
G36*
X669730D02*
X663460D01*
Y320460D01*
X669730D01*
Y325980D01*
D02*
G37*
G36*
X411940Y314330D02*
X401670D01*
Y304060D01*
X401919D01*
X404854Y304846D01*
X407486Y306366D01*
X409634Y308514D01*
X411154Y311146D01*
X411940Y314081D01*
Y314330D01*
D02*
G37*
G36*
X399130D02*
X388860D01*
Y314081D01*
X389646Y311146D01*
X391166Y308514D01*
X393314Y306366D01*
X395946Y304846D01*
X398881Y304060D01*
X399130D01*
Y314330D01*
D02*
G37*
G36*
X430730Y295540D02*
X420460D01*
Y285270D01*
X430730D01*
Y295540D01*
D02*
G37*
G36*
Y282730D02*
X420460D01*
Y272460D01*
X430730D01*
Y282730D01*
D02*
G37*
G36*
X541540Y240980D02*
X535270D01*
Y235460D01*
X541540D01*
Y240980D01*
D02*
G37*
G36*
X532730D02*
X526460D01*
Y235460D01*
X532730D01*
Y240980D01*
D02*
G37*
G36*
X490540D02*
X484270D01*
Y235460D01*
X490540D01*
Y240980D01*
D02*
G37*
G36*
X481730D02*
X475460D01*
Y235460D01*
X481730D01*
Y240980D01*
D02*
G37*
G36*
X588085Y189540D02*
X587770D01*
Y178770D01*
X598540D01*
Y179085D01*
X597719Y182147D01*
X596134Y184893D01*
X593893Y187134D01*
X591147Y188720D01*
X588085Y189540D01*
D02*
G37*
G36*
X585230D02*
X584915D01*
X581853Y188720D01*
X579107Y187134D01*
X576866Y184893D01*
X575280Y182147D01*
X574460Y179085D01*
Y178770D01*
X585230D01*
Y189540D01*
D02*
G37*
G36*
X598540Y176230D02*
X587770D01*
Y165460D01*
X588085D01*
X591147Y166280D01*
X593893Y167866D01*
X596134Y170107D01*
X597719Y172853D01*
X598540Y175915D01*
Y176230D01*
D02*
G37*
G36*
X585230D02*
X574460D01*
Y175915D01*
X575280Y172853D01*
X576866Y170107D01*
X579107Y167866D01*
X581853Y166280D01*
X584915Y165460D01*
X585230D01*
Y176230D01*
D02*
G37*
G36*
X633277Y191000D02*
X629723D01*
X626289Y190080D01*
X623211Y188303D01*
X620697Y185789D01*
X618920Y182711D01*
X618000Y179277D01*
Y175723D01*
X618920Y172289D01*
X620697Y169211D01*
X623211Y166697D01*
X626289Y164920D01*
X629723Y164000D01*
X633277D01*
X636711Y164920D01*
X639789Y166697D01*
X642303Y169211D01*
X644080Y172289D01*
X645000Y175723D01*
Y179277D01*
X644080Y182711D01*
X642303Y185789D01*
X639789Y188303D01*
X636711Y190080D01*
X633277Y191000D01*
D02*
G37*
G36*
X519540Y153040D02*
X514770D01*
Y146770D01*
X519540D01*
Y153040D01*
D02*
G37*
G36*
X512230D02*
X507460D01*
Y146770D01*
X512230D01*
Y153040D01*
D02*
G37*
G36*
X543945Y172175D02*
X542055D01*
X540230Y171686D01*
X538594Y170741D01*
X537258Y169406D01*
X536314Y167769D01*
X536284Y167656D01*
X528814Y160186D01*
X527377Y158036D01*
X526873Y155500D01*
Y154500D01*
X526000D01*
Y140500D01*
X541000D01*
Y153628D01*
X545656Y158284D01*
X545769Y158314D01*
X547406Y159259D01*
X548741Y160594D01*
X549686Y162231D01*
X550175Y164055D01*
Y165945D01*
X549686Y167769D01*
X548741Y169406D01*
X547406Y170741D01*
X545769Y171686D01*
X543945Y172175D01*
D02*
G37*
G36*
X645000Y126000D02*
X618000D01*
Y99000D01*
X645000D01*
Y126000D01*
D02*
G37*
G36*
X678540Y466980D02*
X672270D01*
Y461460D01*
X678540D01*
Y466980D01*
D02*
G37*
G36*
X669730D02*
X663460D01*
Y461460D01*
X669730D01*
Y466980D01*
D02*
G37*
G36*
X266290Y482040D02*
X260770D01*
Y476270D01*
X266290D01*
Y482040D01*
D02*
G37*
G36*
Y473730D02*
X260770D01*
Y467960D01*
X266290D01*
Y473730D01*
D02*
G37*
G36*
X274730Y454540D02*
X268460D01*
Y449020D01*
X274730D01*
Y454540D01*
D02*
G37*
G36*
X204034Y433224D02*
X198264D01*
Y427704D01*
X204034D01*
Y433224D01*
D02*
G37*
G36*
X195724D02*
X189954D01*
Y427704D01*
X195724D01*
Y433224D01*
D02*
G37*
G36*
X541540Y262540D02*
X535270D01*
Y257020D01*
X541540D01*
Y262540D01*
D02*
G37*
G36*
X532730D02*
X526460D01*
Y257020D01*
X532730D01*
Y262540D01*
D02*
G37*
G36*
X274305Y219040D02*
X274220D01*
Y210020D01*
X283240D01*
Y210105D01*
X282539Y212722D01*
X281184Y215068D01*
X279268Y216984D01*
X276922Y218339D01*
X274305Y219040D01*
D02*
G37*
G36*
X283240Y207480D02*
X274220D01*
Y198460D01*
X274305D01*
X276922Y199161D01*
X279268Y200516D01*
X281184Y202432D01*
X282539Y204778D01*
X283240Y207395D01*
Y207480D01*
D02*
G37*
G36*
X223505Y295240D02*
X223420D01*
Y286220D01*
X232440D01*
Y286305D01*
X231739Y288922D01*
X230384Y291268D01*
X228468Y293184D01*
X226122Y294539D01*
X223505Y295240D01*
D02*
G37*
G36*
X198105D02*
X198020D01*
Y286220D01*
X207040D01*
Y286305D01*
X206339Y288922D01*
X204984Y291268D01*
X203068Y293184D01*
X200722Y294539D01*
X198105Y295240D01*
D02*
G37*
G36*
X220880D02*
X220795D01*
X218178Y294539D01*
X215832Y293184D01*
X213916Y291268D01*
X212561Y288922D01*
X211860Y286305D01*
Y286220D01*
X220880D01*
Y295240D01*
D02*
G37*
G36*
X195480D02*
X195395D01*
X192778Y294539D01*
X190432Y293184D01*
X188516Y291268D01*
X187161Y288922D01*
X186460Y286305D01*
Y286220D01*
X195480D01*
Y295240D01*
D02*
G37*
G36*
X232440Y283680D02*
X223420D01*
Y274660D01*
X223505D01*
X226122Y275361D01*
X228468Y276716D01*
X230384Y278632D01*
X231739Y280978D01*
X232440Y283595D01*
Y283680D01*
D02*
G37*
G36*
X220880D02*
X211860D01*
Y283595D01*
X212561Y280978D01*
X213916Y278632D01*
X215832Y276716D01*
X218178Y275361D01*
X220795Y274660D01*
X220880D01*
Y283680D01*
D02*
G37*
G36*
X207040D02*
X198020D01*
Y274660D01*
X198105D01*
X200722Y275361D01*
X203068Y276716D01*
X204984Y278632D01*
X206339Y280978D01*
X207040Y283595D01*
Y283680D01*
D02*
G37*
G36*
X195480D02*
X186460D01*
Y283595D01*
X187161Y280978D01*
X188516Y278632D01*
X190432Y276716D01*
X192778Y275361D01*
X195395Y274660D01*
X195480D01*
Y283680D01*
D02*
G37*
G36*
X248905Y219040D02*
X248820D01*
Y210020D01*
X257840D01*
Y210105D01*
X257139Y212722D01*
X255784Y215068D01*
X253868Y216984D01*
X251522Y218339D01*
X248905Y219040D01*
D02*
G37*
G36*
X246280D02*
X246195D01*
X243578Y218339D01*
X241232Y216984D01*
X239316Y215068D01*
X237961Y212722D01*
X237260Y210105D01*
Y210020D01*
X246280D01*
Y219040D01*
D02*
G37*
G36*
X257840Y207480D02*
X248820D01*
Y198460D01*
X248905D01*
X251522Y199161D01*
X253868Y200516D01*
X255784Y202432D01*
X257139Y204778D01*
X257840Y207395D01*
Y207480D01*
D02*
G37*
G36*
X246280D02*
X237260D01*
Y207395D01*
X237961Y204778D01*
X239316Y202432D01*
X241232Y200516D01*
X243578Y199161D01*
X246195Y198460D01*
X246280D01*
Y207480D01*
D02*
G37*
%LPD*%
D17*
X513500Y145500D02*
D03*
D18*
Y128500D02*
D03*
X533500D02*
D03*
Y147500D02*
D03*
D19*
X799000Y552500D02*
D03*
X805500D02*
D03*
X792500D02*
D03*
X805500Y533500D02*
D03*
X792500D02*
D03*
X799000D02*
D03*
X729500Y548500D02*
D03*
X742500D02*
D03*
Y567500D02*
D03*
X729500D02*
D03*
X736000D02*
D03*
Y548500D02*
D03*
X755500Y100500D02*
D03*
X768500D02*
D03*
X755500Y119500D02*
D03*
X768500D02*
D03*
X762000Y100500D02*
D03*
Y119500D02*
D03*
X886750Y755500D02*
D03*
X880250D02*
D03*
X893250D02*
D03*
Y774500D02*
D03*
X880250D02*
D03*
X886750D02*
D03*
X922500Y773500D02*
D03*
X935500D02*
D03*
Y792500D02*
D03*
X922500D02*
D03*
X929000D02*
D03*
Y773500D02*
D03*
X709500Y115000D02*
D03*
X716000Y134000D02*
D03*
X703000D02*
D03*
X716000Y115000D02*
D03*
X703000D02*
D03*
X709500Y134000D02*
D03*
D20*
X454000Y128500D02*
D03*
Y141500D02*
D03*
X473000D02*
D03*
Y128500D02*
D03*
X454000Y135000D02*
D03*
X473000D02*
D03*
D21*
X279500Y661500D02*
D03*
X260500D02*
D03*
Y674500D02*
D03*
X279500D02*
D03*
X260500Y668000D02*
D03*
D22*
X287000Y546750D02*
D03*
Y559250D02*
D03*
X301000Y661750D02*
D03*
Y674250D02*
D03*
D23*
X809270Y656000D02*
D03*
X796730D02*
D03*
X773270D02*
D03*
X760730D02*
D03*
X598270D02*
D03*
X585730D02*
D03*
X704270D02*
D03*
X691730D02*
D03*
X739270D02*
D03*
X726730D02*
D03*
X634270D02*
D03*
X621730D02*
D03*
X564270D02*
D03*
X551730D02*
D03*
X669270D02*
D03*
X656730D02*
D03*
D24*
X375750Y468000D02*
D03*
X362250D02*
D03*
X375750Y442000D02*
D03*
X362250D02*
D03*
D25*
X219978Y563263D02*
D03*
Y550263D02*
D03*
X196994Y447494D02*
D03*
Y434494D02*
D03*
X287000Y580500D02*
D03*
Y593500D02*
D03*
X233000Y673500D02*
D03*
Y660500D02*
D03*
D26*
X564000Y693000D02*
D03*
Y723000D02*
D03*
X809000Y693000D02*
D03*
Y723000D02*
D03*
X634000Y693000D02*
D03*
Y723000D02*
D03*
X599000Y693000D02*
D03*
Y723000D02*
D03*
X704000Y693000D02*
D03*
Y723000D02*
D03*
X739000Y693000D02*
D03*
Y723000D02*
D03*
X669000Y693000D02*
D03*
Y723000D02*
D03*
X774000Y693000D02*
D03*
Y723000D02*
D03*
D27*
X714241Y283500D02*
D03*
X741759Y293500D02*
D03*
X714241D02*
D03*
Y278500D02*
D03*
X741759Y288500D02*
D03*
X714241D02*
D03*
X741759Y283500D02*
D03*
X761241Y195500D02*
D03*
X788759Y205500D02*
D03*
X761241D02*
D03*
Y190500D02*
D03*
Y200500D02*
D03*
X788759D02*
D03*
Y195500D02*
D03*
D28*
X741759Y278500D02*
D03*
X788759Y190500D02*
D03*
D29*
X788500Y451241D02*
D03*
X778500Y478759D02*
D03*
Y451241D02*
D03*
X793500D02*
D03*
X783500Y478759D02*
D03*
Y451241D02*
D03*
X788500Y478759D02*
D03*
X815500Y380241D02*
D03*
X800500Y407759D02*
D03*
Y380241D02*
D03*
X810500D02*
D03*
X805500D02*
D03*
Y407759D02*
D03*
X810500D02*
D03*
D30*
X793500Y478759D02*
D03*
X815500Y407759D02*
D03*
D31*
X534000Y255750D02*
D03*
Y242250D02*
D03*
X559000Y556250D02*
D03*
Y569750D02*
D03*
X483000Y255750D02*
D03*
Y242250D02*
D03*
X504000Y555250D02*
D03*
Y568750D02*
D03*
X162000Y747750D02*
D03*
Y734250D02*
D03*
X276000Y447750D02*
D03*
Y434250D02*
D03*
X671000Y468250D02*
D03*
Y481750D02*
D03*
Y340750D02*
D03*
Y327250D02*
D03*
X584000Y556250D02*
D03*
Y569750D02*
D03*
X376000Y391750D02*
D03*
Y378250D02*
D03*
D32*
X223750Y811000D02*
D03*
X204250D02*
D03*
D33*
X162500Y810950D02*
D03*
Y785050D02*
D03*
X153000Y810950D02*
D03*
Y785050D02*
D03*
X143500Y810950D02*
D03*
Y785050D02*
D03*
D34*
X265993Y546224D02*
D03*
X245493D02*
D03*
Y559224D02*
D03*
X265993D02*
D03*
X245493Y552724D02*
D03*
D35*
X221750Y441000D02*
D03*
Y447500D02*
D03*
Y434500D02*
D03*
X246250D02*
D03*
Y447500D02*
D03*
D36*
X222700Y748250D02*
D03*
X197300Y731750D02*
D03*
Y748250D02*
D03*
X222700Y731750D02*
D03*
D37*
X281500Y698000D02*
D03*
X294500D02*
D03*
X246500Y475000D02*
D03*
X259500D02*
D03*
D39*
X393600Y786000D02*
D03*
X368200D02*
D03*
X419000Y811400D02*
D03*
X444400D02*
D03*
X342800Y786000D02*
D03*
X469800Y811400D02*
D03*
X495200D02*
D03*
X520600D02*
D03*
X546000D02*
D03*
X571400D02*
D03*
X596800D02*
D03*
X444400Y786000D02*
D03*
X419000D02*
D03*
X749200Y811400D02*
D03*
X723800D02*
D03*
X571400Y786000D02*
D03*
X546000D02*
D03*
X520600D02*
D03*
X495200D02*
D03*
X317400Y811400D02*
D03*
X342800D02*
D03*
X368200D02*
D03*
X393600D02*
D03*
X469800Y786000D02*
D03*
X596800D02*
D03*
X622200D02*
D03*
X647600D02*
D03*
X673000D02*
D03*
X698400D02*
D03*
X622200Y811400D02*
D03*
X647600D02*
D03*
X673000D02*
D03*
X698400D02*
D03*
X723800Y786000D02*
D03*
X749200D02*
D03*
X774600D02*
D03*
X800000D02*
D03*
X774600Y811400D02*
D03*
X800000D02*
D03*
X164400Y603800D02*
D03*
X139000Y553000D02*
D03*
Y603800D02*
D03*
Y578400D02*
D03*
X164400Y553000D02*
D03*
Y578400D02*
D03*
Y629200D02*
D03*
X1063700Y223800D02*
D03*
Y198400D02*
D03*
Y249200D02*
D03*
X1038300Y223800D02*
D03*
Y173000D02*
D03*
Y198400D02*
D03*
Y249200D02*
D03*
X1063700Y767300D02*
D03*
X1038300Y741900D02*
D03*
X1063700Y792700D02*
D03*
X1038300Y767300D02*
D03*
X1063700Y818100D02*
D03*
X1038300Y792700D02*
D03*
Y818100D02*
D03*
X876600Y383000D02*
D03*
X902000Y408400D02*
D03*
X876600D02*
D03*
X902000Y433800D02*
D03*
Y459200D02*
D03*
X876600Y433800D02*
D03*
Y459200D02*
D03*
X876600Y593000D02*
D03*
Y618400D02*
D03*
Y643800D02*
D03*
Y669200D02*
D03*
X902000D02*
D03*
Y643800D02*
D03*
Y618400D02*
D03*
X1038300Y383000D02*
D03*
Y408400D02*
D03*
Y433800D02*
D03*
Y459200D02*
D03*
X1063700Y433800D02*
D03*
Y459200D02*
D03*
Y408400D02*
D03*
X877000Y248800D02*
D03*
Y223400D02*
D03*
X902400D02*
D03*
Y248800D02*
D03*
Y198000D02*
D03*
X877000Y172600D02*
D03*
Y198000D02*
D03*
D40*
X317400Y786000D02*
D03*
D43*
X272950Y284950D02*
D03*
X247550D02*
D03*
X222150Y208750D02*
D03*
Y284950D02*
D03*
X196750D02*
D03*
X247550Y208750D02*
D03*
X272950D02*
D03*
D44*
X196750D02*
D03*
D45*
X139000Y629200D02*
D03*
X1063700Y173000D02*
D03*
Y741900D02*
D03*
X902000Y383000D02*
D03*
X902000Y593000D02*
D03*
X1063700Y383000D02*
D03*
X902400Y172600D02*
D03*
D49*
X1055000Y315000D02*
D03*
Y670000D02*
D03*
X864000Y775000D02*
D03*
X805000Y435000D02*
D03*
X816000Y490000D02*
D03*
X823000Y527000D02*
D03*
X748000Y525000D02*
D03*
X921000Y740000D02*
D03*
X848000D02*
D03*
X871000Y735000D02*
D03*
X825000Y581000D02*
D03*
X803000Y585000D02*
D03*
X781000Y580000D02*
D03*
X791000Y673000D02*
D03*
X602000Y572000D02*
D03*
X527000Y482000D02*
D03*
X431000Y495000D02*
D03*
X381000Y275000D02*
D03*
X296000Y225000D02*
D03*
X341000Y710000D02*
D03*
X278000Y333000D02*
D03*
X349000Y567000D02*
D03*
X290000Y630000D02*
D03*
X481000Y173000D02*
D03*
X741000Y590000D02*
D03*
X636000Y520000D02*
D03*
X156000Y490000D02*
D03*
X704000Y406000D02*
D03*
X176000Y430000D02*
D03*
X276000Y470000D02*
D03*
X220000Y534000D02*
D03*
X250000Y585000D02*
D03*
X211000Y155000D02*
D03*
X642000Y217000D02*
D03*
X246000Y310000D02*
D03*
X543000Y165000D02*
D03*
X411000Y148000D02*
D03*
X725000Y319000D02*
D03*
X746000Y364000D02*
D03*
X170000Y712000D02*
D03*
X233000Y644000D02*
D03*
X761363Y329350D02*
D03*
X146000Y345000D02*
D03*
X831000Y360000D02*
D03*
X778000Y365000D02*
D03*
X806000Y265000D02*
D03*
X686000Y610000D02*
D03*
X778000Y424000D02*
D03*
X720000Y440000D02*
D03*
X827000Y424000D02*
D03*
X540000Y108000D02*
D03*
X251000Y725000D02*
D03*
X795000Y134000D02*
D03*
X929000Y820000D02*
D03*
X699000Y187000D02*
D03*
X826000Y140000D02*
D03*
X715000Y243000D02*
D03*
X764000Y295000D02*
D03*
X761000Y260000D02*
D03*
X699000Y263000D02*
D03*
X720000Y158000D02*
D03*
X742000Y244000D02*
D03*
X826000Y195000D02*
D03*
X805000Y215000D02*
D03*
X726000D02*
D03*
X821000Y98000D02*
D03*
X694000D02*
D03*
D50*
X669875Y340875D02*
X670375Y341375D01*
X120375Y571376D02*
X125740Y576740D01*
X137340D01*
X139000Y578400D01*
Y629200D02*
Y644000D01*
X141000Y646000D01*
X164400Y603800D02*
X178985D01*
X138440Y604360D02*
X139000Y603800D01*
X123000Y609000D02*
X127640Y604360D01*
X138440D01*
X279500Y674500D02*
Y683500D01*
X246250Y447500D02*
Y458750D01*
X246250Y447500D02*
X246250Y447500D01*
X619000Y341000D02*
X641400D01*
X670875Y468125D02*
X671000Y468250D01*
X641400Y341000D02*
X641525Y340875D01*
X669875D01*
X287000Y580500D02*
X287000Y580500D01*
X508200Y500800D02*
Y525000D01*
Y543000D01*
X219978Y563263D02*
Y574000D01*
X219263Y550263D02*
X219978D01*
X209263Y563263D02*
X219978D01*
X196994Y447494D02*
X197000Y447500D01*
X196744Y447494D02*
X196994D01*
X533500Y147500D02*
Y155500D01*
X543000Y165000D01*
X533800Y255950D02*
Y283800D01*
Y255950D02*
X534000Y255750D01*
X533600Y284000D02*
X533800Y283800D01*
X482800Y284000D02*
X482900Y283900D01*
X482800Y284000D02*
Y312318D01*
X482900Y255850D02*
X483000Y255750D01*
X482900Y255850D02*
Y283900D01*
X375750Y468000D02*
X400400D01*
X375750Y442000D02*
X376050Y442300D01*
X400100D01*
X375750Y442000D02*
Y468000D01*
X400400Y442600D02*
X400800Y443000D01*
X376025Y391775D02*
X400375D01*
X375750Y430679D02*
Y442000D01*
X400375Y391775D02*
X400400Y391800D01*
X400100Y442300D02*
X400400Y442600D01*
X278000Y333000D02*
X278071D01*
X376000Y391750D02*
X376025Y391775D01*
X400400Y468000D02*
X416000D01*
X400800Y443000D02*
X416000D01*
X584200Y525200D02*
Y556050D01*
X559000Y525000D02*
Y556250D01*
X584000D02*
X584200Y556050D01*
X559000Y506000D02*
Y525000D01*
X559000Y525000D02*
X559000Y525000D01*
X584400Y505000D02*
Y525000D01*
X584200Y525200D02*
X584400Y525000D01*
X641525Y468125D02*
X670875D01*
X641400Y468000D02*
X641525Y468125D01*
X124000Y745000D02*
X130000Y739000D01*
X131000D02*
X139750Y747750D01*
X131000Y728000D02*
Y739000D01*
X130000D02*
X131000D01*
X124000Y745000D02*
Y817000D01*
X133000Y826000D01*
X146000D01*
X131000Y728000D02*
X147000Y712000D01*
X139750Y747750D02*
X162000D01*
X147000Y712000D02*
X170000D01*
X152050Y811900D02*
Y819950D01*
Y811900D02*
X153000Y810950D01*
X146000Y826000D02*
X152050Y819950D01*
X137000Y551000D02*
X139000Y553000D01*
X137000Y535000D02*
Y551000D01*
X196800Y747750D02*
X197300Y748250D01*
Y731750D02*
Y748250D01*
X162000Y747750D02*
X196800D01*
D51*
X788500Y478561D02*
Y492000D01*
X742000Y244000D02*
Y278500D01*
X1063700Y383000D02*
X1064000Y382700D01*
X1051700Y395000D02*
X1063700Y383000D01*
X918500Y414480D02*
Y468156D01*
X902000Y408400D02*
X902323Y408722D01*
X912743D01*
X918500Y414480D01*
X811639Y810361D02*
X836000Y786000D01*
X801039Y810361D02*
X811639D01*
X836000Y631000D02*
Y786000D01*
X800000Y811400D02*
X801039Y810361D01*
X1051700Y395000D02*
Y438770D01*
X1059429Y446500D02*
X1067971D01*
X1085000Y463529D01*
Y771400D01*
X847241Y380241D02*
X850000Y383000D01*
X876600D01*
X815500Y380241D02*
X847241D01*
X980000Y350100D02*
X1038300Y408400D01*
X937000Y72000D02*
X980000Y115000D01*
Y350100D01*
X960000Y110000D02*
Y397163D01*
X1033537Y470700D01*
X942500Y92500D02*
X960000Y110000D01*
X934929Y77000D02*
X970000Y112071D01*
Y390900D01*
X1038300Y459200D01*
X990000Y117000D02*
Y334700D01*
X940000Y67000D02*
X990000Y117000D01*
Y334700D02*
X1035300Y380000D01*
X1063700Y792700D02*
X1085000Y771400D01*
X1051700Y438770D02*
X1059429Y446500D01*
X1049800Y445300D02*
Y463963D01*
X1038300Y433800D02*
X1049800Y445300D01*
X1043063Y470700D02*
X1049800Y463963D01*
X1033537Y470700D02*
X1043063D01*
X1035300Y380000D02*
X1037000D01*
X1038300Y381300D01*
Y383000D01*
X800000Y365000D02*
X805500Y370500D01*
X810500Y413000D02*
Y418500D01*
X805500Y380241D02*
X805500Y370500D01*
X805500Y380241D02*
Y407759D01*
X777000Y515000D02*
Y526000D01*
X784500Y533500D02*
X792500D01*
X777000Y526000D02*
X784500Y533500D01*
X768241Y407759D02*
X800500D01*
X788500Y442500D02*
X796000Y435000D01*
X769759Y380241D02*
X800500D01*
X793500Y478759D02*
Y478759D01*
X766170Y478759D02*
X778500D01*
X766000Y518000D02*
X777996Y506004D01*
X777000Y515000D02*
X780996Y511004D01*
X766000Y518000D02*
Y540000D01*
X744000Y345000D02*
X779836D01*
X756000Y420000D02*
X768241Y407759D01*
X713850Y363608D02*
X736000Y385758D01*
X734000Y355000D02*
Y375000D01*
X741000Y382000D01*
X751000Y399000D02*
X769759Y380241D01*
X704000Y406000D02*
X704531Y406531D01*
X734000Y355000D02*
X744000Y345000D01*
X783500Y451241D02*
Y478759D01*
X788500Y442500D02*
Y451241D01*
X772184Y451000D02*
X778184D01*
X779836Y345000D02*
X788759Y336077D01*
X725000Y319000D02*
X741759Y302241D01*
Y293500D02*
Y302241D01*
X713850Y293891D02*
Y363608D01*
X761363Y329350D02*
X780908Y309804D01*
X681000Y422000D02*
X699531Y440532D01*
X677600Y442600D02*
X694000Y459000D01*
Y487290D01*
X681000Y406000D02*
Y422000D01*
X761500Y461684D02*
X772184Y451000D01*
X704531Y406531D02*
Y490900D01*
X761500Y461684D02*
Y476358D01*
X700000Y544929D02*
X766170Y478759D01*
X695000Y542858D02*
X761500Y476358D01*
X729500Y522500D02*
X750996Y501004D01*
X699531Y440532D02*
Y488829D01*
X743250Y547507D02*
X758493D01*
X766000Y540000D01*
X746000Y364000D02*
Y470645D01*
X756000Y420000D02*
Y474787D01*
X736000Y385758D02*
Y466503D01*
X741000Y382000D02*
Y468574D01*
X695000Y542858D02*
Y562929D01*
X670000Y546645D02*
Y565284D01*
X645000Y536290D02*
X694000Y487290D01*
X650000Y538361D02*
Y557000D01*
X690000Y540787D02*
Y560000D01*
X685000Y538716D02*
Y557355D01*
X665000Y544574D02*
Y563213D01*
X660000Y542503D02*
Y561142D01*
X655000Y540432D02*
Y559071D01*
Y540432D02*
X704531Y490900D01*
X650000Y538361D02*
X699531Y488829D01*
X660000Y542503D02*
X736000Y466503D01*
X641400Y442600D02*
X677600D01*
X641400Y366400D02*
X681000Y406000D01*
X751000Y399000D02*
Y472716D01*
X317400Y770600D02*
X365000Y723000D01*
X317400Y770600D02*
Y786000D01*
X365000Y639045D02*
Y723000D01*
X690000Y540787D02*
X756000Y474787D01*
X453500Y128000D02*
X454000Y128500D01*
X933655Y282655D02*
Y535668D01*
X857000Y589000D02*
X923500Y522500D01*
X928500Y309492D02*
Y524837D01*
X813000Y543000D02*
X843656D01*
X888100Y588293D02*
X939000Y537393D01*
X806500Y536500D02*
X813000Y543000D01*
X843656D02*
X918500Y468156D01*
X923500Y311563D02*
Y522500D01*
X939000Y260000D02*
Y537393D01*
X865100Y588237D02*
X928500Y524837D01*
X701000Y280000D02*
X704500Y283500D01*
X874637Y209500D02*
X890900D01*
X888500Y167837D02*
Y184100D01*
X902400Y198000D01*
X855500Y176500D02*
X877000Y198000D01*
X890900Y209500D02*
X902400Y198000D01*
X898837Y210700D02*
X905963D01*
X890900Y218637D02*
X898837Y210700D01*
X793816Y451241D02*
X859159D01*
X876600Y433800D01*
X810500Y418500D02*
X814000Y422000D01*
X902000Y459200D02*
Y462000D01*
X888600Y447200D02*
Y464171D01*
X890000Y413371D02*
X897729Y421100D01*
X888600Y447200D02*
X902000Y433800D01*
X897729Y421100D02*
X906271D01*
X890000Y395000D02*
X902000Y383000D01*
X875959Y407759D02*
X876600Y408400D01*
X890000Y395000D02*
Y413371D01*
X865500Y218637D02*
X874637Y209500D01*
X890900Y218637D02*
Y271892D01*
X780908Y225167D02*
Y309804D01*
X788759Y205500D02*
Y336077D01*
X865500Y218637D02*
Y253563D01*
X902400Y248800D02*
Y251400D01*
X698750Y162750D02*
X712000Y176000D01*
X874641Y170241D02*
X877000Y172600D01*
X844041Y176500D02*
X844041Y176500D01*
X775184Y170241D02*
X874641D01*
X765984Y161100D02*
X881763D01*
X888500Y167837D01*
X844041Y176500D02*
X855500D01*
X796443Y176500D02*
X844041D01*
X815500Y407759D02*
X875959D01*
X702250Y134750D02*
X703000Y134000D01*
X698750Y141000D02*
Y162750D01*
Y141000D02*
X702250Y137500D01*
Y134750D02*
Y137500D01*
X718200Y125000D02*
X721750Y121450D01*
X754750Y97000D02*
X755500Y97750D01*
X753757Y97000D02*
X754750D01*
X814900Y113000D02*
X851600D01*
X768500Y119500D02*
X870012D01*
X802400Y100500D02*
X814900Y113000D01*
X755500Y97750D02*
Y100500D01*
X716750Y134000D02*
X717750Y135000D01*
X735000D01*
X756000Y156000D02*
X885800D01*
X735000Y135000D02*
X756000Y156000D01*
X750996Y501004D02*
X851766D01*
X780996Y511004D02*
X867166D01*
X777996Y506004D02*
X857996D01*
X793500Y478759D02*
X857041D01*
X851766Y501004D02*
X888600Y464171D01*
X857041Y478759D02*
X876600Y459200D01*
X890900Y271892D02*
X928500Y309492D01*
X857996Y506004D02*
X902000Y462000D01*
X906271Y421100D02*
X913500Y428329D01*
X867166Y511004D02*
X913500Y464671D01*
Y428329D02*
Y464671D01*
X752000Y82000D02*
Y95243D01*
X753757Y97000D01*
X851600Y113000D02*
X872100Y92500D01*
X731000Y72000D02*
X937000D01*
X872100Y92500D02*
X942500D01*
X757000Y77000D02*
X934929D01*
X752000Y82000D02*
X757000Y77000D01*
X885800Y156000D02*
X902400Y172600D01*
Y223400D02*
X918900Y206900D01*
X905963Y210700D02*
X913900Y202764D01*
X703750Y115750D02*
Y121450D01*
X902400Y251400D02*
X933655Y282655D01*
X870012Y119500D02*
X918900Y168389D01*
X768500Y100500D02*
X802400D01*
X703000Y115000D02*
X703750Y115750D01*
X716500Y77500D02*
Y111000D01*
X721750Y81250D02*
X731000Y72000D01*
X716500Y77500D02*
X727000Y67000D01*
X940000D01*
X721750Y81250D02*
Y121450D01*
X902400Y172600D02*
X913900Y184100D01*
X918900Y168389D02*
Y206900D01*
X913900Y184100D02*
Y202764D01*
X865500Y253563D02*
X923500Y311563D01*
X902400Y223400D02*
X939000Y260000D01*
X704500Y283500D02*
X714241D01*
X714144Y288500D02*
X714241D01*
X712000Y176000D02*
X751084D01*
X746000Y207000D02*
X752500Y200500D01*
X761241Y184184D02*
Y190500D01*
X751084Y176000D02*
X765984Y161100D01*
X752500Y200500D02*
X761240D01*
X761241Y200500D02*
X788759D01*
X761241Y205500D02*
X780908Y225167D01*
X761241Y184184D02*
X775184Y170241D01*
X750316Y283500D02*
X756000Y278000D01*
X788759Y184184D02*
Y190500D01*
Y184184D02*
X796443Y176500D01*
X714241Y243759D02*
X715000Y243000D01*
X741759Y283500D02*
X750316D01*
X714241Y243759D02*
Y278500D01*
Y288500D02*
X741759D01*
X898500Y774500D02*
X903471Y779471D01*
X893250Y774500D02*
X898500D01*
X918800Y784000D02*
X932700D01*
X903471Y779471D02*
Y795529D01*
X932700Y784000D02*
X934750Y786050D01*
X921750Y772750D02*
X922500Y773500D01*
X934750Y791750D02*
X935500Y792500D01*
X921750Y769750D02*
Y772750D01*
X934750Y786050D02*
Y791750D01*
X910000Y792800D02*
Y803000D01*
Y792800D02*
X918800Y784000D01*
X915000Y800000D02*
X922500Y792500D01*
X915000Y800000D02*
Y814000D01*
X495200Y784237D02*
Y786000D01*
X567361Y779361D02*
Y779443D01*
X596800Y773800D02*
Y786000D01*
X571400Y783482D02*
Y786000D01*
X567361Y779443D02*
X571400Y783482D01*
X463000Y775682D02*
X469800Y782482D01*
Y786000D01*
X698400Y811400D02*
X710000Y823000D01*
X876000D01*
X903471Y795529D01*
X864000Y775000D02*
X879750D01*
X774600Y811400D02*
X787000Y799000D01*
X804263D01*
X830000Y773263D01*
X900000Y705000D02*
X913500Y691500D01*
X902000Y669200D02*
Y670878D01*
X906000Y708000D02*
X922500Y691500D01*
X906000Y708000D02*
Y754000D01*
X913500Y655300D02*
Y691500D01*
X906000Y754000D02*
X921750Y769750D01*
X896950Y764000D02*
X900000Y760950D01*
Y705000D02*
Y760950D01*
X893250Y679628D02*
X902000Y670878D01*
X922500Y648036D02*
Y691500D01*
X890500Y623163D02*
X899637Y632300D01*
X889937Y639937D02*
Y655863D01*
X881082Y631082D02*
X889937Y639937D01*
X899637Y632300D02*
X906763D01*
X902000Y618400D02*
X935500Y651900D01*
X902000Y643800D02*
X913500Y655300D01*
X906763Y632300D02*
X922500Y648036D01*
X885000Y828000D02*
X910000Y803000D01*
X664200Y828000D02*
X885000D01*
X896000Y833000D02*
X915000Y814000D01*
X622200Y811400D02*
X643800Y833000D01*
X647600Y811400D02*
X664200Y828000D01*
X643800Y833000D02*
X896000D01*
X877000Y668800D02*
X889937Y655863D01*
X881000Y761950D02*
X883050Y764000D01*
X881000Y756250D02*
Y761950D01*
X880250Y755500D02*
X881000Y756250D01*
X830000Y645000D02*
Y773263D01*
X883050Y764000D02*
X896950D01*
X614071Y600000D02*
X655000Y559071D01*
X627929Y630000D02*
X695000Y562929D01*
X618213Y610000D02*
X665000Y563213D01*
X620284Y615000D02*
X670000Y565284D01*
X622355Y620000D02*
X685000Y557355D01*
X625000Y625000D02*
X690000Y560000D01*
X616142Y605000D02*
X660000Y561142D01*
X612000Y595000D02*
X650000Y557000D01*
X630000Y635000D02*
X700000Y565000D01*
X876600Y618400D02*
X888100Y606900D01*
X873018Y631082D02*
X881082D01*
X865100Y588237D02*
Y623163D01*
X857000Y589000D02*
Y624200D01*
X876600Y643800D01*
Y592722D02*
Y593000D01*
X865100Y623163D02*
X873018Y631082D01*
X743250Y571250D02*
X776000Y604000D01*
X718000Y588000D02*
X749000Y619000D01*
X718000Y572000D02*
Y588000D01*
X776000Y604000D02*
X809000D01*
X888100Y588293D02*
Y606900D01*
X898636Y596363D02*
X902000Y593000D01*
X890500Y613637D02*
X898636Y605500D01*
X890500Y613637D02*
Y623163D01*
X898636Y596363D02*
Y605500D01*
X804000Y619000D02*
X830000Y645000D01*
X809000Y604000D02*
X836000Y631000D01*
X516000Y637000D02*
X523000Y630000D01*
X504000Y620000D02*
X622355D01*
X535000Y635000D02*
X630000D01*
X523000Y630000D02*
X627929D01*
X503000Y635000D02*
X513000Y625000D01*
X494000Y615000D02*
X620284D01*
X513000Y625000D02*
X625000D01*
X490000Y634000D02*
X504000Y620000D01*
X516000Y728000D02*
X567361Y779361D01*
X529000Y729000D02*
X559000Y759000D01*
X529000Y641000D02*
Y729000D01*
X490000Y755400D02*
X520600Y786000D01*
X503000Y743000D02*
X546000Y786000D01*
X559000Y759000D02*
X582000D01*
X516000Y637000D02*
Y728000D01*
X503000Y635000D02*
Y743000D01*
X490000Y634000D02*
Y755400D01*
X529000Y641000D02*
X535000Y635000D01*
X582000Y759000D02*
X596800Y773800D01*
X749000Y619000D02*
X804000D01*
X729000Y568000D02*
X729500Y567500D01*
X743250Y568250D02*
Y571250D01*
X718000Y572000D02*
X722000Y568000D01*
X742500Y567500D02*
X743250Y568250D01*
X722000Y568000D02*
X729000D01*
X700000Y544929D02*
Y565000D01*
X729500Y548500D02*
X729500Y548500D01*
X742500Y548257D02*
X743250Y547507D01*
X742500Y548257D02*
Y548500D01*
X645000Y536290D02*
Y554000D01*
X665000Y544574D02*
X741000Y468574D01*
X685000Y538716D02*
X751000Y472716D01*
X670000Y546645D02*
X746000Y470645D01*
X392600Y785000D02*
X393600Y786000D01*
X418000Y785000D02*
X419000Y786000D01*
X392600Y635000D02*
Y785000D01*
X418000Y634000D02*
Y785000D01*
X463000Y633000D02*
X486000Y610000D01*
X476000Y633000D02*
Y765037D01*
X463000Y633000D02*
Y775682D01*
X443400Y632600D02*
Y785000D01*
X476000Y633000D02*
X494000Y615000D01*
X443400Y785000D02*
X444400Y786000D01*
X476000Y765037D02*
X495200Y784237D01*
X443400Y632600D02*
X471000Y605000D01*
X365000Y639045D02*
X414045Y590000D01*
X392600Y635000D02*
X432600Y595000D01*
X418000Y634000D02*
X452000Y600000D01*
X486000Y610000D02*
X618213D01*
X432600Y595000D02*
X612000D01*
X414045Y590000D02*
X609000D01*
X452000Y600000D02*
X614071D01*
X609000Y590000D02*
X645000Y554000D01*
X471000Y605000D02*
X616142D01*
X876600Y592722D02*
X933655Y535668D01*
X788759Y200500D02*
X799500D01*
X804000Y205000D01*
X748500Y288500D02*
X755000Y295000D01*
X741000Y195500D02*
X761241D01*
X788759D02*
X806000D01*
X741759Y288500D02*
X748500D01*
X729500Y522500D02*
Y548500D01*
X783500Y436000D02*
Y451241D01*
X810500Y371500D02*
Y380241D01*
Y371500D02*
X817000Y365000D01*
X935500Y651900D02*
Y773500D01*
X893250Y679628D02*
Y755500D01*
X473000Y128500D02*
X513500D01*
X707300Y125000D02*
X718200D01*
X703750Y121450D02*
X707300Y125000D01*
D52*
X748200Y785000D02*
X750000D01*
X774000Y786000D02*
X774600Y785400D01*
X805625Y552375D02*
X824892Y571642D01*
X223750Y811400D02*
X317400D01*
X1065050Y435149D02*
X1074149D01*
X1063700Y433800D02*
X1065050Y435149D01*
X1074149D02*
X1100000Y461000D01*
Y781800D01*
X1063700Y382300D02*
Y383000D01*
X1064000Y382000D02*
Y382700D01*
X1063700Y382300D02*
X1064000Y382000D01*
X1063700Y818100D02*
X1100000Y781800D01*
X1065000Y409700D02*
X1110000Y454700D01*
X1068671Y830100D02*
X1110000Y788771D01*
Y454700D02*
Y788771D01*
X1026300Y804700D02*
X1038300Y792700D01*
X1026300Y804700D02*
Y823071D01*
X1033329Y830100D01*
X1068671D01*
X1065000Y409000D02*
Y409700D01*
X1064400Y408400D02*
X1065000Y409000D01*
X1063700Y408400D02*
X1064400D01*
X1024300Y753300D02*
X1038300Y767300D01*
X1024300Y624773D02*
Y753300D01*
Y624773D02*
X1063700Y585373D01*
Y460700D02*
Y585373D01*
X1063000Y460000D02*
X1063700Y460700D01*
X1063000Y460000D02*
X1063700Y459300D01*
Y459200D02*
Y459300D01*
X805625Y552375D02*
X805625D01*
X805500Y552500D02*
X805625Y552375D01*
X781000Y559000D02*
X787500Y552500D01*
X792500D01*
X641400Y291944D02*
Y315600D01*
X286474Y546224D02*
X287000Y546750D01*
X303500Y768084D02*
Y791414D01*
Y768084D02*
X320000Y751584D01*
X303500Y791414D02*
X311486Y799400D01*
X317400Y786000D02*
X342800D01*
X311486Y799400D02*
X356200D01*
X368200Y811400D01*
X279500Y661500D02*
X300750D01*
X265993Y546224D02*
X286474D01*
X246250Y434500D02*
X275750D01*
X215000Y352000D02*
X261000D01*
X247550Y284950D02*
X259300Y296700D01*
X196750Y195950D02*
Y208750D01*
X222150Y195850D02*
X239150Y178850D01*
X196750Y195950D02*
X219850Y172850D01*
X222150Y195850D02*
Y208750D01*
X259300Y296700D02*
X317300D01*
X261000Y352000D02*
X320000Y411000D01*
X534000Y128500D02*
X568500D01*
X309050Y284950D02*
X377000Y217000D01*
X388000Y205000D02*
X554456D01*
X377000Y217000D02*
X549485D01*
X391000Y223000D02*
X547000D01*
X372000Y211000D02*
X551970D01*
X339850Y178850D02*
X372000Y211000D01*
X239150Y178850D02*
X339850D01*
X355850Y172850D02*
X388000Y205000D01*
X219850Y172850D02*
X355850D01*
X547000Y223000D02*
X559000Y235000D01*
X549485Y217000D02*
X584400Y251915D01*
X559000Y235000D02*
Y284000D01*
X584400Y251915D02*
Y284000D01*
X609485Y283685D02*
X609800Y284000D01*
X609485Y268515D02*
Y283685D01*
X554456Y205000D02*
X641400Y291944D01*
X551970Y211000D02*
X609485Y268515D01*
X755500Y119500D02*
Y120724D01*
X818000Y148000D02*
X826000Y140000D01*
X749632Y126592D02*
Y133632D01*
X764000Y148000D01*
X818000D01*
X749632Y126592D02*
X755500Y120724D01*
X357787Y256213D02*
Y256213D01*
Y256213D02*
X391000Y223000D01*
X317300Y296700D02*
X357787Y256213D01*
X272950Y284950D02*
X309050D01*
X647600Y786000D02*
Y786600D01*
X622200Y786000D02*
X623000D01*
X624000Y785000D01*
X622778D02*
X624000D01*
X466553Y811400D02*
X469800D01*
X749200Y785800D02*
X750000Y785000D01*
X774000Y786000D02*
X774600D01*
X749200Y785800D02*
Y786000D01*
X698000Y784000D02*
X698400Y784400D01*
Y786000D01*
X696400Y784000D02*
X698000D01*
X723800Y786000D02*
X726000D01*
X800000Y785201D02*
X809000Y776201D01*
X800000Y785201D02*
Y786000D01*
X739000Y775800D02*
X748200Y785000D01*
X781000Y559000D02*
Y580000D01*
X824892Y571642D02*
Y580892D01*
X825000Y581000D01*
X634000Y747000D02*
X673000Y786000D01*
X669000Y723000D02*
Y756600D01*
X634000Y723000D02*
Y747000D01*
X739000Y656270D02*
X739270Y656000D01*
X669000Y656270D02*
X669270Y656000D01*
X634000Y656270D02*
X634270Y656000D01*
X704000Y656270D02*
X704270Y656000D01*
X704000Y766200D02*
X723800Y786000D01*
X669000Y756600D02*
X696400Y784000D01*
X669000Y656270D02*
Y693000D01*
X704000Y723000D02*
Y766200D01*
Y656270D02*
Y693000D01*
X739000Y656270D02*
Y693000D01*
Y723000D02*
Y775800D01*
X573000Y749000D02*
X586778D01*
X564000Y740000D02*
X573000Y749000D01*
X564000Y723000D02*
Y740000D01*
Y656270D02*
Y693000D01*
X634000D02*
X634000Y693000D01*
X598270Y656000D02*
X599000Y656730D01*
X634000Y656270D02*
Y693000D01*
X599000Y656730D02*
Y692000D01*
X809000Y656270D02*
Y693000D01*
X774000Y656730D02*
Y693000D01*
X774600Y723600D02*
Y785400D01*
X774000Y693000D02*
X774000Y693000D01*
X809000Y723000D02*
Y776201D01*
X774000Y723000D02*
X774600Y723600D01*
X564000Y656270D02*
X564270Y656000D01*
X586778Y749000D02*
X622778Y785000D01*
X599000Y723000D02*
Y737400D01*
X647600Y786000D01*
X809000Y656270D02*
X809270Y656000D01*
X773270D02*
X774000Y656730D01*
X368200Y786000D02*
X393600D01*
X162550Y811000D02*
X204250D01*
X163000Y178000D02*
Y300000D01*
X215000Y352000D01*
X163000Y178000D02*
X213000Y128000D01*
X584500Y112500D02*
X586500D01*
X568500Y128500D02*
X584500Y112500D01*
X162500Y785050D02*
X209950D01*
X222700Y748250D02*
Y772300D01*
X209950Y785050D02*
X222700Y772300D01*
X320000Y411000D02*
Y751584D01*
X213000Y128000D02*
X453500D01*
D53*
X709500Y134000D02*
Y149000D01*
Y133000D02*
Y134000D01*
X265993Y559224D02*
Y567993D01*
X799000Y522002D02*
Y533500D01*
Y552500D02*
Y565000D01*
X252000Y668000D02*
X260500D01*
Y644500D02*
Y661500D01*
X221750Y426000D02*
Y434500D01*
X231000Y552724D02*
X245493D01*
X238954Y563263D02*
X242993Y559224D01*
X245493Y529000D02*
Y546224D01*
X204494Y434494D02*
X211000Y441000D01*
X221750D01*
X473000Y135000D02*
X483000D01*
X487000Y139000D01*
X196994Y434494D02*
X204494D01*
X432337Y147663D02*
X445000Y135000D01*
X454000D01*
X762000Y88000D02*
Y100500D01*
Y123000D02*
Y131000D01*
X709500Y102500D02*
Y115000D01*
X886750Y778960D02*
Y789250D01*
X929000Y797000D02*
Y820000D01*
X848000Y786000D02*
X858000Y796000D01*
X880000D01*
X886750Y789250D01*
X921000Y755000D02*
X929000Y763000D01*
X848000Y740000D02*
Y786000D01*
X883000Y742000D02*
X886750Y745750D01*
Y755500D01*
X736000Y567500D02*
Y581000D01*
Y538000D02*
X740000Y534000D01*
X736000Y538000D02*
Y548500D01*
X248000Y664000D02*
X252000Y668000D01*
X242993Y559224D02*
X245493D01*
X234000Y674500D02*
X260500D01*
X929000Y763000D02*
Y773500D01*
X197000Y447500D02*
X221750D01*
D54*
X457400Y284000D02*
D03*
X508200D02*
D03*
X559000D02*
D03*
X584400D02*
D03*
X609800D02*
D03*
X482800D02*
D03*
X533600D02*
D03*
X609800Y525000D02*
D03*
X457400D02*
D03*
X533600D02*
D03*
X482800D02*
D03*
X559000D02*
D03*
X584400D02*
D03*
X508200D02*
D03*
X641400Y391800D02*
D03*
Y417200D02*
D03*
Y366400D02*
D03*
Y442600D02*
D03*
Y315600D02*
D03*
Y341000D02*
D03*
Y468000D02*
D03*
X400400Y341000D02*
D03*
Y417200D02*
D03*
Y366400D02*
D03*
Y442600D02*
D03*
Y468000D02*
D03*
Y391800D02*
D03*
Y315600D02*
D03*
D55*
X432000Y284000D02*
D03*
Y525000D02*
D03*
D56*
X631500Y112500D02*
D03*
D57*
Y177500D02*
D03*
X586500Y112500D02*
D03*
Y177500D02*
D03*
D58*
X641400Y493400D02*
D03*
X400400D02*
D03*
M02*
