G04*
G04 #@! TF.GenerationSoftware,Altium Limited,Altium Designer,26.3.0 (6)*
G04*
G04 Layer_Color=8421504*
%FSLAX44Y44*%
%MOMM*%
G71*
G04*
G04 #@! TF.SameCoordinates,3AE4C094-AD7F-4364-BC74-3D09489D296B*
G04*
G04*
G04 #@! TF.FilePolarity,Positive*
G04*
G01*
G75*
%ADD17R,0.7000X1.0000*%
%ADD18R,0.7000X0.6000*%
%ADD19R,0.4500X1.0000*%
%ADD20R,1.0000X0.4500*%
%ADD21R,0.8500X0.4000*%
%ADD22R,0.9000X0.7500*%
%ADD23R,0.7581X0.8121*%
%ADD24R,0.8500X1.0000*%
%ADD25R,0.9000X0.8500*%
%ADD26R,1.6000X1.4000*%
G04:AMPARAMS|DCode=27|XSize=1.1603mm|YSize=0.2368mm|CornerRadius=0.1184mm|HoleSize=0mm|Usage=FLASHONLY|Rotation=180.000|XOffset=0mm|YOffset=0mm|HoleType=Round|Shape=RoundedRectangle|*
%AMROUNDEDRECTD27*
21,1,1.1603,0.0000,0,0,180.0*
21,1,0.9235,0.2368,0,0,180.0*
1,1,0.2368,-0.4618,0.0000*
1,1,0.2368,0.4618,0.0000*
1,1,0.2368,0.4618,0.0000*
1,1,0.2368,-0.4618,0.0000*
%
%ADD27ROUNDEDRECTD27*%
%ADD28R,1.1603X0.2368*%
G04:AMPARAMS|DCode=29|XSize=1.1603mm|YSize=0.2368mm|CornerRadius=0.1184mm|HoleSize=0mm|Usage=FLASHONLY|Rotation=270.000|XOffset=0mm|YOffset=0mm|HoleType=Round|Shape=RoundedRectangle|*
%AMROUNDEDRECTD29*
21,1,1.1603,0.0000,0,0,270.0*
21,1,0.9235,0.2368,0,0,270.0*
1,1,0.2368,0.0000,-0.4618*
1,1,0.2368,0.0000,0.4618*
1,1,0.2368,0.0000,0.4618*
1,1,0.2368,0.0000,-0.4618*
%
%ADD29ROUNDEDRECTD29*%
%ADD30R,0.2368X1.1603*%
%ADD31R,1.0000X0.8500*%
%ADD32R,0.9500X1.4500*%
%ADD33R,0.6900X0.9900*%
%ADD34R,1.1500X0.3500*%
G04:AMPARAMS|DCode=35|XSize=0.45mm|YSize=1.05mm|CornerRadius=0.0495mm|HoleSize=0mm|Usage=FLASHONLY|Rotation=90.000|XOffset=0mm|YOffset=0mm|HoleType=Round|Shape=RoundedRectangle|*
%AMROUNDEDRECTD35*
21,1,0.4500,0.9510,0,0,90.0*
21,1,0.3510,1.0500,0,0,90.0*
1,1,0.0990,0.4755,0.1755*
1,1,0.0990,0.4755,-0.1755*
1,1,0.0990,-0.4755,-0.1755*
1,1,0.0990,-0.4755,0.1755*
%
%ADD35ROUNDEDRECTD35*%
%ADD36R,1.2000X1.0000*%
%ADD37R,0.8500X0.9000*%
D17*
X513500Y145500D02*
D03*
D18*
Y128500D02*
D03*
X533500D02*
D03*
Y147500D02*
D03*
D19*
X799000Y552500D02*
D03*
X805500D02*
D03*
X792500D02*
D03*
X805500Y533500D02*
D03*
X792500D02*
D03*
X799000D02*
D03*
X729500Y548500D02*
D03*
X742500D02*
D03*
Y567500D02*
D03*
X729500D02*
D03*
X736000D02*
D03*
Y548500D02*
D03*
X755500Y100500D02*
D03*
X768500D02*
D03*
X755500Y119500D02*
D03*
X768500D02*
D03*
X762000Y100500D02*
D03*
Y119500D02*
D03*
X886750Y755500D02*
D03*
X880250D02*
D03*
X893250D02*
D03*
Y774500D02*
D03*
X880250D02*
D03*
X886750D02*
D03*
X922500Y773500D02*
D03*
X935500D02*
D03*
Y792500D02*
D03*
X922500D02*
D03*
X929000D02*
D03*
Y773500D02*
D03*
X709500Y115000D02*
D03*
X716000Y134000D02*
D03*
X703000D02*
D03*
X716000Y115000D02*
D03*
X703000D02*
D03*
X709500Y134000D02*
D03*
D20*
X454000Y128500D02*
D03*
Y141500D02*
D03*
X473000D02*
D03*
Y128500D02*
D03*
X454000Y135000D02*
D03*
X473000D02*
D03*
D21*
X279500Y661500D02*
D03*
X260500D02*
D03*
Y674500D02*
D03*
X279500D02*
D03*
X260500Y668000D02*
D03*
D22*
X287000Y546750D02*
D03*
Y559250D02*
D03*
X301000Y661750D02*
D03*
Y674250D02*
D03*
D23*
X809270Y656000D02*
D03*
X796730D02*
D03*
X773270D02*
D03*
X760730D02*
D03*
X598270D02*
D03*
X585730D02*
D03*
X704270D02*
D03*
X691730D02*
D03*
X739270D02*
D03*
X726730D02*
D03*
X634270D02*
D03*
X621730D02*
D03*
X564270D02*
D03*
X551730D02*
D03*
X669270D02*
D03*
X656730D02*
D03*
D24*
X375750Y468000D02*
D03*
X362250D02*
D03*
X375750Y442000D02*
D03*
X362250D02*
D03*
D25*
X219978Y563263D02*
D03*
Y550263D02*
D03*
X196994Y447494D02*
D03*
Y434494D02*
D03*
X287000Y580500D02*
D03*
Y593500D02*
D03*
X233000Y673500D02*
D03*
Y660500D02*
D03*
D26*
X564000Y693000D02*
D03*
Y723000D02*
D03*
X809000Y693000D02*
D03*
Y723000D02*
D03*
X634000Y693000D02*
D03*
Y723000D02*
D03*
X599000Y693000D02*
D03*
Y723000D02*
D03*
X704000Y693000D02*
D03*
Y723000D02*
D03*
X739000Y693000D02*
D03*
Y723000D02*
D03*
X669000Y693000D02*
D03*
Y723000D02*
D03*
X774000Y693000D02*
D03*
Y723000D02*
D03*
D27*
X714241Y283500D02*
D03*
X741759Y293500D02*
D03*
X714241D02*
D03*
Y278500D02*
D03*
X741759Y288500D02*
D03*
X714241D02*
D03*
X741759Y283500D02*
D03*
X761241Y195500D02*
D03*
X788759Y205500D02*
D03*
X761241D02*
D03*
Y190500D02*
D03*
Y200500D02*
D03*
X788759D02*
D03*
Y195500D02*
D03*
D28*
X741759Y278500D02*
D03*
X788759Y190500D02*
D03*
D29*
X788500Y451241D02*
D03*
X778500Y478759D02*
D03*
Y451241D02*
D03*
X793500D02*
D03*
X783500Y478759D02*
D03*
Y451241D02*
D03*
X788500Y478759D02*
D03*
X815500Y380241D02*
D03*
X800500Y407759D02*
D03*
Y380241D02*
D03*
X810500D02*
D03*
X805500D02*
D03*
Y407759D02*
D03*
X810500D02*
D03*
D30*
X793500Y478759D02*
D03*
X815500Y407759D02*
D03*
D31*
X534000Y255750D02*
D03*
Y242250D02*
D03*
X559000Y556250D02*
D03*
Y569750D02*
D03*
X483000Y255750D02*
D03*
Y242250D02*
D03*
X504000Y555250D02*
D03*
Y568750D02*
D03*
X162000Y747750D02*
D03*
Y734250D02*
D03*
X276000Y447750D02*
D03*
Y434250D02*
D03*
X671000Y468250D02*
D03*
Y481750D02*
D03*
Y340750D02*
D03*
Y327250D02*
D03*
X584000Y556250D02*
D03*
Y569750D02*
D03*
X376000Y391750D02*
D03*
Y378250D02*
D03*
D32*
X223750Y811000D02*
D03*
X204250D02*
D03*
D33*
X162500Y810950D02*
D03*
Y785050D02*
D03*
X153000Y810950D02*
D03*
Y785050D02*
D03*
X143500Y810950D02*
D03*
Y785050D02*
D03*
D34*
X265993Y546224D02*
D03*
X245493D02*
D03*
Y559224D02*
D03*
X265993D02*
D03*
X245493Y552724D02*
D03*
D35*
X221750Y441000D02*
D03*
Y447500D02*
D03*
Y434500D02*
D03*
X246250D02*
D03*
Y447500D02*
D03*
D36*
X222700Y748250D02*
D03*
X197300Y731750D02*
D03*
Y748250D02*
D03*
X222700Y731750D02*
D03*
D37*
X281500Y698000D02*
D03*
X294500D02*
D03*
X246500Y475000D02*
D03*
X259500D02*
D03*
M02*
