G04*
G04 #@! TF.GenerationSoftware,Altium Limited,Altium Designer,26.3.0 (6)*
G04*
G04 Layer_Color=32896*
%FSLAX44Y44*%
%MOMM*%
G71*
G04*
G04 #@! TF.SameCoordinates,3AE4C094-AD7F-4364-BC74-3D09489D296B*
G04*
G04*
G04 #@! TF.FilePolarity,Positive*
G04*
G01*
G75*
%ADD10C,0.1000*%
%ADD59C,0.0500*%
D10*
X547000Y113500D02*
Y162500D01*
X500000Y113500D02*
X547000D01*
X500000D02*
Y162500D01*
X547000D01*
D59*
X785500Y526000D02*
X812500D01*
Y560000D01*
X785500D02*
X812500D01*
X785500Y526000D02*
Y560000D01*
X480500Y121500D02*
Y148500D01*
X446500D02*
X480500D01*
X446500Y121500D02*
Y148500D01*
Y121500D02*
X480500D01*
X722500Y541000D02*
X749500D01*
Y575000D01*
X722500D02*
X749500D01*
X722500Y541000D02*
Y575000D01*
X775500Y93000D02*
Y127000D01*
X748500Y93000D02*
X775500D01*
X748500D02*
Y127000D01*
X775500D01*
X873250Y748000D02*
Y782000D01*
X900250D01*
Y748000D02*
Y782000D01*
X873250Y748000D02*
X900250D01*
X915500Y766000D02*
Y800000D01*
X942500D01*
Y766000D02*
Y800000D01*
X915500Y766000D02*
X942500D01*
X723000Y107500D02*
Y141500D01*
X696000Y107500D02*
X723000D01*
X696000D02*
Y141500D01*
X723000D01*
M02*
