G04*
G04 #@! TF.GenerationSoftware,Altium Limited,Altium Designer,26.3.0 (6)*
G04*
G04 Layer_Physical_Order=2*
G04 Layer_Color=16711680*
%FSLAX44Y44*%
%MOMM*%
G71*
G04*
G04 #@! TF.SameCoordinates,3AE4C094-AD7F-4364-BC74-3D09489D296B*
G04*
G04*
G04 #@! TF.FilePolarity,Positive*
G04*
G01*
G75*
%ADD39C,1.6000*%
G04:AMPARAMS|DCode=40|XSize=1.6mm|YSize=1.6mm|CornerRadius=0.4mm|HoleSize=0mm|Usage=FLASHONLY|Rotation=0.000|XOffset=0mm|YOffset=0mm|HoleType=Round|Shape=RoundedRectangle|*
%AMROUNDEDRECTD40*
21,1,1.6000,0.8000,0,0,0.0*
21,1,0.8000,1.6000,0,0,0.0*
1,1,0.8000,0.4000,-0.4000*
1,1,0.8000,-0.4000,-0.4000*
1,1,0.8000,-0.4000,0.4000*
1,1,0.8000,0.4000,0.4000*
%
%ADD40ROUNDEDRECTD40*%
%ADD43C,1.5500*%
%ADD44R,1.5500X1.5500*%
G04:AMPARAMS|DCode=45|XSize=1.6mm|YSize=1.6mm|CornerRadius=0.4mm|HoleSize=0mm|Usage=FLASHONLY|Rotation=270.000|XOffset=0mm|YOffset=0mm|HoleType=Round|Shape=RoundedRectangle|*
%AMROUNDEDRECTD45*
21,1,1.6000,0.8000,0,0,270.0*
21,1,0.8000,1.6000,0,0,270.0*
1,1,0.8000,-0.4000,-0.4000*
1,1,0.8000,-0.4000,0.4000*
1,1,0.8000,0.4000,0.4000*
1,1,0.8000,0.4000,-0.4000*
%
%ADD45ROUNDEDRECTD45*%
%ADD49C,0.6350*%
%ADD50C,0.5000*%
%ADD51C,0.3000*%
%ADD52C,0.4000*%
%ADD53C,0.4500*%
%ADD54C,1.8000*%
%ADD55R,1.8000X1.8000*%
%ADD56R,1.9000X1.9000*%
%ADD57C,1.9000*%
%ADD58R,1.8000X1.8000*%
G36*
X1200000Y-0D02*
X0D01*
Y900000D01*
X1200000D01*
Y-0D01*
D02*
G37*
%LPC*%
G36*
X813375Y830608D02*
X686600D01*
X684454Y830181D01*
X682635Y828965D01*
X680570Y826900D01*
X674347Y823400D01*
X671420D01*
X668368Y822582D01*
X665632Y821002D01*
X663398Y818768D01*
X661866Y816115D01*
X661511Y816032D01*
X659089D01*
X658734Y816115D01*
X657202Y818768D01*
X654968Y821002D01*
X652232Y822582D01*
X649180Y823400D01*
X646020D01*
X642968Y822582D01*
X640232Y821002D01*
X637998Y818768D01*
X636466Y816115D01*
X636111Y816032D01*
X633689D01*
X633334Y816115D01*
X631802Y818768D01*
X629568Y821002D01*
X626832Y822582D01*
X623780Y823400D01*
X620620D01*
X617568Y822582D01*
X614832Y821002D01*
X612598Y818768D01*
X611066Y816115D01*
X610711Y816032D01*
X608289D01*
X607934Y816115D01*
X606402Y818768D01*
X604168Y821002D01*
X601432Y822582D01*
X598380Y823400D01*
X595220D01*
X592168Y822582D01*
X589432Y821002D01*
X587198Y818768D01*
X585666Y816115D01*
X585311Y816032D01*
X582889D01*
X582534Y816115D01*
X581002Y818768D01*
X578768Y821002D01*
X576032Y822582D01*
X572980Y823400D01*
X569820D01*
X566768Y822582D01*
X564032Y821002D01*
X561798Y818768D01*
X560266Y816115D01*
X559911Y816032D01*
X557489D01*
X557134Y816115D01*
X555602Y818768D01*
X553368Y821002D01*
X550632Y822582D01*
X547580Y823400D01*
X544420D01*
X541368Y822582D01*
X538632Y821002D01*
X536398Y818768D01*
X534866Y816115D01*
X534511Y816032D01*
X532089D01*
X531734Y816115D01*
X530202Y818768D01*
X527968Y821002D01*
X525232Y822582D01*
X522180Y823400D01*
X519020D01*
X515968Y822582D01*
X513232Y821002D01*
X510998Y818768D01*
X509466Y816115D01*
X509111Y816032D01*
X506689D01*
X506334Y816115D01*
X504802Y818768D01*
X502568Y821002D01*
X499832Y822582D01*
X496780Y823400D01*
X493620D01*
X490568Y822582D01*
X487832Y821002D01*
X485598Y818768D01*
X484066Y816115D01*
X483711Y816032D01*
X481289D01*
X480934Y816115D01*
X479402Y818768D01*
X477168Y821002D01*
X474432Y822582D01*
X471380Y823400D01*
X468220D01*
X465168Y822582D01*
X462432Y821002D01*
X460198Y818768D01*
X458666Y816115D01*
X458311Y816032D01*
X455889D01*
X455534Y816115D01*
X454002Y818768D01*
X451768Y821002D01*
X449032Y822582D01*
X445980Y823400D01*
X442820D01*
X439768Y822582D01*
X437032Y821002D01*
X434798Y818768D01*
X433266Y816115D01*
X432911Y816032D01*
X430489D01*
X430134Y816115D01*
X428602Y818768D01*
X426368Y821002D01*
X423632Y822582D01*
X420580Y823400D01*
X417420D01*
X414368Y822582D01*
X411632Y821002D01*
X409398Y818768D01*
X407866Y816115D01*
X407511Y816032D01*
X405089D01*
X404734Y816115D01*
X403202Y818768D01*
X400968Y821002D01*
X398232Y822582D01*
X395180Y823400D01*
X392020D01*
X388968Y822582D01*
X386232Y821002D01*
X383998Y818768D01*
X382466Y816115D01*
X382111Y816032D01*
X379689D01*
X379334Y816115D01*
X377802Y818768D01*
X375568Y821002D01*
X372832Y822582D01*
X369780Y823400D01*
X366620D01*
X363568Y822582D01*
X360832Y821002D01*
X358598Y818768D01*
X357066Y816115D01*
X356711Y816032D01*
X354289D01*
X353934Y816115D01*
X352402Y818768D01*
X350168Y821002D01*
X347432Y822582D01*
X344380Y823400D01*
X341220D01*
X338168Y822582D01*
X335432Y821002D01*
X333198Y818768D01*
X331666Y816115D01*
X331311Y816032D01*
X328889D01*
X328534Y816115D01*
X327002Y818768D01*
X324768Y821002D01*
X322032Y822582D01*
X318980Y823400D01*
X315820D01*
X312768Y822582D01*
X310032Y821002D01*
X307798Y818768D01*
X306218Y816032D01*
X305400Y812980D01*
Y809820D01*
X306218Y806768D01*
X307798Y804032D01*
X310032Y801798D01*
X311648Y800864D01*
X311383Y798449D01*
X311110Y797711D01*
X309366Y796988D01*
X307694Y795706D01*
X306412Y794035D01*
X305606Y792088D01*
X305331Y790000D01*
Y782000D01*
X305606Y779912D01*
X306412Y777965D01*
X307694Y776294D01*
X309366Y775012D01*
X311312Y774206D01*
X313400Y773931D01*
X321400D01*
X323488Y774206D01*
X325434Y775012D01*
X327106Y776294D01*
X328388Y777965D01*
X329111Y779710D01*
X329849Y779984D01*
X332264Y780248D01*
X333198Y778632D01*
X335432Y776398D01*
X338168Y774818D01*
X341220Y774000D01*
X344380D01*
X347432Y774818D01*
X350168Y776398D01*
X352402Y778632D01*
X353934Y781285D01*
X354289Y781368D01*
X356711D01*
X357066Y781285D01*
X358598Y778632D01*
X360832Y776398D01*
X363568Y774818D01*
X366620Y774000D01*
X369780D01*
X372832Y774818D01*
X375568Y776398D01*
X377802Y778632D01*
X379334Y781285D01*
X379689Y781368D01*
X382111D01*
X382466Y781285D01*
X383998Y778632D01*
X386232Y776398D01*
X388968Y774818D01*
X392020Y774000D01*
X395180D01*
X396482Y774349D01*
X399482Y772284D01*
Y766134D01*
X369674Y736326D01*
X368348Y734341D01*
X367882Y732000D01*
Y539534D01*
X336674Y508326D01*
X335348Y506341D01*
X334882Y504000D01*
Y370000D01*
X335348Y367659D01*
X336674Y365674D01*
X365674Y336674D01*
X367659Y335348D01*
X370000Y334883D01*
X382279D01*
X390089Y332926D01*
X392418Y330597D01*
X394989Y329113D01*
X395169Y328593D01*
X395271Y327740D01*
X395089Y325859D01*
X393314Y324834D01*
X391166Y322686D01*
X389646Y320054D01*
X388860Y317119D01*
Y316870D01*
X411940D01*
Y317119D01*
X411154Y320054D01*
X409634Y322686D01*
X407486Y324834D01*
X405711Y325859D01*
X405529Y327740D01*
X405631Y328593D01*
X405811Y329113D01*
X408382Y330597D01*
X410803Y333018D01*
X412514Y335982D01*
X413400Y339288D01*
Y342711D01*
X412514Y346018D01*
X410803Y348982D01*
X408382Y351403D01*
X407403Y351968D01*
Y355432D01*
X408382Y355997D01*
X410803Y358418D01*
X412514Y361382D01*
X413400Y364688D01*
Y368111D01*
X412514Y371418D01*
X411646Y372922D01*
X413349Y375922D01*
X434311D01*
X510376Y299857D01*
X510319Y299509D01*
X508990Y297000D01*
X506488D01*
X503182Y296114D01*
X500218Y294403D01*
X497797Y291982D01*
X497232Y291003D01*
X493768D01*
X493203Y291982D01*
X490782Y294403D01*
X487818Y296114D01*
X484511Y297000D01*
X481088D01*
X477782Y296114D01*
X474818Y294403D01*
X472397Y291982D01*
X471832Y291003D01*
X468368D01*
X467803Y291982D01*
X465382Y294403D01*
X462418Y296114D01*
X459112Y297000D01*
X455689D01*
X452382Y296114D01*
X449418Y294403D01*
X446997Y291982D01*
X446540Y291190D01*
X443540Y291994D01*
Y295540D01*
X433270D01*
Y284000D01*
Y272460D01*
X443540D01*
Y276006D01*
X446540Y276810D01*
X446997Y276018D01*
X449418Y273597D01*
X449422Y273595D01*
X451792Y265631D01*
Y93600D01*
X452219Y91454D01*
X453435Y89635D01*
X480035Y63035D01*
X481854Y61819D01*
X484000Y61392D01*
X1064000D01*
X1066146Y61819D01*
X1067965Y63035D01*
X1105965Y101035D01*
X1107181Y102854D01*
X1107608Y105000D01*
Y185500D01*
X1107181Y187646D01*
X1105965Y189465D01*
X1079201Y216230D01*
X1075700Y222453D01*
Y225380D01*
X1074882Y228432D01*
X1073302Y231168D01*
X1071068Y233402D01*
X1068415Y234934D01*
X1068332Y235289D01*
Y237711D01*
X1068415Y238066D01*
X1071068Y239598D01*
X1073302Y241832D01*
X1074882Y244568D01*
X1075700Y247620D01*
Y250780D01*
X1074882Y253832D01*
X1073302Y256568D01*
X1071068Y258802D01*
X1068332Y260382D01*
X1065280Y261200D01*
X1062120D01*
X1059068Y260382D01*
X1056332Y258802D01*
X1054098Y256568D01*
X1052518Y253832D01*
X1051700Y250780D01*
X1048840Y250588D01*
X1048122Y253268D01*
X1046734Y255672D01*
X1044772Y257634D01*
X1042368Y259022D01*
X1039688Y259740D01*
X1039570D01*
Y249200D01*
Y238660D01*
X1039688D01*
X1042368Y239378D01*
X1044062Y240356D01*
X1046174Y239242D01*
X1046770Y238594D01*
X1046592Y237700D01*
Y234414D01*
X1043592Y232915D01*
X1042368Y233622D01*
X1039688Y234340D01*
X1039570D01*
Y223800D01*
Y213260D01*
X1039688D01*
X1042368Y213978D01*
X1044772Y215366D01*
X1048235Y215071D01*
X1055818Y207488D01*
X1054098Y205768D01*
X1052518Y203032D01*
X1052291Y202187D01*
X1050562Y199903D01*
X1050562Y199903D01*
Y199903D01*
X1048840Y199788D01*
X1048803Y199925D01*
X1048122Y202468D01*
X1046734Y204872D01*
X1044772Y206834D01*
X1042368Y208222D01*
X1039688Y208940D01*
X1039570D01*
Y198400D01*
Y187860D01*
X1039688D01*
X1042368Y188578D01*
X1044772Y189966D01*
X1046734Y191928D01*
X1048122Y194332D01*
X1048803Y196875D01*
X1048840Y197012D01*
X1050562Y196897D01*
Y196897D01*
X1050562Y196897D01*
X1052291Y194613D01*
X1052518Y193768D01*
X1054098Y191032D01*
X1056332Y188798D01*
X1057948Y187864D01*
X1057683Y185449D01*
X1057411Y184711D01*
X1055666Y183988D01*
X1053994Y182706D01*
X1052712Y181035D01*
X1051906Y179088D01*
X1051631Y177000D01*
Y175563D01*
X1048631Y175168D01*
X1048122Y177068D01*
X1046734Y179472D01*
X1044772Y181434D01*
X1042368Y182822D01*
X1039688Y183540D01*
X1039570D01*
Y173000D01*
Y162460D01*
X1039688D01*
X1042368Y163178D01*
X1044772Y164566D01*
X1046734Y166528D01*
X1048122Y168932D01*
X1048631Y170832D01*
X1051631Y170438D01*
Y169000D01*
X1051906Y166912D01*
X1052712Y164965D01*
X1053994Y163294D01*
X1055666Y162012D01*
X1057612Y161206D01*
X1058392Y161103D01*
Y116123D01*
X1029877Y87608D01*
X845118D01*
X844212Y90608D01*
X844768Y91439D01*
X845078Y93000D01*
X845078Y93000D01*
Y103000D01*
X844768Y104561D01*
X843884Y105884D01*
X843884Y105884D01*
X838884Y110884D01*
X837561Y111768D01*
X836000Y112078D01*
X836000Y112078D01*
X686535D01*
X685749Y112350D01*
X683673Y114589D01*
Y159935D01*
X683246Y162081D01*
X682030Y163900D01*
X674608Y171323D01*
Y297677D01*
X682030Y305100D01*
X683246Y306919D01*
X683673Y309065D01*
Y380535D01*
X683246Y382681D01*
X682030Y384500D01*
X658354Y408176D01*
X654399Y415484D01*
X654400Y415489D01*
Y418912D01*
X653514Y422218D01*
X651803Y425182D01*
X649382Y427603D01*
X648403Y428168D01*
Y431632D01*
X649382Y432197D01*
X651803Y434618D01*
X653514Y437582D01*
X654400Y440888D01*
Y444311D01*
X653514Y447618D01*
X651803Y450582D01*
X649382Y453003D01*
X648403Y453568D01*
Y457032D01*
X649382Y457597D01*
X651803Y460018D01*
X653514Y462982D01*
X654400Y466288D01*
Y469711D01*
X653514Y473018D01*
X651803Y475982D01*
X649382Y478403D01*
X648590Y478860D01*
X649394Y481860D01*
X652940D01*
Y492130D01*
X629860D01*
Y483635D01*
X629860Y482078D01*
X629111Y482078D01*
X547689D01*
X535884Y493884D01*
X534561Y494768D01*
X533000Y495078D01*
X533000Y495078D01*
X522000D01*
X522000Y495078D01*
X520439Y494768D01*
X519116Y493884D01*
X433311Y408078D01*
X413609D01*
X411877Y411078D01*
X412514Y412182D01*
X413400Y415489D01*
Y418912D01*
X412514Y422218D01*
X410803Y425182D01*
X408382Y427603D01*
X407403Y428168D01*
Y431632D01*
X408382Y432197D01*
X410803Y434618D01*
X412514Y437582D01*
X413400Y440888D01*
Y444311D01*
X412514Y447618D01*
X410803Y450582D01*
X408382Y453003D01*
X407403Y453568D01*
Y457032D01*
X408382Y457597D01*
X410803Y460018D01*
X412514Y462982D01*
X413400Y466288D01*
Y469711D01*
X412514Y473018D01*
X410803Y475982D01*
X409385Y477400D01*
X410627Y480400D01*
X413400D01*
Y506400D01*
X406945D01*
X406518Y507254D01*
Y697095D01*
X486297Y776875D01*
X488969Y775334D01*
X489510Y772161D01*
X453074Y735726D01*
X451748Y733741D01*
X451283Y731400D01*
Y543121D01*
X449326Y535311D01*
X446997Y532982D01*
X446540Y532190D01*
X443540Y532994D01*
Y536540D01*
X433270D01*
Y525000D01*
Y513460D01*
X443540D01*
Y517006D01*
X446540Y517810D01*
X446997Y517018D01*
X449418Y514597D01*
X452382Y512886D01*
X455689Y512000D01*
X459112D01*
X462418Y512886D01*
X465382Y514597D01*
X467803Y517018D01*
X468368Y517997D01*
X471832D01*
X472397Y517018D01*
X474818Y514597D01*
X477782Y512886D01*
X481088Y512000D01*
X484511D01*
X487818Y512886D01*
X490782Y514597D01*
X493203Y517018D01*
X493768Y517997D01*
X497232D01*
X497797Y517018D01*
X500218Y514597D01*
X503182Y512886D01*
X506488Y512000D01*
X509911D01*
X513218Y512886D01*
X516182Y514597D01*
X518603Y517018D01*
X519168Y517997D01*
X522632D01*
X523197Y517018D01*
X525618Y514597D01*
X528582Y512886D01*
X531889Y512000D01*
X535312D01*
X538618Y512886D01*
X541582Y514597D01*
X544003Y517018D01*
X544568Y517997D01*
X548032D01*
X548597Y517018D01*
X551018Y514597D01*
X553982Y512886D01*
X557289Y512000D01*
X560712D01*
X564018Y512886D01*
X566982Y514597D01*
X569403Y517018D01*
X569968Y517997D01*
X573432D01*
X573997Y517018D01*
X576418Y514597D01*
X579382Y512886D01*
X582688Y512000D01*
X586111D01*
X589418Y512886D01*
X592382Y514597D01*
X594803Y517018D01*
X595368Y517997D01*
X598832D01*
X599397Y517018D01*
X601818Y514597D01*
X604782Y512886D01*
X608088Y512000D01*
X611511D01*
X614818Y512886D01*
X617782Y514597D01*
X620203Y517018D01*
X621914Y519982D01*
X622800Y523288D01*
Y524551D01*
X625090Y529518D01*
X625652Y530358D01*
X626118Y532700D01*
Y746000D01*
X625652Y748341D01*
X624326Y750326D01*
X615918Y758734D01*
Y772591D01*
X618918Y774456D01*
X620620Y774000D01*
X623780D01*
X626832Y774818D01*
X629568Y776398D01*
X631802Y778632D01*
X633334Y781285D01*
X633689Y781368D01*
X636111D01*
X636466Y781285D01*
X637998Y778632D01*
X640232Y776398D01*
X642968Y774818D01*
X646020Y774000D01*
X649180D01*
X652232Y774818D01*
X654968Y776398D01*
X657202Y778632D01*
X658734Y781285D01*
X659089Y781368D01*
X661511D01*
X661866Y781285D01*
X663398Y778632D01*
X665632Y776398D01*
X668368Y774818D01*
X671420Y774000D01*
X674580D01*
X677632Y774818D01*
X680368Y776398D01*
X682602Y778632D01*
X684134Y781285D01*
X684489Y781368D01*
X686911D01*
X687266Y781285D01*
X688798Y778632D01*
X691032Y776398D01*
X693768Y774818D01*
X696820Y774000D01*
X699980D01*
X703032Y774818D01*
X705768Y776398D01*
X708002Y778632D01*
X709534Y781285D01*
X709889Y781368D01*
X712311D01*
X712666Y781285D01*
X714198Y778632D01*
X716432Y776398D01*
X717600Y775723D01*
X718261Y772142D01*
X717674Y771555D01*
X716348Y769570D01*
X715882Y767230D01*
Y643000D01*
X716348Y640659D01*
X717674Y638674D01*
X735674Y620674D01*
X737659Y619348D01*
X740000Y618882D01*
X758466D01*
X774882Y602466D01*
Y585642D01*
X774536Y583154D01*
X774314Y582769D01*
X774087Y581923D01*
X771649Y580943D01*
X770825Y580943D01*
X748884Y602884D01*
X747561Y603768D01*
X746000Y604078D01*
X746000Y604078D01*
X739000D01*
X737439Y603768D01*
X736116Y602884D01*
X736116Y602884D01*
X728116Y594884D01*
X728116Y594884D01*
X727232Y593561D01*
X726922Y592000D01*
X726922Y592000D01*
X726922Y585000D01*
X727232Y583439D01*
X728116Y582116D01*
X728116Y582116D01*
X758116Y552116D01*
X759439Y551232D01*
X761000Y550922D01*
X761000Y550922D01*
X819311D01*
X831922Y538311D01*
Y486689D01*
X819311Y474078D01*
X731000D01*
X729439Y473768D01*
X728116Y472884D01*
X728116Y472884D01*
X707116Y451884D01*
X706232Y450561D01*
X705922Y449000D01*
X705922Y449000D01*
Y436000D01*
X705922Y436000D01*
X706232Y434439D01*
X707116Y433116D01*
X713116Y427116D01*
X713125Y427110D01*
X713131Y427101D01*
X713789Y426667D01*
X714439Y426232D01*
X714450Y426230D01*
X714459Y426224D01*
X715230Y426075D01*
X716000Y425922D01*
X716011Y425924D01*
X716021Y425922D01*
X726075Y425975D01*
X726842Y426132D01*
X727614Y426285D01*
X727623Y426291D01*
X727634Y426293D01*
X728287Y426735D01*
X728937Y427169D01*
X733884Y432116D01*
X734768Y433439D01*
X735078Y435000D01*
X735078Y435000D01*
Y448311D01*
X742689Y455922D01*
X809311D01*
X811481Y453751D01*
Y450493D01*
X802836Y441848D01*
X802231Y441686D01*
X800594Y440741D01*
X799258Y439406D01*
X798314Y437769D01*
X797825Y435945D01*
Y434055D01*
X798314Y432231D01*
X799258Y430594D01*
X800594Y429259D01*
X802231Y428314D01*
X804055Y427825D01*
X805945D01*
X807769Y428314D01*
X809406Y429259D01*
X810741Y430594D01*
X811686Y432231D01*
X811848Y432836D01*
X819934Y440922D01*
X824311D01*
X836922Y428311D01*
X836922Y384689D01*
X819116Y366884D01*
X818232Y365561D01*
X817922Y364000D01*
X817922Y364000D01*
Y355400D01*
X817966Y355177D01*
X817947Y354950D01*
X818120Y354402D01*
X818232Y353839D01*
X818359Y353650D01*
X818428Y353433D01*
X818797Y352994D01*
X819116Y352516D01*
X819306Y352390D01*
X819452Y352215D01*
X824952Y347815D01*
X825462Y347551D01*
X825939Y347232D01*
X826163Y347188D01*
X826365Y347083D01*
X826937Y347034D01*
X827500Y346922D01*
X835000D01*
X836561Y347232D01*
X837884Y348116D01*
X837884Y348116D01*
X855888Y366120D01*
X856338Y366794D01*
X856771Y367442D01*
X856771Y367443D01*
X856772Y367443D01*
X856935Y368265D01*
X857082Y369003D01*
Y369004D01*
X857082Y369004D01*
X857082Y369004D01*
X857145Y553065D01*
X857145Y553067D01*
X857145Y553069D01*
X857083Y675316D01*
X867689Y685922D01*
X900000D01*
X901561Y686232D01*
X902884Y687116D01*
X902884Y687116D01*
X904212Y688444D01*
X991400D01*
X993097Y688667D01*
X994678Y689322D01*
X996036Y690364D01*
X1031567Y725895D01*
X1037247Y729900D01*
X1039880D01*
X1042932Y730718D01*
X1045668Y732298D01*
X1047902Y734532D01*
X1049482Y737268D01*
X1050104Y739587D01*
X1053104Y739192D01*
Y737900D01*
X1053328Y736193D01*
X1053987Y734602D01*
X1055036Y733236D01*
X1056402Y732187D01*
X1057993Y731528D01*
X1059700Y731304D01*
X1062430D01*
Y741900D01*
X1063700D01*
Y743170D01*
X1074296D01*
Y745900D01*
X1074072Y747607D01*
X1073413Y749198D01*
X1072364Y750564D01*
X1070998Y751613D01*
X1069407Y752272D01*
X1067700Y752496D01*
X1066408D01*
X1066013Y755496D01*
X1068332Y756118D01*
X1071068Y757698D01*
X1073302Y759932D01*
X1074882Y762668D01*
X1075700Y765720D01*
Y768880D01*
X1074882Y771932D01*
X1073302Y774668D01*
X1071068Y776902D01*
X1068415Y778434D01*
X1068332Y778789D01*
Y781211D01*
X1068415Y781566D01*
X1071068Y783098D01*
X1073302Y785332D01*
X1074882Y788068D01*
X1075700Y791120D01*
Y794280D01*
X1074882Y797332D01*
X1073302Y800068D01*
X1071068Y802302D01*
X1068415Y803834D01*
X1068332Y804189D01*
Y806611D01*
X1068415Y806966D01*
X1071068Y808498D01*
X1073302Y810732D01*
X1074882Y813468D01*
X1075700Y816520D01*
Y819680D01*
X1074882Y822732D01*
X1073302Y825468D01*
X1071068Y827702D01*
X1068332Y829282D01*
X1065280Y830100D01*
X1062120D01*
X1059068Y829282D01*
X1056332Y827702D01*
X1054098Y825468D01*
X1052566Y822815D01*
X1052211Y822732D01*
X1049789D01*
X1049434Y822815D01*
X1047902Y825468D01*
X1045668Y827702D01*
X1042932Y829282D01*
X1039880Y830100D01*
X1036720D01*
X1033668Y829282D01*
X1030932Y827702D01*
X1028698Y825468D01*
X1027118Y822732D01*
X1026300Y819680D01*
Y816520D01*
X1027118Y813468D01*
X1028698Y810732D01*
X1030932Y808498D01*
X1033585Y806966D01*
X1033668Y806611D01*
Y804189D01*
X1033585Y803834D01*
X1030932Y802302D01*
X1028698Y800068D01*
X1027118Y797332D01*
X1026300Y794280D01*
Y791120D01*
X1027118Y788068D01*
X1028698Y785332D01*
X1030932Y783098D01*
X1033585Y781566D01*
X1033668Y781211D01*
Y778789D01*
X1033585Y778434D01*
X1030932Y776902D01*
X1028698Y774668D01*
X1027118Y771932D01*
X1026300Y768880D01*
Y765720D01*
X1027118Y762668D01*
X1028698Y759932D01*
X1030932Y757698D01*
X1033585Y756166D01*
X1033668Y755811D01*
Y753389D01*
X1033585Y753034D01*
X1030932Y751502D01*
X1028698Y749268D01*
X1027118Y746532D01*
X1026300Y743480D01*
Y740847D01*
X1022295Y735167D01*
X988684Y701556D01*
X904212D01*
X902078Y703689D01*
Y722000D01*
Y725066D01*
X907506Y730494D01*
X908887Y732561D01*
X909372Y735000D01*
Y804616D01*
X918384Y813628D01*
X924006D01*
X925944Y813479D01*
X926231Y813314D01*
X928055Y812825D01*
X929945D01*
X931769Y813314D01*
X933406Y814258D01*
X934741Y815594D01*
X935686Y817231D01*
X936175Y819055D01*
Y820945D01*
X935686Y822769D01*
X934741Y824406D01*
X933406Y825741D01*
X931769Y826686D01*
X929945Y827175D01*
X928055D01*
X926231Y826686D01*
X925944Y826520D01*
X924006Y826372D01*
X915745D01*
X913306Y825887D01*
X911239Y824506D01*
X898494Y811761D01*
X897113Y809694D01*
X896628Y807255D01*
Y737639D01*
X893066Y734078D01*
X890000D01*
X888439Y733768D01*
X887116Y732884D01*
X887116Y732884D01*
X878311Y724078D01*
X861689D01*
X859078Y726689D01*
Y740000D01*
X859078Y740000D01*
X858768Y741561D01*
X857884Y742884D01*
X857884Y742884D01*
X852884Y747884D01*
X851561Y748768D01*
X850000Y749078D01*
X850000Y749078D01*
X846000D01*
X846000Y749078D01*
X845008Y748881D01*
X844439Y748768D01*
X843116Y747884D01*
X843116Y747884D01*
X838116Y742884D01*
X838116Y742884D01*
X837232Y741561D01*
X836922Y740000D01*
X836922Y740000D01*
X836922Y584871D01*
X834654Y582921D01*
X831702Y583712D01*
X831686Y583769D01*
X831464Y584154D01*
X831117Y586642D01*
Y604000D01*
X830652Y606341D01*
X829326Y608326D01*
X798326Y639326D01*
X796341Y640652D01*
X794000Y641117D01*
X765534D01*
X763118Y643534D01*
Y764466D01*
X765526Y766874D01*
X766852Y768859D01*
X767318Y771200D01*
Y773348D01*
X768844Y774230D01*
X770318Y774724D01*
X773020Y774000D01*
X776180D01*
X779232Y774818D01*
X781968Y776398D01*
X784202Y778632D01*
X785734Y781285D01*
X786089Y781368D01*
X788511D01*
X788866Y781285D01*
X790398Y778632D01*
X792632Y776398D01*
X795368Y774818D01*
X798420Y774000D01*
X801580D01*
X804632Y774818D01*
X807368Y776398D01*
X809602Y778632D01*
X811182Y781368D01*
X812000Y784420D01*
Y787580D01*
X811182Y790632D01*
X809602Y793368D01*
X807368Y795602D01*
X804715Y797134D01*
X804632Y797489D01*
Y799911D01*
X804715Y800266D01*
X807368Y801798D01*
X809602Y804032D01*
X811182Y806768D01*
X812000Y809820D01*
Y812980D01*
X811553Y814649D01*
X814242Y816202D01*
X855561Y774883D01*
X857255Y772451D01*
X857314Y772231D01*
X858259Y770594D01*
X859594Y769259D01*
X861231Y768314D01*
X863055Y767825D01*
X864945D01*
X866769Y768314D01*
X868406Y769259D01*
X869741Y770594D01*
X870686Y772231D01*
X871175Y774055D01*
Y775945D01*
X870686Y777769D01*
X869741Y779406D01*
X868406Y780741D01*
X866769Y781686D01*
X865720Y781967D01*
X862899Y783407D01*
X817340Y828965D01*
X815521Y830181D01*
X813375Y830608D01*
D02*
G37*
G36*
X1074296Y740630D02*
X1064970D01*
Y731304D01*
X1067700D01*
X1069407Y731528D01*
X1070998Y732187D01*
X1072364Y733236D01*
X1073413Y734602D01*
X1074072Y736193D01*
X1074296Y737900D01*
Y740630D01*
D02*
G37*
G36*
X903580Y681200D02*
X900420D01*
X897368Y680382D01*
X894632Y678802D01*
X892398Y676568D01*
X890866Y673915D01*
X890511Y673832D01*
X888089D01*
X887734Y673915D01*
X886202Y676568D01*
X883968Y678802D01*
X881232Y680382D01*
X878180Y681200D01*
X875020D01*
X871968Y680382D01*
X869232Y678802D01*
X866998Y676568D01*
X865418Y673832D01*
X864600Y670780D01*
Y667620D01*
X865418Y664568D01*
X866998Y661832D01*
X869232Y659598D01*
X871885Y658066D01*
X871968Y657711D01*
Y655289D01*
X871885Y654934D01*
X869232Y653402D01*
X866998Y651168D01*
X865418Y648432D01*
X864600Y645380D01*
Y642220D01*
X865418Y639168D01*
X866998Y636432D01*
X869232Y634198D01*
X871885Y632666D01*
X871968Y632311D01*
Y629889D01*
X871885Y629534D01*
X869232Y628002D01*
X866998Y625768D01*
X865418Y623032D01*
X864600Y619980D01*
Y616820D01*
X865418Y613768D01*
X866998Y611032D01*
X869232Y608798D01*
X871885Y607266D01*
X871968Y606911D01*
Y604489D01*
X871885Y604134D01*
X869232Y602602D01*
X866998Y600368D01*
X865418Y597632D01*
X864600Y594580D01*
Y591420D01*
X865418Y588368D01*
X866998Y585632D01*
X869232Y583398D01*
X871968Y581818D01*
X875020Y581000D01*
X878180D01*
X881232Y581818D01*
X883968Y583398D01*
X886202Y585632D01*
X887136Y587248D01*
X889551Y586983D01*
X890289Y586711D01*
X891012Y584966D01*
X892294Y583294D01*
X893966Y582012D01*
X895912Y581206D01*
X898000Y580931D01*
X906000D01*
X908088Y581206D01*
X910034Y582012D01*
X911706Y583294D01*
X912988Y584966D01*
X913794Y586912D01*
X914069Y589000D01*
Y597000D01*
X913794Y599088D01*
X912988Y601035D01*
X911706Y602706D01*
X910034Y603988D01*
X908289Y604711D01*
X908017Y605449D01*
X907751Y607864D01*
X909368Y608798D01*
X911602Y611032D01*
X913182Y613768D01*
X914000Y616820D01*
Y619980D01*
X913182Y623032D01*
X911602Y625768D01*
X909368Y628002D01*
X906715Y629534D01*
X906632Y629889D01*
Y632311D01*
X906715Y632666D01*
X909368Y634198D01*
X911602Y636432D01*
X913182Y639168D01*
X914000Y642220D01*
Y645380D01*
X913182Y648432D01*
X911602Y651168D01*
X909368Y653402D01*
X906715Y654934D01*
X906632Y655289D01*
Y657711D01*
X906715Y658066D01*
X909368Y659598D01*
X911602Y661832D01*
X913182Y664568D01*
X914000Y667620D01*
Y670780D01*
X913182Y673832D01*
X911602Y676568D01*
X909368Y678802D01*
X906632Y680382D01*
X903580Y681200D01*
D02*
G37*
G36*
X167785Y639205D02*
X168400Y636128D01*
X165670D01*
Y630470D01*
X174940D01*
Y630588D01*
X174222Y633268D01*
X172834Y635672D01*
X170872Y637634D01*
X168468Y639022D01*
X167785Y639205D01*
D02*
G37*
G36*
X176000Y724078D02*
X176000Y724078D01*
X166000D01*
X164439Y723768D01*
X163116Y722884D01*
X163116Y722884D01*
X158116Y717884D01*
X157232Y716561D01*
X156922Y715000D01*
X156922Y715000D01*
X156922Y705000D01*
X156922Y705000D01*
X157232Y703439D01*
X158116Y702116D01*
X158116Y702116D01*
X171922Y688311D01*
Y655000D01*
X172232Y653439D01*
X173116Y652116D01*
X173116Y652116D01*
X211922Y613311D01*
Y601689D01*
X202311Y592078D01*
X173948D01*
X173845Y592058D01*
X172400Y594829D01*
X174002Y596432D01*
X175582Y599168D01*
X176400Y602220D01*
Y605380D01*
X175582Y608432D01*
X174002Y611168D01*
X171768Y613402D01*
X169032Y614982D01*
X168187Y615209D01*
X165903Y616938D01*
X165903Y616938D01*
X165903D01*
X165788Y618660D01*
X165925Y618697D01*
X168468Y619378D01*
X170872Y620766D01*
X172834Y622728D01*
X174222Y625132D01*
X174940Y627812D01*
Y627930D01*
X164400D01*
Y629200D01*
X163130D01*
Y636128D01*
X160400D01*
X161015Y639205D01*
X160332Y639022D01*
X157928Y637634D01*
X155966Y635672D01*
X154578Y633268D01*
X154069Y631368D01*
X151069Y631763D01*
Y633200D01*
X150794Y635288D01*
X149988Y637234D01*
X148706Y638906D01*
X147035Y640188D01*
X145088Y640994D01*
X143000Y641269D01*
X135000D01*
X132912Y640994D01*
X130965Y640188D01*
X129294Y638906D01*
X128012Y637234D01*
X127206Y635288D01*
X126931Y633200D01*
Y625200D01*
X127206Y623112D01*
X128012Y621166D01*
X129294Y619494D01*
X130965Y618212D01*
X132711Y617489D01*
X132984Y616751D01*
X133248Y614336D01*
X131632Y613402D01*
X129398Y611168D01*
X127818Y608432D01*
X127000Y605380D01*
Y602220D01*
X127818Y599168D01*
X129398Y596432D01*
X131632Y594198D01*
X134285Y592666D01*
X134368Y592311D01*
Y589889D01*
X134285Y589534D01*
X131632Y588002D01*
X129398Y585768D01*
X127818Y583032D01*
X127000Y579980D01*
Y576820D01*
X127818Y573768D01*
X129398Y571032D01*
X131632Y568798D01*
X134285Y567266D01*
X134368Y566911D01*
Y564489D01*
X134285Y564134D01*
X131632Y562602D01*
X129398Y560368D01*
X127818Y557632D01*
X127000Y554580D01*
Y551420D01*
X127818Y548368D01*
X129398Y545632D01*
X131632Y543398D01*
X134368Y541818D01*
X137420Y541000D01*
X140580D01*
X143632Y541818D01*
X146368Y543398D01*
X148602Y545632D01*
X150134Y548285D01*
X150489Y548368D01*
X152911D01*
X153266Y548285D01*
X154798Y545632D01*
X157032Y543398D01*
X159768Y541818D01*
X162820Y541000D01*
X164232D01*
X181922Y523311D01*
Y345000D01*
X181922Y345000D01*
X182232Y343439D01*
X183116Y342116D01*
X183116Y342116D01*
X203116Y322116D01*
X203116Y322116D01*
X204439Y321232D01*
X206000Y320922D01*
X206000Y320922D01*
X281023Y320922D01*
X281026Y320922D01*
X281028Y320922D01*
X281810Y321078D01*
X282584Y321232D01*
X282586Y321233D01*
X282588Y321234D01*
X283245Y321674D01*
X283907Y322116D01*
X283908Y322118D01*
X283910Y322119D01*
X288899Y327119D01*
X289331Y327768D01*
X289779Y328439D01*
X289780Y328442D01*
X289781Y328444D01*
X289935Y329220D01*
X290090Y330000D01*
Y335011D01*
X289779Y336572D01*
X288895Y337895D01*
X288895Y337895D01*
X283907Y342884D01*
X283907Y342884D01*
X282584Y343768D01*
X281023Y344078D01*
X281023Y344078D01*
X217689D01*
X205078Y356689D01*
Y530000D01*
X205078Y530000D01*
X204768Y531561D01*
X203884Y532884D01*
X203884Y532884D01*
X178884Y557884D01*
X178884Y557884D01*
X177561Y558768D01*
X177010Y558877D01*
X176142Y559922D01*
X176763Y561762D01*
X178007Y562922D01*
X203000D01*
X204561Y563232D01*
X205884Y564116D01*
X205884Y564116D01*
X237689Y595922D01*
X304311D01*
X321922Y578311D01*
Y561689D01*
X303116Y542884D01*
X302232Y541561D01*
X301922Y540000D01*
X301922Y540000D01*
Y171689D01*
X294311Y164078D01*
X271689D01*
X269078Y166689D01*
Y196670D01*
X271458Y198497D01*
X271595Y198460D01*
X271680D01*
Y208750D01*
Y219040D01*
X271595D01*
X271458Y219003D01*
X269078Y220830D01*
Y225000D01*
X268768Y226561D01*
X267884Y227884D01*
X267884Y227884D01*
X262884Y232884D01*
X261561Y233768D01*
X260000Y234078D01*
X260000Y234078D01*
X235000D01*
X233439Y233768D01*
X232116Y232884D01*
X232116Y232884D01*
X227116Y227884D01*
X226232Y226561D01*
X225922Y225000D01*
X225922Y225000D01*
Y222207D01*
X223697Y220500D01*
X220603D01*
X217615Y219699D01*
X214935Y218152D01*
X212748Y215965D01*
X211500Y213804D01*
X209493Y213939D01*
X208500Y214319D01*
Y220500D01*
X185000D01*
Y197000D01*
X208500D01*
Y203181D01*
X209493Y203561D01*
X211500Y203696D01*
X212748Y201535D01*
X214935Y199348D01*
X217615Y197801D01*
X220603Y197000D01*
X223697D01*
X225922Y195293D01*
Y150000D01*
X225922Y150000D01*
X226232Y148439D01*
X227116Y147116D01*
X227116Y147116D01*
X242116Y132116D01*
X243439Y131232D01*
X245000Y130922D01*
X245000Y130922D01*
X421000D01*
X422561Y131232D01*
X423884Y132116D01*
X423884Y132116D01*
X428884Y137116D01*
X428884Y137116D01*
X429768Y138439D01*
X430078Y140000D01*
X430078Y140000D01*
Y155000D01*
X430078Y155000D01*
X429768Y156561D01*
X428884Y157884D01*
X428884Y157884D01*
X423884Y162884D01*
X423884Y162884D01*
X422561Y163768D01*
X421000Y164078D01*
X421000Y164078D01*
X337689D01*
X330078Y171689D01*
Y533311D01*
X353884Y557116D01*
X358884Y562116D01*
X359768Y563439D01*
X360078Y565000D01*
X360078Y565000D01*
Y575000D01*
X360078Y575000D01*
X359768Y576561D01*
X358884Y577884D01*
X358884Y577884D01*
X318884Y617884D01*
X317561Y618768D01*
X316000Y619078D01*
X316000Y619078D01*
X237689D01*
X195078Y661689D01*
X195078Y705000D01*
X195078Y705000D01*
X194768Y706561D01*
X193884Y707884D01*
X193884Y707884D01*
X178884Y722884D01*
X177561Y723768D01*
X177302Y723819D01*
X176000Y724078D01*
D02*
G37*
G36*
X430730Y536540D02*
X420460D01*
Y526270D01*
X430730D01*
Y536540D01*
D02*
G37*
G36*
Y523730D02*
X420460D01*
Y513460D01*
X430730D01*
Y523730D01*
D02*
G37*
G36*
X161000Y504078D02*
X161000Y504078D01*
X151000D01*
X151000Y504078D01*
X149439Y503768D01*
X148116Y502884D01*
X148116Y502884D01*
X143116Y497884D01*
X143116Y497884D01*
X142232Y496561D01*
X141922Y495000D01*
X141922Y495000D01*
Y396689D01*
X133116Y387884D01*
X132232Y386561D01*
X131922Y385000D01*
X131922Y385000D01*
Y335000D01*
X132232Y333439D01*
X133116Y332116D01*
X133116Y332116D01*
X138116Y327116D01*
X139439Y326232D01*
X141000Y325922D01*
X141000Y325922D01*
X151000D01*
X152561Y326232D01*
X153884Y327116D01*
X153884Y327116D01*
X158884Y332116D01*
X159768Y333439D01*
X160078Y335000D01*
X160078Y335000D01*
Y378111D01*
X168884Y386916D01*
X169768Y388239D01*
X170078Y389800D01*
X170078Y389800D01*
Y495000D01*
X170078Y495000D01*
X169768Y496561D01*
X168884Y497884D01*
X168884Y497884D01*
X163884Y502884D01*
X162561Y503768D01*
X162302Y503819D01*
X161000Y504078D01*
D02*
G37*
G36*
X652940Y504940D02*
X642670D01*
Y494670D01*
X652940D01*
Y504940D01*
D02*
G37*
G36*
X640130D02*
X629860D01*
Y494670D01*
X640130D01*
Y504940D01*
D02*
G37*
G36*
X903580Y471200D02*
X900420D01*
X897368Y470382D01*
X894632Y468802D01*
X892398Y466568D01*
X890866Y463915D01*
X890511Y463832D01*
X888089D01*
X887734Y463915D01*
X886202Y466568D01*
X883968Y468802D01*
X881232Y470382D01*
X878180Y471200D01*
X875020D01*
X871968Y470382D01*
X869232Y468802D01*
X866998Y466568D01*
X865418Y463832D01*
X864600Y460780D01*
Y457620D01*
X865418Y454568D01*
X866998Y451832D01*
X869232Y449598D01*
X871885Y448066D01*
X871968Y447711D01*
Y445289D01*
X871885Y444934D01*
X869232Y443402D01*
X866998Y441168D01*
X865418Y438432D01*
X864600Y435380D01*
Y432220D01*
X865418Y429168D01*
X866998Y426432D01*
X869232Y424198D01*
X871885Y422666D01*
X871968Y422311D01*
Y419889D01*
X871885Y419534D01*
X869232Y418002D01*
X866998Y415768D01*
X865418Y413032D01*
X864600Y409980D01*
Y406820D01*
X865418Y403768D01*
X866998Y401032D01*
X869232Y398798D01*
X871885Y397266D01*
X871968Y396911D01*
Y394489D01*
X871885Y394134D01*
X869232Y392602D01*
X866998Y390368D01*
X865418Y387632D01*
X864600Y384580D01*
Y381420D01*
X865418Y378368D01*
X866998Y375632D01*
X869232Y373398D01*
X871968Y371818D01*
X875020Y371000D01*
X878180D01*
X881232Y371818D01*
X883968Y373398D01*
X886202Y375632D01*
X887136Y377248D01*
X889551Y376983D01*
X890289Y376711D01*
X891012Y374966D01*
X892294Y373294D01*
X893966Y372012D01*
X895912Y371206D01*
X898000Y370931D01*
X906000D01*
X908089Y371206D01*
X910035Y372012D01*
X911706Y373294D01*
X912988Y374966D01*
X913794Y376912D01*
X914069Y379000D01*
Y387000D01*
X913794Y389088D01*
X912988Y391035D01*
X911706Y392706D01*
X910035Y393988D01*
X908290Y394711D01*
X908017Y395449D01*
X907752Y397864D01*
X909368Y398798D01*
X911602Y401032D01*
X913182Y403768D01*
X914000Y406820D01*
Y409980D01*
X913182Y413032D01*
X911602Y415768D01*
X909368Y418002D01*
X906715Y419534D01*
X906632Y419889D01*
Y422311D01*
X906715Y422666D01*
X909368Y424198D01*
X911602Y426432D01*
X913182Y429168D01*
X914000Y432220D01*
Y435380D01*
X913182Y438432D01*
X911602Y441168D01*
X909368Y443402D01*
X906715Y444934D01*
X906632Y445289D01*
Y447711D01*
X906715Y448066D01*
X909368Y449598D01*
X911602Y451832D01*
X913182Y454568D01*
X914000Y457620D01*
Y460780D01*
X913182Y463832D01*
X911602Y466568D01*
X909368Y468802D01*
X906632Y470382D01*
X903580Y471200D01*
D02*
G37*
G36*
X1065280Y471200D02*
X1062120D01*
X1059068Y470382D01*
X1056332Y468802D01*
X1054098Y466568D01*
X1052566Y463915D01*
X1052211Y463832D01*
X1049789D01*
X1049434Y463915D01*
X1047902Y466568D01*
X1045668Y468802D01*
X1042932Y470382D01*
X1039880Y471200D01*
X1036720D01*
X1033668Y470382D01*
X1030932Y468802D01*
X1028698Y466568D01*
X1027118Y463832D01*
X1026300Y460780D01*
Y457620D01*
X1027118Y454568D01*
X1028698Y451832D01*
X1030932Y449598D01*
X1033585Y448066D01*
X1033668Y447711D01*
Y445289D01*
X1033585Y444934D01*
X1030932Y443402D01*
X1028698Y441168D01*
X1027118Y438432D01*
X1026300Y435380D01*
Y432220D01*
X1027118Y429168D01*
X1028698Y426432D01*
X1030932Y424198D01*
X1033585Y422666D01*
X1033668Y422311D01*
Y419889D01*
X1033585Y419534D01*
X1030932Y418002D01*
X1028698Y415768D01*
X1027118Y413032D01*
X1026300Y409980D01*
Y406820D01*
X1027118Y403768D01*
X1028698Y401032D01*
X1030932Y398798D01*
X1033585Y397266D01*
X1033668Y396911D01*
Y394489D01*
X1033585Y394134D01*
X1030932Y392602D01*
X1028698Y390368D01*
X1027118Y387632D01*
X1026300Y384580D01*
Y381420D01*
X1027118Y378368D01*
X1028698Y375632D01*
X1030932Y373398D01*
X1033668Y371818D01*
X1036720Y371000D01*
X1039880D01*
X1042932Y371818D01*
X1045668Y373398D01*
X1047902Y375632D01*
X1048836Y377248D01*
X1051251Y376983D01*
X1051989Y376711D01*
X1052712Y374966D01*
X1053994Y373294D01*
X1055666Y372012D01*
X1057612Y371206D01*
X1059700Y370931D01*
X1067700D01*
X1069788Y371206D01*
X1071734Y372012D01*
X1073406Y373294D01*
X1074688Y374966D01*
X1075494Y376912D01*
X1075769Y379000D01*
Y387000D01*
X1075494Y389088D01*
X1074688Y391035D01*
X1073406Y392706D01*
X1071734Y393988D01*
X1069989Y394711D01*
X1069716Y395449D01*
X1069452Y397864D01*
X1071068Y398798D01*
X1073302Y401032D01*
X1074882Y403768D01*
X1075700Y406820D01*
Y409980D01*
X1074882Y413032D01*
X1073302Y415768D01*
X1071068Y418002D01*
X1068415Y419534D01*
X1068332Y419889D01*
Y422311D01*
X1068415Y422666D01*
X1071068Y424198D01*
X1073302Y426432D01*
X1074882Y429168D01*
X1075700Y432220D01*
Y435380D01*
X1074882Y438432D01*
X1073302Y441168D01*
X1071068Y443402D01*
X1068415Y444934D01*
X1068332Y445289D01*
Y447711D01*
X1068415Y448066D01*
X1071068Y449598D01*
X1073302Y451832D01*
X1074882Y454568D01*
X1075700Y457620D01*
Y460780D01*
X1074882Y463832D01*
X1073302Y466568D01*
X1071068Y468802D01*
X1068332Y470382D01*
X1065280Y471200D01*
D02*
G37*
G36*
X783000Y439078D02*
X783000Y439078D01*
X773000D01*
X773000Y439078D01*
X771439Y438768D01*
X770116Y437884D01*
X765116Y432884D01*
X764232Y431561D01*
X763922Y430000D01*
X763922Y430000D01*
Y360000D01*
X763922Y360000D01*
X764232Y358439D01*
X765116Y357116D01*
X770116Y352116D01*
X771439Y351232D01*
X773000Y350922D01*
X773000Y350922D01*
X783000D01*
X783000Y350922D01*
X784561Y351232D01*
X785884Y352116D01*
X790884Y357116D01*
X791768Y358439D01*
X792078Y360000D01*
X792078Y360000D01*
Y430000D01*
X792078Y430000D01*
X791768Y431561D01*
X790884Y432884D01*
X785884Y437884D01*
X784561Y438768D01*
X784302Y438819D01*
X783000Y439078D01*
D02*
G37*
G36*
X746945Y371175D02*
X745055D01*
X743231Y370686D01*
X741594Y369741D01*
X740258Y368406D01*
X739314Y366769D01*
X738825Y364945D01*
Y363055D01*
X739314Y361231D01*
X739623Y360696D01*
X740392Y357638D01*
Y354000D01*
X740819Y351854D01*
X742035Y350035D01*
X755755Y336315D01*
Y335712D01*
X754985Y332654D01*
X754677Y332119D01*
X754188Y330295D01*
Y328405D01*
X754677Y326581D01*
X755621Y324944D01*
X756957Y323609D01*
X758593Y322664D01*
X760418Y322175D01*
X762307D01*
X764132Y322664D01*
X765768Y323609D01*
X767104Y324944D01*
X768049Y326581D01*
X768538Y328405D01*
Y330295D01*
X768049Y332119D01*
X767740Y332654D01*
X766970Y335712D01*
Y338637D01*
X766544Y340783D01*
X765328Y342603D01*
X751608Y356323D01*
Y357638D01*
X752377Y360696D01*
X752686Y361231D01*
X753175Y363055D01*
Y364945D01*
X752686Y366769D01*
X751741Y368406D01*
X750406Y369741D01*
X748769Y370686D01*
X746945Y371175D01*
D02*
G37*
G36*
X704945Y413175D02*
X703055D01*
X701231Y412686D01*
X699594Y411741D01*
X698259Y410406D01*
X697314Y408769D01*
X696825Y406945D01*
Y405055D01*
X697314Y403231D01*
X697623Y402696D01*
X698392Y399638D01*
Y340000D01*
X698819Y337854D01*
X700035Y336035D01*
X716536Y319533D01*
X718154Y316827D01*
X718314Y316231D01*
X719258Y314594D01*
X720594Y313259D01*
X722231Y312314D01*
X724055Y311825D01*
X725945D01*
X727769Y312314D01*
X729406Y313259D01*
X730741Y314594D01*
X731686Y316231D01*
X732175Y318055D01*
Y319945D01*
X731686Y321769D01*
X730741Y323406D01*
X729406Y324741D01*
X727769Y325686D01*
X727173Y325846D01*
X724467Y327464D01*
X709608Y342323D01*
Y399638D01*
X710377Y402696D01*
X710686Y403231D01*
X711175Y405055D01*
Y406945D01*
X710686Y408769D01*
X709741Y410406D01*
X708406Y411741D01*
X706769Y412686D01*
X704945Y413175D01*
D02*
G37*
G36*
X801000Y309078D02*
X801000Y309078D01*
X756000D01*
X756000Y309078D01*
X754439Y308768D01*
X753116Y307884D01*
X753116Y307884D01*
X748116Y302884D01*
X747232Y301561D01*
X746922Y300000D01*
X746922Y300000D01*
Y290000D01*
X746922Y290000D01*
X747232Y288439D01*
X748116Y287116D01*
X748116Y287116D01*
X753116Y282116D01*
X754439Y281232D01*
X756000Y280922D01*
X756000Y280922D01*
X784311D01*
X791982Y273251D01*
X791922Y260019D01*
X791924Y260009D01*
X791922Y260000D01*
X792075Y259228D01*
X792225Y258456D01*
X792230Y258449D01*
X792232Y258439D01*
X792667Y257788D01*
X793103Y257129D01*
X793111Y257124D01*
X793116Y257116D01*
X798116Y252116D01*
X799439Y251232D01*
X801000Y250922D01*
X801000Y250922D01*
X811000D01*
X812561Y251232D01*
X813884Y252116D01*
X813884Y252116D01*
X818884Y257116D01*
X819768Y258439D01*
X820078Y260000D01*
X820078Y260000D01*
Y290000D01*
X820078Y290000D01*
X819768Y291561D01*
X818884Y292884D01*
X803884Y307884D01*
X802561Y308768D01*
X802302Y308819D01*
X801000Y309078D01*
D02*
G37*
G36*
X411940Y314330D02*
X401670D01*
Y304060D01*
X401919D01*
X404854Y304846D01*
X407486Y306366D01*
X409634Y308514D01*
X411154Y311146D01*
X411940Y314081D01*
Y314330D01*
D02*
G37*
G36*
X399130D02*
X388860D01*
Y314081D01*
X389646Y311146D01*
X391166Y308514D01*
X393314Y306366D01*
X395946Y304846D01*
X398881Y304060D01*
X399130D01*
Y314330D01*
D02*
G37*
G36*
X274497Y296700D02*
X271403D01*
X268415Y295899D01*
X265735Y294352D01*
X263548Y292165D01*
X262001Y289485D01*
X261803Y288747D01*
X258697D01*
X258499Y289485D01*
X256952Y292165D01*
X254765Y294352D01*
X252085Y295899D01*
X249097Y296700D01*
X246003D01*
X243015Y295899D01*
X240335Y294352D01*
X238148Y292165D01*
X236601Y289485D01*
X236403Y288747D01*
X233297D01*
X233099Y289485D01*
X231552Y292165D01*
X229365Y294352D01*
X226685Y295899D01*
X223697Y296700D01*
X220603D01*
X217615Y295899D01*
X214935Y294352D01*
X212748Y292165D01*
X211201Y289485D01*
X211003Y288747D01*
X207897D01*
X207699Y289485D01*
X206152Y292165D01*
X203965Y294352D01*
X201285Y295899D01*
X198297Y296700D01*
X195203D01*
X192215Y295899D01*
X189535Y294352D01*
X187348Y292165D01*
X185801Y289485D01*
X185000Y286497D01*
Y283403D01*
X185801Y280415D01*
X187348Y277735D01*
X189535Y275548D01*
X192215Y274001D01*
X195203Y273200D01*
X198297D01*
X201285Y274001D01*
X203965Y275548D01*
X206152Y277735D01*
X207699Y280415D01*
X207897Y281153D01*
X211003D01*
X211201Y280415D01*
X212748Y277735D01*
X214935Y275548D01*
X217615Y274001D01*
X220603Y273200D01*
X223697D01*
X226685Y274001D01*
X229365Y275548D01*
X231552Y277735D01*
X233099Y280415D01*
X233297Y281153D01*
X236403D01*
X236601Y280415D01*
X238148Y277735D01*
X240335Y275548D01*
X243015Y274001D01*
X246003Y273200D01*
X249097D01*
X252085Y274001D01*
X254765Y275548D01*
X256952Y277735D01*
X258499Y280415D01*
X258697Y281153D01*
X261803D01*
X262001Y280415D01*
X263548Y277735D01*
X265735Y275548D01*
X268415Y274001D01*
X271403Y273200D01*
X274497D01*
X277485Y274001D01*
X280165Y275548D01*
X282352Y277735D01*
X283899Y280415D01*
X284700Y283403D01*
Y286497D01*
X283899Y289485D01*
X282352Y292165D01*
X280165Y294352D01*
X277485Y295899D01*
X274497Y296700D01*
D02*
G37*
G36*
X430730Y295540D02*
X420460D01*
Y285270D01*
X430730D01*
Y295540D01*
D02*
G37*
G36*
X706000Y279078D02*
X706000Y279078D01*
X695000D01*
X695000Y279078D01*
X693439Y278768D01*
X692116Y277884D01*
X687116Y272884D01*
X687116Y272884D01*
X686232Y271561D01*
X685922Y270000D01*
X685922Y270000D01*
Y180000D01*
X685922Y180000D01*
X686232Y178439D01*
X687116Y177116D01*
X692116Y172116D01*
X693439Y171232D01*
X695000Y170922D01*
X695000Y170922D01*
X706000D01*
X706000Y170922D01*
X707561Y171232D01*
X708884Y172116D01*
X708884Y172116D01*
X713884Y177116D01*
X713884Y177116D01*
X714768Y178439D01*
X715078Y180000D01*
X715078Y180000D01*
Y204234D01*
X717850Y205382D01*
X718116Y205116D01*
X719439Y204232D01*
X721000Y203922D01*
X721000Y203922D01*
X811000D01*
X811000Y203922D01*
X812561Y204232D01*
X813884Y205116D01*
X813884Y205116D01*
X818884Y210116D01*
X818884Y210116D01*
X819768Y211439D01*
X820078Y213000D01*
X820078Y213000D01*
Y217000D01*
X820078Y217000D01*
X819768Y218561D01*
X822212Y220303D01*
X822655Y220415D01*
X824935Y218135D01*
X826754Y216919D01*
X828900Y216492D01*
X861136D01*
X868811Y214618D01*
X869632Y213798D01*
X872285Y212266D01*
X872368Y211911D01*
Y209489D01*
X872285Y209134D01*
X869632Y207602D01*
X867398Y205368D01*
X865818Y202632D01*
X865000Y199580D01*
Y196420D01*
X865818Y193368D01*
X867398Y190632D01*
X869632Y188398D01*
X872285Y186866D01*
X872368Y186511D01*
Y184089D01*
X872285Y183734D01*
X869632Y182202D01*
X867398Y179968D01*
X865818Y177232D01*
X865000Y174180D01*
Y171020D01*
X865818Y167968D01*
X867398Y165232D01*
X869632Y162998D01*
X872368Y161418D01*
X875420Y160600D01*
X878580D01*
X881632Y161418D01*
X884368Y162998D01*
X886602Y165232D01*
X887536Y166848D01*
X889951Y166583D01*
X890689Y166311D01*
X891412Y164566D01*
X892694Y162894D01*
X894365Y161612D01*
X896312Y160806D01*
X898400Y160531D01*
X906400D01*
X908488Y160806D01*
X909742Y161325D01*
X911358Y160594D01*
X912588Y159239D01*
X899466Y146117D01*
X831642D01*
X829154Y146464D01*
X828769Y146686D01*
X826945Y147175D01*
X825055D01*
X823231Y146686D01*
X821594Y145741D01*
X820259Y144406D01*
X819314Y142769D01*
X818825Y140945D01*
Y139055D01*
X819314Y137231D01*
X820259Y135594D01*
X821594Y134259D01*
X823231Y133314D01*
X825055Y132825D01*
X826945D01*
X828769Y133314D01*
X829154Y133536D01*
X831642Y133883D01*
X902000D01*
X904341Y134348D01*
X906326Y135674D01*
X929326Y158674D01*
X930652Y160659D01*
X931117Y163000D01*
Y226200D01*
X930652Y228541D01*
X929326Y230526D01*
X918061Y241791D01*
X914400Y247599D01*
Y250380D01*
X913582Y253432D01*
X912002Y256168D01*
X909768Y258402D01*
X907032Y259982D01*
X903980Y260800D01*
X900820D01*
X897768Y259982D01*
X895032Y258402D01*
X892798Y256168D01*
X891266Y253515D01*
X890911Y253432D01*
X888489D01*
X888134Y253515D01*
X886602Y256168D01*
X884368Y258402D01*
X881632Y259982D01*
X878580Y260800D01*
X875420D01*
X872368Y259982D01*
X869632Y258402D01*
X867398Y256168D01*
X865818Y253432D01*
X865000Y250380D01*
Y247453D01*
X861499Y241230D01*
X860877Y240608D01*
X753323D01*
X750464Y243467D01*
X748846Y246173D01*
X748686Y246769D01*
X747741Y248405D01*
X746405Y249741D01*
X744769Y250686D01*
X742945Y251175D01*
X741055D01*
X739230Y250686D01*
X737594Y249741D01*
X736258Y248405D01*
X735314Y246769D01*
X734825Y244945D01*
Y243055D01*
X735314Y241231D01*
X736258Y239594D01*
X737594Y238259D01*
X739230Y237314D01*
X739449Y236608D01*
X737235Y233608D01*
X731323D01*
X723343Y241588D01*
X722062Y244365D01*
X721686Y245769D01*
X720741Y247406D01*
X719406Y248741D01*
X717769Y249686D01*
X715945Y250175D01*
X715078D01*
Y270000D01*
X714768Y271561D01*
X713884Y272884D01*
X713884Y272884D01*
X708884Y277884D01*
X707561Y278768D01*
X707302Y278819D01*
X706000Y279078D01*
D02*
G37*
G36*
X430730Y282730D02*
X420460D01*
Y272460D01*
X430730D01*
Y282730D01*
D02*
G37*
G36*
X1037030Y259740D02*
X1036912D01*
X1034232Y259022D01*
X1031828Y257634D01*
X1029866Y255672D01*
X1028478Y253268D01*
X1027760Y250588D01*
Y250470D01*
X1037030D01*
Y259740D01*
D02*
G37*
G36*
Y247930D02*
X1027760D01*
Y247812D01*
X1028478Y245132D01*
X1029866Y242728D01*
X1031828Y240766D01*
X1034232Y239378D01*
X1036912Y238660D01*
X1037030D01*
Y247930D01*
D02*
G37*
G36*
Y234340D02*
X1036912D01*
X1034232Y233622D01*
X1031828Y232234D01*
X1029866Y230272D01*
X1028478Y227868D01*
X1027760Y225188D01*
Y225070D01*
X1037030D01*
Y234340D01*
D02*
G37*
G36*
Y222530D02*
X1027760D01*
Y222412D01*
X1028478Y219732D01*
X1029866Y217328D01*
X1031828Y215366D01*
X1034232Y213978D01*
X1036912Y213260D01*
X1037030D01*
Y222530D01*
D02*
G37*
G36*
X274305Y219040D02*
X274220D01*
Y210020D01*
X283240D01*
Y210105D01*
X282539Y212722D01*
X281184Y215068D01*
X279268Y216984D01*
X276922Y218339D01*
X274305Y219040D01*
D02*
G37*
G36*
X1037030Y208940D02*
X1036912D01*
X1034232Y208222D01*
X1031828Y206834D01*
X1029866Y204872D01*
X1028478Y202468D01*
X1027760Y199788D01*
Y199670D01*
X1037030D01*
Y208940D01*
D02*
G37*
G36*
X283240Y207480D02*
X274220D01*
Y198460D01*
X274305D01*
X276922Y199161D01*
X279268Y200516D01*
X281184Y202432D01*
X282539Y204778D01*
X283240Y207395D01*
Y207480D01*
D02*
G37*
G36*
X1037030Y197130D02*
X1027760D01*
Y197012D01*
X1028478Y194332D01*
X1029866Y191928D01*
X1031828Y189966D01*
X1034232Y188578D01*
X1036912Y187860D01*
X1037030D01*
Y197130D01*
D02*
G37*
G36*
Y183540D02*
X1036912D01*
X1034232Y182822D01*
X1031828Y181434D01*
X1029866Y179472D01*
X1028478Y177068D01*
X1027760Y174388D01*
Y174270D01*
X1037030D01*
Y183540D01*
D02*
G37*
G36*
Y171730D02*
X1027760D01*
Y171612D01*
X1028478Y168932D01*
X1029866Y166528D01*
X1031828Y164566D01*
X1034232Y163178D01*
X1036912Y162460D01*
X1037030D01*
Y171730D01*
D02*
G37*
%LPD*%
G36*
X927063Y817484D02*
X923585Y817750D01*
Y822250D01*
X927063Y822516D01*
Y817484D01*
D02*
G37*
G36*
X685274Y821553D02*
X680727Y813471D01*
X675070Y819127D01*
X683153Y823674D01*
X685274Y821553D01*
D02*
G37*
G36*
X441407Y803981D02*
X433861Y799405D01*
X431390Y802591D01*
X436479Y810282D01*
X441407Y803981D01*
D02*
G37*
G36*
X761748Y801680D02*
X758920Y798852D01*
X751271Y803673D01*
X756927Y809329D01*
X761748Y801680D01*
D02*
G37*
G36*
X736348D02*
X733520Y798852D01*
X725871Y803673D01*
X731527Y809329D01*
X736348Y801680D01*
D02*
G37*
G36*
X609348D02*
X606520Y798852D01*
X598871Y803673D01*
X604527Y809329D01*
X609348Y801680D01*
D02*
G37*
G36*
X569329Y803673D02*
X561680Y798852D01*
X558852Y801680D01*
X563673Y809329D01*
X569329Y803673D01*
D02*
G37*
G36*
X543929D02*
X536280Y798852D01*
X533452Y801680D01*
X538273Y809329D01*
X543929Y803673D01*
D02*
G37*
G36*
X518529D02*
X510880Y798852D01*
X508052Y801680D01*
X512873Y809329D01*
X518529Y803673D01*
D02*
G37*
G36*
X493129D02*
X485480Y798852D01*
X482652Y801680D01*
X487473Y809329D01*
X493129Y803673D01*
D02*
G37*
G36*
X416929D02*
X409280Y798852D01*
X406452Y801680D01*
X411273Y809329D01*
X416929Y803673D01*
D02*
G37*
G36*
X470034Y803403D02*
X462409Y797933D01*
X458699Y799881D01*
X462992Y807199D01*
X470034Y803403D01*
D02*
G37*
G36*
X864190Y778169D02*
X860888Y774371D01*
X858606Y777648D01*
X860387Y780110D01*
X864190Y778169D01*
D02*
G37*
G36*
X585666Y781285D02*
X587198Y778632D01*
X589432Y776398D01*
X592168Y774818D01*
X595220Y774000D01*
X598380D01*
X600682Y774617D01*
X603683Y773051D01*
Y756200D01*
X604148Y753859D01*
X605474Y751874D01*
X613882Y743466D01*
Y539819D01*
X611511Y538000D01*
X608088D01*
X604782Y537114D01*
X601818Y535403D01*
X599397Y532982D01*
X598832Y532003D01*
X595368D01*
X594803Y532982D01*
X592382Y535403D01*
X589418Y537114D01*
X586111Y538000D01*
X582688D01*
X579382Y537114D01*
X576418Y535403D01*
X573997Y532982D01*
X573432Y532003D01*
X569968D01*
X569403Y532982D01*
X566982Y535403D01*
X564018Y537114D01*
X560712Y538000D01*
X557289D01*
X553982Y537114D01*
X551018Y535403D01*
X548597Y532982D01*
X548032Y532003D01*
X544568D01*
X544003Y532982D01*
X541674Y535311D01*
X539717Y543121D01*
Y566400D01*
X539252Y568741D01*
X537926Y570726D01*
X529118Y579534D01*
Y742466D01*
X562326Y775674D01*
X562723Y776269D01*
X564032Y776398D01*
X566768Y774818D01*
X569820Y774000D01*
X572980D01*
X576032Y774818D01*
X578768Y776398D01*
X581002Y778632D01*
X582534Y781285D01*
X582889Y781368D01*
X585311D01*
X585666Y781285D01*
D02*
G37*
G36*
X1061629Y759573D02*
X1054437Y754502D01*
X1050902Y758037D01*
X1055973Y765229D01*
X1061629Y759573D01*
D02*
G37*
G36*
X1051098Y751163D02*
X1046027Y743970D01*
X1040370Y749627D01*
X1047563Y754698D01*
X1051098Y751163D01*
D02*
G37*
G36*
X1036229Y734173D02*
X1029037Y729102D01*
X1025502Y732637D01*
X1030573Y739829D01*
X1036229Y734173D01*
D02*
G37*
G36*
X741832Y776398D02*
X744568Y774818D01*
X747620Y774000D01*
X750780D01*
X751225Y774119D01*
X752778Y771430D01*
X752674Y771326D01*
X751348Y769341D01*
X750882Y767000D01*
Y641000D01*
X751348Y638659D01*
X752674Y636674D01*
X755459Y633889D01*
X754311Y631118D01*
X742534D01*
X728118Y645534D01*
Y764696D01*
X740126Y776704D01*
X741400Y776829D01*
X741832Y776398D01*
D02*
G37*
G36*
X827516Y582937D02*
X822484D01*
X823000Y586641D01*
X827000D01*
X827516Y582937D01*
D02*
G37*
G36*
X783516Y581937D02*
X778484D01*
X779000Y585641D01*
X783000D01*
X783516Y581937D01*
D02*
G37*
G36*
X855000Y740000D02*
Y725000D01*
X860000Y720000D01*
X880000D01*
X890000Y730000D01*
X898000D01*
Y722000D01*
Y702000D01*
X903000Y697000D01*
Y693000D01*
X900000Y690000D01*
X866000D01*
X853004Y677004D01*
X853067Y553067D01*
X853004Y369004D01*
X835000Y351000D01*
X827500D01*
X822000Y355400D01*
Y364000D01*
X841000Y383000D01*
X841000Y430000D01*
X826000Y445000D01*
X818000D01*
X816000Y447000D01*
Y455000D01*
X811000Y460000D01*
X741000D01*
X731000Y450000D01*
Y435000D01*
X726053Y430053D01*
X716000Y430000D01*
X710000Y436000D01*
Y449000D01*
X731000Y470000D01*
X821000D01*
X836000Y485000D01*
Y540000D01*
X821000Y555000D01*
X761000D01*
X731000Y585000D01*
X731000Y592000D01*
X739000Y600000D01*
X746000D01*
X776000Y570000D01*
X781000D01*
X785058Y574058D01*
X785406Y574259D01*
X786741Y575594D01*
X787686Y577231D01*
X788175Y579055D01*
Y580945D01*
X787686Y582769D01*
X787464Y583154D01*
X787117Y585642D01*
Y605000D01*
X786652Y607341D01*
X785326Y609326D01*
X767982Y626670D01*
X770012Y628882D01*
X791466D01*
X818883Y601466D01*
Y586642D01*
X818536Y584154D01*
X818314Y583769D01*
X817825Y581945D01*
Y580055D01*
X818314Y578231D01*
X819259Y576595D01*
X820594Y575259D01*
X821000Y575024D01*
Y575000D01*
X824000Y572000D01*
X830000Y572000D01*
X841000Y583000D01*
X841000Y740000D01*
X846000Y745000D01*
X850000D01*
X855000Y740000D01*
D02*
G37*
G36*
X538100Y532794D02*
X529100D01*
X531600Y542775D01*
X535600D01*
X538100Y532794D01*
D02*
G37*
G36*
X487300D02*
X478300D01*
X480800Y542775D01*
X484800D01*
X487300Y532794D01*
D02*
G37*
G36*
X461900D02*
X452900D01*
X455400Y542775D01*
X459400D01*
X461900Y532794D01*
D02*
G37*
G36*
X538632Y776398D02*
X540452Y775347D01*
X541370Y772022D01*
X518674Y749326D01*
X517348Y747341D01*
X516883Y745000D01*
Y577000D01*
X517348Y574659D01*
X518674Y572674D01*
X527482Y563866D01*
Y543121D01*
X525526Y535311D01*
X523197Y532982D01*
X522632Y532003D01*
X519168D01*
X518603Y532982D01*
X516182Y535403D01*
X513218Y537114D01*
X509911Y538000D01*
X506488D01*
X503182Y537114D01*
X500218Y535403D01*
X497797Y532982D01*
X497232Y532003D01*
X493768D01*
X493203Y532982D01*
X490874Y535311D01*
X488918Y543121D01*
Y728266D01*
X536926Y776274D01*
X538591Y776438D01*
X538632Y776398D01*
D02*
G37*
G36*
X513232D02*
X514672Y775566D01*
X515440Y772092D01*
X478474Y735126D01*
X477148Y733141D01*
X476683Y730800D01*
Y543121D01*
X474726Y535311D01*
X472397Y532982D01*
X471832Y532003D01*
X468368D01*
X467803Y532982D01*
X465474Y535311D01*
X463517Y543121D01*
Y728866D01*
X503982Y769331D01*
X504496Y769674D01*
X511526Y776704D01*
X512800Y776829D01*
X513232Y776398D01*
D02*
G37*
G36*
X621414Y531285D02*
X618782Y525576D01*
X613792Y533066D01*
X618586Y534114D01*
X621414Y531285D01*
D02*
G37*
G36*
X404400Y502369D02*
X396400D01*
X398400Y506370D01*
X402400D01*
X404400Y502369D01*
D02*
G37*
G36*
X394010Y523716D02*
X394282Y523607D01*
Y507254D01*
X393856Y506400D01*
X387400D01*
Y480400D01*
X390173D01*
X391415Y477400D01*
X389997Y475982D01*
X388286Y473018D01*
X387400Y469711D01*
Y466288D01*
X388286Y462982D01*
X389997Y460018D01*
X392418Y457597D01*
X393397Y457032D01*
Y453568D01*
X392418Y453003D01*
X389997Y450582D01*
X388286Y447618D01*
X387400Y444311D01*
Y440888D01*
X388286Y437582D01*
X389997Y434618D01*
X392418Y432197D01*
X393397Y431632D01*
Y428168D01*
X392418Y427603D01*
X390089Y425274D01*
X382279Y423317D01*
X364334D01*
X359118Y428534D01*
Y491466D01*
X390326Y522674D01*
X391283Y524106D01*
X394010Y523716D01*
D02*
G37*
G36*
X392606Y412700D02*
X382625Y415200D01*
Y419200D01*
X392606Y421700D01*
Y412700D01*
D02*
G37*
G36*
X655100Y405622D02*
X652978Y403500D01*
X643729Y408507D01*
X650093Y414871D01*
X655100Y405622D01*
D02*
G37*
G36*
Y380222D02*
X652978Y378100D01*
X643729Y383107D01*
X650093Y389471D01*
X655100Y380222D01*
D02*
G37*
G36*
X357474Y412874D02*
X359459Y411548D01*
X361800Y411082D01*
X382279D01*
X390089Y409126D01*
X392418Y406797D01*
X393397Y406232D01*
Y402768D01*
X392418Y402203D01*
X389997Y399782D01*
X388286Y396818D01*
X387400Y393512D01*
Y390089D01*
X388286Y386782D01*
X389997Y383818D01*
X392418Y381397D01*
X393397Y380832D01*
Y377368D01*
X392418Y376803D01*
X390089Y374474D01*
X382279Y372518D01*
X370134D01*
X353117Y389534D01*
Y413311D01*
X355889Y414459D01*
X357474Y412874D01*
D02*
G37*
G36*
X392606Y361900D02*
X382625Y364400D01*
Y368400D01*
X392606Y370900D01*
Y361900D01*
D02*
G37*
G36*
X363274Y362074D02*
X365259Y360748D01*
X367600Y360283D01*
X382279D01*
X390089Y358326D01*
X392418Y355997D01*
X393397Y355432D01*
Y351968D01*
X392418Y351403D01*
X390089Y349074D01*
X382279Y347118D01*
X372534D01*
X348112Y371540D01*
X348293Y372813D01*
X351474Y373874D01*
X363274Y362074D01*
D02*
G37*
G36*
X392606Y336500D02*
X382625Y339000D01*
Y343000D01*
X392606Y345500D01*
Y336500D01*
D02*
G37*
G36*
X546000Y478000D02*
X630837D01*
X632166Y475086D01*
X630647Y472454D01*
X629860Y469519D01*
Y469270D01*
X641400D01*
Y466730D01*
X629860D01*
Y466481D01*
X630647Y463546D01*
X632166Y460914D01*
X634080Y459000D01*
X633966Y457970D01*
X633105Y456000D01*
X517000D01*
X456000Y395000D01*
Y385000D01*
X545000Y296000D01*
Y293100D01*
X542000Y291920D01*
X540686Y293234D01*
X538054Y294754D01*
X535119Y295540D01*
X534870D01*
Y284000D01*
Y272460D01*
X535119D01*
X538054Y273246D01*
X540686Y274766D01*
X542000Y276080D01*
X545000Y274900D01*
Y235000D01*
X550000Y230000D01*
X646000D01*
X651000Y225000D01*
Y210000D01*
X646000Y205000D01*
X532000D01*
X487000Y160000D01*
X475000D01*
X471608Y163392D01*
Y180608D01*
X522000Y231000D01*
Y275236D01*
X522358Y275490D01*
X525000Y276280D01*
X526514Y274766D01*
X529146Y273246D01*
X532081Y272460D01*
X532330D01*
Y284000D01*
Y295540D01*
X532081D01*
X529146Y294754D01*
X526514Y293234D01*
X525000Y291720D01*
X522358Y292510D01*
X522000Y292764D01*
Y294000D01*
X436000Y380000D01*
X409011D01*
X408284Y381223D01*
X407920Y383000D01*
X409634Y384714D01*
X411154Y387346D01*
X411940Y390281D01*
Y390530D01*
X400400D01*
Y393070D01*
X411940D01*
Y393319D01*
X411154Y396254D01*
X409634Y398886D01*
X407520Y401000D01*
X407523Y401161D01*
X408349Y404000D01*
X435000D01*
X522000Y491000D01*
X533000D01*
X546000Y478000D01*
D02*
G37*
G36*
X630039Y448922D02*
X629286Y447618D01*
X628400Y444311D01*
Y440888D01*
X629286Y437582D01*
X630997Y434618D01*
X633418Y432197D01*
X634397Y431632D01*
Y428168D01*
X633418Y427603D01*
X630997Y425182D01*
X629286Y422218D01*
X628400Y418912D01*
Y415489D01*
X629286Y412182D01*
X630997Y409218D01*
X633418Y406797D01*
X634397Y406232D01*
Y402768D01*
X633418Y402203D01*
X630997Y399782D01*
X629286Y396818D01*
X628400Y393512D01*
Y390089D01*
X629286Y386782D01*
X630997Y383818D01*
X633418Y381397D01*
X634397Y380832D01*
Y377368D01*
X633418Y376803D01*
X630997Y374382D01*
X629286Y371418D01*
X628400Y368111D01*
Y364688D01*
X629286Y361382D01*
X630997Y358418D01*
X633418Y355997D01*
X634397Y355432D01*
Y351968D01*
X633418Y351403D01*
X630997Y348982D01*
X629286Y346018D01*
X628400Y342711D01*
Y339288D01*
X629286Y335982D01*
X630997Y333018D01*
X633418Y330597D01*
X634397Y330032D01*
Y326568D01*
X633418Y326003D01*
X630997Y323582D01*
X629286Y320618D01*
X628400Y317311D01*
Y313888D01*
X629286Y310582D01*
X630997Y307618D01*
X633418Y305197D01*
X636382Y303486D01*
X639688Y302600D01*
X643111D01*
X646418Y303486D01*
X649382Y305197D01*
X651803Y307618D01*
X653514Y310582D01*
X654400Y313888D01*
Y317311D01*
X653514Y320618D01*
X651803Y323582D01*
X649382Y326003D01*
X648403Y326568D01*
Y330032D01*
X649382Y330597D01*
X651803Y333018D01*
X653514Y335982D01*
X654400Y339288D01*
Y342711D01*
X653514Y346018D01*
X651803Y348982D01*
X649382Y351403D01*
X648403Y351968D01*
Y355432D01*
X649382Y355997D01*
X651803Y358418D01*
X653514Y361382D01*
X654281Y364244D01*
X655672Y365128D01*
X657400Y365726D01*
X658392Y365033D01*
Y88000D01*
X658819Y85854D01*
X660035Y84035D01*
X663690Y80379D01*
X662542Y77608D01*
X497323D01*
X471608Y103323D01*
Y153848D01*
X472161Y154568D01*
X474608Y156000D01*
X475000Y155922D01*
X475000Y155922D01*
X487000D01*
X487000Y155922D01*
X488561Y156232D01*
X489884Y157116D01*
X489884Y157116D01*
X533689Y200922D01*
X646000D01*
X646000Y200922D01*
X647561Y201232D01*
X648884Y202116D01*
X648884Y202116D01*
X653884Y207116D01*
X653884Y207116D01*
X654768Y208439D01*
X655078Y210000D01*
X655078Y210000D01*
Y225000D01*
X655078Y225000D01*
X654768Y226561D01*
X653884Y227884D01*
X648884Y232884D01*
X648884Y232884D01*
X647561Y233768D01*
X646000Y234078D01*
X646000Y234078D01*
X551689D01*
X549078Y236689D01*
Y271401D01*
X549337Y271694D01*
X552078Y272985D01*
X553982Y271886D01*
X557289Y271000D01*
X560712D01*
X564018Y271886D01*
X566982Y273597D01*
X569403Y276018D01*
X569968Y276997D01*
X573432D01*
X573997Y276018D01*
X576418Y273597D01*
X579382Y271886D01*
X582688Y271000D01*
X586111D01*
X589418Y271886D01*
X592382Y273597D01*
X594803Y276018D01*
X595368Y276997D01*
X598832D01*
X599397Y276018D01*
X601818Y273597D01*
X604782Y271886D01*
X608088Y271000D01*
X611511D01*
X614818Y271886D01*
X617782Y273597D01*
X620203Y276018D01*
X621914Y278982D01*
X622800Y282288D01*
Y285711D01*
X621914Y289018D01*
X620203Y291982D01*
X617782Y294403D01*
X614818Y296114D01*
X611511Y297000D01*
X608088D01*
X604782Y296114D01*
X601818Y294403D01*
X599397Y291982D01*
X598832Y291003D01*
X595368D01*
X594803Y291982D01*
X592382Y294403D01*
X589418Y296114D01*
X586111Y297000D01*
X582688D01*
X579382Y296114D01*
X576418Y294403D01*
X573997Y291982D01*
X573432Y291003D01*
X569968D01*
X569403Y291982D01*
X566982Y294403D01*
X564018Y296114D01*
X560712Y297000D01*
X557289D01*
X553982Y296114D01*
X552078Y295015D01*
X550219Y295625D01*
X549380Y296122D01*
X548968Y296554D01*
X548768Y297561D01*
X547884Y298884D01*
X547884Y298884D01*
X460078Y386689D01*
Y393311D01*
X518689Y451922D01*
X628307D01*
X630039Y448922D01*
D02*
G37*
G36*
X517922Y271311D02*
Y232689D01*
X474379Y189147D01*
X471608Y190295D01*
Y239477D01*
X499176Y267046D01*
X506484Y271001D01*
X506488Y271000D01*
X509911D01*
X513218Y271886D01*
X514922Y272870D01*
X517922Y271311D01*
D02*
G37*
G36*
X505871Y275307D02*
X496622Y270301D01*
X494500Y272422D01*
X499507Y281671D01*
X505871Y275307D01*
D02*
G37*
G36*
X458900Y266126D02*
X455900D01*
X452900Y276206D01*
X461900D01*
X458900Y266126D01*
D02*
G37*
G36*
X472397Y276018D02*
X474818Y273597D01*
X477782Y271886D01*
X481088Y271000D01*
X483027D01*
X484269Y268000D01*
X465779Y249510D01*
X463008Y250658D01*
Y265631D01*
X465378Y273595D01*
X465382Y273597D01*
X467803Y276018D01*
X468368Y276997D01*
X471832D01*
X472397Y276018D01*
D02*
G37*
G36*
X1061629Y241473D02*
X1053547Y236926D01*
X1051426Y239047D01*
X1055973Y247129D01*
X1061629Y241473D01*
D02*
G37*
G36*
X1075974Y213647D02*
X1073853Y211526D01*
X1065771Y216073D01*
X1071427Y221730D01*
X1075974Y213647D01*
D02*
G37*
G36*
Y188247D02*
X1073853Y186126D01*
X1065771Y190673D01*
X1071427Y196329D01*
X1075974Y188247D01*
D02*
G37*
G36*
X1065500Y162011D02*
X1062500D01*
X1061000Y165011D01*
X1067000D01*
X1065500Y162011D01*
D02*
G37*
G36*
X841000Y103000D02*
Y93000D01*
X836000Y88000D01*
X686000D01*
X681000Y93000D01*
Y103000D01*
X686000Y108000D01*
X836000D01*
X841000Y103000D01*
D02*
G37*
%LPC*%
G36*
X588085Y189540D02*
X587770D01*
Y178770D01*
X598540D01*
Y179085D01*
X597719Y182147D01*
X596134Y184893D01*
X593893Y187134D01*
X591147Y188720D01*
X588085Y189540D01*
D02*
G37*
G36*
X585230D02*
X584915D01*
X581853Y188720D01*
X579107Y187134D01*
X576866Y184893D01*
X575280Y182147D01*
X574460Y179085D01*
Y178770D01*
X585230D01*
Y189540D01*
D02*
G37*
G36*
X598540Y176230D02*
X587770D01*
Y165460D01*
X588085D01*
X591147Y166280D01*
X593893Y167866D01*
X596134Y170107D01*
X597719Y172853D01*
X598540Y175915D01*
Y176230D01*
D02*
G37*
G36*
X585230D02*
X574460D01*
Y175915D01*
X575280Y172853D01*
X576866Y170107D01*
X579107Y167866D01*
X581853Y166280D01*
X584915Y165460D01*
X585230D01*
Y176230D01*
D02*
G37*
G36*
X633277Y191000D02*
X629723D01*
X626289Y190080D01*
X623211Y188303D01*
X620697Y185789D01*
X618920Y182711D01*
X618000Y179277D01*
Y175723D01*
X618920Y172289D01*
X620697Y169211D01*
X623211Y166697D01*
X626289Y164920D01*
X629723Y164000D01*
X633277D01*
X636711Y164920D01*
X639789Y166697D01*
X642303Y169211D01*
X644080Y172289D01*
X645000Y175723D01*
Y179277D01*
X644080Y182711D01*
X642303Y185789D01*
X639789Y188303D01*
X636711Y190080D01*
X633277Y191000D01*
D02*
G37*
G36*
X543945Y172175D02*
X542055D01*
X540230Y171686D01*
X538594Y170741D01*
X537258Y169406D01*
X536314Y167769D01*
X535825Y165945D01*
Y164055D01*
X536314Y162231D01*
X537258Y160594D01*
X538594Y159259D01*
X540230Y158314D01*
X542055Y157825D01*
X543945D01*
X545290Y158186D01*
X548543D01*
X552444Y154284D01*
Y129716D01*
X537482Y114753D01*
X537230Y114686D01*
X535594Y113741D01*
X534258Y112406D01*
X533314Y110769D01*
X532825Y108945D01*
Y107055D01*
X533314Y105231D01*
X534258Y103594D01*
X535594Y102259D01*
X537230Y101314D01*
X539055Y100825D01*
X540945D01*
X542769Y101314D01*
X544406Y102259D01*
X545741Y103594D01*
X546686Y105231D01*
X546753Y105482D01*
X563636Y122364D01*
X564678Y123722D01*
X565333Y125303D01*
X565556Y127000D01*
Y157000D01*
X565333Y158697D01*
X564678Y160278D01*
X563636Y161636D01*
X555894Y169377D01*
X554536Y170419D01*
X552955Y171074D01*
X551258Y171298D01*
X546442D01*
X545769Y171686D01*
X543945Y172175D01*
D02*
G37*
G36*
X645000Y126000D02*
X618000D01*
Y99000D01*
X645000D01*
Y126000D01*
D02*
G37*
G36*
X588277D02*
X584723D01*
X581289Y125080D01*
X578211Y123303D01*
X575697Y120789D01*
X573920Y117711D01*
X573000Y114277D01*
Y110723D01*
X573920Y107289D01*
X575697Y104211D01*
X578211Y101697D01*
X581289Y99920D01*
X584723Y99000D01*
X588277D01*
X591711Y99920D01*
X594789Y101697D01*
X597303Y104211D01*
X599080Y107289D01*
X600000Y110723D01*
Y114277D01*
X599080Y117711D01*
X597303Y120789D01*
X594789Y123303D01*
X591711Y125080D01*
X588277Y126000D01*
D02*
G37*
%LPD*%
G36*
X154578Y625132D02*
X155966Y622728D01*
X157928Y620766D01*
X160332Y619378D01*
X162875Y618697D01*
X163012Y618660D01*
X162897Y616938D01*
X162897D01*
X162897Y616938D01*
X160613Y615209D01*
X159768Y614982D01*
X157032Y613402D01*
X154798Y611168D01*
X153266Y608515D01*
X152911Y608432D01*
X150489D01*
X150134Y608515D01*
X148602Y611168D01*
X146368Y613402D01*
X144752Y614336D01*
X145016Y616751D01*
X145289Y617489D01*
X147035Y618212D01*
X148706Y619494D01*
X149988Y621166D01*
X150794Y623112D01*
X151069Y625200D01*
Y626637D01*
X154069Y627032D01*
X154578Y625132D01*
D02*
G37*
G36*
X201000Y530000D02*
Y355000D01*
X216000Y340000D01*
X281023D01*
X286012Y335011D01*
Y330000D01*
X281023Y325000D01*
X206000Y325000D01*
X186000Y345000D01*
Y525000D01*
X165000Y546000D01*
X165643Y555000D01*
X176000D01*
X201000Y530000D01*
D02*
G37*
G36*
X191000Y705000D02*
X191000Y660000D01*
X236000Y615000D01*
X316000D01*
X356000Y575000D01*
Y565000D01*
X351000Y560000D01*
X326000Y535000D01*
Y170000D01*
X336000Y160000D01*
X421000D01*
X426000Y155000D01*
Y140000D01*
X421000Y135000D01*
X245000D01*
X230000Y150000D01*
Y199983D01*
X231552Y201535D01*
X233099Y204215D01*
X233900Y207203D01*
Y210297D01*
X233099Y213285D01*
X231552Y215965D01*
X230000Y217517D01*
Y225000D01*
X235000Y230000D01*
X260000D01*
X265000Y225000D01*
Y217417D01*
X263548Y215965D01*
X262001Y213285D01*
X261200Y210297D01*
Y207203D01*
X262001Y204215D01*
X263548Y201535D01*
X265000Y200083D01*
Y165000D01*
X270000Y160000D01*
X296000D01*
X306000Y170000D01*
Y540000D01*
X326000Y560000D01*
Y580000D01*
X306000Y600000D01*
X236000D01*
X203000Y567000D01*
X171735D01*
X170908Y569840D01*
X170906Y570000D01*
X172834Y571928D01*
X174222Y574332D01*
X174940Y577012D01*
Y577130D01*
X164400D01*
Y579670D01*
X174940D01*
Y579788D01*
X174222Y582468D01*
X172834Y584872D01*
X172706Y585000D01*
X173948Y588000D01*
X204000D01*
X216000Y600000D01*
Y615000D01*
X176000Y655000D01*
Y690000D01*
X161000Y705000D01*
X161000Y715000D01*
X166000Y720000D01*
X176000D01*
X191000Y705000D01*
D02*
G37*
%LPC*%
G36*
X248905Y219040D02*
X248820D01*
Y210020D01*
X257840D01*
Y210105D01*
X257139Y212722D01*
X255784Y215068D01*
X253868Y216984D01*
X251522Y218339D01*
X248905Y219040D01*
D02*
G37*
G36*
X246280D02*
X246195D01*
X243578Y218339D01*
X241232Y216984D01*
X239316Y215068D01*
X237961Y212722D01*
X237260Y210105D01*
Y210020D01*
X246280D01*
Y219040D01*
D02*
G37*
G36*
X257840Y207480D02*
X248820D01*
Y198460D01*
X248905D01*
X251522Y199161D01*
X253868Y200516D01*
X255784Y202432D01*
X257139Y204778D01*
X257840Y207395D01*
Y207480D01*
D02*
G37*
G36*
X246280D02*
X237260D01*
Y207395D01*
X237961Y204778D01*
X239316Y202432D01*
X241232Y200516D01*
X243578Y199161D01*
X246195Y198460D01*
X246280D01*
Y207480D01*
D02*
G37*
%LPD*%
G36*
X166000Y495000D02*
Y389800D01*
X156000Y379800D01*
Y335000D01*
X151000Y330000D01*
X141000D01*
X136000Y335000D01*
Y385000D01*
X146000Y395000D01*
Y495000D01*
X151000Y500000D01*
X161000D01*
X166000Y495000D01*
D02*
G37*
G36*
X788000Y430000D02*
Y360000D01*
X783000Y355000D01*
X773000D01*
X768000Y360000D01*
Y430000D01*
X773000Y435000D01*
X783000D01*
X788000Y430000D01*
D02*
G37*
G36*
X747500Y358027D02*
X744500D01*
X743484Y362063D01*
X748516D01*
X747500Y358027D01*
D02*
G37*
G36*
X763878Y331287D02*
X758847D01*
X759863Y335323D01*
X762863D01*
X763878Y331287D01*
D02*
G37*
G36*
X705500Y400027D02*
X702500D01*
X701484Y404063D01*
X706516D01*
X705500Y400027D01*
D02*
G37*
G36*
X725409Y322149D02*
X721852Y318591D01*
X719715Y322163D01*
X721837Y324284D01*
X725409Y322149D01*
D02*
G37*
G36*
X816000Y290000D02*
Y260000D01*
X811000Y255000D01*
X801000D01*
X796000Y260000D01*
X796068Y274932D01*
X786000Y285000D01*
X756000D01*
X751000Y290000D01*
Y300000D01*
X756000Y305000D01*
X801000D01*
X816000Y290000D01*
D02*
G37*
G36*
X747284Y240837D02*
X745163Y238715D01*
X741590Y240851D01*
X745148Y244410D01*
X747284Y240837D01*
D02*
G37*
G36*
X719980Y239142D02*
X717298Y237580D01*
X714238Y239918D01*
X718175Y243057D01*
X719980Y239142D01*
D02*
G37*
G36*
X874929Y241073D02*
X866847Y236526D01*
X864726Y238647D01*
X869273Y246730D01*
X874929Y241073D01*
D02*
G37*
G36*
X914948Y239080D02*
X912120Y236252D01*
X904471Y241073D01*
X910127Y246730D01*
X914948Y239080D01*
D02*
G37*
G36*
X870814Y218327D02*
X861506Y220600D01*
X861003Y223600D01*
X869514Y226221D01*
X870814Y218327D01*
D02*
G37*
G36*
X816000Y217000D02*
Y213000D01*
X811000Y208000D01*
X721000D01*
X716000Y213000D01*
Y217000D01*
X721000Y222000D01*
X811000D01*
X816000Y217000D01*
D02*
G37*
G36*
X711000Y270000D02*
Y248976D01*
X710594Y248741D01*
X709259Y247406D01*
X708314Y245769D01*
X707825Y243945D01*
Y242055D01*
X708314Y240231D01*
X709259Y238594D01*
X710594Y237259D01*
X711000Y237024D01*
Y180000D01*
X706000Y175000D01*
X695000D01*
X690000Y180000D01*
Y270000D01*
X695000Y275000D01*
X706000D01*
X711000Y270000D01*
D02*
G37*
G36*
X918882Y222908D02*
Y165534D01*
X915761Y162412D01*
X914406Y163642D01*
X913675Y165258D01*
X914194Y166512D01*
X914469Y168600D01*
Y176600D01*
X914194Y178688D01*
X913388Y180634D01*
X912106Y182306D01*
X910434Y183588D01*
X908689Y184311D01*
X908417Y185049D01*
X908151Y187464D01*
X909768Y188398D01*
X912002Y190632D01*
X913582Y193368D01*
X914400Y196420D01*
Y199580D01*
X913582Y202632D01*
X912002Y205368D01*
X909768Y207602D01*
X907115Y209134D01*
X907032Y209489D01*
Y211911D01*
X907115Y212266D01*
X909768Y213798D01*
X912002Y216032D01*
X913582Y218768D01*
X914400Y221820D01*
Y222701D01*
X917316Y224109D01*
X918882Y222908D01*
D02*
G37*
G36*
X831641Y142000D02*
Y138000D01*
X827937Y137484D01*
Y142516D01*
X831641Y142000D01*
D02*
G37*
D39*
X393600Y786000D02*
D03*
X368200D02*
D03*
X419000Y811400D02*
D03*
X444400D02*
D03*
X342800Y786000D02*
D03*
X469800Y811400D02*
D03*
X495200D02*
D03*
X520600D02*
D03*
X546000D02*
D03*
X571400D02*
D03*
X596800D02*
D03*
X444400Y786000D02*
D03*
X419000D02*
D03*
X749200Y811400D02*
D03*
X723800D02*
D03*
X571400Y786000D02*
D03*
X546000D02*
D03*
X520600D02*
D03*
X495200D02*
D03*
X317400Y811400D02*
D03*
X342800D02*
D03*
X368200D02*
D03*
X393600D02*
D03*
X469800Y786000D02*
D03*
X596800D02*
D03*
X622200D02*
D03*
X647600D02*
D03*
X673000D02*
D03*
X698400D02*
D03*
X622200Y811400D02*
D03*
X647600D02*
D03*
X673000D02*
D03*
X698400D02*
D03*
X723800Y786000D02*
D03*
X749200D02*
D03*
X774600D02*
D03*
X800000D02*
D03*
X774600Y811400D02*
D03*
X800000D02*
D03*
X164400Y603800D02*
D03*
X139000Y553000D02*
D03*
Y603800D02*
D03*
Y578400D02*
D03*
X164400Y553000D02*
D03*
Y578400D02*
D03*
Y629200D02*
D03*
X1063700Y223800D02*
D03*
Y198400D02*
D03*
Y249200D02*
D03*
X1038300Y223800D02*
D03*
Y173000D02*
D03*
Y198400D02*
D03*
Y249200D02*
D03*
X1063700Y767300D02*
D03*
X1038300Y741900D02*
D03*
X1063700Y792700D02*
D03*
X1038300Y767300D02*
D03*
X1063700Y818100D02*
D03*
X1038300Y792700D02*
D03*
Y818100D02*
D03*
X876600Y383000D02*
D03*
X902000Y408400D02*
D03*
X876600D02*
D03*
X902000Y433800D02*
D03*
Y459200D02*
D03*
X876600Y433800D02*
D03*
Y459200D02*
D03*
X876600Y593000D02*
D03*
Y618400D02*
D03*
Y643800D02*
D03*
Y669200D02*
D03*
X902000D02*
D03*
Y643800D02*
D03*
Y618400D02*
D03*
X1038300Y383000D02*
D03*
Y408400D02*
D03*
Y433800D02*
D03*
Y459200D02*
D03*
X1063700Y433800D02*
D03*
Y459200D02*
D03*
Y408400D02*
D03*
X877000Y248800D02*
D03*
Y223400D02*
D03*
X902400D02*
D03*
Y248800D02*
D03*
Y198000D02*
D03*
X877000Y172600D02*
D03*
Y198000D02*
D03*
D40*
X317400Y786000D02*
D03*
D43*
X272950Y284950D02*
D03*
X247550D02*
D03*
X222150Y208750D02*
D03*
Y284950D02*
D03*
X196750D02*
D03*
X247550Y208750D02*
D03*
X272950D02*
D03*
D44*
X196750D02*
D03*
D45*
X139000Y629200D02*
D03*
X1063700Y173000D02*
D03*
Y741900D02*
D03*
X902000Y383000D02*
D03*
X902000Y593000D02*
D03*
X1063700Y383000D02*
D03*
X902400Y172600D02*
D03*
D49*
X1055000Y315000D02*
D03*
Y670000D02*
D03*
X864000Y775000D02*
D03*
X805000Y435000D02*
D03*
X816000Y490000D02*
D03*
X823000Y527000D02*
D03*
X748000Y525000D02*
D03*
X921000Y740000D02*
D03*
X848000D02*
D03*
X871000Y735000D02*
D03*
X825000Y581000D02*
D03*
X803000Y585000D02*
D03*
X781000Y580000D02*
D03*
X791000Y673000D02*
D03*
X602000Y572000D02*
D03*
X527000Y482000D02*
D03*
X431000Y495000D02*
D03*
X381000Y275000D02*
D03*
X296000Y225000D02*
D03*
X341000Y710000D02*
D03*
X278000Y333000D02*
D03*
X349000Y567000D02*
D03*
X290000Y630000D02*
D03*
X481000Y173000D02*
D03*
X741000Y590000D02*
D03*
X636000Y520000D02*
D03*
X156000Y490000D02*
D03*
X704000Y406000D02*
D03*
X176000Y430000D02*
D03*
X276000Y470000D02*
D03*
X220000Y534000D02*
D03*
X250000Y585000D02*
D03*
X211000Y155000D02*
D03*
X642000Y217000D02*
D03*
X246000Y310000D02*
D03*
X543000Y165000D02*
D03*
X411000Y148000D02*
D03*
X725000Y319000D02*
D03*
X746000Y364000D02*
D03*
X170000Y712000D02*
D03*
X233000Y644000D02*
D03*
X761363Y329350D02*
D03*
X146000Y345000D02*
D03*
X831000Y360000D02*
D03*
X778000Y365000D02*
D03*
X806000Y265000D02*
D03*
X686000Y610000D02*
D03*
X778000Y424000D02*
D03*
X720000Y440000D02*
D03*
X827000Y424000D02*
D03*
X540000Y108000D02*
D03*
X251000Y725000D02*
D03*
X795000Y134000D02*
D03*
X929000Y820000D02*
D03*
X699000Y187000D02*
D03*
X826000Y140000D02*
D03*
X715000Y243000D02*
D03*
X764000Y295000D02*
D03*
X761000Y260000D02*
D03*
X699000Y263000D02*
D03*
X720000Y158000D02*
D03*
X742000Y244000D02*
D03*
X826000Y195000D02*
D03*
X805000Y215000D02*
D03*
X726000D02*
D03*
X821000Y98000D02*
D03*
X694000D02*
D03*
D50*
X533600Y284000D02*
Y299624D01*
Y266600D02*
Y284000D01*
X164400Y578400D02*
X181760D01*
X991400Y695000D02*
X1038300Y741900D01*
X863000Y695000D02*
X991400D01*
X1063700Y767300D02*
X1063700D01*
X1039400Y743000D02*
X1063700Y767300D01*
X1039000Y743000D02*
X1039400D01*
X1038300Y742300D02*
X1039000Y743000D01*
X1038300Y741900D02*
Y742300D01*
X543000Y165000D02*
X543258Y164742D01*
X551258D01*
X615000Y468000D02*
X641400D01*
X540000Y108000D02*
X559000Y127000D01*
X400400Y391800D02*
X422800D01*
X551258Y164742D02*
X559000Y157000D01*
Y127000D02*
Y157000D01*
X848000Y695000D02*
X863000D01*
D51*
X1064000Y198100D02*
Y199000D01*
Y113800D02*
Y173000D01*
X495000Y72000D02*
X1052000D01*
X1088000Y108000D01*
Y190363D01*
X1064000Y67000D02*
X1102000Y105000D01*
Y185500D01*
X484000Y67000D02*
X1064000D01*
X675000Y77000D02*
X1042000D01*
X1075200Y110200D01*
Y186900D01*
X1067263Y211100D02*
X1088000Y190363D01*
X1060137Y211100D02*
X1067263D01*
X1052200Y219037D02*
X1060137Y211100D01*
X1052200Y219037D02*
Y237700D01*
X1063700Y249200D01*
X1064000Y198100D02*
X1075200Y186900D01*
X664000Y88000D02*
X675000Y77000D01*
X664000Y88000D02*
Y369200D01*
X1063700Y223800D02*
X1102000Y185500D01*
X1063700Y198700D02*
X1064000Y199000D01*
X1063700Y198400D02*
Y198700D01*
X1032200Y82000D02*
X1064000Y113800D01*
X1063700Y173000D02*
X1064000D01*
X680000Y82000D02*
X1032200D01*
X673000Y89000D02*
X680000Y82000D01*
X673000Y89000D02*
Y108000D01*
X875700Y222100D02*
X877000Y223400D01*
X746000Y354000D02*
Y364000D01*
X704000Y340000D02*
Y406000D01*
Y340000D02*
X725000Y319000D01*
X641400Y391800D02*
X664000Y369200D01*
X761363Y329350D02*
Y338637D01*
X746000Y354000D02*
X761363Y338637D01*
X641400Y417200D02*
X678065Y380535D01*
Y309065D02*
Y380535D01*
X669000Y169000D02*
Y300000D01*
X715000Y242000D02*
X729000Y228000D01*
X715000Y242000D02*
Y243000D01*
X669000Y169000D02*
X678065Y159935D01*
X669000Y300000D02*
X678065Y309065D01*
X863200Y235000D02*
X877000Y248800D01*
X823000Y228000D02*
X828900Y222100D01*
X751000Y235000D02*
X863200D01*
X742000Y244000D02*
X751000Y235000D01*
X729000Y228000D02*
X823000D01*
X828900Y222100D02*
X875700D01*
X457400Y93600D02*
X484000Y67000D01*
X466000Y101000D02*
X495000Y72000D01*
X457400Y93600D02*
Y284000D01*
X466000Y101000D02*
Y241800D01*
X678065Y113065D02*
Y159935D01*
X673000Y108000D02*
X678065Y113065D01*
X466000Y241800D02*
X508200Y284000D01*
X686600Y825000D02*
X813375D01*
X863375Y775000D01*
X673000Y811400D02*
X686600Y825000D01*
X863375Y775000D02*
X864000D01*
D52*
X520000Y810800D02*
Y813000D01*
X545600Y811000D02*
X547000D01*
X902400Y248800D02*
X925000Y226200D01*
X826000Y140000D02*
X902000D01*
X925000Y163000D01*
Y226200D01*
X749200Y811400D02*
X761200Y799400D01*
X723800Y811400D02*
X735800Y799400D01*
X723800Y811400D02*
Y811400D01*
X735800Y781030D02*
Y799400D01*
X546000Y811400D02*
X546600D01*
X558000Y798000D02*
X571400Y811400D01*
Y812400D01*
X546600Y811400D02*
X547000Y811000D01*
X596800Y811400D02*
X609800Y798400D01*
X482800Y525000D02*
Y730800D01*
X374000Y537000D02*
Y732000D01*
X380000Y530000D02*
Y717000D01*
X400400Y493400D02*
Y699630D01*
X457400Y525000D02*
Y731400D01*
X386000Y527000D02*
Y706000D01*
X609800Y525000D02*
X612300D01*
X523000Y577000D02*
X533600Y566400D01*
X612300Y525000D02*
X620000Y532700D01*
X533600Y525000D02*
Y566400D01*
X347000Y497000D02*
X380000Y530000D01*
X353000Y494000D02*
X386000Y527000D01*
X353000Y426000D02*
X361800Y417200D01*
X353000Y426000D02*
Y494000D01*
X361800Y417200D02*
X400400D01*
X347000Y387000D02*
Y497000D01*
X370000Y341000D02*
X400400D01*
X341000Y504000D02*
X374000Y537000D01*
X367600Y366400D02*
X400400D01*
X347000Y387000D02*
X367600Y366400D01*
X341000Y370000D02*
X370000Y341000D01*
X341000Y370000D02*
Y504000D01*
X740000Y625000D02*
X761000D01*
X757000Y641000D02*
X763000Y635000D01*
X722000Y643000D02*
X740000Y625000D01*
X761000D02*
X781000Y605000D01*
X763000Y635000D02*
X794000D01*
X825000Y581000D02*
Y604000D01*
X781000Y580000D02*
Y605000D01*
X794000Y635000D02*
X825000Y604000D01*
X520600Y811400D02*
Y812400D01*
X520000Y813000D02*
X520600Y812400D01*
X532600Y798000D02*
X545600Y811000D01*
X620000Y532700D02*
Y746000D01*
X523000Y577000D02*
Y745000D01*
X609800Y756200D02*
Y798400D01*
X482800Y730800D02*
X532600Y780600D01*
X609800Y756200D02*
X620000Y746000D01*
X523000Y745000D02*
X558000Y780000D01*
X722000Y643000D02*
Y767230D01*
X757000Y641000D02*
Y767000D01*
X761200Y771200D02*
Y799400D01*
X558000Y780000D02*
Y798000D01*
X532600Y780600D02*
Y798000D01*
X500171Y774000D02*
X507200Y781030D01*
X500000Y774000D02*
X500171D01*
X722000Y767230D02*
X735800Y781030D01*
X757000Y767000D02*
X761200Y771200D01*
X457800Y796153D02*
X467504Y805857D01*
X386000Y706000D02*
X457800Y777800D01*
X483200Y799400D02*
X495200Y811400D01*
X432400Y800772D02*
X443027Y811400D01*
X432400Y769400D02*
Y800772D01*
X405600Y763600D02*
Y798000D01*
X419000Y811400D01*
X457800Y777800D02*
Y796153D01*
X467504Y805857D02*
Y810449D01*
X507200Y798000D02*
X520000Y810800D01*
X507200Y781030D02*
Y798000D01*
X483200Y782429D02*
Y799400D01*
X374000Y732000D02*
X405600Y763600D01*
X457400Y731400D02*
X500000Y774000D01*
X380000Y717000D02*
X432400Y769400D01*
X400400Y699630D02*
X483200Y782429D01*
D53*
X805000Y435000D02*
X824500Y454500D01*
X720000Y439000D02*
Y440000D01*
X848000Y554150D02*
Y695000D01*
X863000D02*
X903000Y735000D01*
X848000Y695000D02*
Y740000D01*
X915745Y820000D02*
X929000D01*
X164400Y629200D02*
Y647600D01*
X903000Y735000D02*
Y807255D01*
X915745Y820000D01*
D54*
X457400Y284000D02*
D03*
X508200D02*
D03*
X559000D02*
D03*
X584400D02*
D03*
X609800D02*
D03*
X482800D02*
D03*
X533600D02*
D03*
X609800Y525000D02*
D03*
X457400D02*
D03*
X533600D02*
D03*
X482800D02*
D03*
X559000D02*
D03*
X584400D02*
D03*
X508200D02*
D03*
X641400Y391800D02*
D03*
Y417200D02*
D03*
Y366400D02*
D03*
Y442600D02*
D03*
Y315600D02*
D03*
Y341000D02*
D03*
Y468000D02*
D03*
X400400Y341000D02*
D03*
Y417200D02*
D03*
Y366400D02*
D03*
Y442600D02*
D03*
Y468000D02*
D03*
Y391800D02*
D03*
Y315600D02*
D03*
D55*
X432000Y284000D02*
D03*
Y525000D02*
D03*
D56*
X631500Y112500D02*
D03*
D57*
Y177500D02*
D03*
X586500Y112500D02*
D03*
Y177500D02*
D03*
D58*
X641400Y493400D02*
D03*
X400400D02*
D03*
M02*
