G04*
G04 #@! TF.GenerationSoftware,Altium Limited,Altium Designer,26.3.0 (6)*
G04*
G04 Layer_Color=32768*
%FSLAX44Y44*%
%MOMM*%
G71*
G04*
G04 #@! TF.SameCoordinates,3AE4C094-AD7F-4364-BC74-3D09489D296B*
G04*
G04*
G04 #@! TF.FilePolarity,Positive*
G04*
G01*
G75*
%ADD12C,0.2000*%
%ADD59C,0.0500*%
D12*
X182050Y194850D02*
Y298850D01*
Y194850D02*
X287650D01*
Y298850D01*
X182050D02*
X287650D01*
X814061Y650500D02*
Y661500D01*
X791939D02*
X814061D01*
X791939Y650500D02*
Y661500D01*
Y650500D02*
X814061D01*
X778061D02*
Y661500D01*
X755939D02*
X778061D01*
X755939Y650500D02*
Y661500D01*
Y650500D02*
X778061D01*
X603061D02*
Y661500D01*
X580939D02*
X603061D01*
X580939Y650500D02*
Y661500D01*
Y650500D02*
X603061D01*
X705939Y273500D02*
X750061D01*
X705939D02*
Y298500D01*
X750061D01*
Y273500D02*
Y298500D01*
X798500Y442939D02*
Y487061D01*
X773500Y442939D02*
X798500D01*
X773500D02*
Y487061D01*
X798500D01*
X820500Y371939D02*
Y416061D01*
X795500Y371939D02*
X820500D01*
X795500D02*
Y416061D01*
X820500D01*
X198500Y802750D02*
Y819250D01*
Y802750D02*
X229500D01*
Y819250D01*
X198500D02*
X229500D01*
X686939Y650500D02*
X709061D01*
X686939D02*
Y661500D01*
X709061D01*
Y650500D02*
Y661500D01*
X744061Y650500D02*
Y661500D01*
X721939D02*
X744061D01*
X721939Y650500D02*
Y661500D01*
Y650500D02*
X744061D01*
X137000Y779100D02*
X169000D01*
Y816900D01*
X137000D02*
X169000D01*
X137000Y779100D02*
Y816900D01*
X238743Y540724D02*
Y564724D01*
Y540724D02*
X272743D01*
Y564724D01*
X238743D02*
X272743D01*
X616939Y650500D02*
X639061D01*
X616939D02*
Y661500D01*
X639061D01*
Y650500D02*
Y661500D01*
X190300Y754500D02*
X229700D01*
Y725500D02*
Y754500D01*
X190300Y725500D02*
X229700D01*
X190300D02*
Y754500D01*
X752939Y185500D02*
X797061D01*
X752939D02*
Y210500D01*
X797061D01*
Y185500D02*
Y210500D01*
X569061Y650500D02*
Y661500D01*
X546939D02*
X569061D01*
X546939Y650500D02*
Y661500D01*
Y650500D02*
X569061D01*
X674061D02*
Y661500D01*
X651939D02*
X674061D01*
X651939Y650500D02*
Y661500D01*
Y650500D02*
X674061D01*
D59*
X263400Y847200D02*
X854000D01*
Y751700D02*
Y847200D01*
X263400Y751700D02*
X854000D01*
X263400D02*
Y847200D01*
X104700Y683200D02*
X200200D01*
X104700Y499000D02*
Y683200D01*
Y499000D02*
X200200D01*
Y683200D01*
X553500Y684000D02*
Y732000D01*
X574500D01*
Y684000D02*
Y732000D01*
X553500Y684000D02*
X574500D01*
X798500Y684000D02*
X819500D01*
Y732000D01*
X798500D02*
X819500D01*
X798500Y684000D02*
Y732000D01*
X1002500Y119000D02*
Y303200D01*
X1098000D01*
Y119000D02*
Y303200D01*
X1002500Y119000D02*
X1098000D01*
X623500Y684000D02*
Y732000D01*
X644500D01*
Y684000D02*
Y732000D01*
X623500Y684000D02*
X644500D01*
X1002500Y687900D02*
X1098000D01*
Y872100D01*
X1002500D02*
X1098000D01*
X1002500Y687900D02*
Y872100D01*
X588500Y684000D02*
Y732000D01*
X609500D01*
Y684000D02*
Y732000D01*
X588500Y684000D02*
X609500D01*
X693500D02*
Y732000D01*
X714500D01*
Y684000D02*
Y732000D01*
X693500Y684000D02*
X714500D01*
X840800Y329000D02*
Y513200D01*
X936300D01*
Y329000D02*
Y513200D01*
X840800Y329000D02*
X936300D01*
X840800Y539000D02*
X936300D01*
Y723200D01*
X840800D02*
X936300D01*
X840800Y539000D02*
Y723200D01*
X1002500Y329000D02*
Y513200D01*
X1098000D01*
Y329000D02*
Y513200D01*
X1002500Y329000D02*
X1098000D01*
X841200Y118600D02*
X936700D01*
Y302800D01*
X841200D02*
X936700D01*
X841200Y118600D02*
Y302800D01*
X728500Y684000D02*
Y732000D01*
X749500D01*
Y684000D02*
Y732000D01*
X728500Y684000D02*
X749500D01*
X658500D02*
Y732000D01*
X679500D01*
Y684000D02*
Y732000D01*
X658500Y684000D02*
X679500D01*
X763500D02*
X784500D01*
Y732000D01*
X763500D02*
X784500D01*
X763500Y684000D02*
Y732000D01*
M02*
