G04*
G04 #@! TF.GenerationSoftware,Altium Limited,Altium Designer,26.3.0 (6)*
G04*
G04 Layer_Color=16711935*
%FSLAX44Y44*%
%MOMM*%
G71*
G04*
G04 #@! TF.SameCoordinates,3AE4C094-AD7F-4364-BC74-3D09489D296B*
G04*
G04*
G04 #@! TF.FilePolarity,Negative*
G04*
G01*
G75*
%ADD38C,3.0000*%
%ADD39C,1.6000*%
G04:AMPARAMS|DCode=40|XSize=1.6mm|YSize=1.6mm|CornerRadius=0.4mm|HoleSize=0mm|Usage=FLASHONLY|Rotation=0.000|XOffset=0mm|YOffset=0mm|HoleType=Round|Shape=RoundedRectangle|*
%AMROUNDEDRECTD40*
21,1,1.6000,0.8000,0,0,0.0*
21,1,0.8000,1.6000,0,0,0.0*
1,1,0.8000,0.4000,-0.4000*
1,1,0.8000,-0.4000,-0.4000*
1,1,0.8000,-0.4000,0.4000*
1,1,0.8000,0.4000,0.4000*
%
%ADD40ROUNDEDRECTD40*%
%ADD41C,2.8000*%
%ADD42R,2.8000X2.8000*%
%ADD43C,1.5500*%
%ADD44R,1.5500X1.5500*%
G04:AMPARAMS|DCode=45|XSize=1.6mm|YSize=1.6mm|CornerRadius=0.4mm|HoleSize=0mm|Usage=FLASHONLY|Rotation=270.000|XOffset=0mm|YOffset=0mm|HoleType=Round|Shape=RoundedRectangle|*
%AMROUNDEDRECTD45*
21,1,1.6000,0.8000,0,0,270.0*
21,1,0.8000,1.6000,0,0,270.0*
1,1,0.8000,-0.4000,-0.4000*
1,1,0.8000,-0.4000,0.4000*
1,1,0.8000,0.4000,0.4000*
1,1,0.8000,0.4000,-0.4000*
%
%ADD45ROUNDEDRECTD45*%
%ADD46R,2.1032X2.1032*%
%ADD47C,2.1032*%
%ADD48R,2.8000X2.8000*%
%ADD49C,0.6350*%
D38*
X0Y0D02*
X1200000D01*
X0Y900000D02*
X1200000D01*
Y0D02*
Y900000D01*
X0Y0D02*
Y900000D01*
D39*
X393600Y786000D02*
D03*
X368200D02*
D03*
X419000Y811400D02*
D03*
X444400D02*
D03*
X342800Y786000D02*
D03*
X469800Y811400D02*
D03*
X495200D02*
D03*
X520600D02*
D03*
X546000D02*
D03*
X571400D02*
D03*
X596800D02*
D03*
X444400Y786000D02*
D03*
X419000D02*
D03*
X749200Y811400D02*
D03*
X723800D02*
D03*
X571400Y786000D02*
D03*
X546000D02*
D03*
X520600D02*
D03*
X495200D02*
D03*
X317400Y811400D02*
D03*
X342800D02*
D03*
X368200D02*
D03*
X393600D02*
D03*
X469800Y786000D02*
D03*
X596800D02*
D03*
X622200D02*
D03*
X647600D02*
D03*
X673000D02*
D03*
X698400D02*
D03*
X622200Y811400D02*
D03*
X647600D02*
D03*
X673000D02*
D03*
X698400D02*
D03*
X723800Y786000D02*
D03*
X749200D02*
D03*
X774600D02*
D03*
X800000D02*
D03*
X774600Y811400D02*
D03*
X800000D02*
D03*
X164400Y603800D02*
D03*
X139000Y553000D02*
D03*
Y603800D02*
D03*
Y578400D02*
D03*
X164400Y553000D02*
D03*
Y578400D02*
D03*
Y629200D02*
D03*
X1063700Y223800D02*
D03*
Y198400D02*
D03*
Y249200D02*
D03*
X1038300Y223800D02*
D03*
Y173000D02*
D03*
Y198400D02*
D03*
Y249200D02*
D03*
X1063700Y767300D02*
D03*
X1038300Y741900D02*
D03*
X1063700Y792700D02*
D03*
X1038300Y767300D02*
D03*
X1063700Y818100D02*
D03*
X1038300Y792700D02*
D03*
Y818100D02*
D03*
X876600Y383000D02*
D03*
X902000Y408400D02*
D03*
X876600D02*
D03*
X902000Y433800D02*
D03*
Y459200D02*
D03*
X876600Y433800D02*
D03*
Y459200D02*
D03*
X876600Y593000D02*
D03*
Y618400D02*
D03*
Y643800D02*
D03*
Y669200D02*
D03*
X902000D02*
D03*
Y643800D02*
D03*
Y618400D02*
D03*
X1038300Y383000D02*
D03*
Y408400D02*
D03*
Y433800D02*
D03*
Y459200D02*
D03*
X1063700Y433800D02*
D03*
Y459200D02*
D03*
Y408400D02*
D03*
X877000Y248800D02*
D03*
Y223400D02*
D03*
X902400D02*
D03*
Y248800D02*
D03*
Y198000D02*
D03*
X877000Y172600D02*
D03*
Y198000D02*
D03*
D40*
X317400Y786000D02*
D03*
D41*
X457400Y284000D02*
D03*
X508200D02*
D03*
X559000D02*
D03*
X584400D02*
D03*
X609800D02*
D03*
X482800D02*
D03*
X533600D02*
D03*
X609800Y525000D02*
D03*
X457400D02*
D03*
X533600D02*
D03*
X482800D02*
D03*
X559000D02*
D03*
X584400D02*
D03*
X508200D02*
D03*
X641400Y391800D02*
D03*
Y417200D02*
D03*
Y366400D02*
D03*
Y442600D02*
D03*
Y315600D02*
D03*
Y341000D02*
D03*
Y468000D02*
D03*
X400400Y341000D02*
D03*
Y417200D02*
D03*
Y366400D02*
D03*
Y442600D02*
D03*
Y468000D02*
D03*
Y391800D02*
D03*
Y315600D02*
D03*
D42*
X432000Y284000D02*
D03*
Y525000D02*
D03*
D43*
X272950Y284950D02*
D03*
X247550D02*
D03*
X222150Y208750D02*
D03*
Y284950D02*
D03*
X196750D02*
D03*
X247550Y208750D02*
D03*
X272950D02*
D03*
D44*
X196750D02*
D03*
D45*
X139000Y629200D02*
D03*
X1063700Y173000D02*
D03*
Y741900D02*
D03*
X902000Y383000D02*
D03*
X902000Y593000D02*
D03*
X1063700Y383000D02*
D03*
X902400Y172600D02*
D03*
D46*
X631500Y112500D02*
D03*
D47*
Y177500D02*
D03*
X586500Y112500D02*
D03*
Y177500D02*
D03*
D48*
X641400Y493400D02*
D03*
X400400D02*
D03*
D49*
X1055000Y315000D02*
D03*
Y670000D02*
D03*
X864000Y775000D02*
D03*
X805000Y435000D02*
D03*
X816000Y490000D02*
D03*
X823000Y527000D02*
D03*
X748000Y525000D02*
D03*
X921000Y740000D02*
D03*
X848000D02*
D03*
X871000Y735000D02*
D03*
X825000Y581000D02*
D03*
X803000Y585000D02*
D03*
X781000Y580000D02*
D03*
X791000Y673000D02*
D03*
X602000Y572000D02*
D03*
X527000Y482000D02*
D03*
X431000Y495000D02*
D03*
X381000Y275000D02*
D03*
X296000Y225000D02*
D03*
X341000Y710000D02*
D03*
X278000Y333000D02*
D03*
X349000Y567000D02*
D03*
X290000Y630000D02*
D03*
X481000Y173000D02*
D03*
X741000Y590000D02*
D03*
X636000Y520000D02*
D03*
X156000Y490000D02*
D03*
X704000Y406000D02*
D03*
X176000Y430000D02*
D03*
X276000Y470000D02*
D03*
X220000Y534000D02*
D03*
X250000Y585000D02*
D03*
X211000Y155000D02*
D03*
X642000Y217000D02*
D03*
X246000Y310000D02*
D03*
X543000Y165000D02*
D03*
X411000Y148000D02*
D03*
X725000Y319000D02*
D03*
X746000Y364000D02*
D03*
X170000Y712000D02*
D03*
X233000Y644000D02*
D03*
X761363Y329350D02*
D03*
X146000Y345000D02*
D03*
X831000Y360000D02*
D03*
X778000Y365000D02*
D03*
X806000Y265000D02*
D03*
X686000Y610000D02*
D03*
X778000Y424000D02*
D03*
X720000Y440000D02*
D03*
X827000Y424000D02*
D03*
X540000Y108000D02*
D03*
X251000Y725000D02*
D03*
X795000Y134000D02*
D03*
X929000Y820000D02*
D03*
X699000Y187000D02*
D03*
X826000Y140000D02*
D03*
X715000Y243000D02*
D03*
X764000Y295000D02*
D03*
X761000Y260000D02*
D03*
X699000Y263000D02*
D03*
X720000Y158000D02*
D03*
X742000Y244000D02*
D03*
X826000Y195000D02*
D03*
X805000Y215000D02*
D03*
X726000D02*
D03*
X821000Y98000D02*
D03*
X694000D02*
D03*
M02*
