G04*
G04 #@! TF.GenerationSoftware,Altium Limited,Altium Designer,26.3.0 (6)*
G04*
G04 Layer_Color=32768*
%FSLAX44Y44*%
%MOMM*%
G71*
G04*
G04 #@! TF.SameCoordinates,3AE4C094-AD7F-4364-BC74-3D09489D296B*
G04*
G04*
G04 #@! TF.FilePolarity,Positive*
G04*
G01*
G75*
%ADD10C,0.1000*%
D10*
X511900Y805365D02*
Y795367D01*
X518566Y805365D02*
Y795367D01*
X511900Y800604D02*
X518566D01*
X527516Y805365D02*
X521327D01*
Y795367D01*
X527516D01*
X521327Y800604D02*
X525136D01*
X536800Y795367D02*
X532991Y805365D01*
X529183Y795367D01*
X530611Y798700D02*
X535372D01*
X539133Y805365D02*
Y795367D01*
Y805365D02*
X542465D01*
X543894Y804889D01*
X544846Y803937D01*
X545322Y802985D01*
X545798Y801556D01*
Y799176D01*
X545322Y797748D01*
X544846Y796796D01*
X543894Y795844D01*
X542465Y795367D01*
X539133D01*
X554225Y805365D02*
X548036D01*
Y795367D01*
X554225D01*
X548036Y800604D02*
X551844D01*
X555891Y805365D02*
Y795367D01*
Y805365D02*
X560176D01*
X561604Y804889D01*
X562080Y804413D01*
X562556Y803461D01*
Y802509D01*
X562080Y801556D01*
X561604Y801080D01*
X560176Y800604D01*
X555891D01*
X559224D02*
X562556Y795367D01*
X564794Y792035D02*
X572411D01*
X574173Y802985D02*
Y803461D01*
X574649Y804413D01*
X575125Y804889D01*
X576077Y805365D01*
X577982D01*
X578934Y804889D01*
X579410Y804413D01*
X579886Y803461D01*
Y802509D01*
X579410Y801556D01*
X578458Y800128D01*
X573697Y795367D01*
X580362D01*
X585456Y805365D02*
X584028Y804889D01*
X583076Y803461D01*
X582600Y801080D01*
Y799652D01*
X583076Y797272D01*
X584028Y795844D01*
X585456Y795367D01*
X586408D01*
X587837Y795844D01*
X588789Y797272D01*
X589265Y799652D01*
Y801080D01*
X588789Y803461D01*
X587837Y804889D01*
X586408Y805365D01*
X585456D01*
X591502Y802033D02*
X596739Y795367D01*
Y802033D02*
X591502Y795367D01*
X599310Y802985D02*
Y803461D01*
X599786Y804413D01*
X600262Y804889D01*
X601215Y805365D01*
X603119D01*
X604071Y804889D01*
X604547Y804413D01*
X605023Y803461D01*
Y802509D01*
X604547Y801556D01*
X603595Y800128D01*
X598834Y795367D01*
X605499D01*
X153128Y637519D02*
Y633234D01*
X153604Y631805D01*
X154080Y631329D01*
X155033Y630853D01*
X156461D01*
X157413Y631329D01*
X157889Y631805D01*
X158365Y633234D01*
Y637519D01*
X148367D01*
X155033Y626235D02*
X154557Y627188D01*
X153604Y628140D01*
X152176Y628616D01*
X151224D01*
X149796Y628140D01*
X148843Y627188D01*
X148367Y626235D01*
Y624807D01*
X148843Y623855D01*
X149796Y622903D01*
X151224Y622427D01*
X152176D01*
X153604Y622903D01*
X154557Y623855D01*
X155033Y624807D01*
Y626235D01*
Y620237D02*
X148367Y618332D01*
X155033Y616428D02*
X148367Y618332D01*
X155033Y616428D02*
X148367Y614524D01*
X155033Y612619D02*
X148367Y614524D01*
X152176Y610286D02*
Y604573D01*
X153128D01*
X154080Y605049D01*
X154557Y605525D01*
X155033Y606478D01*
Y607906D01*
X154557Y608858D01*
X153604Y609810D01*
X152176Y610286D01*
X151224D01*
X149796Y609810D01*
X148843Y608858D01*
X148367Y607906D01*
Y606478D01*
X148843Y605525D01*
X149796Y604573D01*
X155033Y602431D02*
X148367D01*
X152176D02*
X153604Y601955D01*
X154557Y601003D01*
X155033Y600050D01*
Y598622D01*
X145035Y597718D02*
Y590100D01*
X158365Y588815D02*
X148367D01*
X153128D02*
X154557Y587387D01*
X155033Y586434D01*
Y585006D01*
X154557Y584054D01*
X153128Y583578D01*
X148367D01*
X152176Y580959D02*
Y575246D01*
X153128D01*
X154080Y575722D01*
X154557Y576198D01*
X155033Y577151D01*
Y578579D01*
X154557Y579531D01*
X153604Y580483D01*
X152176Y580959D01*
X151224D01*
X149796Y580483D01*
X148843Y579531D01*
X148367Y578579D01*
Y577151D01*
X148843Y576198D01*
X149796Y575246D01*
X155033Y567391D02*
X148367D01*
X153604D02*
X154557Y568343D01*
X155033Y569295D01*
Y570723D01*
X154557Y571676D01*
X153604Y572628D01*
X152176Y573104D01*
X151224D01*
X149796Y572628D01*
X148843Y571676D01*
X148367Y570723D01*
Y569295D01*
X148843Y568343D01*
X149796Y567391D01*
X158365Y559012D02*
X148367D01*
X153604D02*
X154557Y559964D01*
X155033Y560916D01*
Y562344D01*
X154557Y563296D01*
X153604Y564249D01*
X152176Y564725D01*
X151224D01*
X149796Y564249D01*
X148843Y563296D01*
X148367Y562344D01*
Y560916D01*
X148843Y559964D01*
X149796Y559012D01*
X152176Y556345D02*
Y550633D01*
X153128D01*
X154080Y551109D01*
X154557Y551585D01*
X155033Y552537D01*
Y553965D01*
X154557Y554917D01*
X153604Y555869D01*
X152176Y556345D01*
X151224D01*
X149796Y555869D01*
X148843Y554917D01*
X148367Y553965D01*
Y552537D01*
X148843Y551585D01*
X149796Y550633D01*
X155033Y548490D02*
X148367D01*
X152176D02*
X153604Y548014D01*
X154557Y547062D01*
X155033Y546110D01*
Y544681D01*
X559002Y691339D02*
X568998D01*
Y698003D01*
X559002Y708000D02*
Y701336D01*
X568998D01*
Y708000D01*
X564000Y701336D02*
Y704668D01*
X559002Y711332D02*
X568998D01*
Y716331D01*
X567332Y717997D01*
X560668D01*
X559002Y716331D01*
Y711332D01*
X568998Y721329D02*
Y724661D01*
Y722995D01*
X559002D01*
X560668Y721329D01*
X804002Y689673D02*
X813998D01*
Y696337D01*
X804002Y706334D02*
Y699669D01*
X813998D01*
Y706334D01*
X809000Y699669D02*
Y703002D01*
X804002Y709666D02*
X813998D01*
Y714665D01*
X812332Y716331D01*
X805668D01*
X804002Y714665D01*
Y709666D01*
X805668Y719663D02*
X804002Y721329D01*
Y724661D01*
X805668Y726327D01*
X807334D01*
X809000Y724661D01*
X810666Y726327D01*
X812332D01*
X813998Y724661D01*
Y721329D01*
X812332Y719663D01*
X810666D01*
X809000Y721329D01*
X807334Y719663D01*
X805668D01*
X809000Y721329D02*
Y724661D01*
X1044573Y147733D02*
X1054571D01*
X1044573D02*
X1054571Y154398D01*
X1044573D02*
X1054571D01*
X1047905Y159540D02*
X1048382Y158588D01*
X1049334Y157635D01*
X1050762Y157159D01*
X1051714D01*
X1053142Y157635D01*
X1054095Y158588D01*
X1054571Y159540D01*
Y160968D01*
X1054095Y161920D01*
X1053142Y162872D01*
X1051714Y163348D01*
X1050762D01*
X1049334Y162872D01*
X1048382Y161920D01*
X1047905Y160968D01*
Y159540D01*
X1057903Y165538D02*
Y173156D01*
X1047905Y174441D02*
X1054571D01*
X1049810D02*
X1048382Y175870D01*
X1047905Y176822D01*
Y178250D01*
X1048382Y179202D01*
X1049810Y179678D01*
X1054571D01*
X1050762Y182297D02*
Y188010D01*
X1049810D01*
X1048858Y187534D01*
X1048382Y187058D01*
X1047905Y186105D01*
Y184677D01*
X1048382Y183725D01*
X1049334Y182773D01*
X1050762Y182297D01*
X1051714D01*
X1053142Y182773D01*
X1054095Y183725D01*
X1054571Y184677D01*
Y186105D01*
X1054095Y187058D01*
X1053142Y188010D01*
X1050762Y190152D02*
Y195865D01*
X1049810D01*
X1048858Y195389D01*
X1048382Y194913D01*
X1047905Y193961D01*
Y192533D01*
X1048382Y191580D01*
X1049334Y190628D01*
X1050762Y190152D01*
X1051714D01*
X1053142Y190628D01*
X1054095Y191580D01*
X1054571Y192533D01*
Y193961D01*
X1054095Y194913D01*
X1053142Y195865D01*
X1044573Y203721D02*
X1054571D01*
X1049334D02*
X1048382Y202768D01*
X1047905Y201816D01*
Y200388D01*
X1048382Y199436D01*
X1049334Y198484D01*
X1050762Y198008D01*
X1051714D01*
X1053142Y198484D01*
X1054095Y199436D01*
X1054571Y200388D01*
Y201816D01*
X1054095Y202768D01*
X1053142Y203721D01*
X1050762Y206387D02*
Y212100D01*
X1049810D01*
X1048858Y211624D01*
X1048382Y211148D01*
X1047905Y210195D01*
Y208767D01*
X1048382Y207815D01*
X1049334Y206863D01*
X1050762Y206387D01*
X1051714D01*
X1053142Y206863D01*
X1054095Y207815D01*
X1054571Y208767D01*
Y210195D01*
X1054095Y211148D01*
X1053142Y212100D01*
X1044573Y219955D02*
X1054571D01*
X1049334D02*
X1048382Y219003D01*
X1047905Y218051D01*
Y216623D01*
X1048382Y215671D01*
X1049334Y214718D01*
X1050762Y214242D01*
X1051714D01*
X1053142Y214718D01*
X1054095Y215671D01*
X1054571Y216623D01*
Y218051D01*
X1054095Y219003D01*
X1053142Y219955D01*
X1057903Y222621D02*
Y230239D01*
X1049334Y236761D02*
X1048382Y236285D01*
X1047905Y234857D01*
Y233429D01*
X1048382Y232000D01*
X1049334Y231524D01*
X1050286Y232000D01*
X1050762Y232952D01*
X1051238Y235333D01*
X1051714Y236285D01*
X1052666Y236761D01*
X1053142D01*
X1054095Y236285D01*
X1054571Y234857D01*
Y233429D01*
X1054095Y232000D01*
X1053142Y231524D01*
X1044573Y239808D02*
X1045049Y240284D01*
X1044573Y240760D01*
X1044097Y240284D01*
X1044573Y239808D01*
X1047905Y240284D02*
X1054571D01*
X1047905Y248235D02*
X1055523D01*
X1056951Y247759D01*
X1057427Y247283D01*
X1057903Y246331D01*
Y244902D01*
X1057427Y243950D01*
X1049334Y248235D02*
X1048382Y247283D01*
X1047905Y246331D01*
Y244902D01*
X1048382Y243950D01*
X1049334Y242998D01*
X1050762Y242522D01*
X1051714D01*
X1053142Y242998D01*
X1054095Y243950D01*
X1054571Y244902D01*
Y246331D01*
X1054095Y247283D01*
X1053142Y248235D01*
X1047905Y250901D02*
X1054571D01*
X1049810D02*
X1048382Y252329D01*
X1047905Y253281D01*
Y254710D01*
X1048382Y255662D01*
X1049810Y256138D01*
X1054571D01*
X1047905Y264470D02*
X1054571D01*
X1049334D02*
X1048382Y263517D01*
X1047905Y262565D01*
Y261137D01*
X1048382Y260185D01*
X1049334Y259233D01*
X1050762Y258757D01*
X1051714D01*
X1053142Y259233D01*
X1054095Y260185D01*
X1054571Y261137D01*
Y262565D01*
X1054095Y263517D01*
X1053142Y264470D01*
X1044573Y267136D02*
X1054571D01*
X1049334Y274467D02*
X1048382Y273991D01*
X1047905Y272563D01*
Y271135D01*
X1048382Y269706D01*
X1049334Y269230D01*
X1050286Y269706D01*
X1050762Y270659D01*
X1051238Y273039D01*
X1051714Y273991D01*
X1052666Y274467D01*
X1053142D01*
X1054095Y273991D01*
X1054571Y272563D01*
Y271135D01*
X1054095Y269706D01*
X1053142Y269230D01*
X629002Y689673D02*
X638998D01*
Y696337D01*
X629002Y706334D02*
Y699669D01*
X638998D01*
Y706334D01*
X634000Y699669D02*
Y703002D01*
X629002Y709666D02*
X638998D01*
Y714665D01*
X637332Y716331D01*
X630668D01*
X629002Y714665D01*
Y709666D01*
X630668Y719663D02*
X629002Y721329D01*
Y724661D01*
X630668Y726327D01*
X632334D01*
X634000Y724661D01*
Y722995D01*
Y724661D01*
X635666Y726327D01*
X637332D01*
X638998Y724661D01*
Y721329D01*
X637332Y719663D01*
X1044335Y713776D02*
X1044811Y712824D01*
X1045763Y711872D01*
X1046715Y711396D01*
X1048143Y710920D01*
X1050524D01*
X1051952Y711396D01*
X1052904Y711872D01*
X1053857Y712824D01*
X1054333Y713776D01*
Y715680D01*
X1053857Y716633D01*
X1052904Y717585D01*
X1051952Y718061D01*
X1050524Y718537D01*
X1048143D01*
X1046715Y718061D01*
X1045763Y717585D01*
X1044811Y716633D01*
X1044335Y715680D01*
Y713776D01*
Y720870D02*
X1054333D01*
Y726583D01*
X1044335Y733867D02*
Y727678D01*
X1054333D01*
Y733867D01*
X1049096Y727678D02*
Y731487D01*
X1044335Y735533D02*
X1054333D01*
X1044335D02*
Y738866D01*
X1044811Y740294D01*
X1045763Y741246D01*
X1046715Y741722D01*
X1048143Y742199D01*
X1050524D01*
X1051952Y741722D01*
X1052904Y741246D01*
X1053857Y740294D01*
X1054333Y738866D01*
Y735533D01*
X1057665Y744436D02*
Y752054D01*
X1045763Y760004D02*
X1044811Y759052D01*
X1044335Y757624D01*
Y755720D01*
X1044811Y754291D01*
X1045763Y753339D01*
X1046715D01*
X1047667Y753815D01*
X1048143Y754291D01*
X1048620Y755243D01*
X1049572Y758100D01*
X1050048Y759052D01*
X1050524Y759528D01*
X1051476Y760004D01*
X1052904D01*
X1053857Y759052D01*
X1054333Y757624D01*
Y755720D01*
X1053857Y754291D01*
X1052904Y753339D01*
X1046715Y769383D02*
X1045763Y768907D01*
X1044811Y767955D01*
X1044335Y767003D01*
Y765098D01*
X1044811Y764146D01*
X1045763Y763194D01*
X1046715Y762718D01*
X1048143Y762242D01*
X1050524D01*
X1051952Y762718D01*
X1052904Y763194D01*
X1053857Y764146D01*
X1054333Y765098D01*
Y767003D01*
X1053857Y767955D01*
X1052904Y768907D01*
X1051952Y769383D01*
X1044335Y772192D02*
X1054333D01*
X1044335D02*
Y776477D01*
X1044811Y777905D01*
X1045287Y778381D01*
X1046239Y778857D01*
X1047191D01*
X1048143Y778381D01*
X1048620Y777905D01*
X1049096Y776477D01*
Y772192D01*
Y775525D02*
X1054333Y778857D01*
X1044335Y787284D02*
Y781095D01*
X1054333D01*
Y787284D01*
X1049096Y781095D02*
Y784904D01*
X1044335Y795140D02*
Y788951D01*
X1054333D01*
Y795140D01*
X1049096Y788951D02*
Y792759D01*
X1044335Y796806D02*
X1054333D01*
X1044335D02*
X1054333Y803471D01*
X1044335D02*
X1054333D01*
X1057665Y806233D02*
Y813850D01*
X1044335Y815135D02*
X1054333D01*
X1044335D02*
Y819420D01*
X1044811Y820848D01*
X1045287Y821324D01*
X1046239Y821801D01*
X1047191D01*
X1048143Y821324D01*
X1048620Y820848D01*
X1049096Y819420D01*
Y815135D02*
Y819420D01*
X1049572Y820848D01*
X1050048Y821324D01*
X1051000Y821801D01*
X1052428D01*
X1053380Y821324D01*
X1053857Y820848D01*
X1054333Y819420D01*
Y815135D01*
Y831656D02*
X1044335Y827847D01*
X1054333Y824038D01*
X1051000Y825466D02*
Y830227D01*
X1045763Y840654D02*
X1044811Y839702D01*
X1044335Y838273D01*
Y836369D01*
X1044811Y834941D01*
X1045763Y833988D01*
X1046715D01*
X1047667Y834464D01*
X1048143Y834941D01*
X1048620Y835893D01*
X1049572Y838749D01*
X1050048Y839702D01*
X1050524Y840178D01*
X1051476Y840654D01*
X1052904D01*
X1053857Y839702D01*
X1054333Y838273D01*
Y836369D01*
X1053857Y834941D01*
X1052904Y833988D01*
X1044335Y849080D02*
Y842891D01*
X1054333D01*
Y849080D01*
X1049096Y842891D02*
Y846700D01*
X594002Y689673D02*
X603998D01*
Y696337D01*
X594002Y706334D02*
Y699669D01*
X603998D01*
Y706334D01*
X599000Y699669D02*
Y703002D01*
X594002Y709666D02*
X603998D01*
Y714665D01*
X602332Y716331D01*
X595668D01*
X594002Y714665D01*
Y709666D01*
X603998Y726327D02*
Y719663D01*
X597334Y726327D01*
X595668D01*
X594002Y724661D01*
Y721329D01*
X595668Y719663D01*
X699002Y689673D02*
X708998D01*
Y696337D01*
X699002Y706334D02*
Y699669D01*
X708998D01*
Y706334D01*
X704000Y699669D02*
Y703002D01*
X699002Y709666D02*
X708998D01*
Y714665D01*
X707332Y716331D01*
X700668D01*
X699002Y714665D01*
Y709666D01*
Y726327D02*
Y719663D01*
X704000D01*
X702334Y722995D01*
Y724661D01*
X704000Y726327D01*
X707332D01*
X708998Y724661D01*
Y721329D01*
X707332Y719663D01*
X882635Y387393D02*
X892633D01*
Y393106D01*
X884063Y400866D02*
X883111Y399914D01*
X882635Y398486D01*
Y396581D01*
X883111Y395153D01*
X884063Y394201D01*
X885015D01*
X885967Y394677D01*
X886443Y395153D01*
X886920Y396105D01*
X887872Y398962D01*
X888348Y399914D01*
X888824Y400390D01*
X889776Y400866D01*
X891204D01*
X892157Y399914D01*
X892633Y398486D01*
Y396581D01*
X892157Y395153D01*
X891204Y394201D01*
X895965Y403104D02*
Y410721D01*
X882635Y414863D02*
X883111Y413911D01*
X884063Y412959D01*
X885015Y412483D01*
X886443Y412007D01*
X888824D01*
X890252Y412483D01*
X891204Y412959D01*
X892157Y413911D01*
X892633Y414863D01*
Y416768D01*
X892157Y417720D01*
X891204Y418672D01*
X890252Y419148D01*
X888824Y419624D01*
X886443D01*
X885015Y419148D01*
X884063Y418672D01*
X883111Y417720D01*
X882635Y416768D01*
Y414863D01*
Y421957D02*
X889776D01*
X891204Y422433D01*
X892157Y423385D01*
X892633Y424813D01*
Y425766D01*
X892157Y427194D01*
X891204Y428146D01*
X889776Y428622D01*
X882635D01*
Y434716D02*
X892633D01*
X882635Y431384D02*
Y438049D01*
X895965Y439239D02*
Y446856D01*
X885015Y448618D02*
X884539D01*
X883587Y449094D01*
X883111Y449570D01*
X882635Y450522D01*
Y452427D01*
X883111Y453379D01*
X883587Y453855D01*
X884539Y454331D01*
X885491D01*
X886443Y453855D01*
X887872Y452903D01*
X892633Y448142D01*
Y454807D01*
X885015Y590918D02*
X884063Y590442D01*
X883111Y589490D01*
X882635Y588538D01*
Y586633D01*
X883111Y585681D01*
X884063Y584729D01*
X885015Y584253D01*
X886443Y583777D01*
X888824D01*
X890252Y584253D01*
X891204Y584729D01*
X892157Y585681D01*
X892633Y586633D01*
Y588538D01*
X892157Y589490D01*
X891204Y590442D01*
X890252Y590918D01*
X888824D01*
Y588538D02*
Y590918D01*
X887872Y593203D02*
Y597488D01*
X887396Y598917D01*
X886919Y599393D01*
X885967Y599869D01*
X884539D01*
X883587Y599393D01*
X883111Y598917D01*
X882635Y597488D01*
Y593203D01*
X892633D01*
X882635Y602106D02*
X892633D01*
X882635Y607058D02*
X883111Y606105D01*
X884063Y605153D01*
X885015Y604677D01*
X886443Y604201D01*
X888824D01*
X890252Y604677D01*
X891204Y605153D01*
X892157Y606105D01*
X892633Y607058D01*
Y608962D01*
X892157Y609914D01*
X891204Y610866D01*
X890252Y611342D01*
X888824Y611818D01*
X886443D01*
X885015Y611342D01*
X884063Y610866D01*
X883111Y609914D01*
X882635Y608962D01*
Y607058D01*
X884063Y620816D02*
X883111Y619864D01*
X882635Y618436D01*
Y616532D01*
X883111Y615103D01*
X884063Y614151D01*
X885015D01*
X885967Y614627D01*
X886443Y615103D01*
X886919Y616056D01*
X887872Y618912D01*
X888348Y619864D01*
X888824Y620340D01*
X889776Y620816D01*
X891204D01*
X892157Y619864D01*
X892633Y618436D01*
Y616532D01*
X892157Y615103D01*
X891204Y614151D01*
X895965Y623054D02*
Y630672D01*
X882635Y631957D02*
X892633D01*
Y637670D01*
X882635Y644954D02*
Y638765D01*
X892633D01*
Y644954D01*
X887396Y638765D02*
Y642574D01*
X882635Y646620D02*
X892633D01*
X882635D02*
Y649953D01*
X883111Y651381D01*
X884063Y652334D01*
X885015Y652810D01*
X886443Y653286D01*
X888824D01*
X890252Y652810D01*
X891204Y652334D01*
X892157Y651381D01*
X892633Y649953D01*
Y646620D01*
X887396Y660760D02*
X886443Y660284D01*
X885967Y658856D01*
Y657428D01*
X886443Y655999D01*
X887396Y655523D01*
X888348Y655999D01*
X888824Y656952D01*
X889300Y659332D01*
X889776Y660284D01*
X890728Y660760D01*
X891204D01*
X892157Y660284D01*
X892633Y658856D01*
Y657428D01*
X892157Y655999D01*
X891204Y655523D01*
X895965Y662855D02*
Y670472D01*
X882635Y674614D02*
X883111Y673186D01*
X884539Y672234D01*
X886919Y671758D01*
X888348D01*
X890728Y672234D01*
X892157Y673186D01*
X892633Y674614D01*
Y675567D01*
X892157Y676995D01*
X890728Y677947D01*
X888348Y678423D01*
X886919D01*
X884539Y677947D01*
X883111Y676995D01*
X882635Y675567D01*
Y674614D01*
X1046715Y377562D02*
X1045763Y377086D01*
X1044811Y376133D01*
X1044335Y375181D01*
Y373277D01*
X1044811Y372325D01*
X1045763Y371373D01*
X1046715Y370896D01*
X1048143Y370420D01*
X1050524D01*
X1051952Y370896D01*
X1052904Y371373D01*
X1053857Y372325D01*
X1054333Y373277D01*
Y375181D01*
X1053857Y376133D01*
X1052904Y377086D01*
X1051952Y377562D01*
X1050524D01*
Y375181D02*
Y377562D01*
X1049572Y379847D02*
Y384132D01*
X1049096Y385560D01*
X1048620Y386036D01*
X1047667Y386512D01*
X1046239D01*
X1045287Y386036D01*
X1044811Y385560D01*
X1044335Y384132D01*
Y379847D01*
X1054333D01*
X1044335Y388750D02*
X1054333D01*
X1044335Y393701D02*
X1044811Y392749D01*
X1045763Y391797D01*
X1046715Y391321D01*
X1048143Y390845D01*
X1050524D01*
X1051952Y391321D01*
X1052904Y391797D01*
X1053857Y392749D01*
X1054333Y393701D01*
Y395606D01*
X1053857Y396558D01*
X1052904Y397510D01*
X1051952Y397986D01*
X1050524Y398462D01*
X1048143D01*
X1046715Y397986D01*
X1045763Y397510D01*
X1044811Y396558D01*
X1044335Y395606D01*
Y393701D01*
X1045763Y407460D02*
X1044811Y406508D01*
X1044335Y405080D01*
Y403175D01*
X1044811Y401747D01*
X1045763Y400795D01*
X1046715D01*
X1047667Y401271D01*
X1048143Y401747D01*
X1048620Y402699D01*
X1049572Y405556D01*
X1050048Y406508D01*
X1050524Y406984D01*
X1051476Y407460D01*
X1052904D01*
X1053857Y406508D01*
X1054333Y405080D01*
Y403175D01*
X1053857Y401747D01*
X1052904Y400795D01*
X1057665Y409698D02*
Y417315D01*
X1044335Y418601D02*
X1054333D01*
X1044335D02*
Y421933D01*
X1044811Y423361D01*
X1045763Y424314D01*
X1046715Y424790D01*
X1048143Y425266D01*
X1050524D01*
X1051952Y424790D01*
X1052904Y424314D01*
X1053857Y423361D01*
X1054333Y421933D01*
Y418601D01*
X1044335Y427503D02*
X1054333D01*
X1045763Y436263D02*
X1044811Y435311D01*
X1044335Y433883D01*
Y431979D01*
X1044811Y430550D01*
X1045763Y429598D01*
X1046715D01*
X1047667Y430074D01*
X1048143Y430550D01*
X1048620Y431502D01*
X1049572Y434359D01*
X1050048Y435311D01*
X1050524Y435787D01*
X1051476Y436263D01*
X1052904D01*
X1053857Y435311D01*
X1054333Y433883D01*
Y431979D01*
X1053857Y430550D01*
X1052904Y429598D01*
X1049572Y438501D02*
Y442786D01*
X1049096Y444214D01*
X1048620Y444690D01*
X1047667Y445166D01*
X1046239D01*
X1045287Y444690D01*
X1044811Y444214D01*
X1044335Y442786D01*
Y438501D01*
X1054333D01*
X1044335Y447404D02*
X1054333D01*
Y453117D01*
Y461829D02*
X1044335Y458021D01*
X1054333Y454212D01*
X1051000Y455640D02*
Y460401D01*
X1044335Y464162D02*
X1049096Y467971D01*
X1054333D01*
X1044335Y471780D02*
X1049096Y467971D01*
X883035Y179135D02*
X893033D01*
Y184848D01*
X884463Y192609D02*
X883511Y191656D01*
X883035Y190228D01*
Y188324D01*
X883511Y186896D01*
X884463Y185943D01*
X885415D01*
X886367Y186420D01*
X886843Y186896D01*
X887319Y187848D01*
X888272Y190704D01*
X888748Y191656D01*
X889224Y192133D01*
X890176Y192609D01*
X891604D01*
X892557Y191656D01*
X893033Y190228D01*
Y188324D01*
X892557Y186896D01*
X891604Y185943D01*
X896365Y194846D02*
Y202464D01*
X883035Y206606D02*
X883511Y205653D01*
X884463Y204701D01*
X885415Y204225D01*
X886843Y203749D01*
X889224D01*
X890652Y204225D01*
X891604Y204701D01*
X892557Y205653D01*
X893033Y206606D01*
Y208510D01*
X892557Y209462D01*
X891604Y210414D01*
X890652Y210891D01*
X889224Y211367D01*
X886843D01*
X885415Y210891D01*
X884463Y210414D01*
X883511Y209462D01*
X883035Y208510D01*
Y206606D01*
Y213699D02*
X890176D01*
X891604Y214175D01*
X892557Y215128D01*
X893033Y216556D01*
Y217508D01*
X892557Y218936D01*
X891604Y219888D01*
X890176Y220365D01*
X883035D01*
Y226459D02*
X893033D01*
X883035Y223126D02*
Y229791D01*
X896365Y230981D02*
Y238599D01*
X884939Y239884D02*
X884463Y240836D01*
X883035Y242265D01*
X893033D01*
X734002Y689673D02*
X743998D01*
Y696337D01*
X734002Y706334D02*
Y699669D01*
X743998D01*
Y706334D01*
X739000Y699669D02*
Y703002D01*
X734002Y709666D02*
X743998D01*
Y714665D01*
X742332Y716331D01*
X735668D01*
X734002Y714665D01*
Y709666D01*
Y726327D02*
X735668Y722995D01*
X739000Y719663D01*
X742332D01*
X743998Y721329D01*
Y724661D01*
X742332Y726327D01*
X740666D01*
X739000Y724661D01*
Y719663D01*
X664002Y689673D02*
X673998D01*
Y696337D01*
X664002Y706334D02*
Y699669D01*
X673998D01*
Y706334D01*
X669000Y699669D02*
Y703002D01*
X664002Y709666D02*
X673998D01*
Y714665D01*
X672332Y716331D01*
X665668D01*
X664002Y714665D01*
Y709666D01*
X673998Y724661D02*
X664002D01*
X669000Y719663D01*
Y726327D01*
X769002Y689673D02*
X778998D01*
Y696337D01*
X769002Y706334D02*
Y699669D01*
X778998D01*
Y706334D01*
X774000Y699669D02*
Y703002D01*
X769002Y709666D02*
X778998D01*
Y714665D01*
X777332Y716331D01*
X770668D01*
X769002Y714665D01*
Y709666D01*
Y719663D02*
Y726327D01*
X770668D01*
X777332Y719663D01*
X778998D01*
M02*
