G04*
G04 #@! TF.GenerationSoftware,Altium Limited,Altium Designer,26.3.0 (6)*
G04*
G04 Layer_Color=16711935*
%FSLAX44Y44*%
%MOMM*%
G71*
G04*
G04 #@! TF.SameCoordinates,3AE4C094-AD7F-4364-BC74-3D09489D296B*
G04*
G04*
G04 #@! TF.FilePolarity,Positive*
G04*
G01*
G75*
%ADD59C,0.0500*%
D59*
X228920Y439730D02*
X229920D01*
X229420D01*
Y442729D01*
X228920Y442229D01*
X231419Y439730D02*
Y440230D01*
X231919D01*
Y439730D01*
X231419D01*
X233918Y442229D02*
X234418Y442729D01*
X235418D01*
X235918Y442229D01*
Y440230D01*
X235418Y439730D01*
X234418D01*
X233918Y440230D01*
Y442229D01*
X236917Y439230D02*
X238917D01*
X239916Y442729D02*
Y440730D01*
X240916Y439730D01*
X241916Y440730D01*
Y442729D01*
X242915Y439230D02*
X244915D01*
X245914Y439730D02*
Y442729D01*
X247414D01*
X247914Y442229D01*
Y441230D01*
X247414Y440730D01*
X245914D01*
X246914D02*
X247914Y439730D01*
X250913Y442729D02*
X248913D01*
Y439730D01*
X250913D01*
X248913Y441230D02*
X249913D01*
X253912Y442229D02*
X253412Y442729D01*
X252412D01*
X251912Y442229D01*
Y440230D01*
X252412Y439730D01*
X253412D01*
X253912Y440230D01*
Y441230D01*
X252912D01*
X254912Y442729D02*
Y440230D01*
X255411Y439730D01*
X256411D01*
X256911Y440230D01*
Y442729D01*
X257911D02*
Y439730D01*
X259910D01*
X260910D02*
Y441729D01*
X261909Y442729D01*
X262909Y441729D01*
Y439730D01*
Y441230D01*
X260910D01*
X263909Y442729D02*
X265908D01*
X264908D01*
Y439730D01*
X268407Y442729D02*
X267407D01*
X266908Y442229D01*
Y440230D01*
X267407Y439730D01*
X268407D01*
X268907Y440230D01*
Y442229D01*
X268407Y442729D01*
X269907Y439730D02*
Y442729D01*
X271406D01*
X271906Y442229D01*
Y441230D01*
X271406Y440730D01*
X269907D01*
X270906D02*
X271906Y439730D01*
M02*
